<svg xmlns="http://www.w3.org/2000/svg">
<defs>
<font id="DBHelvethaicaMonX-66MedIt" horiz-adv-x="0" >
  <font-face 
    font-family="DB HelvethaicaMon X 66 MedIt"
    font-weight="500"
    font-style="italic"
    font-stretch="normal"
    units-per-em="4096"
    panose-1="2 0 5 6 9 0 0 2 0 4"
    ascent="3276"
    descent="-820"
    x-height="1453"
    cap-height="2018"
    bbox="-1686.6 -1339 3676.77 3317"
    underline-thickness="82"
    underline-position="-627"
    unicode-range="U+0020-F882"
  />
<missing-glyph horiz-adv-x="1151" 
d="M1175 1114v-41h16q20 0 20 29q-1 3 -4 6q-6 6 -16 6h-16zM1183 1069h-8v-37h-13v94h29q15 0 24 -6t9 -18q0 -25 -8.5 -29t-20.5 -4l29 -37h-13zM1191 1020q17 0 28.5 5.5t19 13.5t10.5 17t3 17q0 34 -16.5 50t-44.5 16t-47 -16t-19 -50q0 -22 14.5 -37.5t51.5 -15.5z
M1191 1147q34 0 52 -20t18 -54q0 -22 -18 -41.5t-52 -19.5q-37 0 -55.5 19.5t-18.5 41.5q0 34 18.5 54t55.5 20zM560 881q27 -3 63.5 -7.5t76.5 -10.5t81.5 -13.5t78.5 -16.5t65.5 -19.5t44.5 -22.5q-29 54 -75 96.5t-101.5 72t-116.5 45t-121 15.5q-48 0 -94.5 -9
t-89 -27.5t-78.5 -46.5t-62 -65q50 4 101 6.5t100 2.5h127zM1048 1102v-397q-140 40 -311.5 69t-360.5 29q-133 0 -262 -12q12 61 48.5 117.5t93.5 99.5t132 68.5t164 25.5q86 0 155 -19.5t121.5 -48.5t88 -62t53.5 -59v189h78zM425 352q0 25 -15 35t-30 10q-25 0 -37 -10
t-12 -35q0 -41 49 -41q15 0 30 10t15 31zM89 389q0 63 25.5 112.5t67 83.5t94.5 52t108 18q57 0 108.5 -15.5t90 -47.5t61.5 -80.5t23 -114.5v-323h303v565h78v-635h-533v70h82v332q0 44 -16.5 76.5t-45 53.5t-66.5 31.5t-81 10.5t-83 -12t-70.5 -35.5t-49 -57t-18.5 -76.5
v-295l164 164q-6 1 -16.5 7.5t-20.5 17t-17.5 26t-7.5 35.5q0 53 31 82t84 29q23 0 43 -8.5t35 -23.5t24 -35.5t9 -43.5q0 -18 -5.5 -33.5t-13 -26.5t-16.5 -18t-15 -8q-2 -6 -14.5 -18.5t-31.5 -30.5t-42.5 -41t-46.5 -49q-31 -28 -64 -58.5t-67 -64.5h-90v385z" />
    <glyph glyph-name="plusminus" unicode="&#x2b;&#x2d;" horiz-adv-x="1679" 
d="M1062 1671q7 35 22.5 64.5t37.5 51t49 33.5t58 12q62 0 88 -45t11 -116l-96 -449h446q73 0 110 -35t24 -95t-64.5 -95t-124.5 -35h-446l-96 -450q-7 -35 -22.5 -64.5t-37.5 -50.5t-49 -33t-58 -12q-62 0 -87.5 45t-11.5 115l96 450h-446q-36 0 -63.5 11t-45 29t-24 41.5
t-0.5 48.5q13 60 64 95t124 35h446zM1474 260q73 0 109.5 -35t23.5 -95t-64 -95t-124 -35h-1158q-36 0 -63.5 11t-45 29t-24 41.5t-1.5 48.5q13 60 64.5 95t124.5 35h1158z" />
    <glyph glyph-name="ellipsis" unicode="&#x2e;&#x2e;&#x2e;" horiz-adv-x="2777" 
d="M292 196q9 43 34 81.5t60 67.5t76.5 45.5t85.5 16.5q43 0 78 -16.5t57.5 -45.5t31 -67.5t-0.5 -81.5q-9 -44 -34 -82t-59.5 -67t-77 -45.5t-85.5 -16.5q-44 0 -78.5 16.5t-57 45.5t-31 67t0.5 82zM1215 196q9 43 34 81.5t60 67.5t76.5 45.5t85.5 16.5q43 0 78 -16.5
t57.5 -45.5t31 -67.5t-0.5 -81.5q-9 -44 -34 -82t-59.5 -67t-77 -45.5t-85.5 -16.5q-44 0 -78.5 16.5t-57 45.5t-31 67t0.5 82zM2140 196q9 43 34 81.5t60 67.5t76.5 45.5t85.5 16.5q43 0 78 -16.5t57.5 -45.5t31 -67.5t-0.5 -81.5q-9 -44 -34 -82t-59.5 -67t-77 -45.5
t-85.5 -16.5q-44 0 -78.5 16.5t-57 45.5t-31 67t0.5 82z" />
    <glyph glyph-name="lessequal" unicode="&#x3c;&#x3d;" horiz-adv-x="1786" 
d="M804 1131l840 -404q26 -14 47.5 -31.5t32.5 -41t8 -52.5t-27 -66q-28 -44 -60.5 -62.5t-66.5 -20.5t-68 9.5t-65 27.5l-999 509q-32 17 -49 52.5t-8 79.5t41 79.5t72 52.5l1238 517q40 17 77.5 26.5t67.5 5t50.5 -25.5t28.5 -65q6 -33 -4.5 -61.5t-31.5 -51.5
t-49.5 -40.5t-59.5 -30.5zM1500 270q33 0 60.5 -7t45.5 -23t25.5 -41.5t-0.5 -62.5q-8 -38 -26 -64t-43 -42t-55.5 -23t-63.5 -7h-1136q-33 0 -61 7t-46.5 23t-25.5 42t1 64q8 37 26 62.5t43 41.5t56 23t64 7h1136z" />
    <glyph glyph-name="greaterequal" unicode="&#x3e;&#x3d;" horiz-adv-x="1786" 
d="M619 1537q-26 13 -47 30.5t-32 40.5t-9.5 51.5t21.5 61.5q26 44 56 65t62 25.5t65.5 -5t66.5 -26.5l1018 -517q32 -17 49 -52.5t8 -79.5t-41 -79.5t-72 -52.5l-1215 -509q-38 -16 -76.5 -27.5t-72 -9.5t-58.5 20.5t-35 62.5q-8 37 1.5 66t30.5 52.5t50 41t61 31.5
l1012 404zM1536 270q33 0 61 -7t46 -23t25 -41.5t-1 -62.5q-8 -38 -26 -64t-42.5 -42t-55.5 -23t-64 -7h-1136q-33 0 -60.5 7t-46 23t-26 42t0.5 64q8 37 26 62.5t43.5 41.5t56 23t63.5 7h1136z" />
    <glyph glyph-name="fongmanfunnuthai" unicode="&#xe4f;&#x22;" horiz-adv-x="2077" 
d="M324 836q26 122 81.5 234.5t134.5 210t177 178t209 137.5t231 88.5t243 31.5q121 0 226.5 -31.5t190.5 -88.5t148.5 -137.5t99.5 -178t43.5 -210t-18.5 -234.5t-81.5 -234.5t-133 -210.5t-175 -178.5t-207 -137.5t-228 -88.5t-239.5 -31.5q-123 0 -230 31.5t-193.5 88.5
t-150.5 137.5t-101 178.5t-45 210.5t18 234.5zM744 844q20 94 75 178t132.5 147.5t171 100.5t190.5 37q94 0 169.5 -37t124.5 -100.5t68 -147.5t-1 -178q-21 -97 -75.5 -182t-130.5 -148.5t-167 -100t-185 -36.5q-97 0 -175 36.5t-128.5 100t-70 148.5t1.5 182zM961 844
q-12 -54 -2.5 -100.5t36 -80.5t69 -53.5t97.5 -19.5q51 0 99 19.5t88 53.5t68.5 80.5t40.5 100.5q11 51 1.5 95.5t-35 78t-65.5 53t-91 19.5q-55 0 -105.5 -19.5t-91.5 -53t-69.5 -78t-39.5 -95.5zM572 844q-28 -132 -3 -249t93 -204.5t174.5 -138.5t241.5 -51q87 0 173 23
t165.5 65.5t150 101t127.5 130t97 153.5t59 170t13.5 169.5t-32.5 152t-72.5 128t-107.5 99t-138 64t-163 22.5q-90 0 -177.5 -22.5t-167.5 -64t-151 -99t-127 -128t-96 -152t-59 -169.5zM1627 2312q13 59 55 97t101 38t85.5 -38t13.5 -97l-53 -251q-13 -59 -55.5 -96.5
t-101.5 -37.5t-85 37.5t-13 96.5zM1177 2312q13 59 55.5 97t101.5 38t85.5 -38t13.5 -97l-53 -251q-13 -59 -55.5 -96.5t-101.5 -37.5t-85.5 37.5t-13.5 96.5z" />
    <glyph glyph-name="dochadaphinthuthai" unicode="&#xe0e;&#xe3a;" horiz-adv-x="1839" 
d="M1086 -918q10 48 37 89.5t64.5 73t83 49.5t93.5 18q46 0 83.5 -18t61.5 -49.5t33 -73t-1 -89.5q-10 -46 -36.5 -87t-63.5 -71.5t-82 -48.5t-91 -18q-48 0 -86 18t-62.5 48.5t-34 71.5t0.5 87zM1601 -390q-9 -43 -34 -81t-59.5 -66t-76.5 -44.5t-85 -16.5q-46 0 -81.5 18
t-57.5 50q-20 29 -50 54.5t-74 44.5t-103.5 30t-137.5 11q-50 0 -99 -13.5t-98.5 -37.5t-98.5 -56.5t-98 -70.5q-23 -18 -48.5 -25t-49.5 -4.5t-44.5 14t-33.5 30.5q-13 21 -14.5 45.5t6.5 49t24 47.5t37 42q63 57 136 104t148.5 80.5t150 51.5t140.5 18q78 0 140.5 -9
t110.5 -23.5t83.5 -33t61.5 -36.5l268 1257q15 71 8 140t-46.5 124t-116.5 89.5t-201 36.5q-102 1 -184.5 -22.5t-143 -59.5t-100 -77t-55.5 -75q43 -46 59.5 -123.5t-2.5 -167.5l-163 -768q-6 -29 -22 -53.5t-38.5 -43.5t-50 -29.5t-55.5 -10.5h-272q-29 0 -50 10.5
t-34 29.5t-16.5 43.5t2.5 53.5q6 28 20.5 53t35 44t46 29.5t54.5 10.5h73l135 635q9 44 9 89t-19 86q-18 36 -31 57.5t-17 41t4.5 42t34.5 61.5q56 84 135 162t183 137.5t234.5 95t289.5 35.5q148 0 258 -27t186 -75.5t121.5 -114.5t66 -144.5t18.5 -165.5t-21 -177z" />
    <glyph glyph-name="topatakphintuthai" unicode="&#xe0f;&#xe3a;" horiz-adv-x="1839" 
d="M1086 -918q10 48 37 89.5t64.5 73t83 49.5t93.5 18q46 0 83.5 -18t61.5 -49.5t33 -73t-1 -89.5q-10 -46 -36.5 -87t-63.5 -71.5t-82 -48.5t-91 -18q-48 0 -86 18t-62.5 48.5t-34 71.5t0.5 87zM1597 -405q-8 -40 -31 -75t-55 -61.5t-70.5 -41.5t-78.5 -15q-57 0 -96 29
t-53 77q-6 22 -16.5 42t-25.5 35.5t-36 24.5t-49 9t-53 -9t-46.5 -24.5t-39.5 -35.5t-31 -42q-14 -23 -34 -42.5t-43.5 -33.5t-50 -22t-53.5 -8q-54 0 -89.5 30.5t-43.5 78.5q-3 21 -10.5 41t-21 36t-33.5 25.5t-49 9.5q-26 0 -48.5 -9.5t-41 -26t-33.5 -38t-27 -45.5
q-13 -27 -34 -48.5t-46.5 -35t-53 -17.5t-53.5 3t-43 23.5t-25.5 39t-6.5 49t14 54.5q35 80 85.5 138.5t108 96.5t118.5 56t117 18q99 0 167.5 -40.5t102.5 -114.5q35 35 75 62t81 45t80 27t73 9q75 0 123 -22t77 -56l266 1249q15 71 8 140t-46.5 124t-116.5 89.5t-201 36.5
q-102 1 -184.5 -22.5t-143 -59.5t-100 -77t-55.5 -75q43 -46 59.5 -123.5t-2.5 -167.5l-163 -768q-6 -29 -22 -53.5t-38.5 -43.5t-50 -29.5t-55.5 -10.5h-272q-29 0 -50 10.5t-34 29.5t-16.5 43.5t2.5 53.5q6 28 20.5 53t35 44t46 29.5t54.5 10.5h73l135 635q9 44 9 89
t-19 86q-18 36 -31 57.5t-17 41t4.5 42t34.5 61.5q56 84 135 162t183 137.5t234.5 95t289.5 35.5q148 0 258 -27t186 -75.5t121.5 -114.5t66 -144.5t18.5 -165.5t-21 -177z" />
    <glyph glyph-name="dochadasarauthai" unicode="&#xe0e;&#xe38;" horiz-adv-x="1839" 
d="M1429 -1191q-7 -33 -25 -60t-43.5 -46.5t-56 -30.5t-63.5 -11t-59.5 11t-43.5 30.5t-24 46.5t0 60l53 250h-68q-27 0 -46.5 10t-31.5 27.5t-15.5 41t2.5 50.5t19.5 50.5t32.5 41t43 27.5t51 10h264q27 0 46.5 -10t31.5 -27.5t16 -41t-2 -50.5zM1601 -390q-9 -43 -34 -81
t-59.5 -66t-76.5 -44.5t-85 -16.5q-46 0 -81.5 18t-57.5 50q-20 29 -50 54.5t-74 44.5t-103.5 30t-137.5 11q-50 0 -99 -13.5t-98.5 -37.5t-98.5 -56.5t-98 -70.5q-23 -18 -48.5 -25t-49.5 -4.5t-44.5 14t-33.5 30.5q-13 21 -14.5 45.5t6.5 49t24 47.5t37 42q63 57 136 104
t148.5 80.5t150 51.5t140.5 18q78 0 140.5 -9t110.5 -23.5t83.5 -33t61.5 -36.5l268 1257q15 71 8 140t-46.5 124t-116.5 89.5t-201 36.5q-102 1 -184.5 -22.5t-143 -59.5t-100 -77t-55.5 -75q43 -46 59.5 -123.5t-2.5 -167.5l-163 -768q-6 -29 -22 -53.5t-38.5 -43.5
t-50 -29.5t-55.5 -10.5h-272q-29 0 -50 10.5t-34 29.5t-16.5 43.5t2.5 53.5q6 28 20.5 53t35 44t46 29.5t54.5 10.5h73l135 635q9 44 9 89t-19 86q-18 36 -31 57.5t-17 41t4.5 42t34.5 61.5q56 84 135 162t183 137.5t234.5 95t289.5 35.5q148 0 258 -27t186 -75.5
t121.5 -114.5t66 -144.5t18.5 -165.5t-21 -177z" />
    <glyph glyph-name="topataksarauthai" unicode="&#xe0f;&#xe38;" horiz-adv-x="1839" 
d="M1429 -1191q-7 -33 -25 -60t-43.5 -46.5t-56 -30.5t-63.5 -11t-59.5 11t-43.5 30.5t-24 46.5t0 60l53 250h-68q-27 0 -46.5 10t-31.5 27.5t-15.5 41t2.5 50.5t19.5 50.5t32.5 41t43 27.5t51 10h264q27 0 46.5 -10t31.5 -27.5t16 -41t-2 -50.5zM1597 -405q-8 -40 -31 -75
t-55 -61.5t-70.5 -41.5t-78.5 -15q-57 0 -96 29t-53 77q-6 22 -16.5 42t-25.5 35.5t-36 24.5t-49 9t-53 -9t-46.5 -24.5t-39.5 -35.5t-31 -42q-14 -23 -34 -42.5t-43.5 -33.5t-50 -22t-53.5 -8q-54 0 -89.5 30.5t-43.5 78.5q-3 21 -10.5 41t-21 36t-33.5 25.5t-49 9.5
q-26 0 -48.5 -9.5t-41 -26t-33.5 -38t-27 -45.5q-13 -27 -34 -48.5t-46.5 -35t-53 -17.5t-53.5 3t-43 23.5t-25.5 39t-6.5 49t14 54.5q35 80 85.5 138.5t108 96.5t118.5 56t117 18q99 0 167.5 -40.5t102.5 -114.5q35 35 75 62t81 45t80 27t73 9q75 0 123 -22t77 -56
l266 1249q15 71 8 140t-46.5 124t-116.5 89.5t-201 36.5q-102 1 -184.5 -22.5t-143 -59.5t-100 -77t-55.5 -75q43 -46 59.5 -123.5t-2.5 -167.5l-163 -768q-6 -29 -22 -53.5t-38.5 -43.5t-50 -29.5t-55.5 -10.5h-272q-29 0 -50 10.5t-34 29.5t-16.5 43.5t2.5 53.5
q6 28 20.5 53t35 44t46 29.5t54.5 10.5h73l135 635q9 44 9 89t-19 86q-18 36 -31 57.5t-17 41t4.5 42t34.5 61.5q56 84 135 162t183 137.5t234.5 95t289.5 35.5q148 0 258 -27t186 -75.5t121.5 -114.5t66 -144.5t18.5 -165.5t-21 -177z" />
    <glyph glyph-name="dochadasarauuthai" unicode="&#xe0e;&#xe39;" horiz-adv-x="1839" 
d="M1195 -811q7 33 25 60t43.5 46.5t56.5 30t64 10.5t59 -10.5t43.5 -30t24 -46.5t-0.5 -60l-22 -102q-18 -87 -58 -164.5t-106 -135.5t-160 -92t-220 -34q-119 0 -197.5 28.5t-123 81t-56.5 125.5t2 162h-64q-27 0 -46.5 10t-31.5 27.5t-15.5 41t2.5 50.5t19.5 50.5
t32.5 41t43 27.5t51 10h264q27 0 46.5 -10t31.5 -27.5t16 -41t-2 -50.5l-22 -100q-17 -80 8.5 -122t97.5 -42q68 0 112 42t61 122zM1601 -390q-9 -43 -34 -81t-59.5 -66t-76.5 -44.5t-85 -16.5q-46 0 -81.5 18t-57.5 50q-20 29 -50 54.5t-74 44.5t-103.5 30t-137.5 11
q-50 0 -99 -13.5t-98.5 -37.5t-98.5 -56.5t-98 -70.5q-23 -18 -48.5 -25t-49.5 -4.5t-44.5 14t-33.5 30.5q-13 21 -14.5 45.5t6.5 49t24 47.5t37 42q63 57 136 104t148.5 80.5t150 51.5t140.5 18q78 0 140.5 -9t110.5 -23.5t83.5 -33t61.5 -36.5l268 1257q15 71 8 140
t-46.5 124t-116.5 89.5t-201 36.5q-102 1 -184.5 -22.5t-143 -59.5t-100 -77t-55.5 -75q43 -46 59.5 -123.5t-2.5 -167.5l-163 -768q-6 -29 -22 -53.5t-38.5 -43.5t-50 -29.5t-55.5 -10.5h-272q-29 0 -50 10.5t-34 29.5t-16.5 43.5t2.5 53.5q6 28 20.5 53t35 44t46 29.5
t54.5 10.5h73l135 635q9 44 9 89t-19 86q-18 36 -31 57.5t-17 41t4.5 42t34.5 61.5q56 84 135 162t183 137.5t234.5 95t289.5 35.5q148 0 258 -27t186 -75.5t121.5 -114.5t66 -144.5t18.5 -165.5t-21 -177z" />
    <glyph glyph-name="topataksarauuthai" unicode="&#xe0f;&#xe39;" horiz-adv-x="1839" 
d="M1195 -811q7 33 25 60t43.5 46.5t56.5 30t64 10.5t59 -10.5t43.5 -30t24 -46.5t-0.5 -60l-22 -102q-18 -87 -58 -164.5t-106 -135.5t-160 -92t-220 -34q-119 0 -197.5 28.5t-123 81t-56.5 125.5t2 162h-64q-27 0 -46.5 10t-31.5 27.5t-15.5 41t2.5 50.5t19.5 50.5
t32.5 41t43 27.5t51 10h264q27 0 46.5 -10t31.5 -27.5t16 -41t-2 -50.5l-22 -100q-17 -80 8.5 -122t97.5 -42q68 0 112 42t61 122zM1597 -405q-8 -40 -31 -75t-55 -61.5t-70.5 -41.5t-78.5 -15q-57 0 -96 29t-53 77q-6 22 -16.5 42t-25.5 35.5t-36 24.5t-49 9t-53 -9
t-46.5 -24.5t-39.5 -35.5t-31 -42q-14 -23 -34 -42.5t-43.5 -33.5t-50 -22t-53.5 -8q-54 0 -89.5 30.5t-43.5 78.5q-3 21 -10.5 41t-21 36t-33.5 25.5t-49 9.5q-26 0 -48.5 -9.5t-41 -26t-33.5 -38t-27 -45.5q-13 -27 -34 -48.5t-46.5 -35t-53 -17.5t-53.5 3t-43 23.5
t-25.5 39t-6.5 49t14 54.5q35 80 85.5 138.5t108 96.5t118.5 56t117 18q99 0 167.5 -40.5t102.5 -114.5q35 35 75 62t81 45t80 27t73 9q75 0 123 -22t77 -56l266 1249q15 71 8 140t-46.5 124t-116.5 89.5t-201 36.5q-102 1 -184.5 -22.5t-143 -59.5t-100 -77t-55.5 -75
q43 -46 59.5 -123.5t-2.5 -167.5l-163 -768q-6 -29 -22 -53.5t-38.5 -43.5t-50 -29.5t-55.5 -10.5h-272q-29 0 -50 10.5t-34 29.5t-16.5 43.5t2.5 53.5q6 28 20.5 53t35 44t46 29.5t54.5 10.5h73l135 635q9 44 9 89t-19 86q-18 36 -31 57.5t-17 41t4.5 42t34.5 61.5
q56 84 135 162t183 137.5t234.5 95t289.5 35.5q148 0 258 -27t186 -75.5t121.5 -114.5t66 -144.5t18.5 -165.5t-21 -177z" />
    <glyph glyph-name=".notdef" horiz-adv-x="1151" 
d="M1175 1114v-41h16q20 0 20 29q-1 3 -4 6q-6 6 -16 6h-16zM1183 1069h-8v-37h-13v94h29q15 0 24 -6t9 -18q0 -25 -8.5 -29t-20.5 -4l29 -37h-13zM1191 1020q17 0 28.5 5.5t19 13.5t10.5 17t3 17q0 34 -16.5 50t-44.5 16t-47 -16t-19 -50q0 -22 14.5 -37.5t51.5 -15.5z
M1191 1147q34 0 52 -20t18 -54q0 -22 -18 -41.5t-52 -19.5q-37 0 -55.5 19.5t-18.5 41.5q0 34 18.5 54t55.5 20zM560 881q27 -3 63.5 -7.5t76.5 -10.5t81.5 -13.5t78.5 -16.5t65.5 -19.5t44.5 -22.5q-29 54 -75 96.5t-101.5 72t-116.5 45t-121 15.5q-48 0 -94.5 -9
t-89 -27.5t-78.5 -46.5t-62 -65q50 4 101 6.5t100 2.5h127zM1048 1102v-397q-140 40 -311.5 69t-360.5 29q-133 0 -262 -12q12 61 48.5 117.5t93.5 99.5t132 68.5t164 25.5q86 0 155 -19.5t121.5 -48.5t88 -62t53.5 -59v189h78zM425 352q0 25 -15 35t-30 10q-25 0 -37 -10
t-12 -35q0 -41 49 -41q15 0 30 10t15 31zM89 389q0 63 25.5 112.5t67 83.5t94.5 52t108 18q57 0 108.5 -15.5t90 -47.5t61.5 -80.5t23 -114.5v-323h303v565h78v-635h-533v70h82v332q0 44 -16.5 76.5t-45 53.5t-66.5 31.5t-81 10.5t-83 -12t-70.5 -35.5t-49 -57t-18.5 -76.5
v-295l164 164q-6 1 -16.5 7.5t-20.5 17t-17.5 26t-7.5 35.5q0 53 31 82t84 29q23 0 43 -8.5t35 -23.5t24 -35.5t9 -43.5q0 -18 -5.5 -33.5t-13 -26.5t-16.5 -18t-15 -8q-2 -6 -14.5 -18.5t-31.5 -30.5t-42.5 -41t-46.5 -49q-31 -28 -64 -58.5t-67 -64.5h-90v385z" />
    <glyph glyph-name=".null" 
 />
    <glyph glyph-name="nonmarkingreturn" horiz-adv-x="791" 
 />
    <glyph glyph-name="space" unicode=" " horiz-adv-x="696" 
 />
    <glyph glyph-name="exclam" unicode="!" horiz-adv-x="1036" 
d="M1000 1389q-2 -10 -5 -18.5t-10.5 -30.5t-22 -65t-41 -122.5t-67 -203t-99.5 -305.5q-10 -29 -23 -48.5t-28 -31t-32.5 -16t-36.5 -4.5t-34.5 4.5t-26 16t-15.5 31t-3 48.5q19 182 31 305.5t19.5 203t11.5 122.5t6 65t3 30.5t3 18.5l88 415q22 104 75 157t155 53t132 -53
t8 -157zM351 194q9 43 33.5 80.5t58.5 66t75.5 45t84.5 16.5t77 -16.5t56.5 -45t31 -66t-0.5 -80.5t-33.5 -80.5t-59 -66t-75.5 -45t-84 -16.5t-77.5 16.5t-56.5 45t-30.5 66t0.5 80.5z" />
    <glyph glyph-name="quotedbl" unicode="&#x22;" horiz-adv-x="1225" 
d="M1106 1889q6 30 20.5 54.5t34.5 42.5t45 28t54 10q57 0 83 -37.5t13 -97.5l-102 -478q-6 -30 -20 -54.5t-34 -42t-45.5 -27.5t-53.5 -10q-57 0 -83 37t-14 97zM675 1889q6 30 20.5 54.5t35 42.5t45.5 28t54 10q57 0 83 -37.5t13 -97.5l-102 -478q-6 -30 -20 -54.5
t-34 -42t-45.5 -27.5t-53.5 -10q-57 0 -83.5 37t-14.5 97z" />
    <glyph glyph-name="numbersign" unicode="#" horiz-adv-x="1642" 
d="M698 1172h-120q-36 0 -58.5 10.5t-34.5 27.5t-14.5 38.5t2.5 44.5t16.5 45t30.5 39t46 27.5t63 10.5h158l159 450q10 28 24.5 52.5t35.5 42.5t50 28.5t69 10.5q25 0 46 -7t36 -20.5t21.5 -32.5t1.5 -43q-1 -4 -3.5 -12t-9.5 -26.5t-18.5 -51t-30 -84.5t-46 -127.5
t-64.5 -179.5h276l159 450q10 28 24 52.5t35 42.5t50.5 28.5t69.5 10.5q25 0 46 -7t35.5 -20.5t20.5 -32.5t1 -43q-1 -4 -3.5 -12t-9 -26.5t-17.5 -51t-29.5 -84.5t-45.5 -127.5t-64 -179.5h123q34 0 56 -10.5t33.5 -27.5t14 -39t-2.5 -45t-16 -44.5t-30 -38.5t-45.5 -27.5
t-60.5 -10.5h-160l-123 -350h120q35 0 57.5 -10.5t34.5 -27t14.5 -38.5t-1.5 -44q-5 -23 -16.5 -45t-31 -39t-46.5 -27.5t-62 -10.5h-158l-160 -447q-10 -28 -24 -52.5t-35 -42.5t-50.5 -28t-69.5 -10q-29 0 -50.5 10t-34.5 27t-16 39t5 45l161 459h-273l-159 -447
q-10 -28 -24.5 -52t-35.5 -42t-50.5 -28.5t-69.5 -10.5q-25 0 -46 7t-35 20.5t-20 32t-1 42.5l168 478h-122q-35 0 -57 10.5t-33.5 27.5t-14 39t2.5 45q4 22 16 44t30.5 38.5t45 27t61.5 10.5h159zM1246 1172h-275l-124 -350h274z" />
    <glyph glyph-name="dollar" unicode="$" horiz-adv-x="1618" 
d="M918 850q-136 28 -239 77.5t-167 120.5t-86 164.5t3 211.5q31 144 104.5 253t173.5 183t218.5 113t240.5 44l35 164q4 19 14 36.5t23.5 31t29.5 21.5t32 8t28.5 -8t20 -21.5t9.5 -31t-2 -36.5l-35 -164q50 -2 112.5 -14.5t125.5 -36.5t121.5 -59t100 -81t60.5 -103.5
t5 -126.5q-9 -41 -29 -74t-47.5 -55.5t-59.5 -34.5t-65 -12q-42 0 -67 22.5t-44 56.5t-37.5 73.5t-47 73.5t-73.5 57.5t-116 24.5l-114 -536q81 -20 156.5 -43.5t139.5 -57t114 -78.5t79.5 -108t36 -146t-16.5 -192q-30 -142 -99 -249.5t-169 -181.5t-227 -115t-274 -50
l-37 -175q-4 -18 -13.5 -35.5t-22.5 -31t-29 -21.5t-32 -8t-28.5 8t-20.5 21.5t-10.5 31t1.5 35.5l37 175q-108 3 -193.5 27t-149.5 63t-107 90t-67 108t-29.5 116t6.5 115q18 86 70.5 132t127.5 46q54 0 82.5 -17t42.5 -44.5t18 -63t8.5 -73t15 -74t37 -66t74 -48.5
t126.5 -23zM1105 1728q-66 -2 -123.5 -22.5t-102 -53.5t-73.5 -75.5t-39 -88.5q-23 -106 34.5 -169.5t195.5 -95.5zM948 259q59 4 119.5 21.5t113 51t91 84t53.5 121.5q15 72 -5 120t-59.5 80t-92 50.5t-101.5 31.5z" />
    <glyph glyph-name="percent" unicode="%" horiz-adv-x="2818" 
d="M869 1464q-14 -65 -18 -121.5t6 -97.5t36 -64.5t73 -23.5t83.5 23.5t64 64.5t47.5 97.5t34 121.5q13 61 17 117t-6 98.5t-36 67.5t-73 25t-83.5 -25t-64.5 -67.5t-47.5 -98.5t-32.5 -117zM2047 534q-14 -65 -18 -121.5t6 -97.5t36.5 -64.5t73.5 -23.5t83 23.5t64 64.5
t47.5 97.5t33.5 121.5q13 61 17 117t-6 98.5t-36 67.5t-73 25t-83.5 -25t-64.5 -67.5t-47.5 -98.5t-32.5 -117zM2229 1978q10 13 23 27t28 25t33 18t38 7q22 0 40 -8t29.5 -21t16 -30t1.5 -34q-5 -20 -17.5 -43t-32.5 -49l-1372 -1850q-10 -13 -23 -26.5t-28 -24.5t-33 -18
t-38 -7q-23 0 -40.5 8t-29 21t-16.5 29.5t-1 33.5q5 21 17.5 44t32.5 49zM565 1464q24 112 70 209t117 168.5t168.5 112t223.5 40.5t206 -40.5t121 -112t46.5 -168.5t-18.5 -209t-70.5 -208.5t-117.5 -168t-168.5 -112t-223.5 -40.5t-206 40.5t-121 112t-46 168t19 208.5z
M1743 534q24 112 70.5 209t117.5 168.5t168.5 112t223.5 40.5t206 -40.5t121 -112t46 -168.5t-19 -209q-24 -113 -70 -209.5t-117.5 -167.5t-168.5 -111.5t-223 -40.5t-206 40.5t-121.5 111.5t-46.5 167.5t19 209.5z" />
    <glyph glyph-name="ampersand" unicode="&#x26;" horiz-adv-x="1831" 
d="M1480 682q51 45 96 101.5t83 107.5q29 38 67.5 57.5t74.5 19.5q29 0 55 -10.5t44 -29t26 -43.5t2 -54q-7 -35 -35.5 -83t-69 -99t-88 -99.5t-93.5 -84.5l130 -214q24 -40 12 -97q-6 -28 -24.5 -55.5t-46.5 -49t-65 -35t-80 -13.5q-39 0 -61 20.5t-42 49.5l-105 162
q-167 -134 -336 -191t-349 -57q-103 0 -182.5 21.5t-137 59t-94.5 88t-55.5 109t-19.5 122.5t12 127q23 107 76 196.5t128 164t167.5 133.5t194.5 104q-29 45 -55.5 91t-43.5 95t-22.5 102t6.5 112q24 114 85.5 201.5t146 147.5t186 90.5t206.5 30.5q104 0 180 -20
t129 -54.5t85 -80.5t47 -97t15 -104t-10 -102q-17 -79 -59 -151t-102 -134.5t-135.5 -114t-159.5 -88.5zM976 1544q-12 -55 -5.5 -98t26 -79.5t49 -69.5t63.5 -68q42 22 90.5 50t93 65t79 84.5t47.5 109.5q9 41 0 78t-33.5 64.5t-62 43.5t-85.5 16t-92 -15t-79 -41.5
t-58.5 -62.5t-32.5 -77zM895 922q-65 -36 -124 -73.5t-107 -82t-82 -98t-48 -120.5q-14 -65 3 -117t55 -88.5t92.5 -56t116.5 -19.5q114 0 214 41t190 132z" />
    <glyph glyph-name="quotesingle" unicode="'" horiz-adv-x="811" 
d="M681 1889q6 30 20.5 54.5t35 42.5t45.5 28t54 10q57 0 83 -37.5t13 -97.5l-102 -478q-6 -30 -20 -54.5t-34 -42t-45.5 -27.5t-53.5 -10q-57 0 -83.5 37t-14.5 97z" />
    <glyph glyph-name="parenleft" unicode="(" horiz-adv-x="803" 
d="M276 751q48 223 153 461.5t252 470.5q83 131 142.5 214t103.5 130t77 64t65 17q27 0 47.5 -8t33.5 -22.5t18 -33t1 -39.5q-7 -32 -38.5 -91t-76.5 -137q-50 -86 -110 -197t-119.5 -241.5t-112.5 -278.5t-87 -309t-44 -309t-6 -278.5t17 -241.5t26 -197q11 -78 18 -137
t0 -91q-5 -21 -18 -39.5t-32 -33t-43 -22.5t-51 -8q-32 0 -57.5 13.5t-48.5 58t-47 128.5t-54 224q-24 115 -37 234t-14.5 237.5t8.5 234.5t34 227z" />
    <glyph glyph-name="parenright" unicode=")" horiz-adv-x="803" 
d="M845 751q-24 -111 -63 -227t-91 -234.5t-115.5 -237.5t-135.5 -234q-60 -94 -106 -161.5t-81.5 -114.5t-63 -76t-51 -45t-44 -21.5t-41.5 -5.5q-26 0 -46.5 8t-33.5 22.5t-18.5 33t-0.5 39.5q7 32 37.5 91t75.5 137q49 86 109.5 197t120 241.5t112.5 278.5t87 309t44 309
t6 278.5t-17 241.5t-26 197q-11 78 -17.5 137t0.5 91q4 21 17.5 39.5t32.5 33t43 22.5t51 8q31 0 56.5 -17.5t49.5 -64.5t47.5 -129.5t52.5 -213.5q24 -116 37 -234.5t14.5 -236.5t-8.5 -234t-34 -227z" />
    <glyph glyph-name="asterisk" unicode="*" horiz-adv-x="1057" 
d="M842 1971q12 54 45 83.5t83 29.5t71 -29.5t9 -83.5l-54 -256l242 81q17 6 37.5 11t34.5 5q13 0 29 -6.5t29 -20.5t19.5 -35.5t0.5 -50.5q-8 -34 -36 -58.5t-74 -38.5l-269 -74l125 -224q8 -16 14 -34.5t1 -37.5q-7 -32 -24.5 -52.5t-38.5 -32t-40.5 -16t-30.5 -4.5
q-26 0 -46.5 10.5t-29.5 29.5l-111 243l-215 -243q-18 -19 -42.5 -29.5t-50.5 -10.5q-11 0 -29.5 4.5t-34 16t-25 32t-2.5 52.5q5 19 18.5 37.5t28.5 34.5l219 224q-54 17 -118.5 37t-118.5 37q-83 28 -68 97q6 29 21.5 50.5t34.5 35.5t38 20.5t32 6.5t31 -5t32 -11l209 -80
z" />
    <glyph glyph-name="plus" unicode="+" horiz-adv-x="1720" 
d="M1009 1331q7 35 23 64.5t38 51t49 33.5t58 12q62 0 87.5 -45t10.5 -116l-95 -449h446q73 0 109.5 -35t23.5 -95t-64 -95t-124 -35h-446l-96 -450q-8 -35 -23.5 -64.5t-37 -50.5t-48.5 -33t-58 -12q-62 0 -88 45t-11 115l96 450h-446q-36 0 -63.5 11t-45 29t-24 41.5
t-1.5 48.5q13 60 64.5 95t124.5 35h446z" />
    <glyph glyph-name="comma" unicode="," horiz-adv-x="811" 
d="M218 199q9 44 34 82.5t60.5 67.5t77.5 46t86 17q64 0 106 -24t63.5 -66t24.5 -99.5t-12 -124.5q-26 -120 -78.5 -212.5t-140.5 -173.5q-24 -22 -58 -47.5t-71.5 -47t-75 -35.5t-67.5 -14q-41 0 -57.5 21t-10.5 50q3 16 13.5 28.5t25.5 24t34 22.5t40 24q34 21 70 44
t69 55t62 78t49 114q-26 -16 -50 -22.5t-50 -6.5q-45 0 -76 16.5t-49 44t-22.5 63.5t3.5 75z" />
    <glyph glyph-name="hyphen" unicode="-" horiz-adv-x="1327" 
d="M409 619q-73 0 -109.5 36t-23.5 96t64.5 96t124.5 36h772q73 0 109.5 -36t23.5 -96t-64.5 -96t-124.5 -36h-772z" />
    <glyph glyph-name="period" unicode="." horiz-adv-x="811" 
d="M230 196q9 45 34.5 84t61 68.5t78.5 46.5t88 17t80.5 -17t58.5 -46.5t31.5 -68.5t-0.5 -84t-34.5 -84t-61 -68.5t-78.5 -46.5t-88 -17t-80.5 17t-58.5 46.5t-31.5 68.5t0.5 84z" />
    <glyph glyph-name="slash" unicode="/" horiz-adv-x="1057" 
d="M1170 1961q9 15 22 33t32 33.5t46.5 26t65.5 10.5q22 0 44.5 -8.5t38.5 -24.5t24 -39t2 -52q-5 -20 -16.5 -42.5t-24.5 -43.5l-1088 -1793l2 1q-10 -15 -22.5 -33t-32 -33.5t-47 -26t-66.5 -10.5q-22 0 -44 8.5t-38 24t-24 38.5t-2 52q5 20 16 41.5t25 44.5z" />
    <glyph glyph-name="zero" unicode="0" horiz-adv-x="1585" 
d="M638 979q-15 -67 -30 -147t-21.5 -160t-0.5 -154.5t34 -132.5t82 -92.5t143 -34.5q90 0 159.5 34.5t122 92.5t90.5 132.5t65.5 154.5t46.5 159.5t34 147.5q14 66 27.5 145.5t19 159.5t-2 155t-35.5 133t-81 93t-139 35q-85 0 -152 -35t-119.5 -93t-92 -133t-68 -155
t-48.5 -159.5t-34 -145.5zM298 979q22 106 53.5 222.5t79 228.5t114.5 213t161 177.5t219 121.5t288 45q123 0 213 -26t152.5 -72t101 -109t58 -137.5t23 -157.5t-4 -169t-22 -171.5t-31.5 -165.5q-24 -112 -56 -230.5t-79.5 -230.5t-114.5 -212.5t-161.5 -175.5
t-219.5 -119t-289 -44q-122 0 -212 25t-152.5 70t-100.5 107t-57.5 136t-22.5 157t4 170t22.5 175t33.5 172z" />
    <glyph glyph-name="one" unicode="1" horiz-adv-x="1585" 
d="M1030 1420q-100 -54 -199.5 -76.5t-202.5 -20.5q-24 0 -43 8t-31 23t-16 37.5t3 53.5q11 55 56 88t137 53l105 22q68 14 119 40t89.5 58t68.5 67.5t56 70.5q19 26 38.5 49t41.5 40.5t47.5 28t58.5 10.5q24 0 44 -6.5t32.5 -23t16 -44.5t-5.5 -71l-350 -1648
q-9 -44 -25.5 -80.5t-41.5 -63t-59.5 -41t-80.5 -14.5t-74 14.5t-41.5 41t-14 63t8.5 80.5z" />
    <glyph glyph-name="two" unicode="2" horiz-adv-x="1585" 
d="M226 0q-34 0 -59 15t-37.5 40.5t-12.5 57.5t16 67q60 135 139.5 237t169.5 181.5t187.5 141t194.5 116.5q140 80 242.5 141.5t172.5 120t111 122.5t59 149q15 69 1.5 124.5t-49 94t-90.5 59.5t-122 21q-60 0 -117.5 -17.5t-106.5 -54.5t-87.5 -94t-62.5 -136
q-10 -34 -25 -66t-39 -57t-59 -40t-85 -15q-35 0 -64.5 9.5t-49 31t-26 56.5t4.5 86q27 126 101 233.5t180 186t237.5 123t272.5 44.5q136 0 248 -39t185.5 -115t101.5 -186.5t-2 -253.5q-20 -92 -57 -169t-87 -141.5t-109.5 -118.5t-124 -99t-132 -83.5t-131.5 -72.5
q-89 -48 -178.5 -97.5t-168.5 -101t-141 -104t-95 -106.5h839q69 0 104.5 -38.5t20.5 -107.5q-7 -34 -24 -61t-42 -45.5t-55.5 -28.5t-64.5 -10h-1084z" />
    <glyph glyph-name="three" unicode="3" horiz-adv-x="1585" 
d="M980 1151q64 0 127 17.5t115 51t89 83t51 114.5q14 66 2 116.5t-45 85t-85 52t-118 17.5q-56 0 -110 -16t-99.5 -47.5t-80 -78.5t-52.5 -110q-10 -34 -25 -66t-39 -57t-59 -40t-85 -15q-35 0 -64.5 9.5t-49 31t-26 56.5t4.5 86q23 107 91 204.5t168 171.5t225.5 117.5
t262.5 43.5q138 0 248.5 -34.5t181.5 -105t97 -176.5t-4 -249q-26 -121 -98 -210.5t-186 -158.5q68 -27 112.5 -72.5t67 -105.5t24 -134t-16.5 -159q-20 -95 -63 -177.5t-102.5 -151t-132.5 -121.5t-152 -90q-47 -22 -96 -35.5t-100 -21t-102 -10.5t-102 -3
q-137 0 -244 31.5t-180.5 94.5t-109.5 158.5t-30 224.5q2 50 23.5 86t52.5 59t66 34t64 11q49 0 77.5 -14t43 -37.5t18 -54.5t2.5 -64q-2 -57 15.5 -102.5t53 -77.5t88 -49t120.5 -17q84 0 158.5 22.5t133 64t98 101.5t55.5 135q17 78 2 137.5t-55.5 99t-104 59.5t-143.5 20
h-34q-27 0 -49.5 10.5t-36.5 28.5t-19.5 42.5t0.5 51.5t21.5 51.5t37.5 42.5t48.5 28.5t53.5 10.5z" />
    <glyph glyph-name="four" unicode="4" horiz-adv-x="1585" 
d="M1232 1405q-83 -86 -162 -171t-158 -170.5t-159.5 -173t-167.5 -177.5h500zM1021 410h-692q-48 0 -80 17t-49.5 43t-22 58t1.5 62q11 49 30 83.5t49 66.5l1071 1156q33 36 75.5 53t93.5 17q48 0 78.5 -12.5t47 -35t19.5 -54.5t-5 -70l-230 -1081h135q71 0 108 -40.5
t22 -111.5q-8 -35 -26 -63t-43.5 -47.5t-57.5 -30t-67 -10.5h-135l-55 -258q-8 -37 -26 -68.5t-44 -54.5t-59 -36t-70 -13t-64 13t-43 36t-20.5 54.5t3.5 68.5z" />
    <glyph glyph-name="five" unicode="5" horiz-adv-x="1585" 
d="M698 1840q9 24 26.5 45t39 36.5t47 24t51.5 8.5h809q67 0 102 -38.5t21 -105.5q-7 -33 -24 -59.5t-41.5 -45t-55 -28.5t-63.5 -10h-666l-163 -401q77 43 157.5 58t160.5 15q143 0 258 -43t188.5 -129.5t98.5 -216t-12 -303.5q-28 -131 -99 -252t-182.5 -214.5
t-261 -149.5t-333.5 -56q-112 0 -196.5 23t-146 60.5t-101.5 85.5t-62 97.5t-27.5 97t2.5 84.5q9 39 28.5 70.5t47 53.5t62 34t72.5 12q60 0 94 -35t41 -97q4 -34 19 -70t45.5 -65.5t79.5 -48.5t122 -19q77 0 149.5 25.5t133.5 76.5t106 128t67 180q18 84 5 155t-53.5 122
t-107 79.5t-155.5 28.5q-52 0 -95.5 -13t-81.5 -33t-72 -42.5t-66 -42.5t-63 -33t-64 -13q-71 0 -104 27.5t-40 71.5t6.5 99.5t36.5 112.5z" />
    <glyph glyph-name="six" unicode="6" horiz-adv-x="1585" 
d="M1031 1020q-87 0 -161.5 -30t-132 -82.5t-96.5 -122.5t-56 -150q-17 -81 -7 -150.5t46 -119.5t97.5 -78.5t147.5 -28.5q84 0 156 29.5t128 80t93.5 118.5t54.5 145q17 80 10.5 150.5t-39 123.5t-92.5 84t-149 31zM1186 1692q-114 0 -199 -49.5t-148 -128.5t-106 -176.5
t-73 -194.5q49 38 106.5 69t118.5 53t124 34t125 12q155 0 264.5 -51t173.5 -140.5t81 -210t-12 -258.5q-16 -76 -48 -156t-81 -156t-117 -143.5t-156.5 -118.5t-199 -80.5t-244.5 -29.5q-157 0 -262.5 42t-170 113.5t-94.5 166.5t-35 201.5t8.5 217t35.5 214.5
q29 137 72 269t103.5 250.5t139 218.5t178.5 172.5t223 113.5t273 41q111 0 193 -19.5t139.5 -51t92 -73t52 -86t20 -88t-5.5 -80.5q-17 -78 -70 -124t-129 -46q-60 0 -94 35t-42 97q-8 69 -71.5 105t-164.5 36z" />
    <glyph glyph-name="seven" unicode="7" horiz-adv-x="1585" 
d="M606 1651q-71 0 -107 40t-21 111q7 35 25 63.5t43.5 48t57.5 30t67 10.5h1085q33 0 59.5 -12.5t44 -34t23.5 -51t-1 -62.5q-8 -35 -27.5 -64.5t-47.5 -51.5q-106 -87 -210 -193.5t-202 -227t-187.5 -252t-168 -268t-143 -276t-111.5 -275.5q-20 -57 -43 -97.5t-51.5 -66
t-64 -37t-79.5 -11.5q-54 0 -85 16.5t-44.5 45t-12 65t13.5 77.5q37 125 96.5 256t135.5 262t166 260.5t189.5 251t206 234t214.5 209.5h-821z" />
    <glyph glyph-name="eight" unicode="8" horiz-adv-x="1585" 
d="M799 1446q-14 -65 1 -114t51 -82t88.5 -49.5t114.5 -16.5q60 0 115 18t99 51.5t75.5 82t44.5 110.5q13 61 2 107.5t-42.5 77t-81 46t-112.5 15.5q-57 0 -114.5 -15t-106.5 -45t-85 -76.5t-49 -109.5zM465 1458q28 129 100 228t172.5 165.5t220 101t242.5 34.5
q114 0 201.5 -20.5t151 -57.5t104.5 -87t62 -108.5t23 -124t-12 -131.5q-27 -130 -100 -227t-195 -162q128 -71 177.5 -194.5t15.5 -284.5q-32 -151 -112.5 -267t-193 -195t-248.5 -120t-279 -41q-151 0 -273.5 39t-202.5 117t-110.5 195t2.5 272q33 158 129.5 281
t254.5 194q-42 32 -72.5 76t-47.5 95t-19.5 107.5t9.5 114.5zM549 582q-17 -78 -2 -138.5t56.5 -102t106 -62.5t147.5 -21q80 0 150.5 23.5t126.5 66.5t94.5 103.5t54.5 134.5q14 66 -2.5 123.5t-56.5 100t-100.5 67t-133.5 24.5q-77 0 -149.5 -22.5t-132 -63.5
t-101.5 -100.5t-58 -132.5z" />
    <glyph glyph-name="nine" unicode="9" horiz-adv-x="1585" 
d="M968 934q87 0 161.5 30t132 82.5t96.5 122.5t56 150q17 81 7 150.5t-46 119.5t-97.5 78.5t-147.5 28.5q-84 0 -156 -29.5t-127.5 -80t-93.5 -118.5t-54 -145q-17 -80 -10.5 -150.5t38.5 -123.5t92 -84t149 -31zM813 262q76 0 139 23t114.5 62t93.5 92.5t75 114.5
t58.5 126.5t45.5 130.5q-50 -38 -107 -69t-118 -53t-124.5 -34t-124.5 -12q-155 0 -264.5 51t-173.5 140.5t-81 210t12 258.5q16 76 48 156t81 156t117 143.5t156.5 118.5t199 80.5t244.5 29.5q118 0 206 -24t151.5 -67t105 -102t64.5 -129t31 -148.5t4.5 -160.5t-16 -164
t-28.5 -160q-29 -137 -72 -269t-103.5 -250.5t-139 -218.5t-178.5 -172.5t-223.5 -113.5t-272.5 -41q-112 0 -193.5 19.5t-139 51t-92 73t-52 86t-20 88t5.5 80.5q17 78 70 124t129 46q60 0 94.5 -35t41.5 -97q4 -34 22.5 -60.5t49.5 -44.5t72.5 -27t91.5 -9z" />
    <glyph glyph-name="colon" unicode=":" horiz-adv-x="811" 
d="M456 1257q9 45 34.5 84t61 68.5t78.5 46.5t88 17t80.5 -17t58.5 -46.5t31.5 -68.5t-0.5 -84q-10 -45 -35.5 -84t-61 -68.5t-78 -46.5t-87.5 -17t-80.5 17t-59 46.5t-32 68.5t1.5 84zM230 193q9 45 34.5 84t61 68.5t78 46.5t87.5 17t80.5 -17t59 -46.5t32 -68.5t-0.5 -84
q-10 -45 -35.5 -84t-61 -68.5t-78 -46.5t-87.5 -17t-80.5 17t-59 46.5t-32 68.5t1.5 84z" />
    <glyph glyph-name="semicolon" unicode=";" horiz-adv-x="811" 
d="M455 1252q9 45 34.5 84t61 68.5t78.5 46.5t88 17t80.5 -17t58.5 -46.5t31.5 -68.5t-0.5 -84q-10 -45 -35.5 -84t-61 -68.5t-78 -46.5t-87.5 -17t-80.5 17t-59 46.5t-32 68.5t1.5 84zM218 199q9 44 34 82.5t60.5 67.5t77.5 46t86 17q64 0 106 -24t63.5 -66t24.5 -99.5
t-12 -124.5q-26 -120 -78.5 -212.5t-140.5 -173.5q-24 -22 -58 -47.5t-71.5 -47t-75 -35.5t-67.5 -14q-41 0 -57.5 21t-10.5 50q3 16 13.5 28.5t25.5 24t34 22.5t40 24q34 21 70 44t69 55t62 78t49 114q-26 -16 -50 -22.5t-50 -6.5q-45 0 -76 16.5t-49 44t-22.5 63.5t3.5 75
z" />
    <glyph glyph-name="less" unicode="&#x3c;" horiz-adv-x="1827" 
d="M739 761l832 -402q70 -33 84.5 -78.5t-14.5 -99.5q-23 -42 -56.5 -64.5t-71 -29t-76.5 1.5t-74 26l-998 509q-35 18 -52 55t-8 82q10 45 42.5 82.5t74.5 54.5l1228 513q47 19 89.5 27t75 0.5t53 -32t23.5 -69.5q3 -52 -31 -97t-119 -78z" />
    <glyph glyph-name="equal" unicode="=" horiz-adv-x="1708" 
d="M469 894q-73 0 -109.5 36t-23.5 96t64.5 96t124.5 36h1151q73 0 109.5 -36t23.5 -96t-64.5 -96t-124.5 -36h-1151zM351 343q-73 0 -109.5 36t-23.5 96t65 96t125 36h1151q73 0 109 -36t23 -96t-64.5 -96t-124.5 -36h-1151z" />
    <glyph glyph-name="greater" unicode="&#x3e;" horiz-adv-x="1827" 
d="M577 1162q-70 33 -85 78t11 97q22 45 52.5 69.5t66 32t74.5 -0.5t78 -27l1010 -513q34 -17 51.5 -54.5t7.5 -82.5q-9 -45 -42.5 -82t-75.5 -55l-1214 -509q-42 -18 -84.5 -26t-77.5 -1.5t-59 29t-29 64.5q-7 54 27 99.5t119 78.5l1002 402z" />
    <glyph glyph-name="question" unicode="?" horiz-adv-x="1647" 
d="M550 1530q14 65 50 127.5t89.5 117.5t120.5 101t142 79.5t155.5 52t160.5 18.5q84 0 163.5 -13.5t147.5 -41.5t122 -71.5t87 -103.5t43 -136.5t-10 -171.5q-19 -88 -67 -161t-110 -133t-132 -109t-132 -88q-43 -27 -80.5 -50t-68.5 -50.5t-56 -64t-43 -90.5
q-8 -25 -24 -49t-39 -42.5t-54.5 -29.5t-71.5 -11q-39 0 -64.5 15t-39 39t-16.5 53.5t3 59.5q15 70 48 126.5t78 103t97.5 85.5t105.5 75q51 34 100.5 69t91.5 73.5t72 82t41 96.5q13 61 2.5 109.5t-41 82t-80 51t-115.5 17.5q-74 0 -127 -19t-92 -49.5t-67.5 -69
t-54.5 -77.5q-19 -30 -39 -57.5t-44.5 -48.5t-55.5 -34t-72 -13q-31 0 -57.5 9.5t-43.5 28.5t-24 47t1 65zM665 200q9 43 33 81t57 66.5t73.5 45t82.5 16.5q41 0 74.5 -16.5t55 -45t29.5 -66.5t-1 -81t-33 -81t-57.5 -66.5t-74 -45t-81.5 -16.5q-42 0 -75.5 16.5t-54.5 45
t-29 66.5t1 81z" />
    <glyph glyph-name="at" unicode="@" horiz-adv-x="2327" 
d="M1095 943q-14 -65 -7 -114.5t31.5 -84t64.5 -52t91 -17.5q63 0 120.5 25.5t104.5 70.5t81 106t49 132q12 58 7.5 105.5t-26.5 81.5t-60.5 53t-94.5 19q-64 0 -123 -26.5t-107.5 -71t-82.5 -103.5t-48 -124zM1800 846l2 2q-5 -10 -11 -24.5t-12 -29.5t-10.5 -28.5
t-6.5 -22.5q-7 -35 4 -55.5t51 -20.5t93.5 29.5t106 86.5t98 140.5t68.5 191.5q37 173 8.5 306t-110 223t-209 136t-289.5 46q-108 0 -213 -29.5t-202.5 -82.5t-184 -128t-156 -166t-119.5 -196t-74 -218q-40 -190 -10.5 -340.5t114.5 -255.5t219 -161t303 -56
q106 0 188 14.5t145.5 35.5t110.5 45.5t83 45.5q31 17 54.5 29.5t41.5 12.5q16 0 30 -7t23 -19t12.5 -28t-0.5 -34q-8 -35 -46.5 -71.5t-97.5 -70t-133.5 -63t-153.5 -52t-157 -35t-145 -12.5q-144 0 -270.5 34t-230 98t-180.5 155t-121.5 204.5t-54 247.5t22.5 283
q31 147 96.5 280.5t157.5 247.5t206 207t243 158t268.5 100.5t282.5 35.5q127 0 242 -24.5t211 -73.5t168.5 -123.5t115 -175.5t51 -228t-24.5 -281q-29 -137 -88.5 -243t-135.5 -185.5t-162.5 -133.5t-170 -87.5t-157.5 -48.5t-124 -15q-139 0 -114 142
q-62 -58 -142.5 -89.5t-165.5 -31.5q-83 0 -149 36t-107.5 99t-55.5 148.5t7 184.5q30 139 95 253.5t151.5 196.5t185.5 127t197 45q119 0 195.5 -51.5t109.5 -151.5l40 97q11 27 26.5 43.5t33 25.5t35.5 12t33 3q36 0 54.5 -12.5t24 -33t0.5 -47.5t-16 -55z" />
    <glyph glyph-name="A" unicode="A" horiz-adv-x="1929" 
d="M1120 1869q43 73 96 102.5t122 29.5h106q32 0 61 -5t52.5 -19.5t39.5 -41.5t22 -70q46 -302 81 -534.5t61 -408t44.5 -299.5t30.5 -208t18.5 -134.5t9 -78.5t2 -40.5t-1.5 -19.5q-7 -33 -26.5 -61t-47 -49t-61.5 -33t-69 -12q-61 0 -99.5 22t-45.5 73l-60 428h-781
l-246 -429q-29 -51 -73 -73t-110 -22q-75 0 -113 41.5t-23 113.5q2 8 7 20.5t20.5 40.5t44.5 78.5t78.5 134.5t123 208.5t177.5 300t242.5 409t317.5 536.5zM1313 1650l-518 -911h637z" />
    <glyph glyph-name="B" unicode="B" horiz-adv-x="1929" 
d="M1261 1176q101 0 177 16t129 49t85 82t46 115q14 65 11 110t-20 73.5t-47 43.5t-71 22t-91.5 8t-107.5 1h-467l-111 -520h467zM369 0q-36 0 -65.5 14t-48.5 38t-26 56t1 68l350 1647q8 36 28.5 68t49.5 56t64 38t71 14h630q90 0 178.5 -7t167 -26.5t142 -54.5t104 -91.5
t53 -137.5t-10.5 -191q-31 -146 -105.5 -250.5t-197.5 -175.5q65 -31 110.5 -78.5t71 -108t30 -132.5t-12.5 -152q-16 -74 -50.5 -146.5t-85.5 -138.5t-118 -122.5t-147.5 -98t-174 -65t-197.5 -23.5h-811zM1206 299q80 0 146 21t117 60.5t85 96.5t49 129q17 80 -5.5 131.5
t-70.5 81.5t-115 41.5t-137 11.5h-545l-122 -573h598z" />
    <glyph glyph-name="C" unicode="C" horiz-adv-x="1975" 
d="M315 1001q30 142 87 275t137.5 249.5t184 212.5t227 165.5t265 107.5t299.5 38q126 0 228 -24t180.5 -64t134 -92t88 -107.5t44 -111t1.5 -101.5q-17 -81 -66.5 -127t-132.5 -46q-38 0 -63.5 11.5t-44.5 30.5t-33 44.5t-27 52.5h1q-21 42 -46 84t-65.5 75.5t-103 55
t-158.5 21.5q-78 0 -158 -19.5t-157 -59t-148 -100.5t-131 -143.5t-106 -187.5t-73 -234q-35 -161 -26 -298.5t65.5 -238.5t163 -158t268.5 -57q85 0 153.5 23.5t125.5 60.5t104 82t89 89q24 24 49 48.5t51 44.5t51.5 33t49.5 15q36 2 64.5 -8t47.5 -29.5t28 -46.5t6 -59
q-6 -71 -44.5 -139t-101.5 -129t-146.5 -113t-179.5 -90t-201 -59t-210 -21q-229 0 -399 66t-271 196.5t-128.5 326t27.5 455.5z" />
    <glyph glyph-name="D" unicode="D" horiz-adv-x="1982" 
d="M985 299q42 0 106 6.5t138.5 30.5t154 70t152 125t132 195.5t94.5 281.5q35 164 29 292t-61 216t-163 134t-277 46h-385l-297 -1397h377zM369 0q-36 0 -65.5 14t-48.5 38t-26 56t1 68l350 1647q8 36 28.5 68t49.5 56t64 38t71 14h532q240 0 413 -58.5t274.5 -177
t129 -296.5t-23.5 -418q-53 -252 -152 -447.5t-248.5 -329t-352.5 -203t-464 -69.5h-532z" />
    <glyph glyph-name="E" unicode="E" horiz-adv-x="1732" 
d="M730 872l-122 -573h967q31 0 56 -12t41 -32t22 -47.5t-1 -58.5q-6 -31 -23.5 -58t-42 -47.5t-54.5 -32t-61 -11.5h-1143q-36 0 -65.5 14t-48.5 38t-26 56t1 68l350 1647q8 36 28.5 68t49.5 56t64 38t71 14h1143q31 0 56 -12t41 -33t22 -48.5t-1 -58.5t-24.5 -58.5
t-42 -48t-54.5 -32.5t-61 -12h-967l-111 -520h886q31 0 56 -12t41 -33t22 -48.5t-1 -58.5q-6 -31 -24 -58.5t-42.5 -48.5t-54.5 -33t-61 -12h-886z" />
    <glyph glyph-name="F" unicode="F" horiz-adv-x="1618" 
d="M581 172q-8 -37 -25 -71.5t-44 -61.5t-63.5 -43t-84.5 -16t-78 16t-45.5 43t-17.5 61.5t6 71.5l351 1651q8 36 28.5 68t49.5 56t64 38t71 14h1060q31 0 56 -12t41 -33t22 -48.5t-1 -58.5t-24.5 -58.5t-42 -48t-54.5 -32.5t-61 -12h-884l-111 -520h753q31 0 56 -12t41 -33
t22 -48.5t-1 -58.5q-6 -31 -24 -58.5t-42.5 -48.5t-54.5 -33t-61 -12h-753z" />
    <glyph glyph-name="G" unicode="G" horiz-adv-x="2134" 
d="M2012 118q-6 -29 -21 -55.5t-37 -46t-50 -31t-61 -11.5q-48 0 -77 17.5t-43 47.5t-14.5 70.5t9.5 87.5q-88 -74 -173.5 -119.5t-167.5 -71t-159.5 -34.5t-148.5 -9q-154 0 -279.5 37t-220.5 104t-160 159.5t-99 203.5t-37 237t25 259q31 144 87 280.5t136.5 256.5
t183.5 220t227.5 172t269.5 112t309 40q156 0 272.5 -30.5t199.5 -79.5t136 -110.5t82 -125t37.5 -122.5t2.5 -102q-7 -50 -30 -82.5t-54.5 -51t-67 -26t-66.5 -7.5q-55 0 -91 30.5t-47 75.5q-8 29 -16.5 65t-25.5 73t-45.5 71.5t-74.5 62t-113.5 44t-162.5 16.5
q-112 0 -208 -30t-177.5 -83t-148 -125.5t-117 -157.5t-86.5 -179.5t-56 -190.5q-20 -94 -21 -184t18 -170.5t58 -147.5t98.5 -116t140.5 -76t183 -27q130 0 245 42t205.5 114t154 169t91.5 208h-496q-32 0 -57 12t-41 32t-22 47.5t1 59.5q7 31 24.5 59t42 48.5t54.5 32.5
t62 12h671q31 0 56.5 -12t42 -32.5t22.5 -48.5t-1 -59z" />
    <glyph glyph-name="H" unicode="H" horiz-adv-x="2032" 
d="M1875 173q-8 -37 -25 -71.5t-44 -61.5t-63.5 -43t-84.5 -16t-78 16t-45.5 43t-17.5 61.5t6 71.5l149 701h-942l-149 -701q-8 -37 -25 -71.5t-44 -61.5t-63.5 -43t-84.5 -16t-78 16t-45.5 43t-17.5 61.5t6 71.5l352 1654q8 37 25 71.5t43.5 61.5t63.5 43t85 16t78 -16
t45 -43t17.5 -61.5t-5.5 -71.5l-139 -653h942l139 653q8 37 25 71.5t43.5 61.5t63.5 43t85 16t78 -16t45 -43t17.5 -61.5t-5.5 -71.5z" />
    <glyph glyph-name="I" unicode="I" horiz-adv-x="795" 
d="M609 173q-8 -37 -25 -71.5t-44 -61.5t-63.5 -43t-84.5 -16t-78 16t-45.5 43t-17.5 61.5t6 71.5l352 1653q8 37 24.5 71.5t43 61.5t63.5 43t85 16t78 -16t45.5 -43t18 -61.5t-5.5 -71.5z" />
    <glyph glyph-name="J" unicode="J" horiz-adv-x="1466" 
d="M1310 1826q8 37 24.5 71.5t43 61.5t63.5 43t85 16t78 -16t45.5 -43t18 -61.5t-5.5 -71.5l-267 -1256q-30 -143 -95.5 -256.5t-162.5 -192.5t-223.5 -121t-279.5 -42q-124 0 -211.5 26.5t-145 71t-90 102t-45 119t-10 123t13.5 113.5q22 105 78.5 167t146.5 62
q47 0 78 -15.5t47 -44t17.5 -68t-8.5 -88.5q-12 -57 -8 -106t27 -85t67.5 -56.5t112.5 -20.5q63 0 117 16t97 53.5t75 98.5t51 150z" />
    <glyph glyph-name="K" unicode="K" horiz-adv-x="1858" 
d="M581 172q-8 -37 -25 -71.5t-44 -61.5t-63.5 -43t-84.5 -16t-78 16t-45.5 43t-17.5 61.5t6 71.5l353 1661q8 39 28.5 73t49 59t64 39.5t74.5 14.5t68 -14.5t47 -39.5t23.5 -59t-2.5 -73l-154 -727l1056 867q29 23 61.5 34t63 11t57 -12t43.5 -36q18 -24 23 -54t-2.5 -61
t-26.5 -60.5t-48 -52.5l-703 -558l485 -931q15 -29 15 -62.5t-12 -66t-35.5 -62.5t-57.5 -51q-33 -21 -67 -28t-65.5 -2t-57 22.5t-40.5 46.5l-458 892q-85 -65 -161 -129.5t-160 -128.5z" />
    <glyph glyph-name="L" unicode="L" horiz-adv-x="1552" 
d="M582 1833q8 36 27.5 70t47.5 59.5t64 41t77 15.5q39 0 68.5 -15.5t47 -41t23 -59.5t-2.5 -70l-326 -1534h848q31 0 56 -12t41 -32t22 -47.5t-1 -58.5q-6 -31 -23.5 -58t-42 -47.5t-54.5 -32t-61 -11.5h-1024q-36 0 -65.5 14t-48.5 38t-26 56t1 68z" />
    <glyph glyph-name="M" unicode="M" horiz-adv-x="2433" 
d="M576 1810q13 60 40 98t63 59.5t77.5 29.5t82.5 8h87q48 0 81.5 -10.5t56 -33t35.5 -58.5t19 -86l197 -1370l769 1370q27 52 54.5 87.5t59.5 58t70.5 32.5t86.5 10h91q41 0 79 -8t64.5 -29.5t37.5 -59.5t-2 -98l-350 -1646q-8 -37 -25 -71.5t-43.5 -61.5t-63.5 -43
t-85 -16t-78 16t-45.5 43t-18 61.5t5.5 71.5l274 1289l-793 -1370q-32 -57 -81 -84t-112 -27q-62 0 -100 26t-45 85l-212 1370l-274 -1289q-8 -37 -25 -71.5t-43.5 -61.5t-63 -43t-84.5 -16t-78.5 16t-46 43t-18 61.5t5.5 71.5z" />
    <glyph glyph-name="N" unicode="N" horiz-adv-x="2040" 
d="M571 1781q27 128 98.5 185.5t193.5 57.5q59 0 101 -27.5t65 -82.5l580 -1376l275 1293q20 97 76.5 145t139.5 48t119.5 -48t16.5 -145l-341 -1602q-13 -61 -35.5 -108.5t-56.5 -80t-80 -49.5t-106 -17q-47 0 -80 11.5t-56.5 31.5t-39.5 46t-28 56l-559 1338l-275 -1294
q-20 -96 -76 -142.5t-139 -46.5t-120 46.5t-17 142.5z" />
    <glyph glyph-name="O" unicode="O" horiz-adv-x="2138" 
d="M646 999q-19 -92 -23 -182.5t11 -173t50.5 -153t94.5 -122t143 -81t197 -29.5q115 0 213 29.5t180 81t148 122t116.5 153t85 173t54.5 182.5q19 92 23 183.5t-11 174t-51 153.5t-96 123.5t-145.5 82t-200.5 29.5q-113 0 -209.5 -29.5t-178 -82t-147 -123.5t-115.5 -153.5
t-85 -174t-54 -183.5zM294 999q29 137 84 268t134 247t181.5 213.5t226.5 167.5t269 109.5t310 39.5q166 0 295.5 -39.5t225 -109.5t157 -167.5t91.5 -213.5t29.5 -247t-29.5 -268t-84 -267t-134.5 -245t-182 -211.5t-227.5 -166t-271 -108t-312 -38.5q-165 0 -293.5 38.5
t-223 108t-156 166t-91 211.5t-29 245t29.5 267z" />
    <glyph glyph-name="P" unicode="P" horiz-adv-x="1827" 
d="M1229 1085q202 -3 314.5 76.5t144.5 227.5q31 150 -47.5 228.5t-281.5 78.5h-454l-130 -611h454zM580 1823q8 36 28.5 68t49.5 56t64 38t71 14h721q163 0 276.5 -40.5t178 -118.5t81.5 -191.5t-14 -259.5q-30 -143 -95 -255.5t-162.5 -190.5t-228.5 -118.5t-293 -38.5
h-545l-132 -620q-8 -36 -28 -70t-48.5 -59.5t-64 -41t-75.5 -15.5q-41 0 -70 15.5t-46.5 41t-22.5 59.5t3 70z" />
    <glyph glyph-name="Q" unicode="Q" horiz-adv-x="2138" 
d="M294 999q29 137 84 268t134 247t181.5 213.5t226.5 167.5t269 109.5t310 39.5q166 0 295.5 -39.5t225 -109.5t157 -167.5t91.5 -213.5t29.5 -247t-29.5 -268q-45 -213 -150.5 -403.5t-267.5 -335.5l154 -156q20 -20 27.5 -45.5t3.5 -53t-19 -55.5t-40 -53t-53.5 -40
t-56.5 -19.5t-54 3t-47 27.5l-200 204q-113 -52 -239 -80.5t-269 -28.5q-165 0 -293.5 38.5t-223 108t-156 166t-91 211.5t-29 245t29.5 267zM646 999q-19 -92 -23 -182.5t11 -173t50.5 -153t94.5 -122t143 -81t197 -29.5q63 0 119.5 8.5t110.5 25.5l-86 87
q-20 19 -27.5 44.5t-3.5 53.5t19.5 56.5t40.5 53.5t53.5 40t56.5 19t54 -3t46 -27l141 -144q53 53 96.5 115t77.5 129.5t59 139t40 143.5q19 92 23 183.5t-11 174t-51 153.5t-96 123.5t-145.5 82t-200.5 29.5q-113 0 -209.5 -29.5t-178 -82t-147 -123.5t-115.5 -153.5
t-85 -174t-54 -183.5z" />
    <glyph glyph-name="R" unicode="R" horiz-adv-x="1929" 
d="M1696 956q67 -9 109.5 -43.5t63.5 -92.5t21 -138t-18 -180q-11 -63 -12 -112t1.5 -89t4 -72.5t-4.5 -63.5q-9 -39 -28.5 -73t-47 -59t-61 -39t-69.5 -14q-54 0 -89 15t-55 39.5t-28 55.5t-9 62t3.5 59.5t8.5 48.5q27 129 36 232.5t-9.5 176t-69 111.5t-140.5 39h-584
l-139 -653q-8 -36 -27.5 -70t-47.5 -59.5t-64 -41t-77 -15.5t-70.5 15.5t-46.5 41t-22 59.5t3 70l352 1657q8 36 28.5 68t49.5 56t64 38t71 14h786q154 0 266.5 -37t180.5 -106.5t90 -171t-5 -230.5q-17 -78 -49 -151t-82.5 -137t-120.5 -117.5t-163 -92.5zM1272 1114
q80 0 157.5 13.5t142.5 47.5t112 93t67 149q13 63 6 114.5t-37.5 88t-85 56.5t-135.5 20h-594l-124 -582h491z" />
    <glyph glyph-name="S" unicode="S" horiz-adv-x="1827" 
d="M1449 1112q136 -38 220 -97t126.5 -133.5t47.5 -162t-17 -182.5q-32 -132 -114.5 -241.5t-207 -187t-287 -118t-354.5 -34.5q-138 4 -242 31.5t-179.5 71t-125 101t-76.5 122.5t-35 133.5t0 135.5q4 35 20.5 67t41.5 57t56.5 40t65.5 17q33 1 62 -7t50.5 -26t34 -47
t11.5 -69q-2 -69 21.5 -128.5t72.5 -103t124.5 -69.5t178.5 -29q94 -3 180.5 14.5t155.5 52t116 84t62 111.5q25 103 -26 171t-170 106q-117 36 -234.5 74t-234.5 76q-129 43 -204.5 101t-111 125.5t-37.5 142t16 151.5q26 108 74 192.5t112 148t142 108t163.5 72.5t177 42
t182.5 17q76 2 154 -9t150 -36.5t135 -66.5t110 -98t75.5 -130.5t30.5 -165.5q1 -35 -14 -67t-41 -57t-60.5 -39.5t-73.5 -14.5q-76 -1 -109 32.5t-40 89.5q-9 71 -34 123t-70 85t-112.5 48t-161.5 12q-89 -3 -161.5 -22.5t-127 -54t-90 -83.5t-50.5 -110q-16 -63 6 -106.5
t65.5 -73.5t100.5 -50t110 -35z" />
    <glyph glyph-name="T" unicode="T" horiz-adv-x="1626" 
d="M1343 1696l-324 -1525q-8 -37 -25 -71.5t-43.5 -61.5t-63 -43t-84.5 -16t-78 16t-45.5 43t-18 61.5t5.5 71.5l324 1525h-454q-32 0 -58.5 10.5t-45 30t-26 47.5t0.5 63q7 34 26.5 62.5t46 48t57.5 30.5t63 11h1274q31 0 58 -10.5t45.5 -30.5t25.5 -48t0 -63
q-8 -36 -27 -64t-45.5 -47.5t-58 -29.5t-62.5 -10h-468z" />
    <glyph glyph-name="U" unicode="U" horiz-adv-x="2056" 
d="M2019 733q-41 -194 -126 -339t-210 -241.5t-288 -145t-360 -48.5q-203 0 -351.5 45.5t-237.5 140.5t-115 241t17 347l233 1093q8 37 24.5 71.5t43 61.5t63.5 43t85 16t78 -16t45.5 -43t18 -61.5t-5.5 -71.5l-233 -1093q-51 -239 49.5 -357t348.5 -118q234 0 375.5 118
t192.5 357l233 1093q8 37 24.5 71.5t43 61.5t63.5 43t85 16t78 -16t46 -43t18.5 -61.5t-5.5 -71.5z" />
    <glyph glyph-name="V" unicode="V" horiz-adv-x="1740" 
d="M1119 111q-23 -41 -50 -67t-59 -40.5t-70 -20t-83 -5.5t-80.5 5.5t-61.5 20t-41.5 40.5t-21.5 67l-221 1652q-5 36 0.5 73.5t23.5 71t51 60t83 40.5q54 15 92 10.5t63 -23t37.5 -48.5t16.5 -66l166 -1447l788 1453q18 34 43.5 63.5t57 47.5t70.5 22.5t84 -10.5
q42 -14 63.5 -38.5t26 -55.5t-6.5 -67.5t-33 -75.5z" />
    <glyph glyph-name="W" unicode="W" horiz-adv-x="2589" 
d="M2129 160q-24 -50 -49.5 -84.5t-57 -56t-71 -31t-91.5 -9.5q-54 0 -88.5 11.5t-55.5 35t-30 58.5t-12 83l-74 1332l-648 -1343q-24 -49 -48.5 -82.5t-55.5 -54.5t-69.5 -30.5t-89.5 -9.5q-53 0 -87 11.5t-54.5 34t-29.5 57t-11 81.5l-71 1583q-2 31 -1 57t7 52
q9 42 31 72.5t51 50.5t63 29.5t66 9.5q70 0 104 -34.5t36 -115.5l38 -1326l625 1309q18 37 38.5 68t49.5 53t69.5 34t98.5 12q66 0 105.5 -10.5t61 -31.5t29 -52.5t9.5 -73.5l68 -1317l613 1339q37 79 83.5 112.5t115.5 33.5q31 0 60 -9.5t49.5 -29t29.5 -49t0 -70.5
q-6 -26 -16 -51t-25 -55z" />
    <glyph glyph-name="X" unicode="X" horiz-adv-x="1613" 
d="M963 733l-590 -669q-11 -13 -26.5 -28t-35.5 -27.5t-45 -21t-56 -8.5q-38 0 -67.5 12.5t-48 35t-26 52t0.5 64.5q6 29 22.5 55.5t36.5 50.5l686 783l-324 710q-11 25 -16.5 52t1.5 58q7 36 28 67t50 54t65.5 36t75.5 13q32 0 54.5 -8.5t37.5 -21.5t24.5 -28.5t15.5 -29.5
l261 -636l557 641q11 13 25.5 27.5t33.5 27t43.5 20.5t54.5 8q37 0 66 -12.5t47.5 -34t25.5 -51t0 -62.5q-6 -29 -21.5 -55t-36.5 -50l-647 -729l356 -766q12 -26 17 -53t-1 -58q-8 -36 -29 -67.5t-50.5 -54.5t-66 -36.5t-75.5 -13.5q-32 0 -54.5 9t-38 22t-25 28.5
t-15.5 29.5z" />
    <glyph glyph-name="Y" unicode="Y" horiz-adv-x="1746" 
d="M1083 171q-8 -37 -25 -71.5t-44 -61.5t-64 -43t-85 -16t-78.5 16t-46.5 43t-18.5 61.5t5.5 71.5l134 632l-410 952q-19 45 -10.5 92.5t37.5 85.5t75.5 62.5t103.5 24.5q33 0 56.5 -6.5t40.5 -20t29 -33.5t23 -47l315 -774l640 778q21 25 41 44.5t42 32.5t48 19.5t58 6.5
q26 0 55 -8t51.5 -27t33.5 -50t1 -77q-5 -24 -18.5 -47.5t-31.5 -45.5l-823 -958z" />
    <glyph glyph-name="Z" unicode="Z" horiz-adv-x="1927" 
d="M1672 1694h-908q-39 0 -71.5 10t-54 29.5t-30.5 48t-1 66.5q8 37 29 65.5t50.5 47.5t66.5 29t76 10h1218q34 0 62.5 -8.5t46.5 -28t24 -52t-4 -80.5q-8 -36 -29.5 -73t-53.5 -68l-1427 -1384h1029q39 0 71.5 -10t54 -29.5t30.5 -48.5t1 -66t-29 -65.5t-50.5 -47.5
t-66.5 -29t-76 -10h-1284q-51 0 -89.5 9.5t-61.5 31t-30 57.5t4 89q10 45 36 80.5t60 69.5z" />
    <glyph glyph-name="bracketleft" unicode="[" horiz-adv-x="770" 
d="M433 -295h127q32 0 57.5 -7t41.5 -22t21.5 -38.5t-1.5 -57.5t-22.5 -58t-38 -39t-51 -21.5t-60.5 -6.5h-244q-39 0 -74 8.5t-58 32t-31.5 64.5t5.5 107l461 2169q14 66 40 107t59 64.5t71.5 32t77.5 8.5h244q32 0 57.5 -6.5t41.5 -21.5t21.5 -39t-1.5 -58t-22.5 -58
t-38 -39t-51 -21.5t-60.5 -6.5h-127z" />
    <glyph glyph-name="backslash" unicode="\" horiz-adv-x="1057" 
d="M1045 168q5 -23 7.5 -44.5t-2.5 -41.5q-6 -29 -23.5 -52t-40.5 -38.5t-48.5 -24t-47.5 -8.5q-39 0 -62 10.5t-36 26t-18 33.5t-8 33v-1l-324 1793q-4 21 -7 43.5t2 42.5q6 29 23.5 52t40.5 39t48.5 24.5t48.5 8.5q38 0 61 -10.5t35.5 -26t17.5 -33.5t8 -33z" />
    <glyph glyph-name="bracketright" unicode="]" horiz-adv-x="770" 
d="M656 1798h-127q-65 0 -99.5 28.5t-20.5 96.5q15 68 61.5 96.5t111.5 28.5h244q39 0 74 -8.5t58 -32t31.5 -64.5t-5.5 -107l-461 -2169q-14 -66 -40 -107t-59 -64.5t-71.5 -32t-77.5 -8.5h-244q-64 0 -98.5 28.5t-20.5 96.5q14 67 61 96t111 29h127z" />
    <glyph glyph-name="asciicircum" unicode="^" horiz-adv-x="1708" 
d="M1209 1656l-542 -714q-23 -29 -44 -48t-43 -30t-46 -15t-52 -4q-52 0 -76 15.5t-27 41t12.5 58.5t42.5 68l666 872q25 32 47.5 52.5t45 32.5t45 16.5t46.5 4.5t44.5 -4.5t38 -16.5t31 -32.5t24.5 -52.5l294 -873q13 -39 13.5 -72.5t-13.5 -58t-43.5 -38.5t-77.5 -14
q-28 0 -51 4t-41.5 15t-32.5 30t-23 48z" />
    <glyph glyph-name="underscore" unicode="_" horiz-adv-x="1446" 
d="M27 -421q-24 0 -41.5 9.5t-28 25.5t-13.5 37.5t2 45.5t17 45.5t29.5 37.5t39 25t45.5 9h1210q48 0 70.5 -34t11.5 -83q-5 -24 -17.5 -45.5t-30 -37.5t-39 -25.5t-45.5 -9.5h-1210z" />
    <glyph glyph-name="grave" unicode="`" horiz-adv-x="885" 
d="M1025 1771q18 -32 24 -54.5t1 -44.5q-5 -25 -18.5 -46t-32.5 -36.5t-41.5 -24t-46.5 -8.5q-43 0 -69 23t-46 51l-152 219q-19 27 -28 57t-6 59t18.5 56.5t45.5 49.5q46 34 83 35.5t65.5 -16t49.5 -48t36 -58.5z" />
    <glyph glyph-name="a" unicode="a" horiz-adv-x="1532" 
d="M1446 348q-9 -44 -9 -75t5 -53t13.5 -37.5t17.5 -28.5q9 -14 16 -27.5t5 -33.5q-4 -32 -21.5 -56t-43 -40.5t-56.5 -25.5t-61 -10q-129 -5 -183.5 54t-35.5 171q-84 -80 -161 -125t-151.5 -67t-147 -27.5t-146.5 -5.5q-78 0 -147 28t-116.5 80t-67 126.5t0.5 168.5
q17 80 50 143t78 111t101 82.5t119 58.5t132.5 39.5t140.5 25.5l245 28q40 5 77.5 14t68 28.5t53.5 52.5t34 87q11 52 -4 87t-49 55.5t-82 29t-102 8.5q-77 0 -131.5 -15.5t-95.5 -41.5t-73 -61t-64 -74t-68 -55t-78 -16q-32 0 -55 11t-37.5 30t-19 44t1.5 52
q9 44 35.5 91.5t69 92t101 84.5t131 70.5t159 48t186.5 17.5q135 0 242 -23.5t177 -73t98 -126t5 -183.5zM1187 709q-30 -18 -61 -30t-60 -20t-54 -12.5t-42 -7.5l-146 -21q-69 -11 -123.5 -28.5t-94.5 -45t-66 -66.5t-38 -93q-9 -41 0.5 -77.5t35 -63.5t67 -43t97.5 -16
q86 0 161 28t133.5 74.5t97 106t52.5 123.5z" />
    <glyph glyph-name="b" unicode="b" horiz-adv-x="1688" 
d="M1412 750q18 86 14 169t-37 148t-98 105t-170 40q-106 0 -188 -42t-142 -109.5t-99 -152.5t-57 -171q-20 -92 -16.5 -177.5t37 -151.5t101.5 -106t179 -40q106 0 186 41.5t138 110t95 156.5t57 180zM547 1841q8 39 27.5 71.5t46.5 56.5t60.5 37t71.5 13q37 0 65 -13
t45.5 -37t22.5 -56.5t-3 -71.5l-109 -514q57 55 115.5 90.5t117 55t114.5 27t108 7.5q118 0 209 -29.5t157.5 -82t108.5 -124.5t62 -157.5t18.5 -181.5t-22.5 -195q-34 -160 -105.5 -300t-179.5 -244.5t-250 -165t-317 -60.5q-57 0 -111 7.5t-103 28.5t-92.5 58.5
t-78.5 96.5q-8 -37 -26.5 -69.5t-45 -56.5t-61 -38t-73.5 -14t-67 14t-44.5 38t-21.5 56.5t3 69.5z" />
    <glyph glyph-name="c" unicode="c" horiz-adv-x="1487" 
d="M224 695q37 174 115.5 319.5t194 250.5t266 163t332.5 58q123 0 221.5 -32t164.5 -83.5t96 -118t15 -135.5q-8 -39 -28.5 -68.5t-48 -49t-61 -29.5t-67.5 -10q-27 0 -45.5 8t-32 21t-23 30t-16.5 35q-13 26 -28.5 52.5t-42.5 48t-68.5 35t-106.5 13.5q-42 0 -89 -10.5
t-95 -34t-95 -62t-88 -95t-74 -132t-54 -174.5q-22 -103 -12.5 -185.5t47.5 -141t102 -90t152 -31.5q59 0 104.5 14t82 36.5t65 50.5t52.5 55q19 21 39 41t42.5 35.5t48.5 25t58 9.5q34 0 60.5 -12t43 -31.5t23 -44.5t0.5 -52q-9 -43 -35.5 -90t-70 -92t-102.5 -86.5
t-132.5 -72.5t-162 -49.5t-189.5 -18.5q-182 0 -304 54.5t-189.5 152t-82.5 231.5t18 292z" />
    <glyph glyph-name="d" unicode="d" horiz-adv-x="1688" 
d="M594 750q-20 -92 -20 -180t28.5 -156.5t91 -110t168.5 -41.5q111 0 196 40t146.5 106t101 151.5t59.5 177.5q12 57 15.5 115t-4.5 110.5t-29 98t-56.5 79.5t-87.5 53t-122 19q-105 0 -187 -40t-142.5 -105t-100 -148t-57.5 -169zM1565 158q-8 -37 -26.5 -69.5
t-45.5 -56.5t-61 -38t-73 -14t-67.5 14t-45 38t-21 56.5t3.5 69.5q-62 -59 -121 -96.5t-117 -58.5t-115 -28.5t-114 -7.5q-175 0 -291.5 60.5t-179.5 165t-75 244.5t22 300q21 99 60.5 195t96 181.5t129.5 157.5t161.5 124.5t192 82t221.5 29.5q57 0 111 -8.5t103 -29
t91 -55.5t74 -87l109 514q8 39 27.5 71.5t46.5 56.5t61 37t71 13t65.5 -13t45.5 -37t22 -56.5t-3 -71.5z" />
    <glyph glyph-name="e" unicode="e" horiz-adv-x="1532" 
d="M1049 1216q-82 0 -152 -32t-126 -83t-96.5 -114.5t-62.5 -125.5h713q5 66 -5.5 129.5t-42 114t-87.5 81t-141 30.5zM555 624q-12 -75 0.5 -142t51 -116.5t104 -78.5t160.5 -29q63 0 111.5 13.5t87 33t70 43t61 43t59.5 33t67 13.5q33 0 57.5 -12t40 -31.5t21 -44.5
t1.5 -51q-11 -66 -46 -116.5t-86 -87.5t-114.5 -62.5t-131.5 -40.5t-136.5 -21.5t-129.5 -6.5q-192 0 -318.5 57.5t-194 160t-80 244t22.5 308.5q36 171 119 310t199.5 237.5t261 152.5t304.5 54q163 0 279.5 -53.5t184.5 -146.5t87 -219.5t-12 -272.5q-10 -49 -25.5 -82
t-39.5 -52.5t-59 -28t-84 -8.5h-893z" />
    <glyph glyph-name="f" unicode="f" horiz-adv-x="938" 
d="M532 1231h-113q-68 0 -91 30t-12 81t47 81.5t104 30.5h113l45 213q19 88 65.5 155t111 112t142 68t157.5 23q48 0 87.5 -9.5t66.5 -29t38.5 -50.5t2.5 -73q-5 -22 -17 -43.5t-28.5 -38t-36.5 -26.5t-40 -10q-8 0 -18.5 1t-20.5 3t-20 3.5t-26 1.5q-58 0 -91.5 -34.5
t-44.5 -89.5l-37 -176h125q148 0 125 -112q-12 -56 -56 -83.5t-117 -27.5h-125l-233 -1096q-18 -85 -73 -127.5t-131 -42.5t-113 42.5t-19 127.5z" />
    <glyph glyph-name="g" unicode="g" horiz-adv-x="1638" 
d="M831 270q106 0 187.5 42.5t140 111t96 154.5t55.5 172q17 81 14 161t-34 143.5t-92 102.5t-159 39q-102 0 -179 -37t-133.5 -99.5t-92.5 -145t-55 -173.5q-12 -55 -16.5 -111.5t1.5 -109t23.5 -98t49.5 -79.5t79.5 -53.5t114.5 -19.5zM713 -340q103 0 181.5 31t136 89
t95 140.5t59.5 185.5l8 39q-109 -87 -218 -124t-217 -37q-172 0 -288 59.5t-179.5 160.5t-77.5 234.5t18 282.5q18 84 50.5 173.5t82.5 174.5t118 161t157 133t200 90.5t246 33.5q57 0 109.5 -9.5t98 -31t83 -55.5t64.5 -83q17 82 66.5 125.5t128.5 43.5q82 0 112.5 -43.5
t13.5 -125.5l-259 -1214q-38 -180 -107 -313.5t-174 -222t-248 -132.5t-329 -44q-72 0 -143 12t-134 34t-115.5 53t-88 70t-51 83.5t-4.5 94.5q7 35 23 65t39.5 51.5t54 34t68.5 12.5q37 0 62 -17t46.5 -43t44.5 -56t57 -56t84 -43t126 -17z" />
    <glyph glyph-name="h" unicode="h" horiz-adv-x="1589" 
d="M1467 159q-8 -39 -27 -71.5t-46 -56.5t-60.5 -37t-72.5 -13t-67.5 13t-45 37t-21 56.5t3.5 71.5l172 808q23 108 -24 168.5t-165 60.5q-92 0 -167.5 -30t-132.5 -81.5t-94.5 -120t-53.5 -145.5l-141 -661q-8 -39 -27 -71.5t-46 -56.5t-60.5 -37t-72.5 -13t-67.5 13
t-45 37t-21 56.5t3.5 71.5l358 1683q8 39 27.5 71.5t46.5 56.5t60.5 37t71.5 13q37 0 65 -13t45.5 -37t22.5 -56.5t-3 -71.5l-110 -516q53 43 110 74t114 51.5t112 30.5t104 10q158 0 253 -41.5t141 -114.5t49.5 -172.5t-21.5 -216.5z" />
    <glyph glyph-name="i" unicode="i" horiz-adv-x="705" 
d="M795 1296q8 39 3.5 71.5t-21.5 56.5t-45 37t-67 13t-73 -13t-61 -37t-45.5 -56.5t-26.5 -71.5l-242 -1138q-8 -39 -3.5 -71.5t21 -56.5t45 -37t67.5 -13t72.5 13t60.5 37t46 56.5t27 71.5zM547 1814q8 39 30.5 74t54 61t70 41t77.5 15t70.5 -15t52 -41t28 -61t-0.5 -74
t-30.5 -74t-54 -61t-70 -41t-77.5 -15t-70.5 15t-52 41t-28 61t0.5 74z" />
    <glyph glyph-name="j" unicode="j" horiz-adv-x="705" 
d="M547 1814q8 39 30.5 74t54 61t70 41t77.5 15t70.5 -15t52 -41t28 -61t-0.5 -74t-30.5 -74t-54 -61t-70 -41t-77.5 -15t-70.5 15t-52 41t-28 61t0.5 74zM138 -215q-6 -27 -27 -47.5t-49 -20.5h-54q-60 0 -98.5 -32t-54.5 -104q-17 -83 26 -126t152 -43q106 0 181.5 25.5
t127.5 76.5t85 128t55 180l313 1474q8 39 3.5 71.5t-21.5 56.5t-45 37t-67 13t-73 -13t-61 -37t-45.5 -56.5t-26.5 -71.5z" />
    <glyph glyph-name="k" unicode="k" horiz-adv-x="1456" 
d="M1094 905l298 -653q3 -6 6.5 -16t6.5 -24t3 -31.5t-4 -38.5q-7 -32 -26 -61.5t-45 -52t-58 -35.5t-66 -13q-30 0 -52.5 7t-38.5 18.5t-26 25t-16 26.5l-285 623l-190 -143l-81 -379q-8 -39 -26.5 -71.5t-44.5 -56.5t-59.5 -37t-72.5 -13t-67 13t-44.5 37t-20.5 56.5
t4 71.5l358 1683q8 39 26.5 71.5t44.5 56.5t60 37t73 13t66.5 -13t44 -37t20.5 -56.5t-4 -71.5l-194 -911l611 482q32 26 66.5 45t72.5 19q49 0 80 -27.5t40 -67t-7 -85t-62 -81.5z" />
    <glyph glyph-name="l" unicode="l" horiz-adv-x="705" 
d="M575 1841q8 39 26.5 71.5t45.5 56.5t61 37t73 13t67 -13t45 -37t21.5 -56.5t-3.5 -71.5l-358 -1683q-8 -39 -27 -71.5t-46 -56.5t-60.5 -37t-72.5 -13t-67.5 13t-45 37t-21 56.5t3.5 71.5z" />
    <glyph glyph-name="m" unicode="m" horiz-adv-x="2408" 
d="M755 1299q102 99 214 141.5t239 42.5q61 0 118.5 -11.5t106 -35t86 -59t59.5 -83.5q204 189 466 189q120 0 211 -25.5t148 -79.5t76 -139t-6 -203l-187 -878q-8 -39 -27 -71.5t-46 -56.5t-60.5 -37t-72.5 -13t-67.5 13t-45 37t-21 56.5t3.5 71.5l170 800q12 54 10.5 97.5
t-20.5 73.5t-59 46.5t-106 16.5q-75 0 -139 -21t-113.5 -60t-83.5 -95.5t-49 -126.5l-155 -731q-8 -39 -27 -71.5t-46 -56.5t-60.5 -37t-72.5 -13t-67.5 13t-45 37t-21 56.5t3.5 71.5l165 776q12 55 13 102.5t-15.5 82t-54 54t-101.5 19.5q-63 0 -115 -16t-94.5 -42
t-75 -58.5t-55.5 -66t-37 -65.5t-19 -55l-155 -731q-8 -39 -27 -71.5t-46 -56.5t-60.5 -37t-72.5 -13t-67.5 13t-45 37t-21 56.5t3.5 71.5l243 1141q8 39 25.5 71.5t42.5 56.5t58 37t72 13t66.5 -13t43 -37t19.5 -56.5t-4 -71.5z" />
    <glyph glyph-name="n" unicode="n" horiz-adv-x="1589" 
d="M1467 158q-8 -39 -27 -71.5t-46 -56.5t-60.5 -37t-72.5 -13t-67.5 13t-45 37t-21 56.5t3.5 71.5l171 805q23 108 -24 168.5t-165 60.5q-92 0 -167.5 -30t-132.5 -81.5t-94.5 -120t-53.5 -145.5l-140 -657q-8 -39 -27 -71.5t-46 -56.5t-60.5 -37t-72.5 -13t-67.5 13
t-45 37t-21 56.5t3.5 71.5l243 1141q8 39 25.5 71.5t42.5 56.5t58 37t72 13t66.5 -13t43 -37t19.5 -56.5t-4 -71.5q92 85 204 134.5t253 49.5q158 0 253 -41t141 -113.5t49 -172.5t-22 -218z" />
    <glyph glyph-name="o" unicode="o" horiz-adv-x="1634" 
d="M576 725q-25 -115 -12.5 -202.5t53.5 -146t107 -88.5t149 -30q80 0 157.5 30t144 88.5t116.5 146t75 202.5q24 112 11 199.5t-54 148t-105.5 92t-144.5 31.5q-83 0 -162 -31.5t-145.5 -92t-116 -148t-73.5 -199.5zM232 725q34 161 110.5 300.5t191 242t266 161
t335.5 58.5q183 0 309.5 -58.5t198 -161t89 -242t-16.5 -300.5q-34 -160 -111 -298.5t-192 -240.5t-266.5 -160.5t-334.5 -58.5q-184 0 -310.5 58.5t-197.5 160.5t-88 240.5t17 298.5z" />
    <glyph glyph-name="p" unicode="p" horiz-adv-x="1688" 
d="M1402 704q13 61 18 121.5t-1.5 114.5t-25.5 100t-53 80t-85 53t-121 19q-111 0 -196 -40t-146.5 -106t-101.5 -151.5t-59 -177.5q-12 -57 -15.5 -115t4.5 -110.5t29 -98t56.5 -79.5t87 -53t122.5 -19q105 0 187 40t142.5 105t100 148t57.5 169zM431 1296q8 37 26.5 69.5
t45.5 56.5t61 38t73 14t67.5 -14t45 -38t21 -56.5t-3.5 -69.5q60 59 119.5 96.5t117.5 58.5t115.5 28.5t114.5 7.5q175 0 291 -60.5t179 -165t75.5 -244.5t-21.5 -300q-21 -100 -60.5 -195.5t-96 -181t-129.5 -157.5t-161.5 -124.5t-192 -82t-221.5 -29.5q-52 0 -105 7.5
t-103 27t-94 54.5t-77 91l-109 -514q-8 -39 -27.5 -71.5t-46.5 -56.5t-61 -37t-71 -13q-38 0 -66 13t-45 37t-22 56.5t3 71.5z" />
    <glyph glyph-name="q" unicode="q" horiz-adv-x="1688" 
d="M584 704q-18 -86 -14.5 -169t36.5 -148t98.5 -105t170.5 -40q106 0 188 42t142 109.5t99 152.5t57 171q19 92 16 177.5t-36.5 151.5t-101.5 106t-179 40q-106 0 -186 -41.5t-138 -110t-95.5 -156.5t-56.5 -180zM1449 -387q-8 -39 -27.5 -71.5t-46.5 -56.5t-61 -37
t-71 -13t-65 13t-45.5 37t-22.5 56.5t3 71.5l109 514q-57 -56 -115.5 -91t-117 -54.5t-114.5 -27t-108 -7.5q-118 0 -209 29.5t-157.5 82t-108.5 124.5t-62 157.5t-18.5 181t22.5 195.5q34 160 105.5 300t179.5 244.5t250 165t317 60.5q57 0 113 -8t106 -29.5t93 -58.5
t73 -95q8 37 26.5 69.5t45 56.5t61 38t73.5 14t67 -14t44.5 -38t21.5 -56.5t-3 -69.5z" />
    <glyph glyph-name="r" unicode="r" horiz-adv-x="987" 
d="M733 1176q31 62 67 118t81 98t99.5 66.5t122.5 24.5q43 0 76.5 -13t55 -36.5t29.5 -55t0 -68.5q-11 -50 -33 -84t-51.5 -55t-63 -30.5t-66.5 -9.5h-27q-65 0 -124 -26.5t-109 -82.5t-90 -143t-66 -208l-109 -513q-8 -39 -27 -71.5t-46 -56.5t-60.5 -37t-72.5 -13
t-67.5 13t-45 37t-21 56.5t3.5 71.5l242 1138q8 39 25.5 71.5t43 56.5t59 37t72.5 13t66 -13t42.5 -37t19 -56.5t-4.5 -71.5l-26 -120h5z" />
    <glyph glyph-name="s" unicode="s" horiz-adv-x="1430" 
d="M305 1046q17 80 55.5 144t92 113t118.5 84t135.5 57t143 32.5t140.5 10.5q75 0 146.5 -11t134 -31t113.5 -48.5t85 -63t49 -75.5t6 -85q-7 -32 -23 -60.5t-40 -51t-54.5 -35.5t-65.5 -13q-24 0 -43.5 6t-36 16.5t-30.5 24.5t-28 29q-20 20 -44.5 41t-55 37.5t-68.5 27
t-84 10.5q-53 0 -100 -8t-83 -24.5t-59.5 -41t-30.5 -57.5q-9 -43 3 -69t39.5 -42.5t68 -27t88.5 -22.5l162 -41q80 -19 160.5 -49.5t141.5 -80t90.5 -122t7.5 -175.5q-17 -81 -55.5 -147.5t-92.5 -119.5t-120.5 -92.5t-139.5 -65.5t-149.5 -39t-150.5 -13q-148 0 -262 31.5
t-189 84t-107.5 120t-17.5 139.5q6 30 20.5 57.5t37 49t52.5 34t68 12.5q52 0 86 -24t63 -77q16 -29 36.5 -57t53 -49.5t81 -35t119.5 -13.5q56 0 105 10t87.5 29.5t63.5 47.5t33 64q9 45 -1.5 76.5t-37.5 54t-70 39t-98 30.5l-227 59q-80 21 -147 52t-112.5 77t-63.5 111.5
t1 155.5z" />
    <glyph glyph-name="t" unicode="t" horiz-adv-x="918" 
d="M609 1735q18 85 73 127.5t131 42.5t113 -42.5t19 -127.5l-60 -282h125q148 0 126 -111q-12 -56 -56 -84t-117 -28h-125l-181 -850q-11 -55 7.5 -89.5t76.5 -34.5q24 0 45.5 3t42.5 3q25 0 41 -11t24 -29t9 -40.5t-3 -44.5q-9 -42 -33.5 -73t-60 -50.5t-79.5 -29t-92 -9.5
q-201 0 -281 90.5t-43 267.5l191 897h-93q-68 0 -91 30.5t-12 81.5t46.5 81t103.5 30h93z" />
    <glyph glyph-name="u" unicode="u" horiz-adv-x="1597" 
d="M431 1295q8 39 26.5 71.5t45.5 56.5t60.5 37t72.5 13t67.5 -13t45.5 -37t21.5 -56.5t-3.5 -71.5l-172 -807q-23 -108 24.5 -168.5t165.5 -60.5q92 0 168.5 30t134.5 81.5t96.5 120t55.5 145.5l140 659q8 39 27 71.5t46 56.5t60.5 37t72.5 13q79 0 112.5 -50t17.5 -128
l-243 -1143q-8 -39 -25.5 -71.5t-43 -56.5t-58.5 -37t-72 -13t-66 13t-43 37t-19.5 56.5t4.5 71.5q-93 -86 -207.5 -135t-256.5 -49q-158 0 -253 41t-141 113.5t-49 172.5t22 218z" />
    <glyph glyph-name="v" unicode="v" horiz-adv-x="1346" 
d="M1267 1337q7 13 21 37t37.5 47t57.5 40t82 17q42 0 74.5 -18t48 -50.5t11.5 -76.5t-34 -96l-659 -1135q-18 -32 -38 -55.5t-47 -39t-63.5 -23t-88.5 -7.5q-53 0 -87 8t-54.5 23.5t-30 39.5t-14.5 56l-178 1122q-9 55 4 99t41 76.5t67 52t83 24.5q51 6 81.5 -11
t47.5 -42.5t23.5 -52.5t8.5 -40l112 -914z" />
    <glyph glyph-name="w" unicode="w" horiz-adv-x="2079" 
d="M1576 475l418 862q7 14 21.5 39.5t38.5 49.5t58 40t81 12q57 -6 89 -26t43 -51.5t2.5 -71t-32.5 -84.5l-608 -1148q-16 -30 -35 -52.5t-45 -37.5t-62 -22.5t-86 -7.5q-51 0 -84.5 8t-53.5 23.5t-28.5 38t-10.5 51.5l-44 844l-393 -845q-15 -31 -33.5 -53.5t-45.5 -37.5
t-64.5 -22t-89.5 -7q-53 0 -87 7.5t-54.5 23t-29.5 38t-12 52.5l-116 1131q-11 111 41 176t169 73q52 4 81.5 -13.5t43.5 -42.5t17.5 -51.5t4.5 -41.5l54 -854l400 870q14 30 33 54.5t47 42t65.5 27t88.5 9.5q50 0 83.5 -9t54 -26t29.5 -41.5t11 -54.5z" />
    <glyph glyph-name="x" unicode="x" horiz-adv-x="1307" 
d="M761 512l-393 -445q-39 -43 -85.5 -61.5t-89 -16.5t-76 22t-47.5 53t-3.5 77t57.5 95l481 526l-227 451q-23 45 -14 89.5t37 81t70 60.5t85.5 28t83 -16t63.5 -71l168 -357l308 340q47 51 97.5 73.5t95 21.5t78 -22t45.5 -57t-2 -83t-64 -100l-401 -419l257 -531
q22 -46 14 -93t-36 -85.5t-69.5 -63.5t-86 -27.5t-86 22t-69.5 86.5z" />
    <glyph glyph-name="y" unicode="y" horiz-adv-x="1381" 
d="M189 -614q-60 0 -100.5 13.5t-63 36.5t-29.5 53t0 63q15 73 69 109.5t128 36.5h35q53 0 97 22.5t73 70.5l138 225l-217 1189q-14 69 3 121t51.5 85.5t79.5 47.5t87.5 6t75 -39.5t42.5 -88.5l135 -919l512 925q7 13 21 35.5t37.5 44.5t57.5 37.5t81 14.5q40 -1 63.5 -16.5
t35.5 -38.5t13.5 -51.5t-3.5 -57t-14.5 -53.5t-19.5 -42l-842 -1421q-66 -109 -128.5 -186.5t-128 -127t-136 -72.5t-153.5 -23z" />
    <glyph glyph-name="z" unicode="z" horiz-adv-x="1511" 
d="M1177 1172h-610q-26 0 -51 8.5t-43 25.5t-26 44t0 63q7 36 26 62.5t44 43.5t53.5 25.5t55.5 8.5h924q65 0 91.5 -38.5t12.5 -105.5q-6 -27 -29 -61t-54 -63l-961 -905h700q27 0 50.5 -8.5t39.5 -25.5t22.5 -43.5t-1.5 -62.5t-25.5 -62.5t-41 -43.5t-50.5 -25.5t-53 -8.5
h-1002q-36 0 -62 10.5t-41.5 28.5t-20.5 41t0 48q9 44 34.5 80t52.5 62z" />
    <glyph glyph-name="braceleft" unicode="{" horiz-adv-x="967" 
d="M885 1082q-18 -87 -51.5 -145.5t-74.5 -96t-85 -57.5t-83 -32q34 -12 69 -32.5t60 -58t34 -96t-9 -145.5l-120 -562q-12 -54 -8 -85.5t21.5 -47t46 -20t66.5 -4.5h41q21 0 39 -8.5t29.5 -25t15.5 -39.5t-2 -53q-6 -29 -19.5 -51t-32 -37t-40 -23t-42.5 -8h-174
q-174 0 -241 84.5t-29 267.5l131 612q16 77 10 122t-26.5 68t-51.5 29.5t-64 6.5q-28 0 -46.5 9.5t-28.5 24.5t-12.5 34.5t2.5 39.5q4 20 14.5 39t26.5 34t38.5 24t50.5 9q33 0 66.5 6.5t64 29.5t55.5 68t42 122l130 611q39 182 142.5 267t276.5 85h174q21 0 39 -8.5
t29.5 -24.5t16 -37.5t-0.5 -47.5q-7 -31 -21 -54.5t-32.5 -39.5t-40 -24.5t-42.5 -8.5h-41q-38 0 -68.5 -4.5t-54.5 -20t-41 -47t-29 -85.5z" />
    <glyph glyph-name="bar" unicode="|" horiz-adv-x="655" 
d="M633 2091q6 28 22 51.5t38.5 41t49.5 27t56 9.5t52.5 -9.5t38.5 -27t21 -41t0 -51.5l-547 -2572q-6 -28 -22 -51.5t-38.5 -41t-49.5 -27t-56 -9.5t-52.5 9.5t-38.5 27t-21 41t0 51.5z" />
    <glyph glyph-name="braceright" unicode="}" horiz-adv-x="967" 
d="M660 1646q12 54 8 85.5t-21 47t-45.5 20t-66.5 4.5h-41q-21 0 -39 8.5t-30 24.5t-16 39.5t3 54.5q5 26 18.5 47.5t32 37.5t40.5 24.5t43 8.5h174q172 0 240 -85t29 -267l-130 -611q-17 -77 -10.5 -122t27 -68t51.5 -29.5t64 -6.5q28 0 46.5 -9t28.5 -24t12.5 -34
t-1.5 -39q-5 -20 -15 -39.5t-26.5 -34.5t-39 -24.5t-50.5 -9.5q-33 0 -66.5 -6.5t-64 -29.5t-56 -68t-41.5 -122l-131 -612q-38 -182 -142 -267t-276 -85h-173q-21 0 -39 8t-30 23t-16.5 37t1.5 51q6 30 20 53t32.5 39.5t40 25t42.5 8.5h41q38 0 68.5 4.5t54 20t40.5 47
t29 85.5l120 562q18 87 52 145.5t75 96t85 58t82 32.5q-34 12 -69.5 32t-60 57.5t-33.5 96t9 145.5z" />
    <glyph glyph-name="asciitilde" unicode="~" horiz-adv-x="1708" 
d="M1709 807q-12 -58 -51 -118t-98 -109t-136 -80.5t-166 -31.5q-56 0 -106.5 13t-97 33t-91 42.5t-88.5 41.5t-88 31t-90 10.5t-94.5 -20t-102.5 -61.5q-32 -26 -63.5 -47t-66.5 -21q-27 0 -43.5 10t-24.5 25.5t-8.5 35t3.5 39.5q12 58 50.5 118.5t96 109.5t131.5 80
t157 31q76 0 143 -22.5t129 -51t121.5 -56t120.5 -37.5t125 5.5t135 72.5q33 26 64.5 47t66.5 21q27 0 43 -10t24 -25.5t8.5 -35.5t-3.5 -40z" />
    <glyph glyph-name="saraileftthai" 
d="M-1253 1933q-28 0 -48.5 10.5t-33 28.5t-16.5 42t2 52t20 52.5t34.5 42.5t45.5 28.5t53 10.5h915q28 0 48.5 -10.5t33.5 -28.5t17 -42.5t-2 -52.5t-20.5 -52t-35 -42t-45.5 -28.5t-53 -10.5h-915z" />
    <glyph glyph-name="saraileftthai" unicode="&#xf701;" 
d="M-1253 1933q-28 0 -48.5 10.5t-33 28.5t-16.5 42t2 52t20 52.5t34.5 42.5t45.5 28.5t53 10.5h915q28 0 48.5 -10.5t33.5 -28.5t17 -42.5t-2 -52.5t-20.5 -52t-35 -42t-45.5 -28.5t-53 -10.5h-915z" />
    <glyph glyph-name="saraiileftthai" 
d="M-1253 1933q-28 0 -48.5 10.5t-33 28.5t-16.5 42t2 52t20 52.5t34.5 42.5t45.5 28.5t53 10.5h690l23 107q7 33 25.5 60.5t44.5 47.5t57.5 31t64.5 11t59.5 -11t44 -31t24 -47.5t-0.5 -60.5l-48 -224q-7 -33 -25 -60.5t-44 -47.5t-57.5 -31t-64.5 -11h-850z" />
    <glyph glyph-name="saraiileftthai" unicode="&#xf702;" 
d="M-1253 1933q-28 0 -48.5 10.5t-33 28.5t-16.5 42t2 52t20 52.5t34.5 42.5t45.5 28.5t53 10.5h690l23 107q7 33 25.5 60.5t44.5 47.5t57.5 31t64.5 11t59.5 -11t44 -31t24 -47.5t-0.5 -60.5l-48 -224q-7 -33 -25 -60.5t-44 -47.5t-57.5 -31t-64.5 -11h-850z" />
    <glyph glyph-name="saraueleftthai" 
d="M-1253 1933q-28 0 -48.5 10.5t-33 28.5t-16.5 42t2 52t20 52.5t34.5 42.5t45.5 28.5t53 10.5h447l6 28q13 61 47.5 115t83.5 94t107.5 63t119.5 23t110 -23t80.5 -63t43 -94t-1.5 -115q-13 -62 -47.5 -115.5t-83 -93.5t-107.5 -63t-120 -23h-742zM-554 2228
q-9 -43 16 -72.5t68 -29.5q22 0 43 8t38.5 21.5t30 32.5t17.5 40q5 23 0.5 42.5t-16 34t-29 22.5t-39.5 8q-21 0 -42 -8t-39 -22.5t-30.5 -34t-17.5 -42.5z" />
    <glyph glyph-name="saraueleftthai" unicode="&#xf703;" 
d="M-1253 1933q-28 0 -48.5 10.5t-33 28.5t-16.5 42t2 52t20 52.5t34.5 42.5t45.5 28.5t53 10.5h447l6 28q13 61 47.5 115t83.5 94t107.5 63t119.5 23t110 -23t80.5 -63t43 -94t-1.5 -115q-13 -62 -47.5 -115.5t-83 -93.5t-107.5 -63t-120 -23h-742zM-554 2228
q-9 -43 16 -72.5t68 -29.5q22 0 43 8t38.5 21.5t30 32.5t17.5 40q5 23 0.5 42.5t-16 34t-29 22.5t-39.5 8q-21 0 -42 -8t-39 -22.5t-30.5 -34t-17.5 -42.5z" />
    <glyph glyph-name="saraueeleftthai" 
d="M-1253 1933q-28 0 -48.5 10.5t-33 28.5t-16.5 42t2 52t20 52.5t34.5 42.5t45.5 28.5t53 10.5h252l25 115q6 31 23.5 57.5t42.5 45t55 29t61 10.5t56 -10.5t41.5 -29t23 -45t0.5 -57.5l-25 -115h151l25 115q6 31 23.5 57.5t42.5 45t55 29t61 10.5t56 -10.5t41.5 -29
t23 -45t0.5 -57.5l-51 -240q-7 -32 -24.5 -58t-42 -44.5t-54.5 -29t-61 -10.5h-858z" />
    <glyph glyph-name="saraueeleftthai" unicode="&#xf704;" 
d="M-1253 1933q-28 0 -48.5 10.5t-33 28.5t-16.5 42t2 52t20 52.5t34.5 42.5t45.5 28.5t53 10.5h252l25 115q6 31 23.5 57.5t42.5 45t55 29t61 10.5t56 -10.5t41.5 -29t23 -45t0.5 -57.5l-25 -115h151l25 115q6 31 23.5 57.5t42.5 45t55 29t61 10.5t56 -10.5t41.5 -29
t23 -45t0.5 -57.5l-51 -240q-7 -32 -24.5 -58t-42 -44.5t-54.5 -29t-61 -10.5h-858z" />
    <glyph glyph-name="maieklowleftthai" 
d="M-298 2063q-7 -34 -26 -62.5t-45.5 -48.5t-58.5 -31.5t-66 -11.5t-61 11.5t-45 31.5t-25 48.5t0 62.5l61 288q7 34 26.5 62.5t46 48.5t58.5 31.5t66 11.5t61 -11.5t45 -31.5t24.5 -48.5t-0.5 -62.5z" />
    <glyph glyph-name="maieklowleftthai" unicode="&#xf705;" 
d="M-298 2063q-7 -34 -26 -62.5t-45.5 -48.5t-58.5 -31.5t-66 -11.5t-61 11.5t-45 31.5t-25 48.5t0 62.5l61 288q7 34 26.5 62.5t46 48.5t58.5 31.5t66 11.5t61 -11.5t45 -31.5t24.5 -48.5t-0.5 -62.5z" />
    <glyph glyph-name="maitholowleftthai" 
d="M-85 2260q-42 -67 -106 -125.5t-148.5 -101.5t-189 -68t-227.5 -25h-113q-24 0 -43.5 9.5t-32.5 26.5t-17.5 39.5t0.5 48.5l27 124h-51q-25 0 -45 10t-33 26.5t-17.5 39t1.5 48.5t20 48.5t33.5 39.5t43.5 26.5t49 9.5h198q25 0 45 -9.5t32.5 -26.5t17.5 -39.5t-1 -48.5
l-26 -124q63 1 117.5 15t99 38t78 56t54.5 70q16 27 40 47t50.5 30.5t53.5 11t51 -10.5t39.5 -31t21 -45.5t0.5 -53.5t-22 -55z" />
    <glyph glyph-name="maitholowleftthai" unicode="&#xf706;" 
d="M-85 2260q-42 -67 -106 -125.5t-148.5 -101.5t-189 -68t-227.5 -25h-113q-24 0 -43.5 9.5t-32.5 26.5t-17.5 39.5t0.5 48.5l27 124h-51q-25 0 -45 10t-33 26.5t-17.5 39t1.5 48.5t20 48.5t33.5 39.5t43.5 26.5t49 9.5h198q25 0 45 -9.5t32.5 -26.5t17.5 -39.5t-1 -48.5
l-26 -124q63 1 117.5 15t99 38t78 56t54.5 70q16 27 40 47t50.5 30.5t53.5 11t51 -10.5t39.5 -31t21 -45.5t0.5 -53.5t-22 -55z" />
    <glyph glyph-name="maitrilowleftthai" 
d="M-286 2356q12 28 32 49t44 33.5t51 16t52 -2.5q29 -8 46.5 -24.5t24.5 -39t3 -48.5t-17 -53q-31 -62 -74 -119.5t-93.5 -103t-105.5 -77t-110 -41.5h-103q-37 0 -55.5 23t-13.5 60q3 24 4 44.5t-3.5 35.5t-15 24t-29.5 9q-26 0 -43.5 -17.5t-26.5 -46.5q-11 -34 -39 -57
t-65 -23t-57 22.5t-15 57.5q5 33 -5 48.5t-37 15.5q-28 0 -48.5 -24t-32.5 -69q-7 -31 -22 -53.5t-34.5 -37.5t-43.5 -22.5t-49 -7.5q-54 0 -78.5 35t-13.5 86q19 89 56 154.5t84.5 108t100.5 63.5t103 21q53 0 93.5 -25.5t62.5 -67.5q44 41 94.5 67t106.5 26q35 0 67 -11
t57 -32.5t40.5 -53t16.5 -71.5q26 23 50 54.5t41 73.5z" />
    <glyph glyph-name="maitrilowleftthai" unicode="&#xf707;" 
d="M-286 2356q12 28 32 49t44 33.5t51 16t52 -2.5q29 -8 46.5 -24.5t24.5 -39t3 -48.5t-17 -53q-31 -62 -74 -119.5t-93.5 -103t-105.5 -77t-110 -41.5h-103q-37 0 -55.5 23t-13.5 60q3 24 4 44.5t-3.5 35.5t-15 24t-29.5 9q-26 0 -43.5 -17.5t-26.5 -46.5q-11 -34 -39 -57
t-65 -23t-57 22.5t-15 57.5q5 33 -5 48.5t-37 15.5q-28 0 -48.5 -24t-32.5 -69q-7 -31 -22 -53.5t-34.5 -37.5t-43.5 -22.5t-49 -7.5q-54 0 -78.5 35t-13.5 86q19 89 56 154.5t84.5 108t100.5 63.5t103 21q53 0 93.5 -25.5t62.5 -67.5q44 41 94.5 67t106.5 26q35 0 67 -11
t57 -32.5t40.5 -53t16.5 -71.5q26 23 50 54.5t41 73.5z" />
    <glyph glyph-name="maichattawalowleftthai" 
d="M-425 2058q-7 -32 -25 -58.5t-43 -45.5t-55.5 -29.5t-61.5 -10.5q-32 0 -57.5 10.5t-42 29.5t-23 45.5t0.5 58.5l17 81h-145q-26 0 -44.5 9.5t-30 26.5t-14.5 39t2 48q6 25 18.5 47.5t31 39.5t41 26.5t48.5 9.5h145l18 81q7 32 24.5 58.5t42.5 45.5t55 29.5t62 10.5
q31 0 57 -10.5t43 -29.5t23.5 -45.5t-0.5 -58.5l-18 -81h145q25 0 44 -9.5t30.5 -26.5t15 -39.5t-2.5 -47.5q-5 -26 -18 -48t-31.5 -39t-41.5 -26.5t-48 -9.5h-145z" />
    <glyph glyph-name="maichattawalowleftthai" unicode="&#xf708;" 
d="M-425 2058q-7 -32 -25 -58.5t-43 -45.5t-55.5 -29.5t-61.5 -10.5q-32 0 -57.5 10.5t-42 29.5t-23 45.5t0.5 58.5l17 81h-145q-26 0 -44.5 9.5t-30 26.5t-14.5 39t2 48q6 25 18.5 47.5t31 39.5t41 26.5t48.5 9.5h145l18 81q7 32 24.5 58.5t42.5 45.5t55 29.5t62 10.5
q31 0 57 -10.5t43 -29.5t23.5 -45.5t-0.5 -58.5l-18 -81h145q25 0 44 -9.5t30.5 -26.5t15 -39.5t-2.5 -47.5q-5 -26 -18 -48t-31.5 -39t-41.5 -26.5t-48 -9.5h-145z" />
    <glyph glyph-name="thanthakhatlowleftthai" 
d="M-310 2423q60 7 94 -22t33 -80q-1 -26 -12 -51.5t-29 -45.5t-41.5 -33.5t-49.5 -16.5q-96 -11 -161 -52t-98 -115q-15 -30 -39.5 -51t-54 -31.5t-60.5 -11.5t-59 9q-30 11 -47 32.5t-21.5 48.5t2.5 57t25 60q76 126 208.5 204.5t309.5 98.5z" />
    <glyph glyph-name="thanthakhatlowleftthai" unicode="&#xf709;" 
d="M-310 2423q60 7 94 -22t33 -80q-1 -26 -12 -51.5t-29 -45.5t-41.5 -33.5t-49.5 -16.5q-96 -11 -161 -52t-98 -115q-15 -30 -39.5 -51t-54 -31.5t-60.5 -11.5t-59 9q-30 11 -47 32.5t-21.5 48.5t2.5 57t25 60q76 126 208.5 204.5t309.5 98.5z" />
    <glyph glyph-name="maieklowrightthai" 
d="M278 2063q-7 -34 -26 -62.5t-45.5 -48.5t-58.5 -31.5t-66 -11.5q-33 0 -60.5 11.5t-45 31.5t-24.5 48.5t0 62.5l67 318q7 34 26 62.5t45.5 48.5t58.5 31.5t66 11.5t61 -11.5t45 -31.5t25 -48.5t0 -62.5z" />
    <glyph glyph-name="maieklowrightthai" unicode="&#xf70a;" 
d="M278 2063q-7 -34 -26 -62.5t-45.5 -48.5t-58.5 -31.5t-66 -11.5q-33 0 -60.5 11.5t-45 31.5t-24.5 48.5t0 62.5l67 318q7 34 26 62.5t45.5 48.5t58.5 31.5t66 11.5t61 -11.5t45 -31.5t25 -48.5t0 -62.5z" />
    <glyph glyph-name="maitholowrightthai" 
d="M385 2263q-44 -68 -110.5 -126.5t-154.5 -102t-197 -68.5t-238 -25h-118q-26 0 -46.5 10t-34 27t-18.5 39.5t1 48.5l26 125h-54q-26 0 -46.5 10t-34 27t-18.5 39.5t1 48.5q5 26 19.5 48.5t35 39.5t45.5 27t51 10h208q26 0 46.5 -10t34 -27t18.5 -39.5t0 -48.5l-27 -125
q67 1 124 15t103 38t80.5 56.5t55.5 70.5q17 27 42 47t52.5 31t56.5 11.5t54 -10.5t42 -31.5t23 -46t1 -54t-23 -55.5z" />
    <glyph glyph-name="maitholowrightthai" unicode="&#xf70b;" 
d="M385 2263q-44 -68 -110.5 -126.5t-154.5 -102t-197 -68.5t-238 -25h-118q-26 0 -46.5 10t-34 27t-18.5 39.5t1 48.5l26 125h-54q-26 0 -46.5 10t-34 27t-18.5 39.5t1 48.5q5 26 19.5 48.5t35 39.5t45.5 27t51 10h208q26 0 46.5 -10t34 -27t18.5 -39.5t0 -48.5l-27 -125
q67 1 124 15t103 38t80.5 56.5t55.5 70.5q17 27 42 47t52.5 31t56.5 11.5t54 -10.5t42 -31.5t23 -46t1 -54t-23 -55.5z" />
    <glyph glyph-name="maitrilowrightthai" 
d="M139 2379q13 30 35.5 51.5t50 34.5t57.5 16.5t59 -2.5q34 -8 55 -25t29.5 -40.5t4.5 -50.5t-19 -55q-35 -65 -83.5 -126t-105.5 -111t-119 -84t-124 -45h-119q-42 0 -63.5 24t-18.5 61q4 25 3.5 47t-6.5 38t-18 25t-30 9q-29 0 -51.5 -24.5t-30.5 -55.5
q-10 -35 -42 -61.5t-74 -26.5q-46 0 -69 24.5t-17 63.5q5 35 -4.5 57.5t-39.5 22.5q-32 0 -57 -25.5t-37 -73.5q-16 -63 -62.5 -93.5t-104.5 -30.5q-32 0 -55 10t-37 26.5t-18.5 39t1.5 48.5q19 93 60.5 161.5t94.5 113t113.5 66.5t119.5 22q60 0 106.5 -26.5t73.5 -69.5
q50 42 107 69t122 27q40 0 77 -11.5t66 -33.5t47 -54.5t20 -74.5q24 24 54 61.5t49 81.5z" />
    <glyph glyph-name="maitrilowrightthai" unicode="&#xf70c;" 
d="M139 2379q13 30 35.5 51.5t50 34.5t57.5 16.5t59 -2.5q34 -8 55 -25t29.5 -40.5t4.5 -50.5t-19 -55q-35 -65 -83.5 -126t-105.5 -111t-119 -84t-124 -45h-119q-42 0 -63.5 24t-18.5 61q4 25 3.5 47t-6.5 38t-18 25t-30 9q-29 0 -51.5 -24.5t-30.5 -55.5
q-10 -35 -42 -61.5t-74 -26.5q-46 0 -69 24.5t-17 63.5q5 35 -4.5 57.5t-39.5 22.5q-32 0 -57 -25.5t-37 -73.5q-16 -63 -62.5 -93.5t-104.5 -30.5q-32 0 -55 10t-37 26.5t-18.5 39t1.5 48.5q19 93 60.5 161.5t94.5 113t113.5 66.5t119.5 22q60 0 106.5 -26.5t73.5 -69.5
q50 42 107 69t122 27q40 0 77 -11.5t66 -33.5t47 -54.5t20 -74.5q24 24 54 61.5t49 81.5z" />
    <glyph glyph-name="maichattawalowrightthai" 
d="M275 2067q-7 -32 -25 -59t-43.5 -46.5t-56 -30t-62.5 -10.5t-57.5 10.5t-42.5 30t-23.5 46.5t0.5 59l17 79h-143q-26 0 -45 10t-30.5 27t-15 39.5t1.5 48.5q6 26 19 48.5t31.5 39.5t42 27t49.5 10h142l17 79q7 32 25 59t43.5 46.5t56 30t62.5 10.5t58 -10.5t43 -30
t23.5 -46.5t-0.5 -59l-17 -79h143q26 0 45 -10t30.5 -27t15 -39.5t-2.5 -48.5q-5 -26 -18 -48.5t-32 -39.5t-42 -27t-49 -10h-143z" />
    <glyph glyph-name="maichattawalowrightthai" unicode="&#xf70d;" 
d="M275 2067q-7 -32 -25 -59t-43.5 -46.5t-56 -30t-62.5 -10.5t-57.5 10.5t-42.5 30t-23.5 46.5t0.5 59l17 79h-143q-26 0 -45 10t-30.5 27t-15 39.5t1.5 48.5q6 26 19 48.5t31.5 39.5t42 27t49.5 10h142l17 79q7 32 25 59t43.5 46.5t56 30t62.5 10.5t58 -10.5t43 -30
t23.5 -46.5t-0.5 -59l-17 -79h143q26 0 45 -10t30.5 -27t15 -39.5t-2.5 -48.5q-5 -26 -18 -48.5t-32 -39.5t-42 -27t-49 -10h-143z" />
    <glyph glyph-name="thanthakhatlowrightthai" 
d="M299 2419q60 7 94 -22t33 -80q-1 -26 -12 -51.5t-29 -45.5t-41.5 -33.5t-49.5 -16.5q-95 -11 -160.5 -52t-98.5 -115q-15 -30 -39 -51t-53.5 -31.5t-60.5 -11.5t-59 9q-30 11 -46.5 32.5t-21.5 48.5t2 57t25 60q76 126 208 204.5t309 98.5z" />
    <glyph glyph-name="thanthakhatlowrightthai" unicode="&#xf70e;" 
d="M299 2419q60 7 94 -22t33 -80q-1 -26 -12 -51.5t-29 -45.5t-41.5 -33.5t-49.5 -16.5q-95 -11 -160.5 -52t-98.5 -115q-15 -30 -39 -51t-53.5 -31.5t-60.5 -11.5t-59 9q-30 11 -46.5 32.5t-21.5 48.5t2 57t25 60q76 126 208 204.5t309 98.5z" />
    <glyph glyph-name="maihanakatleftthai" 
d="M-666 1937q-32 0 -58 10.5t-43 30t-23.5 46.5t0.5 59l31 143q7 32 24.5 59t43 46.5t56 30t62.5 10.5t58 -10.5t43.5 -30t24 -46.5t-0.5 -59l-7 -31h995q27 0 47 -10t32.5 -27.5t16.5 -41t-2 -50.5t-20 -50.5t-33.5 -41t-44 -27.5t-51.5 -10h-1151z" />
    <glyph glyph-name="maihanakatleftthai" unicode="&#xf710;" 
d="M-666 1937q-32 0 -58 10.5t-43 30t-23.5 46.5t0.5 59l31 143q7 32 24.5 59t43 46.5t56 30t62.5 10.5t58 -10.5t43.5 -30t24 -46.5t-0.5 -59l-7 -31h995q27 0 47 -10t32.5 -27.5t16.5 -41t-2 -50.5t-20 -50.5t-33.5 -41t-44 -27.5t-51.5 -10h-1151z" />
    <glyph glyph-name="nikhahitleftthai" 
d="M-612 2224q-5 -23 0 -44t17.5 -36.5t31 -25t41.5 -9.5t46 9.5t42 25t32.5 36.5t18.5 44t0 44t-17 36.5t-31 25t-42 9.5t-45.5 -9.5t-42 -25t-33 -36.5t-18.5 -44zM-817 2224q14 66 51.5 124t90 101.5t116 69t129.5 25.5q64 0 117 -25.5t87.5 -69t48 -101.5t-0.5 -124
t-52 -124t-91.5 -101.5t-117 -68.5t-127.5 -25q-66 0 -118.5 25t-86.5 68.5t-47 101.5t1 124z" />
    <glyph glyph-name="nikhahitleftthai" unicode="&#xf711;" 
d="M-612 2224q-5 -23 0 -44t17.5 -36.5t31 -25t41.5 -9.5t46 9.5t42 25t32.5 36.5t18.5 44t0 44t-17 36.5t-31 25t-42 9.5t-45.5 -9.5t-42 -25t-33 -36.5t-18.5 -44zM-817 2224q14 66 51.5 124t90 101.5t116 69t129.5 25.5q64 0 117 -25.5t87.5 -69t48 -101.5t-0.5 -124
t-52 -124t-91.5 -101.5t-117 -68.5t-127.5 -25q-66 0 -118.5 25t-86.5 68.5t-47 101.5t1 124z" />
    <glyph glyph-name="maitaikhuleftthai" 
d="M-750 2464q-53 0 -88 -14.5t-57.5 -36.5t-33.5 -47.5t-16 -46.5q-3 -15 -2.5 -34.5t8 -37.5t22.5 -30t42 -12q31 0 56 18t42 51q19 42 53.5 63t76.5 21q45 0 73 -19t27 -65q0 -32 15 -50.5t44 -18.5q26 0 46 16t31 44v-1q10 24 27 42.5t38 30t44.5 16.5t45.5 3
q25 -3 46.5 -15t35 -32t17 -48t-8.5 -63q-21 -64 -57 -110t-81 -76t-95.5 -44t-100.5 -14q-38 0 -69 11t-55.5 28.5t-43 40t-31.5 46.5q-25 -25 -56.5 -48t-67 -40t-72 -27.5t-72.5 -10.5q-63 0 -109 17t-76.5 46t-48.5 66.5t-25.5 78t-6 81.5t9.5 76q22 101 72.5 174.5
t119 121t148.5 70.5t160 23h688q24 0 41 -10t27.5 -27t13.5 -39.5t-2 -47.5q-11 -53 -47.5 -86.5t-84.5 -33.5h-663z" />
    <glyph glyph-name="maitaikhuleftthai" unicode="&#xf712;" 
d="M-750 2464q-53 0 -88 -14.5t-57.5 -36.5t-33.5 -47.5t-16 -46.5q-3 -15 -2.5 -34.5t8 -37.5t22.5 -30t42 -12q31 0 56 18t42 51q19 42 53.5 63t76.5 21q45 0 73 -19t27 -65q0 -32 15 -50.5t44 -18.5q26 0 46 16t31 44v-1q10 24 27 42.5t38 30t44.5 16.5t45.5 3
q25 -3 46.5 -15t35 -32t17 -48t-8.5 -63q-21 -64 -57 -110t-81 -76t-95.5 -44t-100.5 -14q-38 0 -69 11t-55.5 28.5t-43 40t-31.5 46.5q-25 -25 -56.5 -48t-67 -40t-72 -27.5t-72.5 -10.5q-63 0 -109 17t-76.5 46t-48.5 66.5t-25.5 78t-6 81.5t9.5 76q22 101 72.5 174.5
t119 121t148.5 70.5t160 23h688q24 0 41 -10t27.5 -27t13.5 -39.5t-2 -47.5q-11 -53 -47.5 -86.5t-84.5 -33.5h-663z" />
    <glyph glyph-name="maiekupperleftthai" 
d="M-70 2752q-7 -32 -24.5 -59t-43 -46.5t-56 -30t-62.5 -10.5t-58 10.5t-43.5 30t-24 46.5t0.5 59l53 249q7 32 25 59t43.5 46.5t56 30t62.5 10.5t58 -10.5t43 -30t23.5 -46.5t-0.5 -59z" />
    <glyph glyph-name="maiekupperleftthai" unicode="&#xf713;" 
d="M-70 2752q-7 -32 -24.5 -59t-43 -46.5t-56 -30t-62.5 -10.5t-58 10.5t-43.5 30t-24 46.5t0.5 59l53 249q7 32 25 59t43.5 46.5t56 30t62.5 10.5t58 -10.5t43 -30t23.5 -46.5t-0.5 -59z" />
    <glyph glyph-name="maithoupperleftthai" 
d="M224 2943q-44 -68 -110 -126.5t-153.5 -102t-196.5 -68.5t-238 -25h-108q-26 0 -46.5 10t-34 27t-18.5 39.5t0 48.5l27 125h-61q-26 0 -46.5 10t-34 27t-18.5 39.5t0 48.5q6 26 20.5 48.5t35 39.5t45.5 27t51 10h202q26 0 46.5 -10t34 -27t18.5 -39.5t-1 -48.5l-26 -125
q67 1 125 15t105.5 38t83 56.5t56.5 70.5q17 27 41.5 47t52 31t56 11.5t54.5 -10.5q25 -11 41 -31.5t21.5 -46t-0.5 -54t-24 -55.5z" />
    <glyph glyph-name="maithoupperleftthai" unicode="&#xf714;" 
d="M224 2943q-44 -68 -110 -126.5t-153.5 -102t-196.5 -68.5t-238 -25h-108q-26 0 -46.5 10t-34 27t-18.5 39.5t0 48.5l27 125h-61q-26 0 -46.5 10t-34 27t-18.5 39.5t0 48.5q6 26 20.5 48.5t35 39.5t45.5 27t51 10h202q26 0 46.5 -10t34 -27t18.5 -39.5t-1 -48.5l-26 -125
q67 1 125 15t105.5 38t83 56.5t56.5 70.5q17 27 41.5 47t52 31t56 11.5t54.5 -10.5q25 -11 41 -31.5t21.5 -46t-0.5 -54t-24 -55.5z" />
    <glyph glyph-name="maitriupperleftthai" 
d="M123 3028q13 26 33.5 46t45 32.5t51.5 16.5t53 -2q31 -8 49.5 -24t25.5 -37t3 -46.5t-17 -50.5q-32 -61 -76 -118.5t-95.5 -104t-108 -78t-111.5 -41.5h-108q-38 0 -57.5 22t-15.5 57q6 46 -2 78t-43 32q-25 0 -44.5 -16t-28.5 -43q-11 -34 -38.5 -57t-65.5 -23
q-36 0 -59.5 20t-17.5 60q5 29 -7 44t-38 15q-32 0 -51.5 -23.5t-31.5 -67.5q-14 -59 -56 -87.5t-94 -28.5q-58 0 -83.5 34t-15.5 82q19 87 56.5 150.5t85.5 105t102.5 62t107.5 20.5q54 0 94.5 -25.5t67.5 -63.5q45 38 96.5 63.5t111.5 25.5q36 0 69 -10.5t58.5 -31.5
t41 -51.5t15.5 -70.5q12 11 25.5 26.5t27 33.5t25.5 37.5t20 37.5z" />
    <glyph glyph-name="maitriupperleftthai" unicode="&#xf715;" 
d="M123 3028q13 26 33.5 46t45 32.5t51.5 16.5t53 -2q31 -8 49.5 -24t25.5 -37t3 -46.5t-17 -50.5q-32 -61 -76 -118.5t-95.5 -104t-108 -78t-111.5 -41.5h-108q-38 0 -57.5 22t-15.5 57q6 46 -2 78t-43 32q-25 0 -44.5 -16t-28.5 -43q-11 -34 -38.5 -57t-65.5 -23
q-36 0 -59.5 20t-17.5 60q5 29 -7 44t-38 15q-32 0 -51.5 -23.5t-31.5 -67.5q-14 -59 -56 -87.5t-94 -28.5q-58 0 -83.5 34t-15.5 82q19 87 56.5 150.5t85.5 105t102.5 62t107.5 20.5q54 0 94.5 -25.5t67.5 -63.5q45 38 96.5 63.5t111.5 25.5q36 0 69 -10.5t58.5 -31.5
t41 -51.5t15.5 -70.5q12 11 25.5 26.5t27 33.5t25.5 37.5t20 37.5z" />
    <glyph glyph-name="maichattawaupperleftthai" 
d="M-80 2747q-6 -32 -24 -58t-42.5 -44.5t-54.5 -29t-61 -10.5t-56.5 10.5t-42 29t-22.5 44.5t0 58l18 83h-147q-25 0 -43.5 9.5t-29.5 26t-14 38.5t2 47t17.5 47t30.5 38.5t40.5 26t47.5 9.5h147l18 83q7 31 24.5 57.5t42 45t54.5 29t61 10.5t56 -10.5t41.5 -29t23 -45
t-0.5 -57.5l-17 -83h146q25 0 43.5 -9.5t30 -26t14.5 -38.5t-2 -47t-18 -47t-31 -38.5t-40.5 -26t-47.5 -9.5h-146z" />
    <glyph glyph-name="maichattawaupperleftthai" unicode="&#xf716;" 
d="M-80 2747q-6 -32 -24 -58t-42.5 -44.5t-54.5 -29t-61 -10.5t-56.5 10.5t-42 29t-22.5 44.5t0 58l18 83h-147q-25 0 -43.5 9.5t-29.5 26t-14 38.5t2 47t17.5 47t30.5 38.5t40.5 26t47.5 9.5h147l18 83q7 31 24.5 57.5t42 45t54.5 29t61 10.5t56 -10.5t41.5 -29t23 -45
t-0.5 -57.5l-17 -83h146q25 0 43.5 -9.5t30 -26t14.5 -38.5t-2 -47t-18 -47t-31 -38.5t-40.5 -26t-47.5 -9.5h-146z" />
    <glyph glyph-name="thanthakhatupperleftthai" 
d="M140 2916q60 7 94.5 -22t33.5 -80q-1 -26 -12 -51.5t-29 -45.5t-41.5 -33.5t-50.5 -16.5q-95 -11 -159.5 -52t-97.5 -115q-15 -30 -40 -51t-54 -31.5t-60 -11.5t-59 9q-30 11 -47 32.5t-21.5 48.5t2.5 57t25 60q37 63 90 114.5t118.5 90t143 63.5t164.5 35z" />
    <glyph glyph-name="thanthakhatupperleftthai" unicode="&#xf717;" 
d="M140 2916q60 7 94.5 -22t33.5 -80q-1 -26 -12 -51.5t-29 -45.5t-41.5 -33.5t-50.5 -16.5q-95 -11 -159.5 -52t-97.5 -115q-15 -30 -40 -51t-54 -31.5t-60 -11.5t-59 9q-30 11 -47 32.5t-21.5 48.5t2.5 57t25 60q37 63 90 114.5t118.5 90t143 63.5t164.5 35z" />
    <glyph glyph-name="uni00A0" unicode="&#xa0;" horiz-adv-x="496" 
 />
    <glyph glyph-name="cent" unicode="&#xa2;" horiz-adv-x="1544" 
d="M1038 1436q-56 -15 -112.5 -48t-106 -88t-89.5 -135t-63 -188q-17 -79 -13.5 -146t27 -119.5t67 -88t106.5 -51.5zM798 310q-155 10 -258 64.5t-158.5 142.5t-66 205.5t18.5 254.5q31 148 96 273.5t160.5 220t221.5 153.5t281 74l41 191q7 31 32.5 50t51.5 19
q25 0 42.5 -18.5t10.5 -50.5l-40 -186q109 -8 193 -39.5t139 -78t78.5 -104t11.5 -116.5q-8 -36 -26.5 -63.5t-44 -45.5t-56 -27t-62.5 -9q-26 0 -43.5 7t-30.5 18.5t-22 27t-17 32.5q-11 20 -21.5 41t-28.5 39.5t-47.5 33t-77.5 23.5l-186 -875q48 9 82.5 24.5t60.5 34.5
t46 40.5t40 42.5q18 19 36.5 37.5t39.5 32.5t45.5 22.5t55.5 8.5t54.5 -10.5t38 -28t19.5 -40t0 -47.5q-12 -55 -54 -116.5t-114 -115t-173.5 -93t-231.5 -49.5l-43 -203q-7 -32 -32 -50.5t-50 -18.5q-13 0 -24.5 5t-19.5 14t-11.5 21.5t0.5 28.5z" />
    <glyph glyph-name="sterling" unicode="&#xa3;" horiz-adv-x="1585" 
d="M1174 1072q69 0 98.5 -25.5t18.5 -79.5q-22 -104 -161 -104h-254q3 -11 4 -25.5t0.5 -30.5t-2 -31.5t-3.5 -28.5q-14 -73 -42 -136.5t-72 -122t-105 -113.5t-141 -111q60 26 105.5 41t84 22.5t72.5 9.5t71 2q49 0 91 -6.5t81 -14.5t77.5 -17t79 -13t86 -2.5t99.5 13.5
q29 7 56 11t39 4q30 0 51.5 -11.5t33.5 -32t15 -48t-4 -58.5q-12 -56 -45.5 -96t-79 -65t-98.5 -36.5t-104 -11.5q-63 0 -126 15t-130 33q-79 21 -164 40t-183 19q-150 0 -280 -76q-53 -26 -95.5 -27.5t-71 17.5t-39.5 55.5t0 86.5q6 27 20 52.5t34.5 50.5t46 49.5
t53.5 50.5q38 36 77 75t73 84t60.5 96.5t39.5 113.5q9 43 7 86.5t-10 86.5h-164q-52 0 -79 25.5t-16 78.5q11 48 41.5 76.5t78.5 28.5h132q-18 41 -30.5 91t-18.5 102t-5 102t10 91q18 83 57 158t94.5 139t125.5 115.5t150 88t168 56t180 19.5q114 0 204.5 -20t158.5 -55
t114 -81t72.5 -97.5t33.5 -106.5t-4 -106q-9 -40 -28.5 -71t-47 -52t-61.5 -32t-72 -11q-32 0 -52.5 10.5t-33 28.5t-19 41t-12.5 47q-9 38 -21 78.5t-39.5 73.5t-76.5 54.5t-131 21.5q-66 0 -132.5 -22t-123.5 -64t-98.5 -102t-57.5 -136q-8 -38 -9 -85.5t3 -96.5
t12.5 -95.5t19.5 -83.5h313z" />
    <glyph glyph-name="yen" unicode="&#xa5;" horiz-adv-x="1651" 
d="M766 594h-357q-40 0 -58 26t-10 61q4 17 13.5 32.5t23.5 27t31.5 18.5t35.5 7h357l21 97l-30 80h-310q-39 0 -57 26t-11 61q8 37 37.5 61.5t67.5 24.5h210l-254 643q-21 54 -10.5 102t43.5 84t84 57t110 21q36 0 60 -13t39 -31t23 -37t12 -31l234 -753l555 754
q9 12 25 31t39 37t52.5 31t65.5 13q61 0 102 -22t58 -59t6.5 -84.5t-53.5 -99.5l-526 -643h209q35 0 55.5 -24t12.5 -62q-4 -18 -14 -34t-24.5 -27.5t-31.5 -18.5t-35 -7h-310l-64 -80l-21 -97h357q19 0 33.5 -7.5t23.5 -19.5t12 -27t0 -31t-12.5 -31.5t-23.5 -28t-32 -20
t-37 -7.5h-357l-92 -433q-9 -42 -29 -76.5t-49 -59t-66 -38t-81 -13.5q-88 0 -125.5 51.5t-19.5 135.5z" />
    <glyph glyph-name="copyright" unicode="&#xa9;" horiz-adv-x="2228" 
d="M275 987q31 145 97 278.5t159.5 248.5t209 209t246 160.5t271 103t282.5 36.5t266.5 -36.5t226 -103t177 -160.5t119 -209t52.5 -248.5t-22 -278.5q-32 -149 -98 -284t-158.5 -250t-207.5 -208t-244.5 -158.5t-269.5 -100.5t-282 -35t-267.5 35t-227.5 100.5t-178 158.5
t-120 208t-53.5 249.5t22.5 284.5zM516 987q-38 -180 -11 -332.5t110.5 -264.5t217.5 -175t309 -63q113 0 222 28.5t209.5 81.5t189.5 128t160 167.5t122 201t77 228.5q38 180 8.5 331.5t-114.5 262t-218.5 172.5t-302.5 62q-117 0 -227.5 -28t-211 -80t-188 -126t-157 -166
t-120 -200t-75.5 -228zM764 981q28 131 90 243t151.5 194.5t202.5 129t243 46.5q108 0 187 -31t128 -79t68 -106t8 -111q-7 -31 -21 -52t-30.5 -34t-33 -19t-27.5 -6q-26 0 -42 7t-26 18.5t-15.5 27t-10.5 32.5q-8 29 -21 56t-38.5 48t-66 33.5t-102.5 12.5
q-71 0 -134 -27.5t-114.5 -79t-89.5 -126.5t-58 -170q-20 -93 -14 -169t35.5 -130t82 -84t124.5 -30q58 0 101.5 12.5t77 33.5t59.5 48t49 56q15 19 29.5 36t31.5 30t37 20.5t45 7.5q39 0 58 -24.5t10 -69.5q-7 -31 -29 -69t-57 -77t-82.5 -76.5t-105.5 -66.5t-125 -46.5
t-142 -17.5q-127 0 -221 47t-150 129t-72.5 193.5t10.5 239.5z" />
    <glyph glyph-name="guillemotleft" unicode="&#xab;" horiz-adv-x="1286" 
d="M991 778l223 -178q26 -20 41 -49.5t7 -66.5q-5 -21 -16.5 -41t-27.5 -35.5t-36 -25t-41 -9.5q-27 0 -44 11t-32 23l-230 196q-35 29 -46.5 76t-0.5 99t42.5 98.5t78.5 74.5l314 197q20 12 42 23.5t48 11.5q21 0 37 -9.5t25.5 -25t12.5 -35.5t-1 -42q-8 -35 -35.5 -65
t-63.5 -51zM450 778l223 -178q26 -20 41 -49.5t7 -66.5q-5 -21 -16.5 -41t-27.5 -35.5t-36 -25t-41 -9.5q-27 0 -44 11t-32 23l-230 196q-35 29 -46.5 76t-0.5 99t42.5 98.5t78.5 74.5l314 197q20 12 42 23.5t48 11.5q21 0 37 -9.5t25.5 -25t12.5 -35.5t-1 -42
q-8 -35 -35.5 -65t-63.5 -51z" />
    <glyph glyph-name="registered" unicode="&#xae;" horiz-adv-x="2216" 
d="M275 987q31 145 97 278.5t159.5 248.5t209 209t246 160.5t271 103t282.5 36.5t266.5 -36.5t226 -103t177 -160.5t119 -209t52.5 -248.5t-22 -278.5q-32 -149 -98 -284t-158.5 -250t-207.5 -208t-244.5 -158.5t-269.5 -100.5t-282 -35t-267.5 35t-227.5 100.5t-178 158.5
t-120 208t-53.5 249.5t22.5 284.5zM516 987q-38 -180 -11 -332.5t110.5 -264.5t217.5 -175t309 -63q113 0 222 28.5t209.5 81.5t189.5 128t160 167.5t122 201t77 228.5q38 180 8.5 331.5t-114.5 262t-218.5 172.5t-302.5 62q-117 0 -227.5 -28t-211 -80t-188 -126t-157 -166
t-120 -200t-75.5 -228zM1006 1401q6 28 20.5 49.5t34 36t42 21.5t44.5 7h352q91 0 160.5 -15.5t112 -52.5t55.5 -100t-7 -157q-16 -75 -50.5 -131t-80 -94t-98 -58.5t-103.5 -23.5l137 -254q12 -21 17 -43t1 -43.5t-18.5 -42t-41.5 -38.5q-34 -23 -63 -27t-52 5t-40.5 28
t-29.5 42l-185 374h-87l-71 -334q-13 -60 -52 -89t-87 -29q-24 0 -43.5 7t-32 22t-17 37t1.5 52zM1164 1063h223q32 0 62.5 5.5t55.5 21t43.5 42.5t27.5 69q9 41 1.5 67t-26 40.5t-46.5 20t-60 5.5h-223z" />
    <glyph glyph-name="guillemotright" unicode="&#xbb;" horiz-adv-x="1286" 
d="M402 955q-27 21 -42 51t-7 65q4 22 16 42t28.5 35.5t36.5 25t41 9.5q26 0 43.5 -11.5t32.5 -23.5l230 -197q35 -28 46.5 -74.5t0.5 -98.5t-42.5 -99t-78.5 -76l-314 -196q-20 -12 -41.5 -23t-48.5 -11q-21 0 -37 9.5t-26 25t-13.5 35.5t1.5 41q8 37 35.5 66.5t62.5 49.5
l299 178zM943 955q-27 21 -42 51t-7 65q4 22 16 42t28.5 35.5t36.5 25t41 9.5q26 0 43.5 -11.5t32.5 -23.5l230 -197q35 -28 46.5 -74.5t0.5 -98.5t-42.5 -99t-78.5 -76l-314 -196q-20 -12 -41.5 -23t-48.5 -11q-21 0 -37 9.5t-26 25t-13.5 35.5t1.5 41q8 37 35.5 66.5
t62.5 49.5l299 178z" />
    <glyph glyph-name="onequarter" unicode="&#xbc;" horiz-adv-x="2458" 
d="M603 1555q-35 0 -51 19.5t-8 61.5q5 22 14.5 36.5t25.5 23.5t38 15t52 11l67 11q42 7 73 21.5t54 34t41 42t35 44.5q13 17 25.5 33t27.5 28.5t34 20t43 7.5q45 0 65 -19.5t9 -72.5l-194 -916q-6 -28 -16.5 -51t-28 -39t-43 -25t-61.5 -9q-66 0 -86.5 33.5t-8.5 90.5
l136 643q-60 -28 -123 -36t-120 -8zM2076 1959q13 18 30 33.5t36 25t39.5 10.5t41.5 -9q24 -12 32.5 -29.5t7 -37t-11.5 -40t-23 -37.5l-1377 -1856q-14 -19 -31.5 -34t-37.5 -22.5t-42 -7t-45 12.5q-18 9 -25 24t-5.5 33t10 37.5t22.5 37.5zM2152 888l-476 -468h377z
M2016 248h-458q-30 0 -49.5 9t-31 23t-14.5 31t0 33q7 35 17 54.5t23 30.5l643 623q32 31 69 50t95 19q56 0 86 -28.5t20 -76.5l-126 -596h86q35 0 50.5 -24t7.5 -62t-34 -62t-61 -24h-86l-28 -135q-5 -21 -15 -43t-27.5 -40t-43 -29.5t-59.5 -11.5q-35 0 -55 11.5t-30 29.5
t-11 40t4 43z" />
    <glyph glyph-name="onehalf" unicode="&#xbd;" horiz-adv-x="2458" 
d="M2317 205q52 0 75.5 -25.5t12.5 -77.5q-12 -58 -45.5 -80t-85.5 -22h-664q-32 0 -53.5 9.5t-33.5 26t-14.5 38t2.5 45.5q9 41 37.5 83t83.5 88.5t139 99.5t204 115q82 42 139 72t95 59.5t59.5 63.5t32.5 82q7 35 -4 63.5t-36 48.5t-60 31t-75 11q-79 0 -148 -37
t-115 -118q-11 -20 -21.5 -34.5t-22.5 -24.5t-27.5 -15t-37.5 -5q-24 0 -43 5t-32 16t-17.5 28t0.5 42q15 70 63.5 131t119.5 105t159 69.5t182 25.5q101 0 175 -27.5t119.5 -74t62.5 -107t3 -125.5q-15 -73 -44 -124.5t-71 -90.5t-97.5 -70.5t-125.5 -65.5
q-95 -45 -162 -77t-113.5 -58t-77 -49t-52.5 -50h514zM2006 1959q13 18 30 33.5t36 25t39.5 10.5t41.5 -9q24 -12 32.5 -29.5t7 -37t-11.5 -40t-23 -37.5l-1377 -1856q-14 -19 -31.5 -34t-37.5 -22.5t-42 -7t-45 12.5q-18 9 -25 24t-5.5 33t10 37.5t22.5 37.5zM603 1555
q-35 0 -51 19.5t-8 61.5q5 22 14.5 36.5t25.5 23.5t38 15t52 11l67 11q42 7 73 21.5t54 34t41 42t35 44.5q13 17 25.5 33t27.5 28.5t34 20t43 7.5q45 0 65 -19.5t9 -72.5l-194 -916q-6 -28 -16.5 -51t-28 -39t-43 -25t-61.5 -9q-66 0 -86.5 33.5t-8.5 90.5l136 643
q-60 -28 -123 -36t-120 -8z" />
    <glyph glyph-name="threequarters" unicode="&#xbe;" horiz-adv-x="2458" 
d="M2172 888l-476 -468h377zM2036 248h-458q-30 0 -49.5 9t-31 23t-14.5 31t0 33q7 35 17 54.5t23 30.5l643 623q32 31 69 50t95 19q56 0 86 -28.5t20 -76.5l-126 -596h86q35 0 50.5 -24t7.5 -62t-34 -62t-61 -24h-86l-28 -135q-5 -21 -15 -43t-27.5 -40t-43 -29.5
t-59.5 -11.5q-35 0 -55 11.5t-30 29.5t-11 40t4 43zM2187 1959q13 18 30 33.5t36 25t39.5 10.5t41.5 -9q24 -12 32.5 -29.5t7 -37t-11.5 -40t-23 -37.5l-1377 -1856q-14 -19 -31.5 -34t-37.5 -22.5t-42 -7t-45 12.5q-18 9 -25 24t-5.5 33t10 37.5t22.5 37.5zM381 1084
q9 42 44.5 68t88.5 26q22 0 36 -5.5t23.5 -14t15.5 -20t11 -23.5q8 -19 18.5 -38t30 -34t52 -24.5t84.5 -9.5q55 0 98.5 13.5t75 36t51 52t26.5 62.5q6 30 4.5 56.5t-16.5 47.5t-45 35t-79 20q-16 2 -37.5 5t-40 11t-29.5 22t-6 37q6 29 18.5 47t32 28.5t45.5 15t60 6.5
q71 5 112 42.5t54 97.5q7 32 -2.5 56.5t-30.5 41t-51.5 25t-67.5 8.5q-45 0 -78.5 -8.5t-58.5 -22t-44 -31t-36 -34.5q-11 -12 -22.5 -22.5t-24.5 -18.5t-29 -13t-37 -5t-39.5 4t-31 13t-18 24t-0.5 37q15 69 66.5 119.5t120.5 83t145 48t140 15.5q115 0 189.5 -26t116 -68
t53 -95.5t-0.5 -108.5q-16 -72 -71 -132t-147 -99q46 -13 77.5 -38t49 -58t21 -73t-5.5 -82q-20 -92 -71 -160t-124 -113t-162.5 -67.5t-186.5 -22.5q-81 0 -141 13.5t-102.5 35.5t-68.5 50t-40 57.5t-17 57t2 49.5z" />
    <glyph glyph-name="multiply" unicode="&#xd7;" horiz-adv-x="1434" 
d="M1383 357q16 -21 22 -47t1 -52t-21 -51t-42 -46q-28 -22 -56 -32t-53.5 -9t-47 12.5t-37.5 32.5l-307 401l-477 -401q-28 -23 -57 -34.5t-56 -10.5t-50 13.5t-40 36.5q-15 22 -18 47t4.5 50t23.5 48t39 42l475 394l-308 392q-16 21 -22 45.5t-1.5 50t19 50.5t39.5 46
q23 19 50 30.5t54 12.5t52.5 -9t44.5 -32l306 -401l479 401q26 22 53.5 33t54 11t49.5 -11t40 -33q18 -23 21.5 -49t-4 -52t-24 -50t-39.5 -43l-474 -392z" />
    <glyph glyph-name="divide" unicode="&#xf7;" horiz-adv-x="1667" 
d="M665 201q9 43 34.5 82t60.5 69t76.5 48t82.5 18q43 0 78 -18t57.5 -48t31.5 -69t0 -82q-8 -39 -33 -75t-59.5 -64t-75.5 -45t-82 -17q-42 0 -77 16t-59 43t-34 63.5t-1 78.5zM898 1298q9 43 34.5 81.5t60.5 68t76.5 46.5t82.5 17q43 0 78 -17t58 -46.5t31.5 -68
t-0.5 -81.5q-9 -41 -34 -79t-59.5 -66.5t-76 -45.5t-82.5 -17q-42 0 -76.5 17t-58 45.5t-33.5 66.5t-1 79zM390 619q-73 0 -109.5 36t-23.5 96t64.5 96t124.5 36h1145q73 0 109.5 -36t23.5 -96t-64.5 -96t-124.5 -36h-1145z" />
    <glyph glyph-name="kokaithai" unicode="&#xe01;" horiz-adv-x="1769" 
d="M1641 128q-8 -35 -27 -62.5t-46.5 -46.5t-60.5 -29t-68 -10t-63.5 10t-47.5 29t-27 46.5t0 62.5l194 912q15 71 7.5 140t-47 124t-116 89.5t-200.5 36.5q-103 1 -185 -22.5t-143 -59.5t-100.5 -77t-55.5 -75q43 -46 59.5 -123.5t-2.5 -167.5l-165 -777q-8 -35 -27 -62.5
t-46 -46.5t-59.5 -29t-67.5 -10t-63.5 10t-47 29t-26 46.5t0.5 62.5l166 781q9 44 9 89t-19 86q-18 36 -31 57.5t-17 41t4.5 42t34.5 61.5q56 84 135 162t183 137.5t234.5 95t289.5 35.5q148 0 258 -27t186 -75.5t121.5 -114.5t66 -144.5t18.5 -165.5t-21 -177z" />
    <glyph glyph-name="khokhaithai" unicode="&#xe02;" horiz-adv-x="1556" 
d="M897 369l505 1204q15 34 39.5 60.5t55 43t64 21.5t66.5 -2q33 -8 57 -26t36.5 -44.5t12.5 -58.5t-15 -66l-572 -1314q-21 -47 -56.5 -85.5t-80.5 -65.5t-96 -41.5t-102 -14.5q-52 0 -96.5 15t-77.5 42t-52 65.5t-19 86.5l-13 1220h-112q-28 0 -49 10.5t-33.5 29t-16 43
t2.5 52.5t20 52.5t34.5 43t45.5 29t53 10.5h310q28 0 46.5 -10t30 -28t16 -42.5t4.5 -54.5z" />
    <glyph glyph-name="khokhuatthai" unicode="&#xe03;" horiz-adv-x="1597" 
d="M1433 1541q7 35 26.5 64t47 50t60.5 32.5t68 11.5t63 -11.5t46.5 -32.5t25 -50t-0.5 -64l-214 -1009q-32 -147 -104.5 -255t-171.5 -178.5t-215.5 -105t-236.5 -34.5q-123 0 -228 36.5t-175.5 109t-99 179.5t1.5 248l16 78q14 68 29 120.5t32.5 94.5t40.5 76.5t54.5 66
t72.5 63t96 67.5q27 17 55 34.5t55 38.5t50 46.5t39 57.5q-32 -17 -74 -23.5t-86 -6.5q-24 0 -53.5 3t-60 11.5t-60 24t-54.5 41.5t-43.5 64t-26.5 91q-5 34 5 68t32.5 63.5t55 52t71.5 31.5q81 20 128.5 -11t52.5 -110q2 -29 18 -45.5t42 -16.5q32 0 56 17t41 46
q32 56 87 91.5t118 35.5q39 0 70.5 -15t51.5 -40.5t27.5 -60.5t-0.5 -74l-40 -181q-11 -49 -34.5 -89.5t-61.5 -80.5t-90.5 -83.5t-120.5 -98.5q-49 -40 -84.5 -74t-60.5 -67t-41.5 -69t-27.5 -81l-23 -106q-17 -78 -9 -138.5t36 -102t74.5 -62.5t108.5 -21q57 0 109.5 15.5
t96.5 51t77 92.5t51 140z" />
    <glyph glyph-name="khokhwaithai" unicode="&#xe04;" horiz-adv-x="1786" 
d="M1659 138q-8 -35 -27.5 -64t-47 -50t-61 -32.5t-68.5 -11.5t-63.5 11.5t-47 32.5t-26 50t0.5 64l185 870q10 47 12 95.5t-7 94t-31 85.5t-60 70t-93 47t-131 17q-114 0 -198.5 -37.5t-144 -96.5t-95 -132t-50.5 -143l-48 -226q88 98 180 154.5t207 74.5q31 5 59.5 0
t49.5 -19.5t33.5 -36.5t13.5 -52q1 -31 -10 -60.5t-30.5 -54t-47 -42t-59.5 -23.5q-119 -14 -206.5 -58t-150.5 -115.5t-104 -167.5t-66 -214l-6 -30q-8 -35 -27 -64t-46.5 -50t-60.5 -32.5t-68 -11.5t-63 11.5t-46.5 32.5t-25.5 50t1 64l177 833q20 94 53.5 186t84 174.5
t120.5 153t162.5 122t210 80.5t264.5 29q145 0 250.5 -29t176.5 -80.5t111 -122t56 -153t10.5 -174.5t-25.5 -186z" />
    <glyph glyph-name="khokhonthai" unicode="&#xe05;" horiz-adv-x="1802" 
d="M1676 138q-8 -35 -27.5 -64t-47 -50t-61 -32.5t-68.5 -11.5t-63.5 11.5t-47 32.5t-26 50t0.5 64l187 882q10 45 14 96.5t-2 100.5t-24 89.5t-54 61.5l-255 -217q-11 -10 -26.5 -16.5t-31.5 -8t-32 4t-28 20.5l-171 217q-45 -21 -78.5 -60.5t-58.5 -87.5t-41.5 -100
t-26.5 -100l-50 -238q88 98 180 154.5t207 74.5q31 5 59.5 0t49.5 -19.5t33.5 -36.5t13.5 -52q1 -31 -10 -60.5t-30.5 -54t-47 -42t-59.5 -23.5q-119 -14 -206.5 -58t-150.5 -115.5t-104 -167.5t-66 -214l-6 -30q-8 -35 -27 -64t-46.5 -50t-60.5 -32.5t-68 -11.5t-63 11.5
t-46.5 32.5t-25.5 50t1 64l187 880q22 106 62 208.5t105 190.5t159.5 156t225.5 105q21 6 44.5 11t46.5 4t45 -11t40 -34l117 -158l174 158q27 24 53.5 34t51.5 11t48 -4t42 -11q78 -24 133.5 -62.5t91 -88.5t54 -109t23 -124t-2.5 -135t-22 -141z" />
    <glyph glyph-name="khorakhangthai" unicode="&#xe06;" horiz-adv-x="1782" 
d="M1750 586q-29 -138 -82.5 -253t-140 -197t-211 -127.5t-296.5 -45.5q-158 0 -268 53t-173 164l-10 -46q-7 -34 -26 -62.5t-45.5 -48.5t-59 -31.5t-66.5 -11.5t-61.5 11.5t-45.5 31.5t-24.5 48.5t0.5 62.5l99 464q15 72 29.5 125t31 94t37.5 73.5t50.5 62t68 60t90.5 68.5
q28 22 56 42t54.5 43.5t50 51t42.5 64.5q-34 -15 -69.5 -24t-73.5 -9q-34 0 -80.5 8.5t-91 33t-80.5 70t-48 119.5q-5 34 5 68t32.5 63.5t55 52t71.5 31.5q81 20 128.5 -11t52.5 -110q2 -29 18 -45.5t42 -16.5q32 0 56 17t41 46q32 56 87 91.5t118 35.5q39 0 70.5 -15
t51.5 -40.5t27.5 -60.5t-0.5 -74l-38 -177q-14 -65 -45 -116.5t-74.5 -96t-95.5 -84.5t-107 -80q-49 -35 -82.5 -63.5t-56.5 -60.5t-39 -74t-29 -105q-16 -75 -1 -146t60 -125.5t118 -88t173 -33.5q66 0 125 21t106 59t80 92.5t47 122.5l209 982q7 35 27 64.5t47.5 50.5
t61 33t68.5 12t63.5 -12t47 -33t25.5 -50.5t0 -64.5z" />
    <glyph glyph-name="ngonguthai" unicode="&#xe07;" horiz-adv-x="1323" 
d="M1247 381q-24 -112 -74.5 -192t-120 -131t-153.5 -75t-175 -24q-90 0 -153.5 23t-105 65t-65 101t-34.5 131l-84 551q-5 32 4.5 63t29.5 58t49.5 48t64.5 32q33 12 65 11.5t57.5 -12t43 -34t22.5 -55.5l99 -630q5 -34 24.5 -49.5t47.5 -15.5q44 0 74 24t37 58l232 1089
h-133q-27 0 -47 10.5t-32.5 28t-16 41.5t2.5 51t19.5 51t33 41.5t44 28t51.5 10.5h348q27 0 47 -10.5t32.5 -28t16.5 -41.5t-2 -51z" />
    <glyph glyph-name="chochanthai" unicode="&#xe08;" horiz-adv-x="1622" 
d="M967 352q57 89 120 190t118.5 200.5t98.5 192.5t60 167q38 164 -31 246t-239 82q-119 0 -203 -47t-143 -150q-23 -33 -55.5 -54t-68 -30t-70 -5.5t-61.5 19.5q-29 17 -45 42.5t-19.5 55.5t7 62.5t34.5 64.5q118 154 299 239t417 85q78 0 155.5 -11.5t146.5 -38t124.5 -70
t89.5 -108.5t42 -153.5t-18 -204.5q-15 -66 -44 -140t-69 -154t-88.5 -164.5t-102 -170.5t-110.5 -172t-113 -169q-26 -40 -60.5 -72.5t-75 -55.5t-85.5 -35.5t-92 -12.5q-98 0 -161.5 45.5t-76.5 133.5l-84 586h-123q-28 0 -48.5 10.5t-33 28.5t-16 42t2.5 52t20 52.5
t34 42.5t45 28.5t53 10.5h308q28 0 44.5 -9t26 -25t14 -37t7.5 -46z" />
    <glyph glyph-name="chochingthai" unicode="&#xe09;" horiz-adv-x="1769" 
d="M326 800q7 35 26.5 64t46.5 50t60 32.5t68 11.5t63 -11.5t46.5 -32.5t25.5 -50t0 -64l-48 -222q-15 -69 -4.5 -126t42.5 -97.5t86 -62.5t126 -22q118 0 214 37.5t168 104t119.5 157.5t70.5 197l53 250q15 72 11.5 143.5t-38 129t-106 93t-191.5 35.5q-87 0 -154.5 -17
t-118.5 -45.5t-88 -65.5t-62 -76q-21 -32 -51 -54.5t-63.5 -33.5t-67.5 -9.5t-63 16.5t-46 40.5t-21.5 56t3.5 64t30 65.5q52 76 125.5 141.5t168.5 113.5t212.5 75.5t258.5 27.5q149 0 257 -28t181 -78t114 -119t57 -150.5t10.5 -172.5t-25.5 -185l-180 -848
q-7 -35 -26 -63.5t-46 -49t-60 -32t-67 -11.5q-35 0 -62.5 11.5t-45.5 32t-25 49t0 63.5l11 53q-114 -119 -253 -174t-311 -55q-177 0 -284 47.5t-159 133.5t-56 206t27 264z" />
    <glyph glyph-name="chochangthai" unicode="&#xe0a;" horiz-adv-x="1581" 
d="M1070 941q-24 3 -42.5 14t-30.5 28t-16.5 39.5t0.5 46.5t18 46t31 39t40 29t45 16q65 11 116 40t91.5 74.5t70.5 109t53 143.5q13 37 37.5 65t55 46t64.5 25t67 1q34 -6 59 -22.5t38 -41.5t13.5 -57.5t-12.5 -70.5q-25 -69 -59 -134.5t-79 -122t-102 -102t-129 -75.5
q56 -18 91.5 -46.5t56 -63.5t28 -74t7 -78.5t-6.5 -77t-13 -69.5l-28 -136q-32 -147 -107 -255t-177 -178.5t-221 -105t-239 -34.5q-123 0 -230.5 36.5t-181 109t-104.5 179.5t-1 248l28 136q14 64 27.5 112t29 85.5t35 68t44 59.5t56.5 59.5t73 69.5q31 31 55.5 56.5
t43.5 48.5t33.5 46.5t24.5 49.5q17 50 -3.5 82.5t-70.5 32.5q-35 0 -69.5 -5.5t-80.5 -19.5q-54 -13 -93 10t-44 72q-2 24 6 48t23 44.5t36.5 36.5t47.5 25q44 15 86.5 25.5t78.5 17t65 9.5t46 3q95 0 167.5 -22.5t115.5 -68.5t52.5 -115t-21.5 -163q-16 -46 -40.5 -87
t-61 -85.5t-85.5 -97.5t-113 -123q-34 -37 -53.5 -66.5t-31.5 -58t-20 -58.5t-17 -67l-24 -110q-17 -78 -6 -138.5t43.5 -102t83 -62.5t113.5 -21q60 0 115.5 15.5t101.5 51t80.5 92.5t52.5 140l23 111q16 77 13 127.5t-24 81t-57.5 45t-87.5 19.5z" />
    <glyph glyph-name="sosothai" unicode="&#xe0b;" horiz-adv-x="1683" 
d="M375 1480q-4 34 6.5 68.5t33 64.5t54.5 51.5t71 30.5q81 18 128.5 -14t52.5 -107q2 -29 22.5 -46t46.5 -17q28 0 49.5 17.5t38.5 46.5q31 56 87 91t119 35q39 0 70.5 -13.5t51 -38t26.5 -60t-2 -78.5q-16 -74 -33.5 -131.5t-38 -104.5t-45 -85t-54 -72t-65 -66.5
t-77.5 -68.5q-47 -40 -79 -89t-53.5 -102t-35.5 -107t-24 -103q-17 -78 -6 -138.5t43 -102t81.5 -62.5t111.5 -21q60 0 115.5 15.5t102 51t81 92.5t52.5 140l23 111q15 72 11.5 121.5t-23.5 81.5t-56.5 48.5t-87.5 21.5q-24 3 -42.5 14t-30.5 28t-16.5 39.5t0.5 46.5t18 46
t31 39t40 29t45 16q65 11 116 40t91.5 74.5t70.5 109t53 143.5q13 37 37.5 65t55 46t64.5 25t67 1q34 -6 59 -22.5t38 -41.5t13.5 -57.5t-12.5 -70.5q-25 -69 -59 -134.5t-79 -122t-102 -102t-129 -75.5q56 -18 92 -46.5t56.5 -63.5t28.5 -74t8 -78.5t-5.5 -77t-12.5 -69.5
l-28 -136q-32 -147 -107.5 -255t-178.5 -178.5t-223 -105t-240 -34.5q-123 0 -230.5 36.5t-181 109t-104.5 179.5t-1 248q21 100 40.5 179.5t51 147t82 128t132.5 123.5q17 14 40 34.5t47 45.5t45.5 51.5t34.5 52.5q-80 -49 -174 -49q-34 0 -80.5 8.5t-91 34t-80 71.5
t-47.5 121z" />
    <glyph glyph-name="chochoethai" unicode="&#xe0c;" horiz-adv-x="2650" 
d="M376 905q9 44 9.5 91t-18.5 88q-18 36 -31 57.5t-17 41t4.5 42t34.5 61.5q56 84 133.5 162t178 137.5t224.5 95t273 35.5q140 0 244 -27.5t176 -76t115 -115.5t61.5 -145.5t16 -166t-21.5 -177.5l-58 -271q-22 -103 -15.5 -190.5t40.5 -151.5t96.5 -100.5t153.5 -36.5
q54 0 100.5 15.5t84 51t66 92.5t46.5 140l209 983q7 35 27 64.5t47.5 50.5t61 33t68.5 12t63.5 -12t47 -33t25.5 -50.5t0 -64.5l-203 -954q-32 -149 -83 -266t-130 -197t-191 -122t-265 -42q-71 0 -129.5 16.5t-105.5 46t-83 70t-61 88.5l-10 -46q-7 -34 -26 -62.5
t-45.5 -48.5t-59 -31.5t-66.5 -11.5t-61.5 11.5t-45.5 31.5t-24.5 48.5t0.5 62.5l193 906q15 69 9.5 138t-41 124.5t-105 90.5t-182.5 37q-90 1 -164.5 -19.5t-131.5 -54.5t-96.5 -76t-58.5 -84q26 -21 42 -52t22.5 -69t4 -82t-12.5 -92l-133 -627h73q28 0 49.5 -10.5
t34 -29.5t16.5 -44t-2 -53q-6 -29 -20.5 -53.5t-35 -43.5t-46.5 -29.5t-54 -10.5h-272q-29 0 -51.5 10.5t-37.5 29.5t-20 43.5t1 53.5z" />
    <glyph glyph-name="yoyingthai" unicode="&#xe0d;" horiz-adv-x="2650" 
d="M1690 688q-18 -86 -14.5 -144.5t26 -94.5t62.5 -52t94 -16q90 0 168.5 38.5t140.5 105t106.5 157t66.5 195.5l141 663q7 35 27 64.5t47.5 50.5t61 33t68.5 12t63.5 -12t47 -33t25.5 -50.5t0 -64.5l-254 -1192q-26 -121 -57 -212.5t-65.5 -160.5t-70.5 -118t-72 -86l5 4
q-67 -75 -142.5 -127.5t-156 -85.5t-165 -47.5t-168.5 -14.5q-92 0 -174 19t-149 58t-114.5 97.5t-68.5 137.5q-10 35 -5 66t20.5 57t41.5 46.5t58 34.5t64 15t58.5 -8.5t45.5 -30t27 -49.5q12 -41 35.5 -72.5t56 -52.5t73 -32t86.5 -11q111 0 193 38t139.5 98.5t92 135
t49.5 146.5l22 106q-45 -45 -99.5 -85.5t-114.5 -71.5t-125 -49.5t-131 -18.5q-154 0 -248 43t-138.5 125.5t-45 203t32.5 275.5l62 295q15 72 10.5 143t-39 128t-104 92.5t-182.5 37.5q-90 1 -164.5 -19.5t-132 -55t-97 -78.5t-60.5 -88q53 -44 64.5 -124t-9.5 -180
l-127 -598h73q28 0 49.5 -10.5t34 -29.5t16.5 -44t-2 -53q-6 -29 -20.5 -53.5t-35 -43.5t-46.5 -29.5t-54 -10.5h-272q-29 0 -51.5 10.5t-37.5 29.5t-20 43.5t1 53.5l163 768q9 44 9.5 91t-18.5 88q-18 36 -31 57.5t-17 41t4.5 42t34.5 61.5q56 84 133.5 162t178 137.5
t224.5 95t273 35.5q140 0 244 -27.5t176 -76t115 -115.5t61.5 -145.5t16 -166t-21.5 -177.5z" />
    <glyph glyph-name="dochadathai" unicode="&#xe0e;" horiz-adv-x="1839" 
d="M1601 -390q-9 -43 -34 -81t-59.5 -66t-76.5 -44.5t-85 -16.5q-46 0 -81.5 18t-57.5 50q-20 29 -50 54.5t-74 44.5t-103.5 30t-137.5 11q-50 0 -99 -13.5t-98.5 -37.5t-98.5 -56.5t-98 -70.5q-23 -18 -48.5 -25t-49.5 -4.5t-44.5 14t-33.5 30.5q-13 21 -14.5 45.5t6.5 49
t24 47.5t37 42q63 57 136 104t148.5 80.5t150 51.5t140.5 18q78 0 140.5 -9t110.5 -23.5t83.5 -33t61.5 -36.5l268 1257q15 71 8 140t-46.5 124t-116.5 89.5t-201 36.5q-102 1 -184.5 -22.5t-143 -59.5t-100 -77t-55.5 -75q43 -46 59.5 -123.5t-2.5 -167.5l-163 -768
q-6 -29 -22 -53.5t-38.5 -43.5t-50 -29.5t-55.5 -10.5h-272q-29 0 -50 10.5t-34 29.5t-16.5 43.5t2.5 53.5q6 28 20.5 53t35 44t46 29.5t54.5 10.5h73l135 635q9 44 9 89t-19 86q-18 36 -31 57.5t-17 41t4.5 42t34.5 61.5q56 84 135 162t183 137.5t234.5 95t289.5 35.5
q148 0 258 -27t186 -75.5t121.5 -114.5t66 -144.5t18.5 -165.5t-21 -177z" />
    <glyph glyph-name="topatakthai" unicode="&#xe0f;" horiz-adv-x="1839" 
d="M1597 -405q-8 -40 -31 -75t-55 -61.5t-70.5 -41.5t-78.5 -15q-57 0 -96 29t-53 77q-6 22 -16.5 42t-25.5 35.5t-36 24.5t-49 9t-53 -9t-46.5 -24.5t-39.5 -35.5t-31 -42q-14 -23 -34 -42.5t-43.5 -33.5t-50 -22t-53.5 -8q-54 0 -89.5 30.5t-43.5 78.5q-3 21 -10.5 41
t-21 36t-33.5 25.5t-49 9.5q-26 0 -48.5 -9.5t-41 -26t-33.5 -38t-27 -45.5q-13 -27 -34 -48.5t-46.5 -35t-53 -17.5t-53.5 3t-43 23.5t-25.5 39t-6.5 49t14 54.5q35 80 85.5 138.5t108 96.5t118.5 56t117 18q99 0 167.5 -40.5t102.5 -114.5q35 35 75 62t81 45t80 27t73 9
q75 0 123 -22t77 -56l266 1249q15 71 8 140t-46.5 124t-116.5 89.5t-201 36.5q-102 1 -184.5 -22.5t-143 -59.5t-100 -77t-55.5 -75q43 -46 59.5 -123.5t-2.5 -167.5l-163 -768q-6 -29 -22 -53.5t-38.5 -43.5t-50 -29.5t-55.5 -10.5h-272q-29 0 -50 10.5t-34 29.5
t-16.5 43.5t2.5 53.5q6 28 20.5 53t35 44t46 29.5t54.5 10.5h73l135 635q9 44 9 89t-19 86q-18 36 -31 57.5t-17 41t4.5 42t34.5 61.5q56 84 135 162t183 137.5t234.5 95t289.5 35.5q148 0 258 -27t186 -75.5t121.5 -114.5t66 -144.5t18.5 -165.5t-21 -177z" />
    <glyph glyph-name="thothanthai" unicode="&#xe10;" horiz-adv-x="1614" 
d="M525 -527q1 44 -17.5 70t-53.5 26t-63.5 -22.5t-48.5 -60.5q-13 -26 -33.5 -45t-45 -31t-51 -15.5t-51.5 3.5q-26 6 -43.5 21t-25.5 35.5t-7 44.5t12 50q37 85 86.5 136.5t103 79t105.5 36t94 7.5q59 -3 106 -26t69 -62q15 17 35.5 33t43.5 28t48 19.5t50 7.5
q48 0 81.5 -23t47.5 -58q7 33 27.5 63t49 52t63.5 35t71 13t65.5 -11.5t49 -31.5t27 -48t0.5 -61l-41 -191q-7 -33 -26 -61.5t-46 -48.5t-60.5 -31.5t-69.5 -11.5q-56 0 -96 30t-48 76q-5 33 -23.5 51t-50.5 18q-38 0 -70 -27.5t-52 -70.5q-17 -34 -50 -55.5t-71 -21.5
q-39 0 -64 22t-27 57zM1726 1126q-15 -66 -44 -140t-69 -154t-88.5 -164.5t-102 -170.5t-110.5 -172t-113 -169q-26 -40 -60.5 -72.5t-75 -55.5t-85.5 -35.5t-92 -12.5q-98 0 -161.5 45.5t-76.5 133.5l-84 586h-123q-28 0 -48.5 10.5t-33 28.5t-16 42t2.5 52t20 52.5
t34 42.5t45 28.5t53 10.5h308q28 0 44.5 -9t26 -25t14 -37t7.5 -46l69 -543q57 89 120 190t118.5 200.5t98.5 192.5t60 167q38 164 -31 246t-239 82q-119 0 -204 -46.5t-142 -150.5q-20 -35 -52 -56t-68.5 -29.5t-72 -4.5t-62.5 20q-29 17 -45 42t-19 55t7 63t34 65
q119 160 299 244t418 84q72 0 142 -9.5t133 -31.5q52 10 89.5 42.5t59.5 73.5q21 33 52.5 53.5t66 29t69 4t61.5 -22.5q27 -17 42.5 -44.5t18 -59.5t-8.5 -66t-36 -65q-32 -40 -77 -70.5t-101 -50.5q39 -65 48 -157t-20 -216z" />
    <glyph glyph-name="thonangmonthothai" unicode="&#xe11;" horiz-adv-x="1782" 
d="M1655 138q-8 -35 -27.5 -64t-47 -50t-61 -32.5t-68.5 -11.5t-63.5 11.5t-47 32.5t-26 50t0.5 64l235 1107q7 32 11.5 59t4.5 46.5t-6 30t-20 10.5q-62 0 -214.5 -104.5t-393.5 -328.5q-42 -40 -75 -70.5t-58 -57.5t-44 -52.5t-33.5 -54.5t-25.5 -64t-21 -81l-93 -440
q-8 -35 -27.5 -64t-47 -50t-61 -32.5t-68.5 -11.5t-63.5 11.5t-47 32.5t-26 50t0.5 64l86 407q13 63 25 111.5t26 87t32.5 71.5t46.5 66.5t66.5 70.5t92.5 84q64 55 109.5 93.5t76.5 67t49.5 51t28.5 46.5q-39 -24 -84 -36.5t-91 -12.5q-34 0 -80.5 8.5t-91 34t-80 71.5
t-47.5 121q-4 34 6.5 68.5t33 64.5t54.5 51.5t71 30.5q81 18 128.5 -14t52.5 -107q2 -29 22.5 -46t46.5 -17q28 0 49.5 17.5t38.5 46.5q31 56 87 91t119 35q70 0 112 -41t39 -112q85 52 156 85t128.5 52.5t101.5 27t76 7.5q83 0 128.5 -26.5t64 -74.5t14 -116t-22.5 -151z
" />
    <glyph glyph-name="thophuthaothai" unicode="&#xe12;" horiz-adv-x="2720" 
d="M1770 737q-22 -103 -15.5 -190.5t40.5 -151.5t96.5 -100.5t153.5 -36.5q55 0 101.5 15.5t84 51t65.5 92.5t46 140l209 982q7 35 27 64.5t47.5 50.5t61 33t68.5 12t63.5 -12t47 -33t25.5 -50.5t0 -64.5l-203 -953q-32 -149 -83 -266t-130 -197t-191 -122t-265 -42
q-71 0 -129.5 16.5t-105.5 46t-83 70t-61 88.5l-10 -46q-7 -34 -26 -62.5t-45.5 -48.5t-59 -31.5t-66.5 -11.5t-61.5 11.5t-45.5 31.5t-24.5 48.5t0.5 62.5l199 935q9 43 15.5 89t3.5 87.5t-19.5 75t-54.5 51.5l-256 -205q-26 -21 -61 -23.5t-58 23.5l-173 209
q-38 -20 -67.5 -55t-51.5 -77t-36.5 -87.5t-23.5 -87.5l-132 -620l327 309h-42q-27 0 -48 10t-34.5 27.5t-19 41t0.5 50.5t20.5 50.5t35.5 41t46.5 27.5t52.5 10h303q31 0 56 -11.5t41 -31t22 -46t-1 -57.5q-6 -29 -20 -56t-35 -47l-772 -728q-35 -30 -77 -47.5t-87 -17.5
q-43 0 -77.5 13.5t-57 38.5t-31.5 60t0 78l182 854q22 106 59.5 208.5t99.5 190.5t154 156t223 105q21 6 44.5 11t46.5 4t45 -11t40 -34l118 -155l173 155q27 24 53.5 34t51.5 11t48 -4t42 -11q78 -24 132 -62.5t88 -88.5t50 -109t19 -124t-5.5 -135t-23.5 -141z" />
    <glyph glyph-name="nonenthai" unicode="&#xe13;" horiz-adv-x="2650" 
d="M1662 557q-18 -83 -13.5 -140t27 -92.5t62.5 -51t94 -15.5q90 0 168 36.5t139.5 100.5t105 151.5t65.5 190.5l171 802q7 35 27 64.5t47.5 50.5t61 33t68.5 12t63.5 -12t47 -33t25.5 -50.5t0 -64.5l-299 -1403q-7 -34 -26 -62.5t-46 -49.5t-60 -32.5t-67 -11.5
q-35 0 -62.5 11.5t-45.5 32.5t-24.5 49.5t0.5 62.5l10 44q-46 -48 -99 -88.5t-112.5 -70t-124 -46t-133.5 -16.5q-154 0 -248 42t-139.5 122t-47 197t30.5 266l97 454q15 69 9.5 138t-41 124.5t-105 90.5t-182.5 37q-90 1 -164.5 -19t-131.5 -53.5t-96 -76t-59 -85.5
q26 -21 42 -52t22.5 -69t4 -82t-12.5 -92l-133 -627h73q28 0 49.5 -10.5t34 -29.5t16.5 -44t-2 -53q-6 -29 -20.5 -53.5t-35 -43.5t-46.5 -29.5t-54 -10.5h-272q-29 0 -51.5 10.5t-37.5 29.5t-20 43.5t1 53.5l163 768q9 44 9.5 91t-18.5 88q-18 36 -31 57.5t-17 41t4.5 42
t34.5 61.5q56 84 133.5 162t178 137.5t224.5 95t273 35.5q140 0 244 -27.5t176 -76t115 -115.5t61.5 -145.5t16 -166t-21.5 -177.5z" />
    <glyph glyph-name="dodekthai" unicode="&#xe14;" horiz-adv-x="1802" 
d="M1676 138q-8 -35 -27.5 -64t-47 -50t-61 -32.5t-68.5 -11.5t-63.5 11.5t-47 32.5t-26 50t0.5 64l191 898q10 46 12.5 93.5t-6 91t-30.5 82t-61 66.5t-97.5 44.5t-140.5 16.5q-83 0 -149 -16.5t-117.5 -44.5t-89.5 -66.5t-65 -82t-44 -91t-27 -93.5l-125 -587l337 309h-42
q-27 0 -48 10t-34.5 27.5t-19 41t0.5 50.5t20.5 50.5t35.5 41t46.5 27.5t52.5 10h303q31 0 56 -11.5t41 -31t22 -46t-1 -57.5q-6 -29 -20 -56t-35 -47l-782 -728q-34 -31 -76.5 -48t-87.5 -17q-43 0 -77.5 13.5t-57 38.5t-31.5 60t0 78l179 840q19 90 51.5 177.5t82.5 167
t119.5 146.5t163 116.5t212 77t267.5 27.5q147 0 253 -27.5t178.5 -77t114 -116.5t59 -146.5t13.5 -167t-23 -177.5z" />
    <glyph glyph-name="totaothai" unicode="&#xe15;" horiz-adv-x="1815" 
d="M1688 138q-8 -35 -27 -64t-46.5 -50t-60.5 -32.5t-68 -11.5t-63 11.5t-46.5 32.5t-25.5 50t1 64l193 908q9 42 10 91t-7.5 95.5t-28 85.5t-51.5 60l-252 -205q-11 -9 -27 -16t-32.5 -8.5t-32.5 4t-27 20.5l-173 209q-46 -20 -81 -57.5t-60.5 -84t-42 -97.5t-26.5 -97
l-127 -597l341 309h-42q-27 0 -48 10t-34.5 27.5t-19 41t0.5 50.5t20.5 50.5t35.5 41t46.5 27.5t52.5 10h303q31 0 56 -11.5t41 -31t22 -46t-1 -57.5q-6 -29 -20 -56t-35 -47l-786 -728q-34 -31 -76.5 -48t-87.5 -17q-43 0 -77.5 13.5t-57 38.5t-31.5 60t0 78l182 854
q22 106 63.5 208.5t108 190.5t162 156t226.5 105q21 6 44.5 11t46.5 3.5t44.5 -11t40.5 -33.5l119 -151l172 151q27 24 53.5 34t51.5 11t48 -4t42 -11q78 -24 134 -62.5t92 -88.5t55 -109t24 -124t-2 -135t-22 -141z" />
    <glyph glyph-name="thothungthai" unicode="&#xe16;" horiz-adv-x="1737" 
d="M1610 138q-8 -35 -27 -64t-46.5 -50t-60.5 -32.5t-68 -11.5t-63 11.5t-46.5 32.5t-25.5 50t1 64l192 902q15 71 9.5 140t-42.5 124t-112 89.5t-199 36.5q-104 1 -184 -23t-137.5 -60t-93.5 -77.5t-52 -73.5q26 -21 42 -52t22.5 -68.5t4.5 -81t-12 -89.5l-134 -631h73
q28 0 49.5 -10.5t34 -29.5t16.5 -44t-2 -53q-6 -29 -20.5 -53.5t-35 -43.5t-46.5 -29.5t-54 -10.5h-272q-29 0 -51.5 10.5t-37.5 29.5t-20 43.5t1 53.5l164 772q9 44 9 89t-19 86q-18 36 -31 57.5t-17 41t4.5 42t34.5 61.5q56 84 130.5 162t174 137.5t227.5 95t293 35.5
q149 0 257 -27t182.5 -75.5t118 -114.5t62 -144.5t15.5 -165.5t-22 -177z" />
    <glyph glyph-name="thothahanthai" unicode="&#xe17;" horiz-adv-x="1769" 
d="M525 138q-8 -35 -27.5 -64t-47 -50t-61 -32.5t-68.5 -11.5t-63.5 11.5t-47 32.5t-26 50t0.5 64l302 1422q7 34 26 63t46 49.5t59 32t67 11.5q34 0 62 -11.5t46.5 -32t25 -49.5t-0.5 -63l-18 -85q115 119 255.5 182t313.5 63q177 0 284 -47.5t159 -133.5t56 -206t-27 -264
l-198 -931q-8 -35 -27 -64t-46.5 -50t-60.5 -32.5t-68 -11.5t-63 11.5t-46.5 32.5t-25.5 50t1 64l205 964q15 69 4.5 125.5t-43 97t-86 62.5t-125.5 22q-119 0 -214.5 -37.5t-167.5 -104t-120 -157.5t-70 -197z" />
    <glyph glyph-name="thothongthai" unicode="&#xe18;" horiz-adv-x="1679" 
d="M1748 1360q4 -34 -2 -67.5t-23 -63t-44 -53t-63 -37.5t-71.5 -15.5t-65 10t-50 35.5t-26.5 63q-16 105 -86 153.5t-206 48.5q-63 0 -121 -5.5t-104.5 -19.5t-77 -37.5t-38.5 -60.5q-6 -26 14.5 -50.5t55.5 -47.5t80.5 -43t90.5 -36.5t85 -29t64 -19.5q92 -30 169 -59
t137 -63t102.5 -76.5t65 -98.5t24.5 -128.5t-18 -167.5q-30 -141 -109.5 -241t-189.5 -163t-242 -92t-267 -29q-91 0 -174.5 13t-153.5 40t-124.5 69.5t-87.5 100.5t-42.5 133.5t10.5 168.5l46 214q7 35 26.5 64t46.5 50t60 32.5t68 11.5t63 -11.5t46.5 -32.5t25.5 -50
t0 -64l-46 -214q-14 -68 8 -114t66 -74.5t103.5 -41t119.5 -12.5q55 0 119 10t122 37t102 74t60 121q8 40 9.5 72.5t-9.5 60t-36.5 53t-70.5 50t-111.5 51t-159.5 57.5q-75 24 -144.5 48t-129.5 51t-107.5 59.5t-76.5 75.5t-38 97.5t9 126.5q18 77 58.5 138t96 107.5
t123.5 79t142.5 53.5t151.5 30.5t151 9.5q121 0 224.5 -20.5t181 -63.5t126.5 -109.5t62 -158.5z" />
    <glyph glyph-name="nonuthai" unicode="&#xe19;" horiz-adv-x="1769" 
d="M1601 1542q7 35 27 64t47.5 50t61 32.5t68.5 11.5t63.5 -11.5t47 -32.5t25.5 -50t0 -64l-302 -1422q-8 -35 -26.5 -63.5t-45.5 -49t-59.5 -32t-66.5 -11.5q-35 0 -62.5 11.5t-46 32t-25.5 49t1 63.5l18 85q-115 -119 -256 -182t-313 -63q-118 0 -204.5 21.5t-145.5 61.5
t-93 98t-47 130t-7.5 158t25.5 182l198 931q7 35 26.5 64t47 50t60.5 32.5t68 11.5t63 -11.5t46.5 -32.5t25 -50t-0.5 -64l-205 -964q-15 -69 -7 -125.5t38.5 -97t85 -62.5t133.5 -22q118 0 214 37.5t168 104t120 157.5t71 197z" />
    <glyph glyph-name="bobaimaithai" unicode="&#xe1a;" horiz-adv-x="1769" 
d="M1762 700q-20 -94 -53 -185t-83 -173t-118.5 -151.5t-160.5 -120t-208.5 -79t-261.5 -28.5q-147 0 -251.5 29t-174.5 80.5t-109 122t-53.5 153.5t-8.5 175t26 186l177 833q7 35 26.5 64t47 50t60.5 32.5t68 11.5t63 -11.5t46.5 -32.5t25 -50t-0.5 -64l-184 -866
q-10 -48 -12.5 -97.5t6 -95.5t30 -86.5t58.5 -70t92 -47t131 -17.5q114 0 197 37.5t140 97t91 133.5t49 146l184 866q7 35 27 64t47.5 50t61 32.5t68.5 11.5t63.5 -11.5t47 -32.5t25.5 -50t0 -64z" />
    <glyph glyph-name="poplathai" unicode="&#xe1b;" horiz-adv-x="1769" 
d="M1762 700q-20 -94 -53 -185t-83 -173t-118.5 -151.5t-160.5 -120t-208.5 -79t-261.5 -28.5q-147 0 -251.5 29t-174.5 80.5t-109 122t-53.5 153.5t-8.5 175t26 186l177 833q7 35 26.5 64t47 50t60.5 32.5t68 11.5t63 -11.5t46.5 -32.5t25 -50t-0.5 -64l-184 -866
q-10 -48 -12.5 -97.5t6 -95.5t30 -86.5t58.5 -70t92 -47t131 -17.5q114 0 197 37.5t140 97t91 133.5t49 146l340 1599q7 35 27 64t47.5 50t61 32.5t68.5 11.5t63.5 -11.5t47 -32.5t25.5 -50t0 -64z" />
    <glyph glyph-name="phophungthai" unicode="&#xe1c;" horiz-adv-x="1896" 
d="M1841 475q-28 -131 -78.5 -226.5t-119.5 -158t-154 -93t-182 -30.5q-121 0 -205 50t-122 143q-67 -99 -165.5 -146t-228.5 -47q-100 0 -174.5 30.5t-118 93t-54.5 158t17 226.5l227 1067q6 28 22 53t38.5 44t49.5 29.5t56 10.5h313q28 0 49.5 -10.5t34 -29.5t16.5 -44
t-2 -53q-6 -29 -20.5 -53.5t-35 -43.5t-46.5 -29.5t-54 -10.5h-114l-186 -877q-16 -75 -18 -128t9 -86t34.5 -48.5t58.5 -15.5q54 0 89 28t58.5 77t39.5 114.5t32 140.5l28 129q7 35 26.5 64t46.5 50t60 32.5t68 11.5t63 -11.5t46.5 -32.5t25.5 -50t0 -64l-28 -129
q-16 -75 -25.5 -140.5t-3.5 -114.5t31.5 -77t81.5 -28q34 0 61.5 15.5t51 48.5t42.5 86t35 128l215 1013q7 35 26.5 64t47 50t60.5 32.5t68 11.5t63 -11.5t46.5 -32.5t25 -50t-0.5 -64z" />
    <glyph glyph-name="fofathai" unicode="&#xe1d;" horiz-adv-x="1896" 
d="M1841 475q-28 -131 -78.5 -226.5t-119.5 -158t-154 -93t-182 -30.5q-121 0 -205 50t-122 143q-67 -99 -165.5 -146t-228.5 -47q-100 0 -174.5 30.5t-118 93t-54.5 158t17 226.5l227 1067q6 28 22 53t38.5 44t49.5 29.5t56 10.5h313q28 0 49.5 -10.5t34 -29.5t16.5 -44
t-2 -53q-6 -29 -20.5 -53.5t-35 -43.5t-46.5 -29.5t-54 -10.5h-114l-186 -877q-16 -75 -18 -128t9 -86t34.5 -48.5t58.5 -15.5q54 0 89 28t58.5 77t39.5 114.5t32 140.5l28 129q7 35 26.5 64t46.5 50t60 32.5t68 11.5t63 -11.5t46.5 -32.5t25.5 -50t0 -64l-28 -129
q-16 -75 -25.5 -140.5t-3.5 -114.5t31.5 -77t81.5 -28q34 0 61.5 15.5t51 48.5t42.5 86t35 128l371 1747q7 35 26.5 64t47 50t60.5 32.5t68 11.5t63 -11.5t46.5 -32.5t25 -50t-0.5 -64z" />
    <glyph glyph-name="phophanthai" unicode="&#xe1e;" horiz-adv-x="2224" 
d="M1664 487l447 1077q15 37 41.5 65t58.5 45t67.5 22.5t70.5 -1.5q34 -7 58.5 -26.5t37 -48t11 -62.5t-17.5 -70l-619 -1328q-18 -38 -45.5 -71t-62 -57t-74 -38t-81.5 -14q-40 0 -73 13t-57 35.5t-38 54t-14 68.5l-15 1041l-443 -1032q-17 -39 -44.5 -72t-62.5 -57
t-75 -37.5t-82 -13.5q-40 0 -73 13t-57 36t-38 54t-15 68l-55 1337q-2 36 11.5 70t38 62.5t57 48t70.5 26.5q37 7 71 1.5t59.5 -22.5t40.5 -45t15 -65l-9 -1089l451 1055q15 36 42 67t60.5 53.5t72.5 35.5t79 13q41 0 74.5 -13.5t57.5 -37.5t37 -56.5t14 -70.5z" />
    <glyph glyph-name="fofanthai" unicode="&#xe1f;" horiz-adv-x="2224" 
d="M1664 487l729 1810q15 37 41 65t58.5 45t68 22.5t70.5 -1.5q34 -7 58.5 -26.5t37 -48t11 -62.5t-17.5 -70l-901 -2061q-18 -38 -45.5 -71t-62 -57t-74 -38t-81.5 -14q-40 0 -73 13t-57 35.5t-38 54t-14 68.5l-15 1041l-443 -1032q-17 -39 -44.5 -72t-62.5 -57t-75 -37.5
t-82 -13.5q-40 0 -73 13t-57 36t-38 54t-15 68l-55 1337q-2 36 11.5 70t38 62.5t57 48t70.5 26.5q37 7 71 1.5t59.5 -22.5t40.5 -45t15 -65l-9 -1089l451 1055q15 36 42 67t60.5 53.5t72.5 35.5t79 13q41 0 74.5 -13.5t57.5 -37.5t37 -56.5t14 -70.5z" />
    <glyph glyph-name="phosamphaothai" unicode="&#xe20;" horiz-adv-x="1839" 
d="M1712 138q-8 -35 -27.5 -64t-47 -50t-61 -32.5t-68.5 -11.5t-63.5 11.5t-47 32.5t-26 50t0.5 64l192 902q15 71 8 140t-46.5 124t-116.5 89.5t-201 36.5q-102 1 -184.5 -22.5t-143 -59.5t-100 -77t-55.5 -75q43 -46 59.5 -123.5t-2.5 -167.5l-163 -768q-6 -29 -22 -53.5
t-38.5 -43.5t-50 -29.5t-55.5 -10.5h-272q-29 0 -50 10.5t-34 29.5t-16.5 43.5t2.5 53.5q6 28 20.5 53t35 44t46 29.5t54.5 10.5h73l135 635q9 44 8.5 89t-19.5 86q-18 36 -31 57.5t-17 41t4.5 42t34.5 61.5q56 84 135 162t183 137.5t234.5 95t289.5 35.5q148 0 258 -27
t186 -75.5t121.5 -114.5t66 -144.5t18.5 -165.5t-21 -177z" />
    <glyph glyph-name="momathai" unicode="&#xe21;" horiz-adv-x="1769" 
d="M659 767q-23 -106 -14 -197t53 -157.5t123.5 -104t198.5 -37.5q79 0 142.5 22t111.5 62.5t79.5 97t46.5 125.5l205 964q7 35 26.5 64t47 50t60.5 32.5t68 11.5t63 -11.5t46.5 -32.5t25 -50t-0.5 -64l-198 -931q-30 -144 -84.5 -264t-143 -206t-216 -133.5t-304.5 -47.5
q-173 0 -287 63t-178 182l-18 -84q-7 -35 -26 -63.5t-46 -49t-60 -32t-67 -11.5q-35 0 -62.5 11.5t-45.5 32t-24.5 49t0.5 63.5l302 1421q7 35 27 64t47.5 50t61 32.5t68.5 11.5t63.5 -11.5t47 -32.5t25.5 -50t0 -64z" />
    <glyph glyph-name="yoyakthai" unicode="&#xe22;" horiz-adv-x="1724" 
d="M1694 590q-22 -102 -66 -189t-106 -157t-138.5 -123.5t-163.5 -89t-181.5 -54t-191.5 -18.5q-91 0 -177 15t-160.5 46t-134 77.5t-96.5 110t-49 143.5t9 177q13 64 34 121.5t53 106t76.5 87.5t105.5 66q-51 34 -78 77t-37 90.5t-6.5 96t13.5 93.5q17 82 52 144.5t81 108
t101 76.5t112 49.5t113.5 26.5t106.5 8h141q30 0 52 -11t35.5 -30.5t17.5 -45.5t-2 -56t-21.5 -56t-37 -45.5t-48 -30.5t-56.5 -11h-71q-23 0 -58 -3.5t-70.5 -18.5t-64.5 -44.5t-40 -81.5q-12 -57 -2.5 -94t35 -58.5t63.5 -30.5t84 -9h52q29 0 51 -11t35.5 -30.5
t17.5 -45.5t-2 -55t-21 -55t-36.5 -45t-48.5 -30t-56 -11h-52q-49 0 -92 -9.5t-77.5 -34.5t-60 -70t-40.5 -115q-16 -75 3.5 -130.5t64 -92t109 -54.5t138.5 -18q81 0 154.5 21t134 68.5t105 124t68.5 187.5l190 895q7 35 26.5 64t47 50t60.5 32.5t68 11.5t63 -11.5
t46.5 -32.5t25 -50t-0.5 -64z" />
    <glyph glyph-name="roruathai" unicode="&#xe23;" horiz-adv-x="1491" 
d="M1605 1354q3 -33 -9 -66.5t-33.5 -61.5t-52 -48.5t-65.5 -29.5q-39 -9 -72 -4.5t-57.5 21t-39 43t-16.5 60.5q-10 94 -66.5 132t-151.5 38q-43 0 -90.5 -10t-90 -31.5t-74 -57t-42.5 -86.5q-9 -40 6 -70t53 -56.5t100 -53.5t147 -61q153 -60 249.5 -115t147 -117
t60.5 -136.5t-11 -172.5q-30 -140 -100.5 -236t-171 -155.5t-225.5 -86t-263 -26.5q-113 0 -208.5 22t-167 70t-114.5 124t-52 184q-2 33 9 66.5t33 61.5t52 48.5t65 29.5q39 9 72 4.5t57.5 -21t39 -43t16.5 -60.5q7 -108 75.5 -155.5t200.5 -47.5q46 0 100 9t102.5 33.5
t86.5 66.5t52 108q10 51 -3.5 86.5t-50.5 65.5t-97 58.5t-143 63.5q-74 32 -141.5 61.5t-124.5 61t-100.5 68.5t-70.5 82.5t-35.5 103t6.5 131.5q16 81 53.5 147t89.5 117t116.5 89t134.5 62t143 36t143 12q113 0 207 -17.5t163 -59t110 -110t49 -171.5z" />
    <glyph glyph-name="ruthai" unicode="&#xe24;" horiz-adv-x="1737" 
d="M1494 -407q-8 -35 -27 -64t-46.5 -50t-60.5 -32.5t-68 -11.5t-63 11.5t-46.5 32.5t-25.5 50t1 64l308 1447q15 71 9.5 140t-42.5 124t-112 89.5t-199 36.5q-104 1 -184 -23t-137.5 -60t-93.5 -77.5t-52 -73.5q26 -21 42 -52t22.5 -68.5t4.5 -81t-12 -89.5l-134 -631h73
q28 0 49.5 -10.5t34 -29.5t16.5 -44t-2 -53q-6 -29 -20.5 -53.5t-35 -43.5t-46.5 -29.5t-54 -10.5h-272q-29 0 -51.5 10.5t-37.5 29.5t-20 43.5t1 53.5l164 772q9 44 9 89t-19 86q-18 36 -31 57.5t-17 41t4.5 42t34.5 61.5q56 84 130.5 162t174 137.5t227.5 95t293 35.5
q149 0 257 -27t182.5 -75.5t118 -114.5t62 -144.5t15.5 -165.5t-22 -177z" />
    <glyph glyph-name="lolingthai" unicode="&#xe25;" horiz-adv-x="1729" 
d="M1602 138q-8 -35 -27 -64t-46.5 -50t-60.5 -32.5t-68 -11.5t-63 11.5t-46.5 32.5t-25.5 50t1 64l144 677q-34 -14 -73 -24t-80.5 -17.5t-84.5 -13.5t-83 -10q-90 -11 -179 -25.5t-163 -44.5t-127 -81.5t-71 -135.5q-10 -48 -1 -84t32.5 -61.5t58 -40.5t74.5 -22.5
t83 -8.5t83 4q58 10 95.5 -19t36.5 -94q-1 -27 -13 -52t-31.5 -45t-45 -35t-53.5 -21q-93 -21 -184 -21q-118 0 -219 26t-169.5 83.5t-96 149.5t0.5 224q21 99 61 174t96.5 131t130.5 95t163.5 67.5t193.5 48.5t223 37q75 11 145.5 21.5t128 29.5t96.5 50t50 84
q17 81 -3 130t-63.5 74.5t-102.5 33.5t-119 8q-67 0 -127.5 -11t-113 -36t-95 -65.5t-73.5 -100.5q-17 -35 -43.5 -61.5t-58.5 -42.5t-67 -20.5t-67 4.5t-54.5 30t-33 49.5t-8.5 62t20 67.5q59 114 145.5 191.5t191 125t223 68.5t242.5 21q78 0 154.5 -9.5t145 -32
t123.5 -59.5t90.5 -92.5t46 -131.5t-10.5 -175z" />
    <glyph glyph-name="luthai" unicode="&#xe26;" horiz-adv-x="1839" 
d="M1596 -407q-8 -35 -27.5 -64t-47 -50t-61 -32.5t-68.5 -11.5t-63.5 11.5t-47 32.5t-26 50t0.5 64l308 1447q15 71 8 140t-46.5 124t-116.5 89.5t-201 36.5q-102 1 -184.5 -22.5t-143 -59.5t-100 -77t-55.5 -75q43 -46 59.5 -123.5t-2.5 -167.5l-163 -768
q-6 -29 -22 -53.5t-38.5 -43.5t-50 -29.5t-55.5 -10.5h-272q-29 0 -50 10.5t-34 29.5t-16.5 43.5t2.5 53.5q6 28 20.5 53t35 44t46 29.5t54.5 10.5h73l135 635q9 44 8.5 89t-19.5 86q-18 36 -31 57.5t-17 41t4.5 42t34.5 61.5q56 84 135 162t183 137.5t234.5 95t289.5 35.5
q148 0 258 -27t186 -75.5t121.5 -114.5t66 -144.5t18.5 -165.5t-21 -177z" />
    <glyph glyph-name="wowaenthai" unicode="&#xe27;" horiz-adv-x="1573" 
d="M754 -37q-120 0 -215 32.5t-162 92t-105.5 143.5t-44.5 188q-2 33 10 66t34.5 61t53.5 48.5t66 29.5q36 9 68 3.5t56.5 -21.5t39 -42.5t16.5 -59.5q0 -67 18 -116t49.5 -80.5t76.5 -46.5t99 -15q83 0 157 35.5t136.5 109t111.5 185.5t81 264q33 153 31.5 266t-32.5 186.5
t-90 109.5t-142 36q-109 0 -202 -62t-151 -196q-16 -33 -42 -59.5t-57 -42.5t-65 -21.5t-66 3.5t-54 29.5t-32.5 48.5t-9 61t17.5 66q51 104 125 188t166.5 143.5t201 91.5t228.5 32q181 0 301 -63.5t183 -179t71 -277.5t-34 -360t-119 -360t-189 -277t-258.5 -177.5
t-327.5 -62.5z" />
    <glyph glyph-name="sosalathai" unicode="&#xe28;" horiz-adv-x="1786" 
d="M1659 138q-8 -35 -27.5 -64t-47 -50t-61 -32.5t-68.5 -11.5t-63.5 11.5t-47 32.5t-26 50t0.5 64l185 870q10 47 12 95.5t-7 94t-31 85.5t-60 70t-93 47t-131 17q-114 0 -198.5 -37.5t-144 -96.5t-95 -132t-50.5 -143l-48 -226q88 98 180 154.5t207 74.5q31 5 59.5 0
t49.5 -19.5t33.5 -36.5t13.5 -52q1 -31 -10 -60.5t-30.5 -54t-47 -42t-59.5 -23.5q-119 -14 -206.5 -58t-150.5 -115.5t-104 -167.5t-66 -214l-6 -30q-8 -35 -27 -64t-46.5 -50t-60.5 -32.5t-68 -11.5t-63 11.5t-46.5 32.5t-25.5 50t1 64l177 833q20 94 53.5 186t84 174.5
t120.5 153t162.5 122t210 80.5t264.5 29q95 0 171.5 -13t139.5 -36q46 3 81.5 28.5t59.5 63.5q19 34 47.5 59t61.5 40t67 17.5t65 -8.5q31 -12 51.5 -35t29 -53t4 -64t-23.5 -68q-33 -58 -91 -101t-122 -67q30 -52 45 -111.5t18.5 -124.5t-3.5 -133.5t-22 -138.5z" />
    <glyph glyph-name="sorusithai" unicode="&#xe29;" horiz-adv-x="1769" 
d="M1780 782l-18 -82q-20 -94 -53 -185t-83 -173t-118.5 -151.5t-160.5 -120t-208.5 -79t-261.5 -28.5q-147 0 -251.5 29t-174.5 80.5t-109 122t-53.5 153.5t-8.5 175t26 186l177 833q7 35 26.5 64t47 50t60.5 32.5t68 11.5t63 -11.5t46.5 -32.5t25 -50t-0.5 -64l-184 -866
q-10 -48 -12.5 -97.5t6 -95.5t30 -86.5t58.5 -70t92 -47t131 -17.5q114 0 197 37.5t140 97t91 133.5t49 146l23 106h-338q-33 0 -60 11t-44.5 31t-24 47.5t0.5 60.5l27 131q7 33 25.5 60.5t44.5 47.5t57.5 31t64.5 11t60 -11t44.5 -31t24 -47.5t-0.5 -60.5l-2 -10h178
l104 489q7 35 27 64t47.5 50t61 32.5t68.5 11.5t63.5 -11.5t47 -32.5t25.5 -50t0 -64l-104 -489h51q28 0 49 -10.5t33.5 -29t16.5 -43.5t-2 -53t-20.5 -52.5t-34.5 -43t-45.5 -29t-53.5 -10.5h-51z" />
    <glyph glyph-name="sosuathai" unicode="&#xe2a;" horiz-adv-x="1729" 
d="M1709 1759q19 34 47.5 59t61.5 40t67 17.5t65 -8.5q31 -12 51.5 -35t29 -53t4 -64t-23.5 -68q-32 -55 -85.5 -96t-113.5 -66q25 -53 30.5 -120t-12.5 -153l-228 -1074q-8 -35 -27 -64t-46.5 -50t-60.5 -32.5t-68 -11.5t-63 11.5t-46.5 32.5t-25.5 50t1 64l144 677
q-34 -14 -73 -24t-80.5 -17.5t-84.5 -13.5t-83 -10q-90 -11 -179 -25.5t-163 -44.5t-127 -81.5t-71 -135.5q-10 -48 -1 -84t32.5 -61.5t58 -40.5t74.5 -22.5t83 -8.5t83 4q58 10 95.5 -19t36.5 -94q-1 -27 -13 -52t-31.5 -45t-45 -35t-53.5 -21q-93 -21 -184 -21
q-118 0 -219 26t-169.5 83.5t-96 149.5t0.5 224q21 99 61 174t96.5 131t130.5 95t163.5 67.5t193.5 48.5t223 37q75 11 145.5 21.5t128 29.5t96.5 50t50 84q17 81 -3 130t-63.5 74.5t-102.5 33.5t-119 8q-67 0 -127.5 -11t-113 -36t-95 -65.5t-73.5 -100.5
q-17 -35 -43.5 -61.5t-58.5 -42.5t-67 -20.5t-67 4.5t-54.5 30t-33 49t-8 61.5t19.5 68.5q57 114 143 191.5t191 125.5t224.5 68.5t243.5 20.5q79 0 156.5 -10t146.5 -33q40 7 71.5 31.5t53.5 58.5z" />
    <glyph glyph-name="hohipthai" unicode="&#xe2b;" horiz-adv-x="1733" 
d="M1607 139q-8 -35 -27.5 -64t-47 -50t-60.5 -33t-68 -12t-63 12t-46.5 33t-26 50t0.5 64l149 701q10 47 13 91t-6 82t-31 68t-62 49l-681 -385l-129 -606q-8 -35 -27.5 -64t-47 -50t-60.5 -33t-68 -12t-63 12t-46.5 33t-25.5 50t1 64l298 1401q7 34 26.5 63.5t47 50.5
t60.5 33t68 12t63 -12t46.5 -33t25.5 -50.5t0 -63.5l-90 -421l998 556q32 18 63.5 23t59.5 -1.5t49.5 -23.5t33.5 -44q12 -28 10.5 -58.5t-14 -59.5t-35.5 -54.5t-54 -43.5l-195 -112q50 -45 78.5 -98.5t39.5 -115.5t6.5 -131t-20.5 -145z" />
    <glyph glyph-name="lochulathai" unicode="&#xe2c;" horiz-adv-x="2224" 
d="M2260 1541q35 -38 49.5 -86.5t12.5 -103t-18.5 -113.5t-43.5 -119l-438 -958q-18 -38 -46 -71t-64 -57t-77 -38t-84 -14q-41 0 -74.5 13t-57.5 36t-39 54t-18 68l-81 812l-417 -810q-20 -38 -48 -70t-62.5 -55t-73.5 -35.5t-81 -12.5q-40 0 -74 13t-59 36t-39.5 54
t-14.5 68l-13 1337q0 36 14 70.5t38.5 62.5t57.5 47.5t71 26.5q37 7 72 1.5t61.5 -22.5t42 -44.5t13.5 -65.5l-51 -1118l421 832q18 36 45 67t59.5 53.5t69.5 35.5t77 13q41 0 73.5 -13.5t55 -37.5t36 -56.5t16.5 -70.5l79 -827q35 85 67 164t63 156.5t62.5 155.5t65.5 159
q26 62 39 104.5t21 80.5q14 69 -3.5 112.5t-84.5 58.5q-42 10 -63 45t-11 81q5 24 18 45.5t31.5 39t41 29t46.5 14.5q39 6 78.5 17t77 29.5t71 45.5t59.5 65q21 33 49.5 60t60.5 46t66 28t68 5q42 -5 67.5 -24t37.5 -47t10 -61.5t-16 -68.5q-18 -47 -52 -85.5t-76 -68.5
t-90 -52.5t-94 -35.5z" />
    <glyph glyph-name="oangthai" unicode="&#xe2d;" horiz-adv-x="1704" 
d="M273 825q6 27 21.5 51.5t37.5 42.5t48.5 28.5t53.5 10.5h522q27 0 47.5 -10.5t33 -28.5t16.5 -42.5t-2 -51.5t-20 -51.5t-34 -42.5t-45 -28.5t-52 -10.5h-307q-18 -100 -4 -182t56 -140.5t109 -91t154 -32.5q97 0 182.5 39t155.5 114.5t122.5 185.5t82.5 251
q61 289 -11.5 441.5t-284.5 152.5q-134 0 -242 -54.5t-173 -158.5q-18 -34 -45 -60.5t-59 -43t-66.5 -21t-66.5 4.5t-54.5 31t-32.5 51t-6 63t25 67q59 96 137.5 172t176.5 129t215 81.5t253 28.5q140 0 245 -31t178 -87.5t116 -136.5t60.5 -178t11 -212t-32.5 -239
q-25 -117 -66 -227t-100.5 -207t-137 -177.5t-174.5 -139t-214 -90.5t-255 -32t-241 31.5t-175 88.5t-115 136.5t-60.5 175t-12.5 204.5t29 226z" />
    <glyph glyph-name="honokhukthai" unicode="&#xe2e;" horiz-adv-x="1696" 
d="M1635 1769q19 34 47 59t61 40t67 17.5t65 -8.5q31 -12 51.5 -35t29 -53t4 -64t-23.5 -68q-32 -55 -85.5 -96t-113.5 -66q39 -60 61 -133t28.5 -157t-2 -177t-29.5 -192q-25 -117 -66 -227t-100.5 -207t-137 -177.5t-174.5 -139t-214 -90.5t-255 -32t-241 31.5t-175 88.5
t-115 136.5t-60.5 175t-12.5 204.5t29 226q6 27 21.5 51.5t37.5 42.5t48.5 28.5t53.5 10.5h522q27 0 47.5 -10.5t33 -28.5t16.5 -42.5t-2 -51.5t-20 -51.5t-34 -42.5t-45 -28.5t-52 -10.5h-307q-18 -100 -4 -182t56 -140.5t109 -91t154 -32.5q97 0 182.5 39t155.5 114.5
t122.5 185.5t82.5 251q61 289 -11.5 441.5t-284.5 152.5q-134 0 -242 -54.5t-173 -158.5q-18 -34 -45 -60.5t-59 -43t-66.5 -21t-66.5 4.5t-54.5 31t-32.5 51t-6 63t25 67q59 96 137.5 172t176.5 129t215 81.5t253 28.5q83 0 152.5 -11t128.5 -32q44 5 78.5 30.5t58.5 61.5z
" />
    <glyph glyph-name="paiyannoithai" unicode="&#xe2f;" horiz-adv-x="1737" 
d="M1610 138q-8 -35 -27 -64t-46.5 -50t-60.5 -32.5t-68 -11.5t-63 11.5t-46.5 32.5t-25.5 50t1 64l137 644q-94 -68 -211.5 -101.5t-247.5 -33.5q-172 0 -294 39t-194 111.5t-94.5 174.5t4.5 228q19 90 58 160.5t91.5 124t115.5 90.5t130.5 60t136.5 33.5t134 10.5h169
q29 0 51 -11t35 -30t17 -45t-2 -55t-21 -55t-36.5 -45t-48 -30t-55.5 -11h-169q-111 0 -174.5 -49.5t-84.5 -151.5q-11 -49 -6 -97.5t35 -86.5t89.5 -62t159.5 -24q215 0 345.5 79t166.5 248l61 288q7 35 26.5 64t47 50t60.5 32.5t68 11.5t63 -11.5t46.5 -32.5t25 -50
t-0.5 -64z" />
    <glyph glyph-name="saraathai" unicode="&#xe30;" horiz-adv-x="1012" 
d="M543 1094q-32 0 -58 10.5t-43 30t-23.5 46.5t0.5 59l28 133q7 32 25 59t43 46.5t55.5 30t62.5 10.5t58.5 -10.5t43.5 -30t23.5 -46.5t-0.5 -59l-3 -17h320q27 0 47 -10.5t32 -28t16 -41.5t-2 -51t-19.5 -51t-33.5 -41.5t-44.5 -28t-51.5 -10.5h-476zM366 262
q-32 0 -58 10.5t-43 30t-23.5 46.5t0.5 59l28 133q7 32 25 59t43.5 46.5t56 30t62.5 10.5t58 -10.5t43 -30t23.5 -46.5t-0.5 -59l-3 -17h320q27 0 47 -10.5t32 -28t16 -41.5t-2 -51t-19.5 -51t-33.5 -41.5t-44.5 -28t-51.5 -10.5h-476z" />
    <glyph glyph-name="maihanakatthai" unicode="&#xe31;" 
d="M-490 1937q-32 0 -58 10.5t-43 30t-23.5 46.5t0.5 59l31 143q7 32 24.5 59t43 46.5t56 30t62.5 10.5t58 -10.5t43.5 -30t24 -46.5t-0.5 -59l-7 -31h715q27 0 47 -10t32.5 -27.5t16.5 -41t-2 -50.5t-20 -50.5t-33.5 -41t-44 -27.5t-51.5 -10h-871z" />
    <glyph glyph-name="saraaathai" unicode="&#xe32;" horiz-adv-x="1410" 
d="M1283 138q-8 -35 -27 -64t-46.5 -50t-60.5 -32.5t-68 -11.5t-63 11.5t-46.5 32.5t-25.5 50t1 64l198 931q38 181 -13 264.5t-183 83.5q-93 0 -167.5 -46t-122.5 -135q-18 -34 -45.5 -61t-60.5 -44t-68 -23t-68 3q-36 9 -59.5 30.5t-34.5 50.5t-7.5 63t21.5 69
q52 97 127.5 170t165 121.5t187.5 72.5t194 24q130 0 233.5 -35.5t169.5 -108t88 -183t-9 -259.5z" />
    <glyph glyph-name="saraamthai" unicode="&#xe33;" horiz-adv-x="1410" 
d="M-2 2224q-5 -23 0 -44t17 -36.5t31 -25t42 -9.5t45.5 9.5t41.5 25t32.5 36.5t18.5 44t0 44t-17 36.5t-30.5 25t-41.5 9.5t-46 -9.5t-42 -25t-33 -36.5t-18 -44zM-207 2224q14 66 51.5 124t90 101.5t116 69t129.5 25.5q64 0 117 -25.5t87.5 -69t47.5 -101.5t-1 -124
t-52 -124t-91 -101.5t-116.5 -68.5t-127.5 -25q-66 0 -118.5 25t-86.5 68.5t-47 101.5t1 124zM1283 138q-8 -35 -27 -64t-46.5 -50t-60.5 -32.5t-68 -11.5t-63 11.5t-46.5 32.5t-25.5 50t1 64l198 931q38 181 -13 264.5t-183 83.5q-93 0 -167.5 -46t-122.5 -135
q-18 -34 -45.5 -61t-60.5 -44t-68 -23t-68 3q-36 9 -59.5 30.5t-34.5 50.5t-7.5 63t21.5 69q52 97 127.5 170t165 121.5t187.5 72.5t194 24q130 0 233.5 -35.5t169.5 -108t88 -183t-9 -259.5z" />
    <glyph glyph-name="saraithai" unicode="&#xe34;" 
d="M-1098 1933q-28 0 -48.5 10.5t-33 28.5t-16.5 42t2 52t20 52.5t34.5 42.5t45.5 28.5t53 10.5h1248q28 0 48.5 -10.5t33.5 -28.5t17 -42.5t-2 -52.5t-20.5 -52t-35 -42t-45.5 -28.5t-53 -10.5h-1248z" />
    <glyph glyph-name="saraiithai" unicode="&#xe35;" 
d="M-1098 1933q-28 0 -48.5 10.5t-33 28.5t-16.5 42t2 52t20 52.5t34.5 42.5t45.5 28.5t53 10.5h1034l22 107q7 33 25.5 60.5t44.5 47.5t57.5 31t64.5 11t59.5 -11t44 -31t24 -47.5t-0.5 -60.5l-48 -224q-7 -33 -25 -60.5t-44 -47.5t-57.5 -31t-64.5 -11h-1193z" />
    <glyph glyph-name="sarauethai" unicode="&#xe36;" 
d="M-1098 1933q-28 0 -48.5 10.5t-33 28.5t-16.5 42t2 52t20 52.5t34.5 42.5t45.5 28.5t53 10.5h800l6 28q13 61 47.5 115t83 94t107 63t119.5 23t110 -23t80.5 -63t43 -94t-1.5 -115q-13 -62 -47.5 -115.5t-83 -93.5t-107 -63t-119.5 -23h-1095zM-46 2228q-5 -21 0 -40
t16 -32.5t28.5 -21.5t38.5 -8q22 0 43 8t38.5 21.5t30 32.5t17.5 40q5 23 0.5 42.5t-16 34t-29 22.5t-39.5 8q-21 0 -42 -8t-38.5 -22.5t-30 -34t-17.5 -42.5z" />
    <glyph glyph-name="saraueethai" unicode="&#xe37;" 
d="M-1098 1933q-28 0 -48.5 10.5t-33 28.5t-16.5 42t2 52t20 52.5t34.5 42.5t45.5 28.5t53 10.5h596l25 115q6 31 23.5 57.5t42.5 45t55 29t61 10.5t56 -10.5t41.5 -29t23 -45t0.5 -57.5l-25 -115h150l25 115q6 31 23.5 57.5t42.5 45t55 29t61 10.5t56 -10.5t41.5 -29
t23 -45t0.5 -57.5l-51 -240q-7 -32 -24.5 -58t-42 -44.5t-54.5 -29t-61 -10.5h-1201z" />
    <glyph glyph-name="sarauthai" unicode="&#xe38;" 
d="M-305 -701q-7 -33 -25 -60t-43.5 -46.5t-56 -30.5t-63.5 -11t-59.5 11t-43.5 30.5t-24 46.5t0 60l54 250h-68q-27 0 -46.5 10t-31.5 27.5t-16 41t2 50.5t19.5 50.5t32.5 41t43 27.5t51 10h264q27 0 46.5 -10t31.5 -27.5t16 -41t-2 -50.5z" />
    <glyph glyph-name="sarauuthai" unicode="&#xe39;" 
d="M-539 -320q7 33 25.5 60t44 46.5t56.5 30t64 10.5t59 -10.5t43 -30t23.5 -46.5t-0.5 -60l-21 -102q-19 -87 -59 -164.5t-106 -135.5t-160 -92t-220 -34q-119 0 -197.5 28.5t-122.5 81t-56.5 125.5t2.5 162h-64q-27 0 -46.5 10t-31.5 27.5t-16 41t2 50.5t19.5 50.5
t32.5 41t43 27.5t51 10h264q27 0 46.5 -10t31.5 -27.5t16 -41t-2 -50.5l-21 -100q-17 -80 8 -122t97 -42q68 0 112.5 42t61.5 122z" />
    <glyph glyph-name="phinthuthai" unicode="&#xe3a;" 
d="M-651 -369q10 48 37 89.5t64.5 73t83 49.5t93.5 18q46 0 83 -18t61 -49.5t33 -73t-1 -89.5q-10 -46 -36.5 -87t-63.5 -71.5t-82 -48.5t-91 -18q-48 0 -85.5 18t-62 48.5t-34 71.5t0.5 87z" />
    <glyph glyph-name="PUCR2005" unicode="&#xe3e;" 
 />
    <glyph glyph-name="bahtthai" unicode="&#xe3f;" horiz-adv-x="1905" 
d="M1034 0l-44 -204q-4 -18 -12.5 -35.5t-21.5 -31t-29 -21.5t-35 -8t-32 8t-20 21.5t-8.5 31t2.5 35.5l44 204h-509q-36 0 -65.5 14t-48.5 38t-26 56t1 68l350 1647q8 36 28.5 68t49.5 56t64 38t71 14h509l39 182q4 19 13 36.5t22 31t29 21.5t35 8q18 0 31 -8t20 -21.5
t8.5 -31t-2.5 -36.5l-39 -182q87 -1 171.5 -9.5t158.5 -29.5t134 -57t97.5 -92t49 -135t-11.5 -185q-31 -146 -105.5 -250.5t-197.5 -175.5q65 -31 110.5 -78.5t71 -108t30 -132.5t-12.5 -152q-16 -74 -50.5 -146.5t-85.5 -138.5t-118 -122.5t-147.5 -98t-174 -65
t-197.5 -23.5h-146zM1219 872l-122 -573h109q80 0 146 21t117 60.5t85 96.5t49 129q17 80 -6 131.5t-72 81.5t-116.5 41.5t-137.5 11.5h-52zM941 299l122 573h-333l-122 -573h333zM1127 1176l111 520h-333l-111 -520h333zM1698 1438q20 94 5 146.5t-57 77t-107 29.5t-145 5
l-111 -520q190 4 289 69t126 193z" />
    <glyph glyph-name="saraethai" unicode="&#xe40;" horiz-adv-x="717" 
d="M557 138q-8 -35 -27.5 -64t-47 -50t-61 -32.5t-68.5 -11.5t-63.5 11.5t-47 32.5t-26 50t0.5 64l298 1403q7 35 27 64t47.5 50t61 32.5t68.5 11.5t63.5 -11.5t47 -32.5t25.5 -50t0 -64z" />
    <glyph glyph-name="saraaethai" unicode="&#xe41;" horiz-adv-x="1282" 
d="M557 138q-8 -35 -27.5 -64t-47 -50t-61 -32.5t-68.5 -11.5t-63.5 11.5t-47 32.5t-26 50t0.5 64l298 1403q7 35 27 64t47.5 50t61 32.5t68.5 11.5t63.5 -11.5t47 -32.5t25.5 -50t0 -64zM1123 138q-8 -35 -27.5 -64t-47 -50t-61 -32.5t-68.5 -11.5t-63.5 11.5t-47 32.5
t-26 50t0.5 64l298 1403q7 35 27 64t47.5 50t61 32.5t68.5 11.5t63.5 -11.5t47 -32.5t25.5 -50t0 -64z" />
    <glyph glyph-name="saraothai" unicode="&#xe42;" horiz-adv-x="852" 
d="M960 2167q30 -47 37 -105.5t-7 -119.5l-354 -1668h73q28 0 49.5 -10.5t34 -29.5t16.5 -44t-2 -53q-6 -29 -20.5 -53.5t-35 -43.5t-46.5 -29.5t-54 -10.5h-272q-29 0 -51.5 10.5t-37.5 29.5t-20 43.5t1 53.5l381 1796q19 88 -12 146t-94 83q-38 15 -55.5 51.5t-8.5 81.5
q6 29 23 55t40.5 45.5t52 30.5t57.5 11h719q28 0 50.5 -10.5t36.5 -29t19.5 -43t-0.5 -52.5t-22 -52.5t-38 -43t-49 -29t-55 -10.5h-356z" />
    <glyph glyph-name="saraaimaimuanthai" unicode="&#xe43;" horiz-adv-x="852" 
d="M675 2093q-13 -32 -36.5 -57t-52 -41t-60.5 -22t-62 1t-51.5 25t-33 43t-11 55t14.5 61q42 92 101.5 158.5t130 110t148 64t155.5 20.5q84 0 158.5 -19.5t125.5 -61.5t73 -109t2 -162q-11 -53 -36 -92.5t-58.5 -74t-73.5 -68t-81 -73.5q-27 -26 -45.5 -59t-31.5 -69
t-21.5 -71.5t-15.5 -66.5l-278 -1311h73q28 0 49.5 -10.5t34 -29.5t16.5 -44t-2 -53q-6 -29 -20.5 -53.5t-35 -43.5t-46.5 -29.5t-54 -10.5h-272q-29 0 -51.5 10.5t-37.5 29.5t-20 43.5t1 53.5l307 1448q15 69 32 122.5t43 100t64 89t94 90.5q15 12 39.5 30.5t49 39.5t44 43
t23.5 42q4 18 1.5 36.5t-13.5 33.5t-33.5 24t-59.5 9q-60 0 -107.5 -40t-79.5 -112z" />
    <glyph glyph-name="saraaimaimalaithai" unicode="&#xe44;" horiz-adv-x="852" 
d="M636 274h73q28 0 49.5 -10.5t34 -29.5t16.5 -44t-2 -53q-6 -29 -20.5 -53.5t-35 -43.5t-46.5 -29.5t-54 -10.5h-272q-29 0 -51.5 10.5t-37.5 29.5t-20 43.5t1 53.5l383 1805q14 61 45 119.5t81 105.5h-356q-28 0 -50.5 10.5t-36.5 29t-19.5 43t0.5 52.5t22 52.5t38 43
t49 29t55 10.5h719q29 0 52.5 -11t38.5 -30.5t20.5 -45.5t-0.5 -55q-9 -45 -42.5 -81.5t-77.5 -51.5q-74 -25 -129.5 -83t-74.5 -146z" />
    <glyph glyph-name="lakkhangyaothai" unicode="&#xe45;" horiz-adv-x="1410" 
d="M1167 -406q-8 -35 -27 -64t-46 -50t-60 -32.5t-68 -11.5t-63 11.5t-46.5 32.5t-26 50t0.5 64l314 1475q38 181 -13 264.5t-183 83.5q-93 0 -167.5 -46t-122.5 -135q-18 -34 -45.5 -61t-60.5 -44t-68 -23t-68 3q-36 9 -59.5 30.5t-34.5 50.5t-7.5 63t21.5 69
q52 97 127.5 170t165 121.5t187.5 72.5t194 24q130 0 233.5 -35.5t169.5 -108t88 -183t-9 -259.5z" />
    <glyph glyph-name="maiyamokthai" unicode="&#xe46;" horiz-adv-x="1638" 
d="M860 1671q21 6 44 11t46.5 4t45 -11t39.5 -34l94 -125l139 126q27 24 53.5 34t51.5 11t47.5 -4t42.5 -11q79 -23 131.5 -60.5t83.5 -86.5t43.5 -108.5t12.5 -125.5t-11 -138t-26 -145l-301 -1414q-8 -35 -27.5 -64t-47 -50t-60.5 -32.5t-68 -11.5t-63.5 11.5t-47.5 32.5
t-26.5 50t0.5 64l308 1446q10 46 19.5 99t10 100t-12 82.5t-47.5 46.5l-220 -188q-12 -11 -27.5 -17.5t-32 -7t-32 5t-27.5 19.5l-141 184q-77 -43 -122.5 -123.5t-60.5 -179.5q-6 -37 -7.5 -73.5t9.5 -65t40 -43.5t85 -9q34 4 57.5 -7t36.5 -31.5t16.5 -48.5t-3.5 -59
q-13 -63 -59.5 -103t-109.5 -46q-108 -10 -195 15t-142 85.5t-73.5 155.5t9.5 226q23 109 60 205.5t97.5 175t149.5 138t218 95.5z" />
    <glyph glyph-name="maitaikhuthai" unicode="&#xe47;" 
d="M-484 2466q-57 0 -95 -14.5t-61 -36.5t-35 -47t-16 -46q-3 -15 -2 -34.5t9 -37.5t24.5 -30t45.5 -12q32 0 58.5 18t43.5 51q20 42 57 62.5t82 20.5q48 0 78 -19t30 -64q2 -32 18.5 -50.5t46.5 -18.5q28 0 49.5 16t32.5 44l-1 -1q10 24 28.5 42t41 29.5t47 16.5t48.5 3
q27 -3 50 -15t37.5 -31.5t18 -47.5t-8.5 -63q-21 -63 -58.5 -109t-85 -75.5t-101 -43.5t-107.5 -14q-40 0 -73.5 11t-60.5 28.5t-47.5 40t-34.5 45.5q-26 -25 -59.5 -47.5t-70.5 -40t-76.5 -27.5t-77.5 -10q-68 0 -117 17t-82.5 46t-53 66t-28 77.5t-8 81t8.5 75.5
q21 100 74 173t125.5 120t158 70t171.5 23h725q26 0 45 -10t30.5 -27t15 -39t-1.5 -47q-11 -53 -49.5 -86t-90.5 -33h-698z" />
    <glyph glyph-name="maiekthai" unicode="&#xe48;" 
d="M424 2752q-7 -32 -24.5 -59t-43 -46.5t-56 -30t-62.5 -10.5t-58 10.5t-43.5 30t-24 46.5t0.5 59l53 249q7 32 25 59t43.5 46.5t56 30t62.5 10.5t58 -10.5t43 -30t23.5 -46.5t-0.5 -59z" />
    <glyph glyph-name="maithothai" unicode="&#xe49;" 
d="M711 2943q-44 -68 -110 -126.5t-154 -102t-197 -68.5t-238 -25h-107q-26 0 -46.5 10t-34 27t-18.5 39.5t0 48.5l27 125h-61q-26 0 -46.5 10t-34 27t-18.5 39.5t0 48.5q6 26 20.5 48.5t35 39.5t45.5 27t51 10h201q26 0 46.5 -10t34 -27t18.5 -39.5t-1 -48.5l-26 -125
q67 1 125 15t105.5 38t83 56.5t56.5 70.5q17 27 41.5 47t52.5 31t56.5 11.5t54.5 -10.5q25 -11 41 -31.5t21.5 -46t-0.5 -54t-24 -55.5z" />
    <glyph glyph-name="maitrithai" unicode="&#xe4a;" 
d="M592 3028q13 26 33.5 46t45 32.5t51.5 16.5t53 -2q31 -8 49.5 -24t25.5 -37t3 -46.5t-17 -50.5q-32 -61 -76 -118.5t-96 -104t-108 -78t-112 -41.5h-108q-38 0 -57.5 22t-15.5 57q6 46 -2 78t-43 32q-27 0 -45.5 -16t-27.5 -43q-11 -34 -38.5 -57t-65.5 -23
q-35 0 -58.5 20t-17.5 60q5 29 -7 44t-38 15q-32 0 -51.5 -23.5t-31.5 -67.5q-14 -59 -56 -87.5t-94 -28.5q-58 0 -83.5 34t-15.5 82q19 87 56.5 150.5t85.5 105t102.5 62t107.5 20.5q54 0 94 -25.5t67 -63.5q45 38 96.5 63.5t111.5 25.5q36 0 69 -10.5t59 -31.5t41.5 -51.5
t15.5 -70.5q12 11 25.5 26.5t27 33.5t25.5 37.5t20 37.5z" />
    <glyph glyph-name="maichattawathai" unicode="&#xe4b;" 
d="M419 2747q-6 -32 -24 -58t-42.5 -44.5t-54.5 -29t-61 -10.5t-56.5 10.5t-42 29t-22.5 44.5t0 58l18 83h-146q-25 0 -43.5 9.5t-29.5 26t-14 38.5t2 47t17.5 47t30.5 38.5t40 26t47 9.5h147l18 83q7 31 24.5 57.5t42 45t54.5 29t61 10.5t56.5 -10.5t42 -29t23 -45
t-0.5 -57.5l-18 -83h147q25 0 43.5 -9.5t30 -26t14.5 -38.5t-2 -47t-18 -47t-31 -38.5t-40.5 -26t-47.5 -9.5h-147z" />
    <glyph glyph-name="thanthakhatthai" unicode="&#xe4c;" 
d="M409 2916q60 7 94.5 -22t33.5 -80q-1 -26 -12 -51.5t-29 -45.5t-41.5 -33.5t-50.5 -16.5q-95 -11 -160 -52t-98 -115q-15 -30 -39.5 -51t-54 -31.5t-60.5 -11.5t-58 9q-30 11 -47 32.5t-21.5 48.5t2.5 57t25 60q75 126 207.5 204.5t308.5 98.5z" />
    <glyph glyph-name="nikhahitthai" unicode="&#xe4d;" 
d="M-2 2224q-5 -23 0 -44t17 -36.5t31 -25t42 -9.5t45.5 9.5t41.5 25t32.5 36.5t18.5 44t0 44t-17 36.5t-30.5 25t-41.5 9.5t-46 -9.5t-42 -25t-33 -36.5t-18 -44zM-207 2224q14 66 51.5 124t90 101.5t116 69t129.5 25.5q64 0 117 -25.5t87.5 -69t47.5 -101.5t-1 -124
t-52 -124t-91 -101.5t-116.5 -68.5t-127.5 -25q-66 0 -118.5 25t-86.5 68.5t-47 101.5t1 124z" />
    <glyph glyph-name="yamakkanthai" unicode="&#xe4e;" 
d="M-307 2099q41 110 130 183.5t213 105.5q22 49 58.5 94t86.5 80.5t113.5 58t140.5 25.5q27 1 51 -6t41.5 -21.5t26.5 -35t8 -47.5q-2 -27 -13.5 -53t-31 -46.5t-44 -33.5t-51.5 -13q-37 0 -64.5 -12.5t-46.5 -34t-31 -50.5t-19 -61q-5 -24 -16 -38t-24.5 -21t-28.5 -8.5
t-28 -1.5q-81 0 -127 -32.5t-69 -98.5q-10 -31 -31 -54.5t-48 -38t-58.5 -19.5t-63.5 0q-30 5 -49.5 22t-29 41.5t-8.5 54.5t13 61z" />
    <glyph glyph-name="fongmanthai" unicode="&#xe4f;" horiz-adv-x="2077" 
d="M324 836q26 122 81.5 234.5t134.5 210t177 178t209 137.5t231 88.5t243 31.5q121 0 226.5 -31.5t190.5 -88.5t148.5 -137.5t99.5 -178t43.5 -210t-18.5 -234.5t-81.5 -234.5t-133 -210.5t-175 -178.5t-207 -137.5t-228 -88.5t-239.5 -31.5q-123 0 -230 31.5t-193.5 88.5
t-150.5 137.5t-101 178.5t-45 210.5t18 234.5zM744 844q20 94 75 178t132.5 147.5t171 100.5t190.5 37q94 0 169.5 -37t124.5 -100.5t68 -147.5t-1 -178q-21 -97 -75.5 -182t-130.5 -148.5t-167 -100t-185 -36.5q-97 0 -175 36.5t-128.5 100t-70 148.5t1.5 182zM961 844
q-12 -54 -2.5 -100.5t36 -80.5t69 -53.5t97.5 -19.5q51 0 99 19.5t88 53.5t68.5 80.5t40.5 100.5q11 51 1.5 95.5t-35 78t-65.5 53t-91 19.5q-55 0 -105.5 -19.5t-91.5 -53t-69.5 -78t-39.5 -95.5zM572 844q-28 -132 -3 -249t93 -204.5t174.5 -138.5t241.5 -51q87 0 173 23
t165.5 65.5t150 101t127.5 130t97 153.5t59 170t13.5 169.5t-32.5 152t-72.5 128t-107.5 99t-138 64t-163 22.5q-90 0 -177.5 -22.5t-167.5 -64t-151 -99t-127 -128t-96 -152t-59 -169.5z" />
    <glyph glyph-name="zerothai" unicode="&#xe50;" horiz-adv-x="1823" 
d="M1859 733q-44 -206 -137 -351.5t-220.5 -237.5t-280.5 -134.5t-316 -42.5q-109 0 -205.5 18.5t-176.5 58t-139.5 100.5t-93.5 146.5t-39.5 195.5t23.5 247q39 181 123 321t207 235.5t280.5 144.5t343.5 49q184 0 320.5 -49t218 -144.5t106.5 -235.5t-14 -321zM1520 717
q28 132 11.5 224.5t-66 151t-126.5 85t-171 26.5q-93 0 -182 -26.5t-164 -85t-131 -151t-84 -224.5q-22 -102 -8 -188t60.5 -149t124 -98.5t181.5 -35.5q105 0 196.5 35.5t164 98.5t122.5 149t72 188z" />
    <glyph glyph-name="onethai" unicode="&#xe51;" horiz-adv-x="1810" 
d="M177 117q-24 18 -35.5 45.5t-10 58.5t15.5 63t39 59t56.5 44.5t63.5 22.5t62 -2t52 -29q81 -81 192.5 -111t244.5 -30q118 0 225.5 35t194.5 102.5t149 167.5t90 231q21 98 10.5 180t-54.5 141.5t-122.5 92.5t-193.5 33q-94 0 -176.5 -22.5t-146 -60.5t-105 -87
t-52.5 -101q-9 -42 0 -82.5t41 -72t90.5 -50.5t149.5 -17q35 4 59 -3.5t38 -23t19 -37.5t2 -47q-7 -50 -33.5 -79.5t-62.5 -45t-76.5 -20.5t-75.5 -5h-28q-117 0 -213.5 33t-161 93.5t-92 145t-5.5 187.5q21 101 68.5 182t114 143.5t148.5 107t172.5 73t186 42t188.5 13.5
q111 0 211 -17t181.5 -53t143.5 -92.5t97.5 -135t42.5 -181t-20 -230.5q-39 -181 -131 -330t-228.5 -255t-312 -164t-381.5 -58q-77 0 -158.5 3.5t-162.5 17.5t-159.5 43.5t-150.5 81.5z" />
    <glyph glyph-name="twothai" unicode="&#xe52;" horiz-adv-x="2068" 
d="M1062 414q-97 0 -159.5 24.5t-99 64.5t-50.5 91.5t-15.5 105.5t6.5 106.5t16 94.5l17 78q18 84 63 161t112 140t154 110t188 72q11 3 28 5t36.5 -0.5t39 -10.5t36.5 -25l87 -92l117 92q27 21 53 29.5t49.5 10t43.5 -2t34 -6.5q88 -20 157.5 -61t114 -98t61 -129
t-1.5 -154l-82 -385q-24 -115 -72.5 -208t-115.5 -166t-149.5 -126t-175.5 -87.5t-193.5 -51t-202.5 -16.5h-164q-206 0 -355.5 48.5t-240 138.5t-121 217t2.5 284l115 538q17 78 9.5 122t-41.5 60q-21 9 -33 27.5t-16.5 41.5t-0.5 49t16 52q14 31 37.5 54t52 38t60 21
t62.5 2q60 -8 105.5 -42t71.5 -89.5t31 -130.5t-14 -166l-129 -606q-17 -78 6.5 -146.5t87.5 -118.5t170 -79t255 -29q140 0 246.5 27t181 71.5t117.5 102t56 119.5l86 405q9 43 6 76.5t-17 57.5t-37 39.5t-54 23.5l-263 -197l-182 185q-22 -2 -46 -13.5t-45.5 -33.5
t-38.5 -54.5t-26 -75.5l-19 -90q-9 -41 -15.5 -82.5t-3.5 -75t20 -54.5t56 -21h15q27 0 48.5 -10.5t36 -28t19.5 -41.5t-1 -51t-21 -51t-37 -41.5t-48 -28t-53 -10.5h-44z" />
    <glyph glyph-name="threethai" unicode="&#xe53;" horiz-adv-x="1855" 
d="M1583 913q10 48 2 93t-29 80t-52.5 57t-67.5 24l-308 -213l-204 213q-36 -8 -77.5 -30t-82 -67t-75.5 -116t-57 -176l-24 -110q-10 -46 -19.5 -93.5t-14.5 -92t-3 -83t15 -67.5t39.5 -45.5t70.5 -16.5q17 0 46.5 1t67.5 5q33 3 57 -7t39 -29t19.5 -45t-1.5 -56
q-6 -27 -20.5 -51.5t-35.5 -43.5t-46.5 -32t-53.5 -18q-144 -25 -242.5 -10.5t-160 58.5t-91.5 112.5t-36.5 151t4 175t30.5 183.5l23 110q33 154 90.5 271.5t138 201t182 136t222.5 78.5q14 3 34.5 5t44 -1t48 -13.5t45.5 -32.5l107 -112l163 112q37 25 70 36t61 13.5
t50 -1.5t37 -7q109 -25 182 -77.5t112.5 -125t47.5 -160.5t-12 -184l-165 -775q-8 -35 -27 -64t-46.5 -50t-60.5 -32.5t-68 -11.5t-63 11.5t-46 32.5t-25 50t1 64z" />
    <glyph glyph-name="fourthai" unicode="&#xe54;" horiz-adv-x="1855" 
d="M819 0q-136 0 -234 28.5t-164.5 76.5t-104 112t-54 135t-14 144.5t17.5 142.5l34 160q36 167 118.5 290.5t204 204.5t277.5 120.5t339 39.5h282q82 0 128.5 33.5t72.5 89.5q17 34 44 59.5t59.5 41t67 19.5t66.5 -5q34 -9 55.5 -31t30.5 -51.5t5 -63.5t-21 -68
q-32 -63 -79.5 -119.5t-114.5 -99t-156.5 -67.5t-205.5 -25h-324q-100 0 -185 -21t-150 -62t-108.5 -101.5t-59.5 -138.5l-41 -193q-17 -78 -8.5 -145.5t46 -117t105 -77.5t168.5 -28h21q-35 43 -53.5 104.5t-3.5 132.5q4 21 14 52t29.5 66.5t50.5 72t78.5 67.5t112.5 54
t153 32q30 3 56 -4.5t45 -23.5t28.5 -40t7.5 -53t-15 -56t-34.5 -49t-49 -37.5t-57.5 -19.5q-32 -7 -51 -18.5t-29.5 -24t-14.5 -25t-6 -21.5q-9 -42 1 -79.5t32 -66.5t52.5 -46t62.5 -17h343q29 0 51 -11t35 -30.5t17 -45.5t-2 -55t-21 -55t-36.5 -45t-48 -30t-55.5 -11
h-810z" />
    <glyph glyph-name="fivethai" unicode="&#xe55;" horiz-adv-x="1855" 
d="M1167 1483q-10 -47 11 -77t64 -30q50 0 85 30t45 77q11 49 -12 77.5t-73 28.5q-43 0 -76 -28.5t-44 -77.5zM819 0q-136 0 -234 28.5t-164.5 76.5t-104 112t-54 135t-14 144.5t17.5 142.5l34 160q28 133 86.5 237.5t142 182.5t191 130t235.5 78l-1 1q-1 9 0 25.5t4 29.5
q13 61 49 116.5t86.5 96.5t111.5 65.5t124 24.5q69 0 122 -24.5t86.5 -65.5t45 -96.5t-1.5 -116.5q-2 -8 -3 -12.5t-3 -7.5q-2 -4 -3 -5q57 10 92.5 41t57.5 78q17 34 44 59.5t59.5 41t67 19.5t66.5 -5q34 -9 55.5 -31t30.5 -51.5t5 -63.5t-21 -68q-32 -63 -79.5 -119.5
t-114.5 -99t-156.5 -67.5t-205.5 -25h-324q-100 0 -185 -21t-150 -62t-108.5 -101.5t-59.5 -138.5l-41 -193q-17 -78 -8.5 -145.5t46 -117t105 -77.5t168.5 -28h21q-35 43 -53.5 104.5t-3.5 132.5q4 21 14 52t29.5 66.5t50.5 72t78.5 67.5t112.5 54t153 32q30 3 56 -4.5
t45 -23.5t28.5 -40t7.5 -53t-15 -56t-34.5 -49t-49 -37.5t-57.5 -19.5q-32 -7 -51 -18.5t-29.5 -24t-14.5 -25t-6 -21.5q-9 -42 1 -79.5t32 -66.5t52.5 -46t62.5 -17h343q29 0 51 -11t35 -30.5t17 -45.5t-2 -55t-21 -55t-36.5 -45t-48 -30t-55.5 -11h-810z" />
    <glyph glyph-name="sixthai" unicode="&#xe56;" horiz-adv-x="1880" 
d="M398 1347q-12 27 -10 57.5t15 59.5t36 54t53 42q31 17 62.5 21.5t58.5 -2.5t48.5 -24.5t32.5 -44.5l65 -154q98 43 236.5 79.5t317.5 43.5q148 4 257 -21t184 -72.5t119 -114t63 -146t16 -168t-22 -179.5l-22 -102q-20 -94 -61.5 -183.5t-104 -168.5t-144.5 -144
t-182 -111t-218.5 -69.5t-252.5 -19.5q-149 4 -265.5 40.5t-192 101t-106 155t-6.5 202.5q22 106 75 183t130 126.5t176 73t214 23.5h41q27 0 48 -10t34.5 -27.5t19 -41t-0.5 -50.5t-21 -50.5t-36 -41t-46.5 -27.5t-52.5 -10h-28q-57 0 -95.5 -12.5t-63.5 -34t-39 -50.5
t-21 -63q-9 -42 9 -78.5t59 -64t103 -44.5t142 -18q88 -2 176.5 24t163 78t129.5 129t76 179l21 98q23 109 12 189t-53 132.5t-113.5 77t-168.5 23.5q-131 -2 -271 -39t-299 -119q-17 -9 -40 -21t-48 -15t-49 9.5t-41 53.5z" />
    <glyph glyph-name="seventhai" unicode="&#xe57;" horiz-adv-x="2200" 
d="M2214 745q-33 -153 -104.5 -283t-180 -229t-254 -162t-326.5 -83q-34 -4 -66 4.5t-55 31.5q-25 22 -35.5 53t-8 64.5t19 68t45.5 63.5q43 48 71.5 94.5t47 94t31 96t23.5 101.5l26 123q18 88 18 153.5t-14.5 111.5t-40.5 73.5t-59 38.5l-259 -217l-173 225
q-34 -8 -75 -34t-81 -73.5t-74 -118t-55 -167.5l-23 -106q-10 -46 -19.5 -93.5t-14.5 -92t-3 -83t15 -67.5t39.5 -45.5t70.5 -16.5q17 0 46.5 1t67.5 5q33 3 57 -7t39 -29t19.5 -45t-1.5 -56q-6 -27 -20.5 -51.5t-35.5 -43.5t-46.5 -32t-53.5 -18q-144 -25 -242.5 -10.5
t-160 58.5t-91.5 112.5t-36.5 151t4 175t30.5 183.5l22 106q62 292 225.5 463t408.5 224q14 3 34.5 5t43.5 -2t46 -16.5t42 -37.5l70 -91l107 91q30 26 58.5 38.5t53 16t43.5 1.5t31 -5q126 -30 198.5 -93t104 -151t28 -197.5t-29.5 -233.5l-25 -114q-7 -34 -19 -78.5
t-30 -93.5t-42 -99.5t-55 -95.5q106 52 181 158t107 258l112 528q19 91 55.5 166t84.5 130.5t106.5 89.5t122.5 42q32 4 62 -2t53 -21t37 -38t16 -54q1 -26 -6.5 -52t-21.5 -49t-34 -41.5t-44 -27.5q-42 -16 -67.5 -60t-42.5 -122z" />
    <glyph glyph-name="eightthai" unicode="&#xe58;" horiz-adv-x="1851" 
d="M1561 1454q82 0 128.5 33.5t72.5 89.5q17 34 44 59.5t59.5 41t67 19.5t66.5 -5q34 -9 55.5 -31t30.5 -51.5t5 -63.5t-21 -68q-32 -63 -79.5 -121t-115 -102t-157 -70t-205.5 -26h-422q-97 0 -172.5 -26.5t-129.5 -71t-87.5 -101t-46.5 -116.5l-66 -308q-10 -46 -2 -89.5
t27.5 -78.5t48 -59t61.5 -31l320 217l220 -217q37 1 72 14t64.5 40.5t53 73t37.5 113.5q6 29 9.5 59.5t-5 56t-32.5 43.5t-73 23q-53 5 -82.5 43t-18.5 92q6 27 20 50t35 40.5t47 28t55 12.5q102 6 173 -11.5t116.5 -50.5t69 -78.5t31 -97t3 -106t-15.5 -104.5
q-23 -108 -63 -195.5t-99 -153.5t-137.5 -110t-179.5 -65q-23 -5 -56.5 -10.5t-69.5 -5t-70.5 10t-60.5 34.5l-119 114l-166 -113q-33 -23 -64.5 -31.5t-58.5 -9.5t-49 3t-38 8q-106 25 -180 77t-116 123.5t-52.5 158.5t9.5 182l56 263q32 152 104.5 273.5t183 206
t257.5 130t328 45.5h380z" />
    <glyph glyph-name="ninethai" unicode="&#xe59;" horiz-adv-x="1884" 
d="M1147 987q-14 49 -33 87t-44.5 64.5t-58 40t-74.5 13.5q-46 0 -90 -19t-83 -66t-72.5 -126t-58.5 -199l-25 -114q-10 -46 -19.5 -93.5t-14.5 -92t-3 -83t15 -67.5t39.5 -45.5t70.5 -16.5q17 0 46.5 1t67.5 5q33 3 57 -7t39 -29t19.5 -45t-1.5 -56q-6 -27 -20.5 -51.5
t-35.5 -43.5t-46.5 -32t-53.5 -18q-144 -25 -242.5 -10.5t-160 58.5t-91.5 112.5t-36.5 151t4 175t30.5 183.5l23 110q37 174 93 305.5t140.5 220.5t200.5 134t273 45q29 0 63.5 -0.5t70 -4t70 -11t63.5 -21.5q23 -19 46 -41.5t43 -57.5l134 107q14 12 35 20.5t49 8.5h82
q82 0 128 27.5t72 91.5q15 35 41.5 60.5t59.5 40.5t69 19t68 -5q33 -9 54 -30.5t29.5 -50t4.5 -62t-21 -67.5q-33 -67 -78.5 -124t-110.5 -98.5t-154.5 -65t-210.5 -23.5q-12 0 -29.5 -9t-37 -22.5t-39.5 -30.5t-37 -32l245 -891q8 -29 3 -60.5t-21 -60t-42 -52.5t-59 -38
q-32 -14 -63.5 -15.5t-58.5 8.5t-46.5 30.5t-27.5 49.5z" />
    <glyph glyph-name="angkhankhuthai" unicode="&#xe5a;" horiz-adv-x="2306" 
d="M1610 138q-8 -35 -27 -64t-46.5 -50t-60.5 -32.5t-68 -11.5t-63 11.5t-46.5 32.5t-25.5 50t1 64l137 644q-94 -68 -211.5 -101.5t-247.5 -33.5q-172 0 -294 39t-194 111.5t-94.5 174.5t4.5 228q19 90 58 160.5t91.5 124t115.5 90.5t130.5 60t136.5 33.5t134 10.5h169
q29 0 51 -11t35 -30t17 -45t-2 -55t-21 -55t-36.5 -45t-48 -30t-55.5 -11h-169q-111 0 -174.5 -49.5t-84.5 -151.5q-11 -49 -6 -97.5t35 -86.5t89.5 -62t159.5 -24q215 0 345.5 79t166.5 248l61 288q7 35 26.5 64t47 50t60.5 32.5t68 11.5t63 -11.5t46.5 -32.5t25 -50
t-0.5 -64zM2142 1541q7 35 26.5 64t47 50t60.5 32.5t68 11.5t63 -11.5t46.5 -32.5t25 -50t-0.5 -64l-298 -1403q-8 -35 -27 -64t-46.5 -50t-60.5 -32.5t-68 -11.5t-63 11.5t-46.5 32.5t-25.5 50t1 64z" />
    <glyph glyph-name="khomutthai" unicode="&#xe5b;" horiz-adv-x="3600" 
d="M2210 1304q48 -80 84.5 -156.5t62.5 -135.5q25 27 53.5 59.5t59.5 67.5t63.5 71.5t64.5 69.5q16 16 35.5 25t38 9.5t34 -7.5t23.5 -24q34 -72 64 -144.5t51 -130.5l164 176h536q34 0 61.5 -13t45 -35t23.5 -52t-1 -64t-26.5 -64t-46.5 -52t-59.5 -35t-66.5 -13h-430
q-60 -57 -127.5 -141t-138.5 -180q-13 -17 -27.5 -25t-27.5 -7.5t-23.5 9t-15.5 25.5q-29 97 -57 176.5t-57 146.5q-53 -59 -118 -148t-138 -208q-17 -24 -39.5 -35.5t-43.5 -10.5t-37 14.5t-19 40.5q-21 106 -44.5 190.5t-49.5 144.5q-44 -122 -108.5 -232.5t-145.5 -204.5
t-176 -170t-200 -129.5t-217 -82.5t-226 -29q-136 0 -244 35t-189 96.5t-135 145t-82 180t-30 202.5t21 213q20 94 62 191t103.5 188t141 170.5t173.5 138.5t201 93.5t225 34.5q138 0 236.5 -39.5t160.5 -107.5t89.5 -158t24.5 -191q-1 -33 -14.5 -63.5t-35.5 -55t-51.5 -42
t-62.5 -23.5q-34 -6 -63 0t-50 23t-33 42.5t-12 58.5q-1 112 -58 170t-166 66q-102 0 -190 -40.5t-158 -110t-119 -163.5t-72 -202q-22 -101 -4 -195.5t71 -167.5t139.5 -117t201.5 -44q107 0 200 32.5t171.5 90.5t143.5 138.5t117.5 177t92 205t68.5 222.5q7 36 27.5 67.5
t49 55t62.5 37t70 13.5q81 0 119 -63z" />
    <glyph glyph-name="ZWSP" unicode="&#x200b;" 
 />
    <glyph glyph-name="endash" unicode="&#x2013;" horiz-adv-x="1405" 
d="M312 644q-75 0 -112.5 37t-23.5 100q6 31 23.5 56.5t43 43.5t58 27.5t70.5 9.5h1053q75 0 112.5 -37t24.5 -100q-7 -31 -24.5 -56.5t-43 -43.5t-58.5 -27.5t-70 -9.5h-1053z" />
    <glyph glyph-name="emdash" unicode="&#x2014;" horiz-adv-x="2777" 
d="M312 644q-75 0 -112.5 37t-23.5 100q6 31 23.5 56.5t43 43.5t58 27.5t70.5 9.5h2424q75 0 112.5 -37t24.5 -100q-7 -31 -24.5 -56.5t-43 -43.5t-58.5 -27.5t-70 -9.5h-2424z" />
    <glyph glyph-name="quoteleft" unicode="&#x2018;" horiz-adv-x="819" 
d="M942 1426q-9 -44 -34.5 -82.5t-60.5 -67.5t-77.5 -46t-86.5 -17q-64 0 -105.5 23.5t-63.5 65.5t-24.5 99.5t11.5 125.5q13 60 32.5 112.5t46.5 99.5t62 90t78 84q24 22 57 47.5t70 47t75 35.5t71 14q41 0 57.5 -21t10.5 -50q-7 -32 -39 -53t-74 -46q-33 -20 -68.5 -42.5
t-69.5 -55t-63 -79.5t-49 -114q25 16 49.5 22.5t50.5 6.5q45 0 76 -16.5t49 -44t22.5 -63.5t-3.5 -75z" />
    <glyph glyph-name="quoteright" unicode="&#x2019;" horiz-adv-x="819" 
d="M571 1844q9 44 34.5 82.5t60.5 67.5t77.5 46t86.5 17q64 0 105.5 -24t63.5 -66t24.5 -99.5t-11.5 -124.5q-13 -60 -32.5 -112.5t-46.5 -99.5t-62 -90t-78 -84q-24 -23 -57 -48t-70 -46.5t-75 -35.5t-71 -14q-41 0 -57.5 21t-10.5 50q7 32 38.5 53t74.5 46q31 18 67 40.5
t70 55.5t63.5 80t49.5 115q-25 -16 -49.5 -22.5t-50.5 -6.5q-45 0 -76 16.5t-49 44t-22.5 63.5t3.5 75z" />
    <glyph glyph-name="quotedblleft" unicode="&#x201c;" horiz-adv-x="1302" 
d="M914 1426q-9 -44 -34.5 -82.5t-60.5 -67.5t-77.5 -46t-86.5 -17q-64 0 -105.5 23.5t-63.5 65.5t-24.5 99.5t11.5 125.5q13 60 32.5 112.5t46.5 99.5t62 90t78 84q24 22 57 47.5t70 47t75 35.5t71 14q41 0 57.5 -21t10.5 -50q-7 -32 -38.5 -54t-74.5 -45
q-34 -18 -70 -40.5t-69.5 -55.5t-62 -80.5t-48.5 -114.5q25 16 49.5 22.5t50.5 6.5q45 0 76 -16.5t49 -44t22.5 -63.5t-3.5 -75zM1453 1426q-9 -44 -34.5 -82.5t-60.5 -67.5t-77.5 -46t-86.5 -17q-64 0 -105.5 23.5t-63.5 65.5t-24.5 99.5t11.5 125.5q13 60 32.5 112.5
t46.5 99.5t62 90t78 84q24 22 57 47.5t70 47t75 35.5t71 14q41 0 57.5 -21t10.5 -50q-7 -32 -38.5 -54t-74.5 -45q-34 -18 -70 -40.5t-69.5 -55.5t-62 -80.5t-48.5 -114.5q25 16 49.5 22.5t50.5 6.5q45 0 76 -16.5t49 -44t22.5 -63.5t-3.5 -75z" />
    <glyph glyph-name="quotedblright" unicode="&#x201d;" horiz-adv-x="1302" 
d="M1081 1844q9 44 34.5 82.5t60.5 67.5t77.5 46t86.5 17q64 0 105.5 -24t63.5 -66t24.5 -99.5t-11.5 -124.5q-13 -60 -32.5 -112.5t-46.5 -99.5t-62 -90t-78 -84q-24 -23 -57 -48t-70 -46.5t-75 -35.5t-71 -14q-41 0 -57.5 21t-10.5 50q7 32 38.5 54t74.5 45q34 18 70 40.5
t69.5 55.5t62 80t48.5 115q-25 -16 -49.5 -22.5t-50.5 -6.5q-45 0 -76 16.5t-49 44t-22.5 63.5t3.5 75zM542 1844q9 44 34.5 82.5t60.5 67.5t77.5 46t86.5 17q64 0 105.5 -24t63.5 -66t24.5 -99.5t-11.5 -124.5q-13 -60 -32.5 -112.5t-46.5 -99.5t-62 -90t-78 -84
q-24 -23 -57 -48t-70 -46.5t-75 -35.5t-71 -14q-41 0 -57.5 21t-10.5 50q7 32 38.5 54t74.5 45q34 18 70 40.5t69.5 55.5t62 80t48.5 115q-25 -16 -49.5 -22.5t-50.5 -6.5q-45 0 -76 16.5t-49 44t-22.5 63.5t3.5 75z" />
    <glyph glyph-name="bullet" unicode="&#x2022;" horiz-adv-x="1090" 
d="M260 860q19 88 72.5 168t129.5 141t168 97.5t187 36.5q97 0 175 -36.5t129 -97.5t71.5 -141t1.5 -168q-20 -94 -74.5 -176t-131.5 -143t-170 -96t-190 -35q-95 0 -172 35t-127 96t-69.5 143t0.5 176z" />
    <glyph glyph-name="Euro" unicode="&#x20ac;" horiz-adv-x="2190" 
d="M1491 1282q24 0 45.5 -2t36.5 -9.5t22 -23t1 -43.5q-6 -29 -19 -46.5t-31.5 -26.5t-41.5 -12t-48 -3h-534q-8 -26 -15 -53t-13 -56q-7 -30 -12 -58.5t-8 -56.5h534q24 0 45.5 -2t37 -9.5t22.5 -23t1 -43.5q-6 -29 -19.5 -46.5t-32 -26.5t-41.5 -12t-48 -3h-506
q5 -106 37 -192.5t93 -148.5t152.5 -96t215.5 -34q85 0 153.5 23.5t125.5 60.5t104 82t89 89q24 24 49 48.5t51 44.5t51.5 33t49.5 15q36 2 64.5 -8t47.5 -29.5t28 -46.5t6 -59q-6 -71 -44.5 -139t-101.5 -129t-146.5 -113t-179.5 -90t-201 -59t-210 -21q-197 0 -350 48.5
t-256.5 145t-155 240.5t-44.5 335h-119q-23 0 -43 2.5t-34.5 11t-21 25t-0.5 43.5q6 28 20 45t32.5 25.5t41 11t45.5 2.5h94q5 26 9.5 53t10.5 56q13 56 30 115h-101q-23 0 -43 2.5t-34.5 11t-21 25t-0.5 43.5q6 28 20 45t32.5 25.5t41 11t45.5 2.5h121q71 164 179.5 304.5
t250 243t312.5 161t368 58.5q126 0 228 -24t180.5 -64t134 -92t88 -107.5t44 -111t1.5 -101.5q-17 -81 -66.5 -127t-132.5 -46q-38 0 -63.5 11.5t-44.5 30.5t-33 44.5t-27 52.5h1q-21 42 -46 84t-65.5 75.5t-103 55t-158.5 21.5q-94 0 -190.5 -28t-186 -86t-168 -146
t-136.5 -209h505z" />
    <glyph glyph-name="trademark" unicode="&#x2122;" horiz-adv-x="2547" 
d="M831 1828h-169q-26 0 -42 8t-24.5 20.5t-10.5 27.5t1 29t11.5 29.5t22 28t33 20.5t45.5 8h580q26 0 42 -8t24 -20.5t9.5 -28t-1.5 -29.5t-10.5 -29t-21 -27.5t-33 -20.5t-45.5 -8h-171l-156 -733q-9 -41 -28 -66.5t-41 -40.5t-43.5 -20.5t-34.5 -5.5q-14 0 -33 5.5
t-35.5 20.5t-25 40.5t0.5 66.5zM2370 1637l-8 2q-39 -67 -80 -138.5t-83 -144t-83 -144.5t-80 -139q-32 -51 -69 -81t-77 -30q-39 0 -63 30t-34 81l-86 566l-10 -2l-115 -542q-9 -41 -28 -66.5t-41.5 -40.5t-44.5 -20.5t-35 -5.5q-14 0 -33 5.5t-35.5 20.5t-25 40.5
t0.5 66.5l155 727q12 57 37 94t55.5 58.5t63 30t59.5 8.5q82 0 131 -42.5t66 -125.5l66 -491q33 57 68 119.5t70.5 126t70.5 126.5t68 120q52 82 118 124.5t148 42.5q27 0 56 -8.5t50.5 -30t31 -58.5t-2.5 -94l-155 -727q-9 -41 -28 -66.5t-41.5 -40.5t-44.5 -20.5t-35 -5.5
q-14 0 -33 5.5t-35 20.5t-24.5 40.5t0.5 66.5z" />
    <glyph glyph-name="uni25CC" unicode="&#x25cc;" horiz-adv-x="1868" 
d="M665 455l100 159q14 -34 34 -61.5t49 -48.5zM1210 1303l41 -156q-38 9 -81 7t-76 -11zM998 303l-42 152q35 -10 66.5 -9.5t78.5 13.5zM1604 803l-171 -70q20 34 28 70.5t8 77.5zM605 807l177 78q-14 -37 -24 -76.5t-10 -79.5zM844 1159l152 -57q-48 -22 -83.5 -47
t-61.5 -56zM1369 451l-141 49q38 21 69 46t59 56zM1544 1159l-104 -164q-14 34 -37.5 61.5t-49.5 49.5z" />
    <glyph glyph-name="thothannobasethai" unicode="&#xf700;" horiz-adv-x="1614" 
d="M1726 1126q-15 -66 -44 -140t-69 -154t-88.5 -164.5t-102 -170.5t-110.5 -172t-113 -169q-26 -40 -60.5 -72.5t-75 -55.5t-85.5 -35.5t-92 -12.5q-98 0 -161.5 45.5t-76.5 133.5l-84 586h-123q-28 0 -48.5 10.5t-33 28.5t-16 42t2.5 52t20 52.5t34 42.5t45 28.5t53 10.5
h308q28 0 44.5 -9t26 -25t14 -37t7.5 -46l69 -543q57 89 120 190t118.5 200.5t98.5 192.5t60 167q38 164 -31 246t-239 82q-119 0 -203 -46t-143 -151q-20 -35 -52.5 -56t-68.5 -29.5t-71.5 -4.5t-62.5 20q-29 17 -45 42t-19 55t7 63t34 65q118 158 298.5 243t418.5 85
q72 0 142 -9.5t133 -31.5q52 10 89.5 42.5t59.5 73.5q21 33 52.5 53.5t66 29t69 4t61.5 -22.5q27 -17 42.5 -44.5t18 -59.5t-8.5 -66t-36 -65q-32 -40 -77 -70.5t-101 -50.5q39 -65 48 -157t-20 -216z" />
    <glyph glyph-name="yoyingnobasethai" unicode="&#xf70f;" horiz-adv-x="2650" 
d="M1667 582q-17 -81 -4.5 -143t46.5 -104t86 -63.5t113 -21.5q60 0 118.5 19.5t108 60t87 103.5t55.5 149l204 957q7 35 27 64.5t47.5 50.5t61 33t68.5 12t63.5 -12t47 -33t25.5 -50.5t0 -64.5l-210 -986q-22 -101 -64 -184.5t-99.5 -149.5t-128 -115t-148.5 -81
t-160.5 -48t-164.5 -16q-127 0 -236.5 38t-184 113t-105 186t0.5 257l98 463q15 72 10.5 143t-39 128t-104 92.5t-182.5 37.5q-90 1 -164.5 -19.5t-132 -55t-97 -78.5t-60.5 -88q53 -44 64.5 -124t-9.5 -180l-127 -598h73q28 0 49.5 -10.5t34 -29.5t16.5 -44t-2 -53
q-6 -29 -20.5 -53.5t-35 -43.5t-46.5 -29.5t-54 -10.5h-272q-29 0 -51.5 10.5t-37.5 29.5t-20 43.5t1 53.5l163 768q9 44 9.5 91t-18.5 88q-18 36 -31 57.5t-17 41t4.5 42t34.5 61.5q56 84 133.5 162t178 137.5t224.5 95t273 35.5q140 0 244 -27.5t176 -76t115 -115.5
t61.5 -145.5t16 -166t-21.5 -177.5z" />
    <glyph glyph-name="saraulowthai" unicode="&#xf718;" 
d="M-409 -1191q-7 -33 -25 -60t-43.5 -46.5t-56 -30.5t-63.5 -11t-59.5 11t-43.5 30.5t-24 46.5t0 60l53 250h-68q-27 0 -46.5 10t-31.5 27.5t-15.5 41t2.5 50.5t19.5 50.5t32.5 41t43 27.5t51 10h264q27 0 46.5 -10t31.5 -27.5t16 -41t-2 -50.5z" />
    <glyph glyph-name="sarauulowthai" unicode="&#xf719;" 
d="M-647 -811q7 33 25 60t43.5 46.5t56.5 30t64 10.5t59 -10.5t43.5 -30t24 -46.5t-0.5 -60l-22 -102q-18 -87 -58 -164.5t-106 -135.5t-160 -92t-220 -34q-119 0 -197.5 28.5t-123 81t-56.5 125.5t2 162h-64q-27 0 -46.5 10t-31.5 27.5t-15.5 41t2.5 50.5t19.5 50.5
t32.5 41t43 27.5t51 10h264q27 0 46.5 -10t31.5 -27.5t16 -41t-2 -50.5l-22 -100q-17 -80 8.5 -122t97.5 -42q68 0 112 42t61 122z" />
    <glyph glyph-name="phinthulowthai" unicode="&#xf71a;" 
d="M-759 -877q10 48 37 89.5t64.5 73t83 49.5t93.5 18q46 0 83 -18t61 -49.5t33 -73t-1 -89.5q-10 -46 -36.5 -87t-63.5 -71.5t-82 -48.5t-91 -18q-48 0 -85.5 18t-62 48.5t-34 71.5t0.5 87z" />
    <glyph glyph-name="lochula.short" unicode="&#xf71d;" horiz-adv-x="2224" 
d="M2260 1541q35 -38 49.5 -86.5t12.5 -103t-18.5 -113.5t-43.5 -119l-438 -958q-18 -38 -46 -71t-64 -57t-77 -38t-84 -14q-41 0 -74.5 13t-57.5 36t-39 54t-18 68l-81 812l-417 -810q-20 -38 -48 -70t-62.5 -55t-73.5 -35.5t-81 -12.5q-40 0 -74 13t-59 36t-39.5 54
t-14.5 68l-13 1337q0 36 14 70.5t38.5 62.5t57.5 47.5t71 26.5q37 7 72 1.5t61.5 -22.5t42 -44.5t13.5 -65.5l-51 -1118l421 832q18 36 45 67t59.5 53.5t69.5 35.5t77 13q41 0 73.5 -13.5t55 -37.5t36 -56.5t16.5 -70.5l79 -827q35 85 67 164t63 156.5t62.5 155.5t65.5 159
q26 62 39 104.5t21 80.5q14 69 -3.5 112.5t-84.5 58.5q-42 10 -63 45t-11 81q5 24 18 45.5t31.5 39t41 29t46.5 14.5q39 6 78.5 17t77 29.5t71 45.5t59.5 65q21 33 49.5 60t60.5 46t66 28t68 5q42 -5 67.5 -24t37.5 -47t10 -61.5t-16 -68.5q-18 -47 -52 -85.5t-76 -68.5
t-90 -52.5t-94 -35.5z" />
    <glyph glyph-name="rulakkhangyao" unicode="&#xf881;" horiz-adv-x="2601" 
d="M377 909q9 44 9 89t-19 86q-18 36 -31 57.5t-17 41t4.5 42t34.5 61.5q56 84 130.5 162t174 137.5t227.5 95t293 35.5q102 0 184.5 -12.5t147.5 -36.5t114.5 -58t84.5 -77q105 90 231.5 135t256.5 45t233.5 -35.5t169.5 -108t88 -183t-9 -259.5l-326 -1533q-8 -35 -27 -64
t-46.5 -50t-60.5 -32.5t-68 -11.5t-63 11.5t-46.5 32.5t-25.5 50t1 64l314 1476q38 181 -13 264.5t-183 83.5q-111 0 -197 -66t-129 -196q-3 -70 -18 -143l-302 -1419q-8 -35 -27 -64t-46.5 -50t-60.5 -32.5t-68 -11.5t-63 11.5t-46.5 32.5t-25.5 50t1 64l308 1447
q5 22 8.5 44.5t3.5 50.5q0 57 -17.5 109.5t-58.5 93t-109 65.5t-171 27q-104 1 -184 -23t-137.5 -60t-93.5 -77.5t-52 -73.5q26 -21 42 -52t22.5 -68.5t4.5 -81t-12 -89.5l-134 -631h73q28 0 49.5 -10.5t34 -29.5t16.5 -44t-2 -53q-6 -29 -20.5 -53.5t-35 -43.5t-46.5 -29.5
t-54 -10.5h-272q-29 0 -51.5 10.5t-37.5 29.5t-20 43.5t1 53.5z" />
    <glyph glyph-name="lulakkhangyao" unicode="&#xf882;" horiz-adv-x="2707" 
d="M447 909q9 44 9 89t-19 86q-18 36 -31 57.5t-17 41t4.5 42t34.5 61.5q56 84 133 162t179.5 137.5t233 95t295.5 35.5q103 0 187 -13.5t150.5 -38t117 -59t87.5 -77.5q106 92 235.5 138t262.5 46q130 0 233.5 -35.5t169.5 -108t88 -183t-9 -259.5l-326 -1533
q-8 -35 -27 -64t-46.5 -50t-60.5 -32.5t-68 -11.5t-63 11.5t-46.5 32.5t-25.5 50t1 64l314 1476q38 181 -13 264.5t-183 83.5q-118 0 -204.5 -70t-126.5 -212q-4 -31 -8 -61.5t-10 -61.5l-302 -1419q-8 -35 -27.5 -64t-47 -50t-61 -32.5t-68.5 -11.5t-63.5 11.5t-47 32.5
t-26 50t0.5 64l308 1447q15 71 8 140t-46.5 124t-116.5 89.5t-201 36.5q-102 1 -184.5 -22.5t-143 -59.5t-100 -77t-55.5 -75q43 -46 59.5 -123.5t-2.5 -167.5l-163 -768q-6 -29 -22 -53.5t-38.5 -43.5t-50 -29.5t-55.5 -10.5h-272q-29 0 -50 10.5t-34 29.5t-16.5 43.5
t2.5 53.5q6 28 20.5 53t35 44t46 29.5t54.5 10.5h73z" />
    <glyph glyph-name="yamakkanleftthai" 
d="M-879 2099q41 110 130 183.5t214 105.5q22 49 58.5 94t86.5 80.5t113.5 58t140.5 25.5q27 1 51 -6t41.5 -21.5t26.5 -35t8 -47.5q-2 -27 -13.5 -53t-31 -46.5t-44 -33.5t-51.5 -13q-37 0 -64.5 -12.5t-46.5 -34t-31 -50.5t-19 -61q-5 -24 -16 -38t-24.5 -21t-28.5 -8.5
t-28 -1.5q-81 0 -127.5 -32.5t-69.5 -98.5q-10 -31 -31 -54.5t-48 -38t-58.5 -19.5t-63.5 0q-30 5 -49.5 22t-29 41.5t-8.5 54.5t13 61z" />
    <glyph glyph-name="saraamleft" horiz-adv-x="1410" 
d="M-612 2224q-5 -23 0 -44t17.5 -36.5t31 -25t41.5 -9.5t46 9.5t42 25t32.5 36.5t18.5 44t0 44t-17 36.5t-31 25t-42 9.5t-45.5 -9.5t-42 -25t-33 -36.5t-18.5 -44zM-817 2224q14 66 51.5 124t90 101.5t116 69t129.5 25.5q64 0 117 -25.5t87.5 -69t48 -101.5t-0.5 -124
t-52 -124t-91.5 -101.5t-117 -68.5t-127.5 -25q-66 0 -118.5 25t-86.5 68.5t-47 101.5t1 124zM1283 138q-8 -35 -27 -64t-46.5 -50t-60.5 -32.5t-68 -11.5t-63 11.5t-46.5 32.5t-25.5 50t1 64l198 931q38 181 -13 264.5t-183 83.5q-93 0 -167.5 -46t-122.5 -135
q-18 -34 -45.5 -61t-60.5 -44t-68 -23t-68 3q-36 9 -59.5 30.5t-34.5 50.5t-7.5 63t21.5 69q52 97 127.5 170t165 121.5t187.5 72.5t194 24q130 0 233.5 -35.5t169.5 -108t88 -183t-9 -259.5z" />
    <glyph glyph-name="uni0E33.alt1" horiz-adv-x="1410" 
d="M-612 2224q-5 -23 0 -44t17.5 -36.5t31 -25t41.5 -9.5t46 9.5t42 25t32.5 36.5t18.5 44t0 44t-17 36.5t-31 25t-42 9.5t-45.5 -9.5t-42 -25t-33 -36.5t-18.5 -44zM-817 2224q14 66 51.5 124t90 101.5t116 69t129.5 25.5q64 0 117 -25.5t87.5 -69t48 -101.5t-0.5 -124
t-52 -124t-91.5 -101.5t-117 -68.5t-127.5 -25q-66 0 -118.5 25t-86.5 68.5t-47 101.5t1 124zM1283 138q-8 -35 -27 -64t-46.5 -50t-60.5 -32.5t-68 -11.5t-63 11.5t-46.5 32.5t-25.5 50t1 64l198 931q38 181 -13 264.5t-183 83.5q-93 0 -167.5 -46t-122.5 -135
q-18 -34 -45.5 -61t-60.5 -44t-68 -23t-68 3q-36 9 -59.5 30.5t-34.5 50.5t-7.5 63t21.5 69q52 97 127.5 170t165 121.5t187.5 72.5t194 24q130 0 233.5 -35.5t169.5 -108t88 -183t-9 -259.5z" />
    <glyph glyph-name="saraithai.alt1" 
d="M-818 1933q-28 0 -48.5 10.5t-33 28.5t-16.5 42t2 52t20 52.5t34.5 42.5t45.5 28.5t53 10.5h967q28 0 48.5 -10.5t33.5 -28.5t17 -42.5t-2 -52.5t-20.5 -52t-35 -42t-45.5 -28.5t-53 -10.5h-967z" />
    <glyph glyph-name="saraiithai.alt1" 
d="M-818 1933q-28 0 -48.5 10.5t-33 28.5t-16.5 42t2 52t20 52.5t34.5 42.5t45.5 28.5t53 10.5h754l22 107q7 33 25.5 60.5t44.5 47.5t57.5 31t64.5 11t59.5 -11t44 -31t24 -47.5t-0.5 -60.5l-48 -224q-7 -33 -25 -60.5t-44 -47.5t-57.5 -31t-64.5 -11h-913z" />
    <glyph glyph-name="sarauethai.alt1" 
d="M-818 1933q-28 0 -48.5 10.5t-33 28.5t-16.5 42t2 52t20 52.5t34.5 42.5t45.5 28.5t53 10.5h520l6 28q13 61 47.5 115t83 94t107 63t119.5 23t110 -23t80.5 -63t43 -94t-1.5 -115q-13 -62 -47.5 -115.5t-83 -93.5t-107 -63t-119.5 -23h-815zM-46 2228q-5 -21 0 -40
t16 -32.5t28.5 -21.5t38.5 -8q22 0 43 8t38.5 21.5t30 32.5t17.5 40q5 23 0.5 42.5t-16 34t-29 22.5t-39.5 8q-21 0 -42 -8t-38.5 -22.5t-30 -34t-17.5 -42.5z" />
    <glyph glyph-name="saraueethai.alt1" 
d="M-818 1933q-28 0 -48.5 10.5t-33 28.5t-16.5 42t2 52t20 52.5t34.5 42.5t45.5 28.5t53 10.5h316l25 115q6 31 23.5 57.5t42.5 45t55 29t61 10.5t56 -10.5t41.5 -29t23 -45t0.5 -57.5l-25 -115h150l25 115q6 31 23.5 57.5t42.5 45t55 29t61 10.5t56 -10.5t41.5 -29t23 -45
t0.5 -57.5l-51 -240q-7 -32 -24.5 -58t-42 -44.5t-54.5 -29t-61 -10.5h-921z" />
    <glyph glyph-name="saraithai.alt2" 
d="M-1587 1933q-28 0 -48.5 10.5t-33 28.5t-16.5 42t2 52t20 52.5t34.5 42.5t45.5 28.5t53 10.5h1317q28 0 48.5 -10.5t33.5 -28.5t17 -42.5t-2 -52.5t-20.5 -52t-35 -42t-45.5 -28.5t-53 -10.5h-1317z" />
    <glyph glyph-name="saraiithai.alt2" 
d="M-1587 1933q-28 0 -48.5 10.5t-33 28.5t-16.5 42t2 52t20 52.5t34.5 42.5t45.5 28.5t53 10.5h1092l23 107q7 33 25.5 60.5t44.5 47.5t57.5 31t64.5 11t59.5 -11t44 -31t24 -47.5t-0.5 -60.5l-48 -224q-7 -33 -25 -60.5t-44 -47.5t-57.5 -31t-64.5 -11h-1252z" />
    <glyph glyph-name="sarauethai.alt2" 
d="M-1587 1933q-28 0 -48.5 10.5t-33 28.5t-16.5 42t2 52t20 52.5t34.5 42.5t45.5 28.5t53 10.5h863l6 28q13 61 47.5 115t83 94t107 63t120.5 23q61 0 109.5 -23t79 -63t41.5 -94t-2 -115q-13 -62 -47 -115.5t-81.5 -93.5t-106 -63t-119.5 -23h-1158zM-472 2228
q-9 -43 14.5 -72.5t69.5 -29.5q22 0 42.5 8t37.5 21.5t28.5 32.5t16.5 40q10 47 -13 77t-67 30q-23 0 -44 -8t-38.5 -22.5t-29.5 -34t-17 -42.5z" />
    <glyph glyph-name="saraueethai.alt2" 
d="M-1587 1933q-28 0 -48.5 10.5t-33 28.5t-16.5 42t2 52t20 52.5t34.5 42.5t45.5 28.5t53 10.5h654l25 115q6 31 23.5 57.5t42.5 45t55 29t61 10.5t56 -10.5t41.5 -29t23 -45t0.5 -57.5l-25 -115h151l25 115q6 31 23.5 57.5t42.5 45t55 29t61 10.5t56 -10.5t41.5 -29
t23 -45t0.5 -57.5l-51 -240q-7 -32 -24.5 -58t-42 -44.5t-54.5 -29t-61 -10.5h-1260z" />
    <glyph glyph-name="maiekthai.alt2" 
d="M-2 2752q-7 -32 -24.5 -59t-43 -46.5t-56 -30t-62.5 -10.5t-58 10.5t-43.5 30t-24 46.5t0.5 59l53 249q7 32 25 59t43.5 46.5t56 30t62.5 10.5t58 -10.5t42.5 -30t23 -46.5t-0.5 -59z" />
    <glyph glyph-name="maithothai.alt2" 
d="M265 2943q-44 -68 -110 -126.5t-153.5 -102t-196.5 -68.5t-238 -25h-108q-26 0 -46.5 10t-34 27t-18.5 39.5t0 48.5l27 125h-61q-26 0 -46.5 10t-34 27t-18.5 39.5t0 48.5q6 26 20.5 48.5t35 39.5t45.5 27t51 10h202q26 0 46.5 -10t34 -27t18.5 -39.5t-1 -48.5l-26 -125
q67 1 125 15t105 38t82.5 56.5t56.5 70.5q17 27 41.5 47t52.5 31t56.5 11.5t54.5 -10.5q25 -11 41 -31.5t21.5 -46t-0.5 -54t-24 -55.5z" />
    <glyph glyph-name="maitrithai.alt2" 
d="M204 3028q13 26 33.5 46t45 32.5t51.5 16.5t53 -2q31 -8 49.5 -24t25.5 -37t3 -46.5t-17 -50.5q-32 -61 -76 -118.5t-96 -104t-108 -78t-112 -41.5h-107q-38 0 -57.5 22t-15.5 57q6 46 -2 78t-43 32q-27 0 -45.5 -16t-27.5 -43q-11 -34 -38.5 -57t-65.5 -23
q-36 0 -59.5 20t-17.5 60q5 29 -7 44t-38 15q-32 0 -51.5 -23.5t-31.5 -67.5q-14 -59 -56 -87.5t-94 -28.5q-58 0 -83.5 34t-15.5 82q19 87 56.5 150.5t85.5 105t102.5 62t107.5 20.5q59 0 98 -24t64 -65q45 38 96.5 63.5t111.5 25.5q35 0 68.5 -10.5t59 -31.5t41 -51.5
t15.5 -70.5q12 11 25.5 26.5t27 33.5t25.5 37.5t20 37.5z" />
    <glyph glyph-name="maichattawathai.alt2" 
d="M-6 2747q-6 -32 -24 -58t-42.5 -44.5t-54.5 -29t-61 -10.5t-56.5 10.5t-42 29t-22.5 44.5t0 58l18 83h-147q-25 0 -43.5 9.5t-29.5 26t-14 38.5t2 47t17.5 47t30.5 38.5t40.5 26t47.5 9.5h147l18 83q7 31 24.5 57.5t42 45t54.5 29t61 10.5t56 -10.5t41.5 -29t23 -45
t-0.5 -57.5l-18 -83h147q25 0 43.5 -9.5t30 -26t14.5 -38.5t-2 -47t-18 -47t-31 -38.5t-40.5 -26t-47.5 -9.5h-147z" />
    <glyph glyph-name="saraithai.alt3" 
d="M-1555 1933q-28 0 -48.5 10.5t-33 28.5t-16.5 42t2 52t20 52.5t34.5 42.5t45.5 28.5t53 10.5h1714q28 0 48.5 -10.5t33.5 -28.5t17 -42.5t-2 -52.5t-20.5 -52t-35 -42t-45.5 -28.5t-53 -10.5h-1714z" />
    <glyph glyph-name="saraiithai.alt3" 
d="M-1555 1933q-28 0 -48.5 10.5t-33 28.5t-16.5 42t2 52t20 52.5t34.5 42.5t45.5 28.5t53 10.5h1491l22 107q7 33 25.5 60.5t44.5 47.5t57.5 31t64.5 11t59.5 -11t44 -31t24 -47.5t-0.5 -60.5l-48 -224q-7 -33 -25 -60.5t-44 -47.5t-57.5 -31t-64.5 -11h-1650z" />
    <glyph glyph-name="sarauethai.alt3" 
d="M-46 2228q-5 -21 0 -40t16 -32.5t28.5 -21.5t38.5 -8q22 0 43 8t38.5 21.5t30 32.5t17.5 40q5 23 0.5 42.5t-16 34t-29 22.5t-39.5 8q-21 0 -42 -8t-38.5 -22.5t-30 -34t-17.5 -42.5zM-1555 1933q-28 0 -48.5 10.5t-33 28.5t-16.5 42t2 52t20 52.5t34.5 42.5t45.5 28.5
t53 10.5h1257l6 28q13 61 47.5 115t83 94t107 63t119.5 23t110 -23t80.5 -63t43 -94t-1.5 -115q-13 -62 -47.5 -115.5t-83 -93.5t-107 -63t-119.5 -23h-1552z" />
    <glyph glyph-name="saraueethai.alt3" 
d="M-1555 1933q-28 0 -48.5 10.5t-33 28.5t-16.5 42t2 52t20 52.5t34.5 42.5t45.5 28.5t53 10.5h1053l25 115q6 31 23.5 57.5t42.5 45t55 29t61 10.5t56 -10.5t41.5 -29t23 -45t0.5 -57.5l-25 -115h150l25 115q6 31 23.5 57.5t42.5 45t55 29t61 10.5t56 -10.5t41.5 -29
t23 -45t0.5 -57.5l-51 -240q-7 -32 -24.5 -58t-42 -44.5t-54.5 -29t-61 -10.5h-1658z" />
    <glyph glyph-name="maiekthai.alt4" 
d="M380 2544q-7 -32 -24.5 -59t-43 -46.5t-56 -30t-62.5 -10.5t-58 10.5t-43.5 30t-24 46.5t0.5 59l53 249q7 32 25 59t43 46.5t56 30t63 10.5t58 -10.5t43 -30t23.5 -46.5t-0.5 -59z" />
    <glyph glyph-name="maithothai.alt4" 
d="M668 2739q-44 -68 -110.5 -126.5t-154.5 -102t-196.5 -68.5t-237.5 -25h-108q-26 0 -46.5 10t-34 27t-18.5 39.5t1 48.5l26 125h-61q-26 0 -46.5 10t-34 27t-18.5 39.5t1 48.5t20.5 48.5t35 39.5t45.5 27t51 10h202q25 0 45.5 -10t34 -27t18.5 -39.5t-1 -48.5l-27 -125
q67 1 125.5 15t105.5 38t82.5 56.5t57.5 70.5q17 27 41.5 47t52 31t56.5 11.5t54 -10.5t41 -31.5t21.5 -46t0 -54t-23.5 -55.5z" />
    <glyph glyph-name="maitrithai.alt4" 
d="M426 2822q13 26 33.5 46t45 32.5t51.5 16.5t53 -2q31 -8 49.5 -24t25.5 -37t3.5 -46.5t-16.5 -50.5q-32 -61 -76.5 -118.5t-96.5 -104t-108 -78t-112 -41.5h-108q-38 0 -57.5 22t-14.5 57q6 46 -2.5 78t-43.5 32q-27 0 -45 -16t-27 -43q-11 -34 -38.5 -57t-65.5 -23
q-36 0 -59.5 20t-17.5 60q5 29 -7 44t-38 15q-32 0 -51.5 -23.5t-30.5 -67.5q-7 -29 -22 -51t-35 -36.5t-44 -21.5t-50 -7q-58 0 -83.5 34t-14.5 82q18 87 55.5 150.5t85.5 105t102.5 62t107.5 20.5q54 0 97 -25t66 -64q44 38 95 63.5t111 25.5q36 0 69 -10.5t59 -31.5
t42 -51.5t16 -70.5q23 22 51.5 60t45.5 75z" />
    <glyph glyph-name="maichattawathai.alt4" 
d="M376 2543q-7 -32 -24.5 -58t-42 -44.5t-54.5 -29t-61 -10.5t-56.5 10.5t-42 29t-23 44.5t0.5 58l18 83h-146q-25 0 -43.5 9.5t-30 26t-14.5 38.5t2 47q6 25 18.5 47t30.5 38.5t40.5 26t47.5 9.5h146l18 83q7 31 24.5 57.5t42 45t54.5 29t61 10.5t56.5 -10.5t42 -29
t23 -45t-0.5 -57.5l-18 -83h147q25 0 43.5 -9.5t29.5 -26t14.5 -38.5t-2.5 -47q-5 -25 -17.5 -47t-30.5 -38.5t-40.5 -26t-47.5 -9.5h-147z" />
    <glyph glyph-name="maiekthai.alt5" 
d="M-155 2548q-7 -32 -24.5 -59t-43 -46.5t-56 -30t-62.5 -10.5t-58 10.5t-43.5 30t-24 46.5t0.5 59l53 249q7 32 25 59t43 46.5t56 30t63 10.5t58 -10.5t43 -30t23.5 -46.5t-0.5 -59z" />
    <glyph glyph-name="maithothai.alt5" 
d="M140 2739q-44 -68 -110.5 -126.5t-154 -102t-196.5 -68.5t-238 -25h-108q-26 0 -46.5 10t-34 27t-18.5 39.5t1 48.5l26 125h-61q-26 0 -46.5 10t-34 27t-18.5 39.5t1 48.5t20.5 48.5t35 39.5t45.5 27t51 10h202q26 0 46.5 -10t34 -27t18.5 -39.5t-1 -48.5l-27 -125
q67 1 125.5 15t105.5 38t82.5 56.5t57.5 70.5q17 27 41.5 47t52 31t56 11.5t53.5 -10.5t41 -31.5t21.5 -46t0 -54t-23.5 -55.5z" />
    <glyph glyph-name="maitrithai.alt5" 
d="M-1 2824q13 26 33 46t44.5 32.5t51.5 16.5t53 -2q30 -8 48.5 -24t25.5 -37t3.5 -46.5t-16.5 -50.5q-32 -61 -76 -118.5t-95.5 -104t-108 -78t-112.5 -41.5h-108q-38 0 -57.5 22t-14.5 57q6 46 -2.5 78t-43.5 32q-27 0 -45 -16t-27 -43q-11 -34 -39 -57t-66 -23
q-36 0 -58.5 22.5t-17.5 57.5q5 29 -7.5 44t-38.5 15q-32 0 -51.5 -23.5t-30.5 -67.5q-14 -59 -56.5 -87.5t-94.5 -28.5q-58 0 -83.5 34t-14.5 82q18 87 55.5 150.5t86 105t103 62t107.5 20.5q54 0 96.5 -25t65.5 -64q45 38 96.5 63.5t111.5 25.5q36 0 69 -10.5t59 -31.5
t41.5 -51.5t15.5 -70.5q11 11 24.5 26.5t27 33.5t25.5 37.5t21 37.5z" />
    <glyph glyph-name="maichattawathai.alt5" 
d="M-164 2543q-7 -32 -24.5 -58t-42 -44.5t-54.5 -29t-61 -10.5t-56.5 10.5t-42 29t-23 44.5t0.5 58l18 83h-147q-25 0 -43.5 9.5t-30 26t-14.5 38.5t2 47q6 25 18.5 47t30.5 38.5t40.5 26t47.5 9.5h147l18 83q7 31 24.5 57.5t42 45t54.5 29t61 10.5t56.5 -10.5t42 -29
t23 -45t-0.5 -57.5l-18 -83h146q25 0 43.5 -9.5t29.5 -26t14.5 -38.5t-2.5 -47q-5 -25 -17.5 -47t-30.5 -38.5t-40.5 -26t-47.5 -9.5h-146z" />
    <glyph glyph-name="sarauthai.alt6" 
d="M-641 -701q-7 -33 -25 -60t-43.5 -46.5t-56 -30.5t-63.5 -11t-59.5 11t-43.5 30.5t-24 46.5t0 60l54 250h-68q-27 0 -46.5 10t-31.5 27.5t-16 41t2 50.5t19.5 50.5t32.5 41t43 27.5t51 10h264q27 0 46.5 -10t31.5 -27.5t16 -41t-2 -50.5z" />
    <glyph glyph-name="sarauuthai.alt6" 
d="M-653 -320q7 33 25.5 60t44 46.5t56.5 30t64 10.5t59 -10.5t43 -30t23.5 -46.5t-0.5 -60l-21 -102q-19 -87 -59 -164.5t-106 -135.5t-160 -92t-220 -34q-119 0 -197.5 28.5t-122.5 81t-56.5 125.5t2.5 162h-64q-27 0 -46.5 10t-31.5 27.5t-16 41t2 50.5t19.5 50.5
t32.5 41t43 27.5t51 10h264q27 0 46.5 -10t31.5 -27.5t16 -41t-2 -50.5l-21 -100q-17 -80 8 -122t97 -42q68 0 112.5 42t61.5 122z" />
    <glyph glyph-name="phinthuthai.alt6" 
d="M-1024 -369q10 48 37 89.5t64.5 73t83 49.5t93.5 18q46 0 83 -18t61 -49.5t33 -73t-1 -89.5q-10 -46 -36.5 -87t-63.5 -71.5t-82 -48.5t-91 -18q-48 0 -85.5 18t-62 48.5t-34 71.5t0.5 87z" />
    <glyph glyph-name="sarauthai.alt7" 
d="M-601 -701q-7 -33 -25 -60t-43.5 -46.5t-56 -30.5t-63.5 -11t-59.5 11t-43.5 30.5t-24 46.5t0 60l54 250h-68q-27 0 -46.5 10t-31.5 27.5t-16 41t2 50.5t19.5 50.5t32.5 41t43 27.5t51 10h264q27 0 46.5 -10t31.5 -27.5t16 -41t-2 -50.5z" />
    <glyph glyph-name="sarauuthai.alt7" 
d="M-858 -320q7 33 25.5 60t44 46.5t56.5 30t64 10.5t59 -10.5t43 -30t23.5 -46.5t-0.5 -60l-21 -102q-19 -87 -59 -164.5t-106 -135.5t-160 -92t-220 -34q-119 0 -197.5 28.5t-122.5 81t-56.5 125.5t2.5 162h-64q-27 0 -46.5 10t-31.5 27.5t-16 41t2 50.5t19.5 50.5
t32.5 41t43 27.5t51 10h264q27 0 46.5 -10t31.5 -27.5t16 -41t-2 -50.5l-21 -100q-17 -80 8 -122t97 -42q68 0 112.5 42t61.5 122z" />
    <glyph glyph-name="phinthuthai.alt7" 
d="M-959 -369q10 48 37 89.5t65 73t83.5 49.5t93.5 18q46 0 83 -18t61 -49.5t33 -73t-1 -89.5q-10 -46 -36.5 -87t-63.5 -71.5t-82 -48.5t-91 -18q-48 0 -86 18t-62.5 48.5t-34 71.5t0.5 87z" />
    <glyph glyph-name="maihanakatthai.alt8" 
d="M-706 1937q-32 0 -58 10.5t-43 30t-23.5 46.5t0.5 59l31 143q7 32 24.5 59t43 46.5t56 30t62.5 10.5t58 -10.5t43.5 -30t24 -46.5t-0.5 -59l-7 -31h1197q27 0 47 -10t32.5 -27.5t16.5 -41t-2 -50.5t-20 -50.5t-33.5 -41t-44 -27.5t-51.5 -10h-1353z" />
    <glyph glyph-name="maiekthai.alt8" 
d="M-87 2752q-7 -32 -24.5 -59t-43 -46.5t-56 -30t-62.5 -10.5t-58 10.5t-43.5 30t-24 46.5t0.5 59l53 249q7 32 25 59t43.5 46.5t56 30t62.5 10.5t58 -10.5t43 -30t23.5 -46.5t-0.5 -59z" />
    <glyph glyph-name="maithothai.alt8" 
d="M236 2943q-44 -68 -110 -126.5t-153.5 -102t-196.5 -68.5t-238 -25h-108q-26 0 -46.5 10t-34 27t-18.5 39.5t0 48.5l27 125h-61q-26 0 -46.5 10t-34 27t-18.5 39.5t0 48.5q6 26 20.5 48.5t35 39.5t45.5 27t51 10h202q26 0 46.5 -10t34 -27t18.5 -39.5t-1 -48.5l-26 -125
q67 1 125 15t105.5 38t83 56.5t56.5 70.5q17 27 41.5 47t52 31t56 11.5t54.5 -10.5q25 -11 41 -31.5t21.5 -46t-0.5 -54t-24 -55.5z" />
    <glyph glyph-name="maitrithai.alt8" 
d="M248 3028q13 26 33.5 46t45 32.5t51.5 16.5t53 -2q31 -8 49.5 -24t25.5 -37t3 -46.5t-17 -50.5q-32 -61 -76 -118.5t-96 -104t-108 -78t-112 -41.5h-107q-38 0 -57.5 22t-15.5 57q6 46 -2 78t-43 32q-27 0 -45.5 -16t-27.5 -43q-11 -34 -38.5 -57t-65.5 -23
q-36 0 -59.5 20t-17.5 60q5 29 -7 44t-38 15q-32 0 -51.5 -23.5t-31.5 -67.5q-14 -59 -56 -87.5t-94 -28.5q-58 0 -83.5 34t-15.5 82q19 87 56.5 150.5t85.5 105t102.5 62t107.5 20.5q54 0 96.5 -25t65.5 -64q45 38 96.5 63.5t111.5 25.5q35 0 68.5 -10.5t59 -31.5t41 -51.5
t15.5 -70.5q12 11 25.5 26.5t27 33.5t25.5 37.5t20 37.5z" />
    <glyph glyph-name="maichattawathai.alt8" 
d="M-92 2747q-6 -32 -24 -58t-42.5 -44.5t-54.5 -29t-61 -10.5t-56.5 10.5t-42 29t-22.5 44.5t0 58l18 83h-147q-25 0 -43.5 9.5t-29.5 26t-14 38.5t2 47t17.5 47t30.5 38.5t40.5 26t47.5 9.5h147l18 83q7 31 24.5 57.5t42 45t54.5 29t61 10.5t56 -10.5t41.5 -29t23 -45
t0.5 -57.5l-18 -83h146q25 0 43.5 -9.5t30 -26t14.5 -38.5t-2 -47t-18 -47t-31 -38.5t-40.5 -26t-47.5 -9.5h-146z" />
    <glyph glyph-name="maihanakatthai.alt9" 
d="M-666 1937q-32 0 -58 10.5t-43 30t-23.5 46.5t0.5 59l31 143q7 32 24.5 59t43 46.5t56 30t62.5 10.5t58 -10.5t43.5 -30t24 -46.5t-0.5 -59l-7 -31h995q27 0 47 -10t32.5 -27.5t16.5 -41t-2 -50.5t-20 -50.5t-33.5 -41t-44 -27.5t-51.5 -10h-1151z" />
    <glyph glyph-name="maithothai.alt9" 
d="M484 2943q-44 -68 -110 -126.5t-154 -102t-196.5 -68.5t-237.5 -25h-108q-26 0 -46.5 10t-34 27t-18.5 39.5t0 48.5l27 125h-61q-26 0 -46.5 10t-34 27t-18.5 39.5t0 48.5q6 26 20.5 48.5t35 39.5t45.5 27t51 10h202q26 0 46.5 -10t34 -27t18.5 -39.5t-1 -48.5l-26 -125
q66 1 124 15t105.5 38t83 56.5t56.5 70.5q17 27 41.5 47t52.5 31t56.5 11.5t54.5 -10.5q25 -11 41 -31.5t21.5 -46t-0.5 -54t-24 -55.5z" />
    <glyph glyph-name="maitrithai.alt9" 
d="M443 3028q13 26 33.5 46t45 32.5t51.5 16.5t53 -2q31 -8 49.5 -24t25.5 -37t3 -46.5t-17 -50.5q-32 -61 -76 -118.5t-96 -104t-108 -78t-112 -41.5h-108q-38 0 -57.5 22t-15.5 57q6 46 -2 78t-43 32q-25 0 -44.5 -16t-27.5 -43q-11 -34 -38.5 -57t-65.5 -23
q-36 0 -59.5 20t-17.5 60q5 29 -7 44t-38 15q-32 0 -51.5 -23.5t-31.5 -67.5q-14 -59 -56 -87.5t-94 -28.5q-58 0 -83.5 34t-15.5 82q19 87 56.5 150.5t85.5 105t102.5 62t107.5 20.5q54 0 94.5 -25.5t67.5 -63.5q44 38 95.5 63.5t111.5 25.5q36 0 69 -10.5t59 -31.5
t41.5 -51.5t15.5 -70.5q12 11 25.5 26.5t27 33.5t25.5 37.5t20 37.5z" />
    <glyph glyph-name="saraithai.alt10" 
d="M-998 1933q-28 0 -48.5 10.5t-33 28.5t-16.5 42t2 52t20 52.5t34.5 42.5t45.5 28.5t53 10.5h1148q28 0 48.5 -10.5t33.5 -28.5t17 -42.5t-2 -52.5t-20.5 -52t-35 -42t-45.5 -28.5t-53 -10.5h-1148z" />
    <glyph glyph-name="saraiithai.alt10" 
d="M-998 1933q-28 0 -48.5 10.5t-33 28.5t-16.5 42t2 52t20 52.5t34.5 42.5t45.5 28.5t53 10.5h934l22 107q7 33 25.5 60.5t44.5 47.5t57.5 31t64.5 11t59.5 -11t44 -31t24 -47.5t-0.5 -60.5l-48 -224q-7 -33 -25 -60.5t-44 -47.5t-57.5 -31t-64.5 -11h-1093z" />
    <glyph glyph-name="sarauethai.alt10" 
d="M-998 1933q-28 0 -48.5 10.5t-33 28.5t-16.5 42t2 52t20 52.5t34.5 42.5t45.5 28.5t53 10.5h700l6 28q13 61 47.5 115t83 94t107 63t119.5 23t110 -23t80.5 -63t43 -94t-1.5 -115q-13 -62 -47.5 -115.5t-83 -93.5t-107 -63t-119.5 -23h-995zM-46 2228q-5 -21 0 -40
t16 -32.5t28.5 -21.5t38.5 -8q22 0 43 8t38.5 21.5t30 32.5t17.5 40q5 23 0.5 42.5t-16 34t-29 22.5t-39.5 8q-21 0 -42 -8t-38.5 -22.5t-30 -34t-17.5 -42.5z" />
    <glyph glyph-name="saraueethai.alt10" 
d="M-998 1933q-28 0 -48.5 10.5t-33 28.5t-16.5 42t2 52t20 52.5t34.5 42.5t45.5 28.5t53 10.5h496l25 115q6 31 23.5 57.5t42.5 45t55 29t61 10.5t56 -10.5t41.5 -29t23 -45t0.5 -57.5l-25 -115h150l25 115q6 31 23.5 57.5t42.5 45t55 29t61 10.5t56 -10.5t41.5 -29t23 -45
t0.5 -57.5l-51 -240q-7 -32 -24.5 -58t-42 -44.5t-54.5 -29t-61 -10.5h-1101z" />
    <glyph glyph-name="maiekupperleftthai.alt11" 
d="M-185 2772q-7 -32 -25 -59t-43 -46.5t-55.5 -30t-62.5 -10.5t-58.5 10.5t-43.5 30t-23.5 46.5t0.5 59l53 249q7 32 25 59t43 46.5t56 30t63 10.5t58 -10.5t43 -30t23.5 -46.5t-0.5 -59z" />
    <glyph glyph-name="maichattawaupperleftthai.alt11" 
d="M-185 2767q-7 -32 -24.5 -58t-42.5 -44.5t-55 -29t-61 -10.5t-56 10.5t-41.5 29t-23 44.5t0.5 58l17 83h-147q-25 0 -43.5 9.5t-29.5 26t-14 38.5t2 47t18 47t31 38.5t40.5 26t47.5 9.5h147l17 83q7 31 24.5 57.5t42.5 45t55 29t61 10.5t56 -10.5t41.5 -29t23 -45
t-0.5 -57.5l-17 -83h146q25 0 43.5 -9.5t29.5 -26t14 -38.5t-2 -47t-18 -47t-31 -38.5t-40 -26t-47 -9.5h-147z" />
    </font>
</defs>
</svg>
