<svg xmlns="http://www.w3.org/2000/svg">
<defs>
<font id="DBHelvethaicaMonX-85Blk" horiz-adv-x="0" >
  <font-face 
    font-family="DB HelvethaicaMon X 85 Blk"
    font-weight="900"
    font-stretch="normal"
    units-per-em="4096"
    panose-1="2 0 5 6 9 0 0 2 0 4"
    ascent="3276"
    descent="-820"
    x-height="1455"
    cap-height="2019"
    bbox="-2171 -1502 3719 3421"
    underline-thickness="82"
    underline-position="-627"
    unicode-range="U+0020-F882"
  />
<missing-glyph horiz-adv-x="1151" 
d="M1176 1114v-41h16q20 0 20 29q-1 3 -4 6q-6 6 -16 6h-16zM1184 1069h-8v-37h-13v94h29q15 0 24 -6t9 -18q0 -25 -8.5 -29t-20.5 -4l29 -37h-13zM1192 1020q17 0 28.5 5.5t19 13.5t10.5 17t3 17q0 34 -16.5 50t-44.5 16t-47 -16t-19 -50q0 -22 14.5 -37.5t51.5 -15.5z
M1192 1147q34 0 52 -20t18 -54q0 -22 -18 -41.5t-52 -19.5q-37 0 -55.5 19.5t-18.5 41.5q0 34 18.5 54t55.5 20zM561 881q27 -3 63.5 -7.5t76.5 -10.5t81.5 -13.5t78.5 -16.5t65.5 -19.5t44.5 -22.5q-29 54 -75 96.5t-101.5 72t-116.5 45t-121 15.5q-48 0 -94.5 -9
t-89 -27.5t-78.5 -46.5t-62 -65q50 4 101 6.5t100 2.5h127zM1049 1102v-397q-140 40 -311.5 69t-360.5 29q-133 0 -262 -12q12 61 48.5 117.5t93.5 99.5t132 68.5t164 25.5q86 0 155 -19.5t121.5 -48.5t88 -62t53.5 -59v189h78zM426 352q0 25 -15 35t-30 10q-25 0 -37 -10
t-12 -35q0 -41 49 -41q15 0 30 10t15 31zM90 389q0 63 25.5 112.5t67 83.5t94.5 52t108 18q57 0 108.5 -15.5t90 -47.5t61.5 -80.5t23 -114.5v-323h303v565h78v-635h-533v70h82v332q0 44 -16.5 76.5t-45 53.5t-66.5 31.5t-81 10.5t-83 -12t-70.5 -35.5t-49 -57t-18.5 -76.5
v-295l164 164q-6 1 -16.5 7.5t-20.5 17t-17.5 26t-7.5 35.5q0 53 31 82t84 29q23 0 43 -8.5t35 -23.5t24 -35.5t9 -43.5q0 -18 -5.5 -33.5t-13 -26.5t-16.5 -18t-15 -8q-2 -6 -14.5 -18.5t-31.5 -30.5t-42.5 -41t-46.5 -49q-31 -28 -64 -58.5t-67 -64.5h-90v385z" />
    <glyph glyph-name="plusminus" unicode="&#x2b;&#x2d;" horiz-adv-x="1667" 
d="M651 1731q0 94 49 147.5t134 53.5t134 -53.5t49 -147.5v-391h386q96 0 148.5 -47.5t52.5 -130.5t-52.5 -130.5t-148.5 -47.5h-386v-392q0 -93 -49 -146.5t-134 -53.5t-134 53.5t-49 146.5v392h-386q-48 0 -85 15t-63 39.5t-39.5 56.5t-13.5 67q0 83 52.5 130.5
t148.5 47.5h386v391zM1399 350q42 0 79.5 -8.5t65 -29t44 -54t16.5 -82.5q0 -50 -16.5 -84t-44 -54.5t-65 -29t-79.5 -8.5h-1132q-43 0 -80.5 8.5t-65 29t-43.5 54.5t-16 84q0 49 16 82.5t43.5 54t65 29t80.5 8.5h1132z" />
    <glyph glyph-name="ellipsis" unicode="&#x2e;&#x2e;&#x2e;" horiz-adv-x="2777" 
d="M218 237q0 53 20 100t54.5 81.5t81.5 54.5t100 20t100 -20t81.5 -54.5t54.5 -81.5t20 -100t-20 -100t-54.5 -81.5t-81.5 -54.5t-100 -20t-100 20t-81.5 54.5t-54.5 81.5t-20 100zM1127 237q0 53 20 100t54.5 81.5t81.5 54.5t100 20t100 -20t81.5 -54.5t54.5 -81.5
t20 -100t-20 -100t-54.5 -81.5t-81.5 -54.5t-100 -20t-100 20t-81.5 54.5t-54.5 81.5t-20 100zM2042 237q0 53 20 100t54.5 81.5t81.5 54.5t100 20t100 -20t81.5 -54.5t54.5 -81.5t20 -100t-20 -100t-54.5 -81.5t-81.5 -54.5t-100 -20t-100 20t-81.5 54.5t-54.5 81.5
t-20 100z" />
    <glyph glyph-name="lessequal" unicode="&#x3c;&#x3d;" horiz-adv-x="1794" 
d="M687 1232l834 -366q44 -20 71 -42.5t42 -46.5t20.5 -49.5t5.5 -50.5q0 -37 -12.5 -68t-35 -53t-53.5 -34t-68 -12q-31 0 -68 7t-91 33l-1107 509q-24 11 -44 29t-35 40.5t-23.5 48.5t-8.5 55q0 57 32 103.5t79 69.5l1108 508q53 26 90 33.5t68 7.5q37 0 68 -12t53.5 -34
t35 -53t12.5 -68q0 -26 -5.5 -51t-20.5 -49.5t-42 -47t-71 -42.5zM1453 360q42 0 79.5 -9.5t65 -30.5t44 -55.5t16.5 -83.5q0 -50 -16.5 -84.5t-44 -56t-65 -31t-79.5 -9.5h-1136q-43 0 -80.5 9.5t-65 31t-43.5 56t-16 84.5q0 49 16 83.5t43.5 55.5t65 30.5t80.5 9.5h1136z
" />
    <glyph glyph-name="greaterequal" unicode="&#x3e;&#x3d;" horiz-adv-x="1794" 
d="M273 1597q-44 20 -71 42.5t-42 47t-20.5 49.5t-5.5 51q0 37 12.5 68t35 53t53.5 34t68 12q31 0 68 -7.5t90 -33.5l1108 -508q47 -23 79 -69.5t32 -103.5q0 -29 -8.5 -55t-23.5 -48.5t-35 -40.5t-44 -29l-1107 -509q-54 -26 -91 -33t-68 -7q-37 0 -68 12t-53.5 34t-35 53
t-12.5 68q0 25 5.5 50.5t20.5 49.5t42 46.5t71 42.5l834 366zM1477 360q43 0 80 -9.5t65 -30.5t44 -55.5t16 -83.5q0 -50 -16 -84.5t-44 -56t-65 -31t-80 -9.5h-1136q-42 0 -79.5 9.5t-65 31t-44 56t-16.5 84.5q0 49 16.5 83.5t44 55.5t65 30.5t79.5 9.5h1136z" />
    <glyph glyph-name="fongmanfunnuthai" unicode="&#xe4f;&#x22;" horiz-adv-x="2028" 
d="M1148 2441q0 35 10.5 64t30 50t47 33t61.5 12t62 -12t48 -33t30.5 -50t10.5 -64v-295q0 -35 -10.5 -64t-30.5 -50t-48 -32.5t-62 -11.5q-69 0 -109 44t-40 114v295zM707 2441q0 35 10.5 64t30 50t47.5 33t62 12t62 -12t48 -33t30.5 -50t10.5 -64v-295q0 -35 -10.5 -64
t-30.5 -50t-48 -32.5t-62 -11.5t-62 11.5t-47.5 32.5t-30 50t-10.5 64v295zM131 895q0 130 34 250t95.5 224t148 189.5t191.5 146.5t226.5 94.5t252.5 33.5q129 0 248 -33.5t223 -94.5t189 -146.5t146 -189.5t94.5 -224t33.5 -250t-33.5 -250.5t-94.5 -225t-146 -190
t-189 -146.5t-223 -94.5t-248 -33.5q-131 0 -252.5 33.5t-226.5 94.5t-191.5 146.5t-148 190t-95.5 225t-34 250.5zM577 903q0 67 18 129.5t51 117.5t79 100.5t101.5 78t119.5 50.5t133 18q100 0 189 -39.5t156 -107t106 -157.5t39 -190q0 -103 -39 -194t-106 -158.5
t-156 -106.5t-189 -39q-69 0 -133 18t-119.5 50t-101.5 77.5t-79 101t-51 119t-18 132.5zM429 903q0 -88 23 -171t65 -155.5t101 -132.5t131 -103t155.5 -66.5t174.5 -23.5q87 0 169 23.5t153 66.5t130 103t101.5 132.5t65.5 155t23 171.5q0 88 -23.5 170t-65.5 153.5
t-101 130t-130 100.5t-153 65t-169 23q-91 0 -174.5 -23t-155.5 -65t-131 -100.5t-101 -130t-65 -153.5t-23 -170zM843 903q0 -49 18 -92t49.5 -75t74.5 -50.5t94 -18.5q46 0 86.5 18.5t71 50.5t48 75t17.5 92q0 46 -17.5 87t-48 72t-71 49.5t-86.5 18.5q-51 0 -94 -18.5
t-74.5 -49.5t-49.5 -72t-18 -87z" />
    <glyph glyph-name="dochadaphinthuthai" unicode="&#xe0e;&#xe3a;" horiz-adv-x="1868" 
d="M1188 -1008q0 61 24.5 116.5t65.5 96.5t96 65.5t117 24.5q60 0 114 -24.5t95.5 -65.5t65.5 -96.5t24 -116.5q0 -60 -24 -114t-65.5 -95t-95.5 -65.5t-114 -24.5q-62 0 -117 24.5t-96 65.5t-65.5 95t-24.5 114zM1753 -319q0 -59 -22 -110t-60 -89.5t-89.5 -60.5
t-110.5 -22q-63 0 -115.5 24.5t-91.5 65.5q-48 50 -128 82t-193 32q-54 0 -99.5 -11.5t-89 -33.5t-87.5 -54.5t-94 -74.5q-24 -21 -54 -29.5t-60 -5.5t-58 17t-49 39t-29 54.5t-4.5 59t17.5 57.5t35 52q47 51 109.5 97t136 80.5t156.5 55t170 20.5q93 0 172 -15.5t134 -37.5
v1118q0 58 -10.5 118t-44 108.5t-96.5 79t-167 30.5q-82 0 -140.5 -17.5t-97.5 -44.5t-61.5 -58.5t-33.5 -59.5q26 -23 45.5 -48.5t32 -55.5t18.5 -67t6 -83v-711q0 -38 -13 -71t-36 -58t-54.5 -39t-69.5 -14h-336q-38 0 -69.5 14t-54.5 39t-35.5 58t-12.5 71t12.5 71.5
t35.5 58t54.5 39t69.5 14.5h14v540q0 42 -14.5 86t-56.5 86q-26 25 -38 47t-13.5 44.5t7 47t24.5 56.5q43 88 114 168t171 141.5t229.5 98t289.5 36.5q151 0 272 -26t214 -72.5t159.5 -110.5t108.5 -141t62 -164t20 -178z" />
    <glyph glyph-name="topatakphintuthai" unicode="&#xe0f;&#xe3a;" horiz-adv-x="1868" 
d="M1188 -1008q0 61 24.5 116.5t65.5 96.5t96 65.5t117 24.5q60 0 114 -24.5t95.5 -65.5t65.5 -96.5t24 -116.5q0 -60 -24 -114t-65.5 -95t-95.5 -65.5t-114 -24.5q-62 0 -117 24.5t-96 65.5t-65.5 95t-24.5 114zM205 905q0 42 -14.5 86t-56.5 86q-26 25 -38 47t-13.5 44.5
t7 47t24.5 56.5q43 88 114 168t171 141.5t229.5 98t289.5 36.5q151 0 272 -26t214 -72.5t159 -110.5t108 -141t62 -164t20 -178v-1402q0 -51 -22.5 -94t-59.5 -74.5t-85 -49.5t-99 -18q-27 0 -55.5 5t-54 15t-46.5 26t-33 38q-13 24 -26.5 46t-28.5 38.5t-32.5 26t-39.5 9.5
q-35 0 -61 -24.5t-40 -60.5q-22 -52 -69.5 -85.5t-107.5 -33.5q-30 0 -57.5 9t-50.5 25.5t-40.5 39t-27.5 49.5q-14 36 -37.5 60.5t-61.5 24.5q-39 0 -69.5 -26.5t-45.5 -64.5q-17 -41 -44.5 -67.5t-61 -39.5t-70.5 -12t-73 16t-61 41.5t-37.5 60t-12.5 71t15 73.5
q27 66 69.5 115t96 81t116 48t129.5 16q48 0 90.5 -11t80 -29.5t69 -44t55.5 -54.5q22 27 50.5 51t62 42t70.5 28t75 10q37 0 70 -8.5t57 -20.5v1122q0 39 -4.5 79t-16.5 77.5t-34 70t-57.5 57t-86.5 38.5t-120 14q-83 0 -141 -17.5t-97 -44.5t-61 -58.5t-33 -59.5
q26 -23 45.5 -48.5t32 -55.5t18.5 -67t6 -83v-711q0 -38 -13 -71t-36 -58t-54.5 -39t-69.5 -14h-336q-38 0 -69.5 14t-54.5 39t-35.5 58t-12.5 71t12.5 71.5t35.5 58t54.5 39t69.5 14.5h14v540z" />
    <glyph glyph-name="dochadasarauthai" unicode="&#xe0e;&#xe38;" horiz-adv-x="1868" 
d="M1753 -1288q0 -48 -18 -87t-49.5 -66t-73 -42t-89.5 -15t-90.5 15t-74 42t-49.5 66t-18 87v201h-64q-38 0 -69 14.5t-53.5 39t-35 57.5t-12.5 70t12.5 70t35 58t53.5 39t69 14h356q37 0 68.5 -14t54 -39t35 -58t12.5 -70v-382zM1753 -319q0 -59 -22 -110t-60 -89.5
t-89.5 -60.5t-110.5 -22q-63 0 -115.5 24.5t-91.5 65.5q-48 50 -128 82t-193 32q-54 0 -99.5 -11.5t-89 -33.5t-87.5 -54.5t-94 -74.5q-24 -21 -54 -29.5t-60 -5.5t-58 17t-49 39t-29 54.5t-4.5 59t17.5 57.5t35 52q47 51 109.5 97t136 80.5t156.5 55t170 20.5
q93 0 172 -15.5t134 -37.5v1118q0 58 -10.5 118t-44 108.5t-96.5 79t-167 30.5q-82 0 -140.5 -17.5t-97.5 -44.5t-61.5 -58.5t-33.5 -59.5q26 -23 45.5 -48.5t32 -55.5t18.5 -67t6 -83v-711q0 -38 -13 -71t-36 -58t-54.5 -39t-69.5 -14h-336q-38 0 -69.5 14t-54.5 39
t-35.5 58t-12.5 71t12.5 71.5t35.5 58t54.5 39t69.5 14.5h14v540q0 42 -14.5 86t-56.5 86q-26 25 -38 47t-13.5 44.5t7 47t24.5 56.5q43 88 114 168t171 141.5t229.5 98t289.5 36.5q151 0 272 -26t214 -72.5t159.5 -110.5t108.5 -141t62 -164t20 -178z" />
    <glyph glyph-name="topataksarauthai" unicode="&#xe0f;&#xe38;" horiz-adv-x="1868" 
d="M1753 -1288q0 -48 -18 -87t-49.5 -66t-73 -42t-89.5 -15t-90.5 15t-74 42t-49.5 66t-18 87v201h-64q-38 0 -69 14.5t-53.5 39t-35 57.5t-12.5 70t12.5 70t35 58t53.5 39t69 14h356q37 0 68.5 -14t54 -39t35 -58t12.5 -70v-382zM205 905q0 42 -14.5 86t-56.5 86
q-26 25 -38 47t-13.5 44.5t7 47t24.5 56.5q43 88 114 168t171 141.5t229.5 98t289.5 36.5q151 0 272 -26t214 -72.5t159 -110.5t108 -141t62 -164t20 -178v-1402q0 -51 -22.5 -94t-59.5 -74.5t-85 -49.5t-99 -18q-27 0 -55.5 5t-54 15t-46.5 26t-33 38q-13 24 -26.5 46
t-28.5 38.5t-32.5 26t-39.5 9.5q-35 0 -61 -24.5t-40 -60.5q-22 -52 -69.5 -85.5t-107.5 -33.5q-30 0 -57.5 9t-50.5 25.5t-40.5 39t-27.5 49.5q-14 36 -37.5 60.5t-61.5 24.5q-39 0 -69.5 -26.5t-45.5 -64.5q-17 -41 -44.5 -67.5t-61 -39.5t-70.5 -12t-73 16t-61 41.5
t-37.5 60t-12.5 71t15 73.5q27 66 69.5 115t96 81t116 48t129.5 16q48 0 90.5 -11t80 -29.5t69 -44t55.5 -54.5q22 27 50.5 51t62 42t70.5 28t75 10q37 0 70 -8.5t57 -20.5v1122q0 39 -4.5 79t-16.5 77.5t-34 70t-57.5 57t-86.5 38.5t-120 14q-83 0 -141 -17.5t-97 -44.5
t-61 -58.5t-33 -59.5q26 -23 45.5 -48.5t32 -55.5t18.5 -67t6 -83v-711q0 -38 -13 -71t-36 -58t-54.5 -39t-69.5 -14h-336q-38 0 -69.5 14t-54.5 39t-35.5 58t-12.5 71t12.5 71.5t35.5 58t54.5 39t69.5 14.5h14v540z" />
    <glyph glyph-name="dochadasarauuthai" unicode="&#xe0e;&#xe39;" horiz-adv-x="1868" 
d="M1311 -905q0 46 17.5 83t47.5 63t70 40.5t86 14.5t86 -14.5t70 -40.5t47.5 -63t17.5 -83v-138q0 -94 -29.5 -177.5t-93 -146t-164 -99t-241.5 -36.5q-131 0 -227 35.5t-160.5 96t-99 140t-41.5 167.5h-50q-35 0 -64.5 13.5t-50.5 36.5t-32.5 54t-11.5 66t11.5 65.5
t32.5 53.5t50.5 36.5t64.5 13.5h333q35 0 64.5 -13.5t50.5 -36.5t32.5 -53.5t11.5 -65.5v-134q0 -65 18 -98t68 -33q49 0 67.5 33t18.5 98v122zM1753 -319q0 -59 -22 -110t-60 -89.5t-89.5 -60.5t-110.5 -22q-63 0 -115.5 24.5t-91.5 65.5q-48 50 -128 82t-193 32
q-54 0 -99.5 -11.5t-89 -33.5t-87.5 -54.5t-94 -74.5q-24 -21 -54 -29.5t-60 -5.5t-58 17t-49 39t-29 54.5t-4.5 59t17.5 57.5t35 52q47 51 109.5 97t136 80.5t156.5 55t170 20.5q93 0 172 -15.5t134 -37.5v1118q0 58 -10.5 118t-44 108.5t-96.5 79t-167 30.5
q-82 0 -140.5 -17.5t-97.5 -44.5t-61.5 -58.5t-33.5 -59.5q26 -23 45.5 -48.5t32 -55.5t18.5 -67t6 -83v-711q0 -38 -13 -71t-36 -58t-54.5 -39t-69.5 -14h-336q-38 0 -69.5 14t-54.5 39t-35.5 58t-12.5 71t12.5 71.5t35.5 58t54.5 39t69.5 14.5h14v540q0 42 -14.5 86
t-56.5 86q-26 25 -38 47t-13.5 44.5t7 47t24.5 56.5q43 88 114 168t171 141.5t229.5 98t289.5 36.5q151 0 272 -26t214 -72.5t159.5 -110.5t108.5 -141t62 -164t20 -178z" />
    <glyph glyph-name="topataksarauuthai" unicode="&#xe0f;&#xe39;" horiz-adv-x="1868" 
d="M1311 -905q0 46 17.5 83t47.5 63t70 40.5t86 14.5t86 -14.5t70 -40.5t47.5 -63t17.5 -83v-138q0 -94 -29.5 -177.5t-93 -146t-164 -99t-241.5 -36.5q-131 0 -227 35.5t-160.5 96t-99 140t-41.5 167.5h-50q-35 0 -64.5 13.5t-50.5 36.5t-32.5 54t-11.5 66t11.5 65.5
t32.5 53.5t50.5 36.5t64.5 13.5h333q35 0 64.5 -13.5t50.5 -36.5t32.5 -53.5t11.5 -65.5v-134q0 -65 18 -98t68 -33q49 0 67.5 33t18.5 98v122zM205 905q0 42 -14.5 86t-56.5 86q-26 25 -38 47t-13.5 44.5t7 47t24.5 56.5q43 88 114 168t171 141.5t229.5 98t289.5 36.5
q151 0 272 -26t214 -72.5t159 -110.5t108 -141t62 -164t20 -178v-1402q0 -51 -22.5 -94t-59.5 -74.5t-85 -49.5t-99 -18q-27 0 -55.5 5t-54 15t-46.5 26t-33 38q-13 24 -26.5 46t-28.5 38.5t-32.5 26t-39.5 9.5q-35 0 -61 -24.5t-40 -60.5q-22 -52 -69.5 -85.5t-107.5 -33.5
q-30 0 -57.5 9t-50.5 25.5t-40.5 39t-27.5 49.5q-14 36 -37.5 60.5t-61.5 24.5q-39 0 -69.5 -26.5t-45.5 -64.5q-17 -41 -44.5 -67.5t-61 -39.5t-70.5 -12t-73 16t-61 41.5t-37.5 60t-12.5 71t15 73.5q27 66 69.5 115t96 81t116 48t129.5 16q48 0 90.5 -11t80 -29.5t69 -44
t55.5 -54.5q22 27 50.5 51t62 42t70.5 28t75 10q37 0 70 -8.5t57 -20.5v1122q0 39 -4.5 79t-16.5 77.5t-34 70t-57.5 57t-86.5 38.5t-120 14q-83 0 -141 -17.5t-97 -44.5t-61 -58.5t-33 -59.5q26 -23 45.5 -48.5t32 -55.5t18.5 -67t6 -83v-711q0 -38 -13 -71t-36 -58
t-54.5 -39t-69.5 -14h-336q-38 0 -69.5 14t-54.5 39t-35.5 58t-12.5 71t12.5 71.5t35.5 58t54.5 39t69.5 14.5h14v540z" />
    <glyph glyph-name=".notdef" horiz-adv-x="1151" 
d="M1176 1114v-41h16q20 0 20 29q-1 3 -4 6q-6 6 -16 6h-16zM1184 1069h-8v-37h-13v94h29q15 0 24 -6t9 -18q0 -25 -8.5 -29t-20.5 -4l29 -37h-13zM1192 1020q17 0 28.5 5.5t19 13.5t10.5 17t3 17q0 34 -16.5 50t-44.5 16t-47 -16t-19 -50q0 -22 14.5 -37.5t51.5 -15.5z
M1192 1147q34 0 52 -20t18 -54q0 -22 -18 -41.5t-52 -19.5q-37 0 -55.5 19.5t-18.5 41.5q0 34 18.5 54t55.5 20zM561 881q27 -3 63.5 -7.5t76.5 -10.5t81.5 -13.5t78.5 -16.5t65.5 -19.5t44.5 -22.5q-29 54 -75 96.5t-101.5 72t-116.5 45t-121 15.5q-48 0 -94.5 -9
t-89 -27.5t-78.5 -46.5t-62 -65q50 4 101 6.5t100 2.5h127zM1049 1102v-397q-140 40 -311.5 69t-360.5 29q-133 0 -262 -12q12 61 48.5 117.5t93.5 99.5t132 68.5t164 25.5q86 0 155 -19.5t121.5 -48.5t88 -62t53.5 -59v189h78zM426 352q0 25 -15 35t-30 10q-25 0 -37 -10
t-12 -35q0 -41 49 -41q15 0 30 10t15 31zM90 389q0 63 25.5 112.5t67 83.5t94.5 52t108 18q57 0 108.5 -15.5t90 -47.5t61.5 -80.5t23 -114.5v-323h303v565h78v-635h-533v70h82v332q0 44 -16.5 76.5t-45 53.5t-66.5 31.5t-81 10.5t-83 -12t-70.5 -35.5t-49 -57t-18.5 -76.5
v-295l164 164q-6 1 -16.5 7.5t-20.5 17t-17.5 26t-7.5 35.5q0 53 31 82t84 29q23 0 43 -8.5t35 -23.5t24 -35.5t9 -43.5q0 -18 -5.5 -33.5t-13 -26.5t-16.5 -18t-15 -8q-2 -6 -14.5 -18.5t-31.5 -30.5t-42.5 -41t-46.5 -49q-31 -28 -64 -58.5t-67 -64.5h-90v385z" />
    <glyph glyph-name=".null" 
 />
    <glyph glyph-name="nonmarkingreturn" horiz-adv-x="791" 
 />
    <glyph glyph-name="space" unicode=" " horiz-adv-x="696" 
 />
    <glyph glyph-name="exclam" unicode="!" horiz-adv-x="1186" 
d="M848 1379l-86 -700q-5 -39 -19 -65t-36 -41.5t-51 -22t-63 -6.5q-35 0 -63.5 6.5t-50.5 22t-36 41.5t-20 65l-85 700v385q0 125 67 187.5t188 62.5t188 -62.5t67 -187.5v-385zM350 204q0 50 19 94t52 77t77.5 52.5t94.5 19.5t94 -19.5t77 -52.5t52.5 -77t19.5 -94
t-19.5 -94t-52.5 -77t-77 -52.5t-94 -19.5t-94.5 19.5t-77.5 52.5t-52 77t-19 94z" />
    <glyph glyph-name="quotedbl" unicode="&#x22;" horiz-adv-x="1266" 
d="M705 1839q0 43 13 78.5t37.5 61.5t58.5 40.5t76 14.5t76 -14.5t58.5 -40.5t37.5 -61.5t13 -78.5v-408q0 -43 -13 -78.5t-37.5 -61t-58.5 -40t-76 -14.5t-76 14.5t-58.5 40t-37.5 61t-13 78.5v408zM194 1839q0 43 13.5 78.5t37.5 61.5t58.5 40.5t76.5 14.5t76 -14.5
t58.5 -40.5t37.5 -61.5t13 -78.5v-408q0 -43 -13 -78.5t-37.5 -61t-58.5 -40t-76 -14.5t-76.5 14.5t-58.5 40t-37.5 61t-13.5 78.5v408z" />
    <glyph glyph-name="numbersign" unicode="#" horiz-adv-x="1708" 
d="M738 846h215l41 286h-214zM423 1132h-88q-45 0 -76.5 13t-51 34.5t-28 48.5t-8.5 55t8.5 55.5t28 49t51 34.5t76.5 13h135l59 405q5 34 16 63t32.5 50.5t55 34t82.5 12.5q31 0 59.5 -9.5t50.5 -26.5t34.5 -42t12.5 -55q0 -14 -2 -36.5t-7 -61.5l-52 -334h220l59 405
q5 34 16 63t32 50.5t54 34t83 12.5q32 0 60.5 -9.5t50 -26.5t34 -42t12.5 -55q0 -14 -2 -36.5t-7 -61.5l-50 -334h90q43 0 73.5 -13t50 -34.5t28.5 -49t9 -55.5t-9 -55t-28.5 -48.5t-50 -34.5t-73.5 -13h-136l-42 -290h88q44 0 75.5 -13t51 -34t28.5 -48t9 -55
q0 -29 -9 -56.5t-28.5 -48.5t-51 -34t-75.5 -13h-134l-61 -406q-5 -34 -15.5 -63t-32 -50.5t-55 -33.5t-83.5 -12q-32 0 -60.5 9t-49.5 26.5t-33.5 42t-12.5 54.5q0 22 6 78q0 2 1 10t6 42t15.5 104.5t28.5 198.5h-215l-60 -406q-5 -34 -16.5 -63t-32.5 -50.5t-54.5 -33.5
t-82.5 -12q-32 0 -60.5 9t-50 26.5t-34 42t-12.5 54.5q0 8 1 21.5t3 30.5q0 4 1 9t2.5 18.5t5 37t9.5 65t15 102.5t22 149h-89q-43 0 -74 13t-50.5 34t-28.5 48.5t-9 56.5q0 28 9 55t28.5 48t50.5 34t74 13h135z" />
    <glyph glyph-name="dollar" unicode="$" horiz-adv-x="1802" 
d="M799 829q-151 30 -271 81.5t-204 125t-129 170.5t-45 218q0 147 53 258.5t142 188.5t207 119.5t247 50.5v140q0 24 8.5 46t22.5 39t33.5 27t42.5 10q22 0 42 -10t34 -27t22.5 -39t8.5 -46v-140q57 -4 127.5 -19t142.5 -41t140.5 -63t121.5 -85t85.5 -107.5t32.5 -129.5
q0 -47 -15.5 -84.5t-42.5 -63.5t-63 -39.5t-76 -13.5q-31 0 -58 12t-50 31t-43.5 43t-38.5 47q-21 28 -45.5 57t-56 53.5t-71 41.5t-90.5 22v-490q91 -21 177 -45.5t161.5 -59t138 -81.5t108 -112t70.5 -150.5t25 -196.5q0 -146 -48.5 -256.5t-137.5 -187.5t-214.5 -120.5
t-279.5 -55.5v-151q0 -23 -8.5 -45t-22.5 -39t-34 -27t-42 -10q-23 0 -42.5 10t-33.5 27t-22.5 39t-8.5 45v151q-115 5 -211.5 31t-173 67.5t-134 94.5t-96 111.5t-57.5 119.5t-19 119q0 98 52 150.5t143 52.5q58 0 95 -15.5t60.5 -41t37.5 -59t26 -70.5q12 -36 28 -72.5
t46 -67.5t78 -53t125 -28v543zM799 1702q-56 -6 -103 -26t-80.5 -49.5t-52.5 -65t-19 -73.5q0 -91 62 -148t193 -87v449zM1013 286q54 6 105.5 23.5t91.5 48t64.5 75t24.5 104.5t-26 102t-67 71t-92 47.5t-101 30.5v-502z" />
    <glyph glyph-name="percent" unicode="%" horiz-adv-x="2777" 
d="M520 1421q0 -48 5.5 -103t23.5 -102t51 -78.5t88 -31.5q54 0 87 31t51 77.5t24 102t6 104.5q0 46 -5 101t-21.5 103t-49.5 80t-88 32q-54 0 -87.5 -32t-52 -80t-25.5 -103t-7 -101zM180 1417q0 114 27 219t87.5 185.5t158.5 129t239 48.5q143 0 241 -46t158 -124.5
t86.5 -184t26.5 -223.5q0 -74 -13.5 -145.5t-41 -135.5t-69.5 -118t-99 -93.5t-129 -62t-160 -22.5q-137 0 -234 44t-158.5 121.5t-90.5 182t-29 225.5zM1921 553q0 -45 5.5 -99t22.5 -101t48.5 -79t83.5 -32q57 0 91.5 30t53 76.5t25 102t6.5 106.5q0 48 -5.5 103
t-23.5 102t-51 78.5t-88 31.5q-54 0 -87 -31.5t-51 -79t-24 -103.5t-6 -105zM1573 549q0 115 27.5 221t89 187t160 129.5t239.5 48.5q144 0 242 -46t158 -125t86 -184t26 -223q0 -112 -30 -215.5t-92.5 -183t-159.5 -127t-230 -47.5q-135 0 -232.5 44.5t-160.5 121.5
t-93 179.5t-30 219.5zM1737 1959q9 17 22 34.5t30.5 31.5t39.5 23t49 9q31 0 58 -11.5t46.5 -30.5t30.5 -42.5t11 -48.5q0 -26 -9 -53.5t-26 -57.5l-951 -1795q-9 -17 -22 -34t-30 -31t-39.5 -23t-49.5 -9q-31 0 -58 11.5t-46.5 30t-30.5 42t-11 48.5q0 26 9 53.5t26 58.5z
" />
    <glyph glyph-name="ampersand" unicode="&#x26;" horiz-adv-x="1837" 
d="M1323 765q31 42 57 85.5t46 72.5q31 43 69.5 67.5t83.5 24.5q35 0 69 -13.5t61 -36.5t43.5 -55t16.5 -68q0 -35 -16.5 -82t-43 -96.5t-60 -97.5t-68.5 -84l146 -179q42 -51 42 -119q0 -35 -14.5 -68.5t-42.5 -60t-68.5 -43t-91.5 -16.5q-26 0 -46 6t-36.5 17t-31 26
t-28.5 32l-109 128q-131 -122 -282.5 -173.5t-326.5 -51.5q-107 0 -193.5 22.5t-154 61.5t-117 92t-81.5 114.5t-47.5 128t-15.5 133.5q0 108 30.5 197.5t84.5 163t127.5 131.5t159.5 103q-35 40 -66 82t-54.5 87.5t-37.5 96.5t-14 111q0 120 44.5 212.5t119.5 155.5
t174 95.5t209 32.5q108 0 191.5 -21.5t146 -57.5t106 -84.5t70 -102.5t38.5 -110.5t12 -108.5q0 -81 -23 -154t-65 -134.5t-100.5 -112t-129.5 -86.5zM700 1537q0 -45 12.5 -81t34 -66.5t50.5 -58t62 -55.5q31 19 65.5 42.5t63 53.5t47.5 69t19 90q0 32 -13.5 61t-37.5 50.5
t-56.5 34t-70.5 12.5t-70.5 -11.5t-56 -32t-36.5 -48.5t-13 -60zM705 880q-46 -30 -87.5 -61.5t-72.5 -68.5t-49 -82t-18 -101q0 -55 23.5 -98.5t62.5 -73.5t89 -46t103 -16q48 0 93 9t84.5 25.5t73 39t59.5 48.5z" />
    <glyph glyph-name="quotesingle" unicode="'" horiz-adv-x="770" 
d="M199 1839q0 43 13.5 78.5t37.5 61.5t58.5 40.5t76.5 14.5t76 -14.5t58.5 -40.5t37.5 -61.5t13 -78.5v-408q0 -43 -13 -78.5t-37.5 -61t-58.5 -40t-76 -14.5t-76.5 14.5t-58.5 40t-37.5 61t-13.5 78.5v408z" />
    <glyph glyph-name="parenleft" unicode="(" horiz-adv-x="922" 
d="M80 751q0 228 55 467t155 478q43 101 80 173.5t69 122t60.5 79t55 45t51.5 20.5t51 5q34 0 68.5 -11t62.5 -29.5t46 -43t18 -52.5q0 -37 -20.5 -99.5t-51.5 -148.5t-66.5 -193.5t-66.5 -234.5t-51.5 -272t-20.5 -306t20.5 -306t51.5 -272t66.5 -234.5t66.5 -193.5
t51.5 -148.5t20.5 -99.5q0 -28 -18 -52.5t-46 -43t-62.5 -29.5t-68.5 -11q-26 0 -51 5t-51.5 20.5t-55 45t-60.5 78.5t-69 121.5t-80 173.5q-100 239 -155 478.5t-55 467.5z" />
    <glyph glyph-name="parenright" unicode=")" horiz-adv-x="922" 
d="M842 751q0 -228 -55 -467.5t-155 -478.5q-43 -101 -80 -173.5t-69 -121.5t-60.5 -78.5t-55 -45t-51.5 -20.5t-51 -5q-34 0 -68.5 11t-62.5 29.5t-46 43t-18 52.5q0 37 20.5 99.5t51.5 148.5t66.5 193.5t66.5 234.5t51.5 272t20.5 306t-20.5 306t-51.5 272t-66.5 234.5
t-66.5 193.5t-51.5 148.5t-20.5 99.5q0 28 18 52.5t46 43t62.5 29.5t68.5 11q26 0 51 -5t51.5 -20.5t55 -45t60.5 -79t69 -122t80 -173.5q100 -239 155 -478t55 -467z" />
    <glyph glyph-name="asterisk" unicode="*" horiz-adv-x="1188" 
d="M445 1971q0 76 38.5 117t110.5 41t110.5 -41t38.5 -117v-193l164 60q18 8 42.5 13.5t41.5 5.5q19 0 44 -9.5t48 -29t39 -49t16 -70.5q0 -51 -31 -86t-91 -54l-189 -56l132 -172q16 -21 28 -45.5t12 -53.5q0 -45 -19 -74.5t-44.5 -46t-52 -23t-41.5 -6.5q-38 0 -70 15.5
t-52 43.5l-126 188l-126 -188q-20 -28 -52 -43.5t-69 -15.5q-16 0 -42.5 6.5t-52 23t-44.5 46t-19 74.5q0 29 12 53.5t28 45.5l132 172q-48 14 -95 28t-95 28q-121 37 -121 140q0 41 16 70.5t39 49t48 29t44 9.5q17 0 41.5 -5.5t42.5 -13.5h-1l165 -59v192z" />
    <glyph glyph-name="plus" unicode="+" horiz-adv-x="1667" 
d="M651 1341q0 94 49 147.5t134 53.5t134 -53.5t49 -147.5v-369h366q96 0 148.5 -48.5t52.5 -131.5t-52.5 -131.5t-148.5 -48.5h-366v-370q0 -93 -49 -146.5t-134 -53.5t-134 53.5t-49 146.5v370h-366q-48 0 -85 15t-63 40.5t-39.5 57.5t-13.5 67q0 83 52.5 131.5
t148.5 48.5h366v369z" />
    <glyph glyph-name="comma" unicode="," horiz-adv-x="852" 
d="M157 234q0 52 20 98t54.5 80.5t80.5 54.5t98 20q71 0 126.5 -26.5t93 -73.5t57 -111.5t19.5 -139.5q0 -69 -9 -128t-27.5 -111.5t-46.5 -100.5t-66 -94q-22 -27 -55 -56.5t-70.5 -54.5t-77 -41.5t-74.5 -16.5q-30 0 -52.5 9t-38.5 24.5t-24 35.5t-8 42q0 24 9 42.5
t24.5 34t35.5 29t43 28.5t48.5 37t48.5 50.5t41.5 62.5t29.5 73q-26 -6 -54 -6q-54 0 -96 20t-71 53t-44 76t-15 90z" />
    <glyph glyph-name="hyphen" unicode="-" horiz-adv-x="1352" 
d="M1076 971q38 0 73 -9t62 -30t43.5 -55t16.5 -83q0 -50 -16.5 -84.5t-43.5 -55.5t-62 -30.5t-73 -9.5h-800q-39 0 -74 9.5t-62 30.5t-43 55.5t-16 84.5q0 49 16 83t43 55t62 30t74 9h800z" />
    <glyph glyph-name="period" unicode="." horiz-adv-x="852" 
d="M170 236q0 53 20 100t54.5 81.5t81.5 54.5t100 20t100 -20t81.5 -54.5t54.5 -81.5t20 -100t-20 -100t-54.5 -81.5t-81.5 -54.5t-100 -20t-100 20t-81.5 54.5t-54.5 81.5t-20 100z" />
    <glyph glyph-name="slash" unicode="/" horiz-adv-x="1200" 
d="M751 1937q8 21 21 45.5t35.5 46t57 35.5t86.5 14q33 0 67.5 -12.5t63 -36.5t46.5 -58t18 -77q0 -29 -8.5 -55.5t-18.5 -52.5l-670 -1700q-9 -20 -21 -44.5t-34.5 -45.5t-57 -35t-88.5 -14q-32 0 -66.5 12.5t-63 36t-46.5 57.5t-18 77q0 28 8 54.5t19 52.5z" />
    <glyph glyph-name="zero" unicode="0" horiz-adv-x="1626" 
d="M49 979q0 106 10 222.5t38.5 228.5t80.5 213t136.5 177.5t206.5 121.5t290 45q169 0 291.5 -45t207.5 -121.5t137.5 -177.5t81 -213t38.5 -228.5t10 -222.5q0 -112 -10 -230.5t-38.5 -230.5t-81 -212.5t-137.5 -175.5t-207.5 -119t-291.5 -44q-168 0 -290 44t-206.5 119
t-136.5 175.5t-80.5 212.5t-38.5 230.5t-10 230.5zM545 979q0 -56 1.5 -123t9 -135t24 -131.5t46 -112.5t74.5 -78.5t111 -29.5q67 0 112.5 29.5t75.5 78.5t46.5 112.5t24.5 131.5t9.5 135t1.5 123q0 55 -1.5 121t-9.5 133t-24.5 130t-46.5 111.5t-76 77.5t-112 29
q-65 0 -109.5 -29t-74 -77.5t-46 -111.5t-24.5 -130t-10 -133t-2 -121z" />
    <glyph glyph-name="one" unicode="1" horiz-adv-x="1626" 
d="M657 1312q-44 -22 -89 -34.5t-89.5 -19t-85.5 -8.5t-75 -2q-84 0 -124 40t-40 116q0 43 9.5 71.5t35.5 48.5t71.5 33.5t118.5 25.5q69 12 121.5 33.5t94 50t74 63.5t61.5 75q30 42 55.5 74t51 54t53.5 33t62 11q88 0 136 -37t48 -116v-1605q0 -62 -18 -107.5t-50.5 -75.5
t-77.5 -44.5t-99 -14.5q-53 0 -98 14.5t-77.5 44.5t-50.5 75.5t-18 107.5v1093z" />
    <glyph glyph-name="two" unicode="2" horiz-adv-x="1626" 
d="M1379 404q104 0 150.5 -53t46.5 -149t-46.5 -149t-150.5 -53h-1131q-46 0 -82.5 16.5t-62 44.5t-39 64t-13.5 75t8 76t29 76.5t59 84t97.5 99t144.5 121.5t201 152q104 74 179 132.5t127.5 105.5t84.5 84.5t49.5 71t23.5 64.5t6 65q0 63 -19.5 112t-56.5 83.5t-89 52.5
t-118 18q-59 0 -101.5 -19.5t-73 -51.5t-51.5 -73t-37 -84q-12 -33 -27.5 -62.5t-39 -52t-57.5 -36t-83 -13.5q-65 0 -109.5 17.5t-72 49.5t-40 76t-12.5 97q0 64 20.5 128.5t61.5 124t101.5 110.5t140.5 88.5t179.5 59t217.5 21.5q141 0 252.5 -25t196 -68.5t144 -102.5
t97 -127.5t54.5 -143.5t17 -150q0 -83 -14.5 -156t-48 -139t-88.5 -127t-136 -122l-554 -413h665z" />
    <glyph glyph-name="three" unicode="3" horiz-adv-x="1626" 
d="M1045 622q0 61 -15.5 101t-43.5 64.5t-67 36t-85 14.5q-116 12 -168 52t-52 99q0 48 14.5 80t41 51t62.5 27t78 8q41 0 79 13t67 40t46.5 69.5t17.5 101.5q0 54 -20.5 94.5t-57.5 67.5t-87.5 40.5t-110.5 13.5q-36 0 -70 -7t-67.5 -25.5t-66 -51t-64.5 -83.5
q-19 -30 -37 -50t-38 -32t-43 -17t-50 -5q-55 0 -95 20t-66.5 52t-39 72t-12.5 80q0 86 47.5 163.5t139 135.5t225 92t306.5 34q153 0 280 -37t219 -106.5t143 -168.5t51 -222q0 -67 -15.5 -131.5t-45 -119t-73.5 -95.5t-101 -62q70 -23 122.5 -64t88 -96t53.5 -120t18 -135
q0 -62 -12.5 -135t-45.5 -146t-90 -141t-146.5 -120.5t-216 -84t-296.5 -31.5q-158 0 -286 40.5t-218 106.5t-139 150.5t-49 173.5q0 54 15 99t44 77.5t70.5 50.5t94.5 18q47 0 80.5 -12t57.5 -32t40 -46t28 -54q15 -36 34.5 -69t48 -58.5t68.5 -41t96 -15.5q160 0 237 67.5
t77 208.5z" />
    <glyph glyph-name="four" unicode="4" horiz-adv-x="1626" 
d="M880 412h-619q-60 0 -102.5 21t-69 58t-38.5 87.5t-12 108.5q0 36 8 72.5t26 76t46.5 84t70.5 98.5l545 709q51 65 93.5 112t82 77t79.5 44t87 14q68 0 120.5 -19t88 -54.5t54 -86t18.5 -113.5v-902q58 0 104.5 -9t79 -31.5t50 -60t17.5 -93.5q0 -57 -17.5 -94t-50 -59
t-79 -31t-104.5 -9v-161q0 -64 -16 -115.5t-46.5 -87.5t-75 -55.5t-101.5 -19.5q-58 0 -102.5 19.5t-75 55.5t-46 87.5t-15.5 115.5v161zM880 1405l-420 -606h420v606z" />
    <glyph glyph-name="five" unicode="5" horiz-adv-x="1626" 
d="M565 1208q54 30 97.5 49t85.5 29.5t88 14.5t106 4q78 0 154.5 -15t145 -46.5t126.5 -81t100.5 -118.5t66.5 -158.5t24 -201.5q0 -126 -29 -227t-82.5 -179.5t-129 -135t-168 -93t-199.5 -54t-223 -17.5q-60 0 -129.5 6.5t-139.5 22.5t-135 42.5t-115.5 67.5t-80.5 97
t-30 131q0 52 20 93.5t54.5 70.5t80.5 45t99 16q50 0 86.5 -14t67 -35t57.5 -45t58 -45t68.5 -35t88.5 -14q70 0 122 24t86 64.5t50.5 93t16.5 109.5q0 67 -21.5 119.5t-58.5 88.5t-86 54.5t-104 18.5q-57 0 -103 -17t-93 -37.5t-100.5 -37.5t-123.5 -17q-35 0 -78 9.5
t-81 36t-64 72.5t-26 119q0 29 4.5 76t12 103.5t17.5 119.5t20.5 123.5t21 115.5t19.5 97q14 70 35.5 116t56 73.5t84.5 38.5t121 11h723q119 0 172 -45t54 -126q0 -36 -10 -68.5t-34 -57t-64 -39.5t-99 -15h-612z" />
    <glyph glyph-name="six" unicode="6" horiz-adv-x="1626" 
d="M1111 620q0 71 -20 129t-56 99.5t-87 64t-113 22.5q-65 0 -116.5 -27t-87.5 -71.5t-55.5 -101t-19.5 -115.5q0 -61 19.5 -118t55.5 -101t87.5 -70.5t116.5 -26.5q63 0 114 26.5t87 70.5t55.5 101t19.5 118zM40 953q0 149 20 283t63.5 248.5t110.5 206.5t161.5 156.5
t217 99.5t275.5 35q42 0 101.5 -6t124 -21t128 -39.5t114 -60.5t82 -85.5t31.5 -114.5q0 -45 -13.5 -80.5t-38 -61t-58 -39t-73.5 -13.5q-111 0 -191 64q-23 19 -48.5 38.5t-54 35.5t-59.5 26t-65 10q-98 0 -161 -39.5t-100 -109t-53 -164t-20 -203.5q54 46 113 77
t116.5 49.5t112 26t99.5 7.5q137 0 249.5 -45.5t193 -131t124.5 -208.5t44 -277q0 -142 -46 -261t-137.5 -204.5t-228.5 -133.5t-320 -48q-190 0 -341 64.5t-256 189.5t-161 308.5t-56 420.5z" />
    <glyph glyph-name="seven" unicode="7" horiz-adv-x="1626" 
d="M281 1550q-108 0 -162.5 55t-54.5 149t54.5 147.5t162.5 53.5h1033q58 0 103 -11.5t76.5 -38t48 -68.5t16.5 -103q0 -38 -12.5 -75t-41 -81.5t-74.5 -102t-112 -137.5q-29 -35 -66.5 -95.5t-77.5 -138.5t-80.5 -171t-75 -194.5t-61.5 -207t-40 -209.5
q-16 -124 -44.5 -195t-67 -107t-86 -45.5t-101.5 -9.5q-41 0 -79.5 15t-69.5 45t-49.5 74t-18.5 102q0 69 18 155t49.5 182t74 198t91.5 202t102 194t105 174.5t101.5 143t90.5 100.5h-752z" />
    <glyph glyph-name="eight" unicode="8" horiz-adv-x="1626" 
d="M119 1438q0 96 27.5 174t75 139t113 105.5t141 73.5t158 43t165.5 14q175 0 306.5 -42.5t219 -117t131 -174.5t43.5 -215q0 -112 -43.5 -206.5t-124.5 -162.5q118 -77 184 -196t66 -271q0 -158 -59 -277t-161.5 -198.5t-241 -119.5t-296.5 -40q-161 0 -302 38t-246 116.5
t-165.5 198t-60.5 282.5q0 155 57 270.5t181 192.5q-84 71 -126 169t-42 204zM598 1425q0 -52 15 -94.5t44 -72.5t70.5 -46t95.5 -16q48 0 84.5 18t61.5 49t38 72.5t13 89.5q0 49 -16 88.5t-44 67t-66 42.5t-83 15q-48 0 -87 -16t-67 -44.5t-43.5 -67.5t-15.5 -85zM532 598
q0 -63 20.5 -115t59 -89.5t92 -58t119.5 -20.5q61 0 111.5 23.5t85.5 63.5t54.5 91.5t19.5 108.5q0 52 -19.5 102t-55 89.5t-86.5 63.5t-114 24q-68 0 -121 -23t-90 -61.5t-56.5 -90t-19.5 -108.5z" />
    <glyph glyph-name="nine" unicode="9" horiz-adv-x="1626" 
d="M515 1332q0 -71 20 -129t56 -99.5t87 -64t113 -22.5q65 0 116.5 27t87.5 71.5t55.5 101t19.5 115.5q0 61 -19.5 118t-55.5 101t-87.5 70.5t-116.5 26.5q-63 0 -114 -26.5t-87 -70.5t-55.5 -101t-19.5 -118zM1586 999q0 -149 -20 -283t-63.5 -248.5t-110.5 -206.5
t-161.5 -156.5t-217 -99.5t-275.5 -35q-42 0 -101.5 6t-124 21t-128 39.5t-114 60.5t-82 85.5t-31.5 114.5q0 45 13.5 80.5t38 61t58 39t73.5 13.5q111 0 191 -64q23 -19 48.5 -38.5t54 -35.5t59.5 -26t65 -10q98 0 161 38t100 105.5t53 160t20 202.5q-64 -59 -124 -89.5
t-115.5 -44t-106 -15t-95.5 -1.5q-137 0 -249.5 45.5t-193 131t-124.5 208t-44 277.5q0 142 45.5 261t137 204.5t229 133.5t320.5 48q190 0 341 -64.5t256 -189.5t161 -308.5t56 -420.5z" />
    <glyph glyph-name="colon" unicode=":" horiz-adv-x="852" 
d="M170 236q0 53 20 100t54.5 81.5t81.5 54.5t100 20t100 -20t81.5 -54.5t54.5 -81.5t20 -100t-20 -100t-54.5 -81.5t-81.5 -54.5t-100 -20t-100 20t-81.5 54.5t-54.5 81.5t-20 100zM170 1219q0 53 20 100t54.5 81.5t81.5 54.5t100 20t100 -20t81.5 -54.5t54.5 -81.5
t20 -100t-20 -100t-54.5 -81.5t-81.5 -54.5t-100 -20t-100 20t-81.5 54.5t-54.5 81.5t-20 100z" />
    <glyph glyph-name="semicolon" unicode=";" horiz-adv-x="852" 
d="M170 1219q0 53 20 100t54.5 81.5t81.5 54.5t100 20t100 -20t81.5 -54.5t54.5 -81.5t20 -100t-20 -100t-54.5 -81.5t-81.5 -54.5t-100 -20t-100 20t-81.5 54.5t-54.5 81.5t-20 100zM157 234q0 52 20 98t54.5 80.5t80.5 54.5t98 20q71 0 126.5 -26.5t93 -73.5t57 -111.5
t19.5 -139.5q0 -69 -9 -128t-27.5 -111.5t-46.5 -100.5t-66 -94q-22 -27 -55 -56.5t-70.5 -54.5t-77 -41.5t-74.5 -16.5q-30 0 -52.5 9t-38.5 24.5t-24 35.5t-8 42q0 24 9 42.5t24.5 34t35.5 29t43 28.5t48.5 37t48.5 50.5t41.5 62.5t29.5 73q-26 -6 -54 -6q-54 0 -96 20
t-71 53t-44 76t-15 90z" />
    <glyph glyph-name="less" unicode="&#x3c;" horiz-adv-x="1794" 
d="M605 821l964 -423q47 -20 74.5 -42t42 -45.5t19 -48.5t4.5 -51q0 -36 -12.5 -65.5t-34 -51t-51.5 -33.5t-66 -12q-32 0 -71 7t-95 35l-1216 560q-48 22 -79.5 67.5t-31.5 102.5t31.5 102.5t79.5 67.5l1216 559q56 28 95 35.5t71 7.5q36 0 66 -12t51.5 -33t34 -51
t12.5 -66q0 -26 -4.5 -51t-19 -49t-42 -46.5t-74.5 -43.5z" />
    <glyph glyph-name="equal" unicode="=" horiz-adv-x="1667" 
d="M1392 1250q96 0 148.5 -49.5t52.5 -132.5t-52.5 -133t-148.5 -50h-1118q-48 0 -85 15.5t-63 41.5t-39.5 58.5t-13.5 67.5q0 83 52.5 132.5t148.5 49.5h1118zM1392 695q96 0 148.5 -49t52.5 -132t-52.5 -132.5t-148.5 -49.5h-1118q-48 0 -85 15.5t-63 41t-39.5 58
t-13.5 67.5q0 83 52.5 132t148.5 49h1118z" />
    <glyph glyph-name="greater" unicode="&#x3e;" horiz-adv-x="1794" 
d="M225 1241q-47 21 -74.5 43.5t-42 46.5t-19 49t-4.5 51q0 36 12.5 66t34 51t51.5 33t66 12q32 0 71 -7.5t95 -35.5l1216 -559q48 -22 79.5 -67.5t31.5 -102.5t-31.5 -102.5t-79.5 -67.5l-1216 -560q-56 -28 -95 -35t-71 -7q-36 0 -66 12t-51.5 33.5t-34 51t-12.5 65.5
q0 26 4.5 51t19 48.5t42 45.5t74.5 42l964 423z" />
    <glyph glyph-name="question" unicode="?" horiz-adv-x="1544" 
d="M100 1510q0 71 25 139t69.5 128t106 110.5t134.5 87t155 56.5t168 20q90 0 177.5 -14.5t167 -45t146.5 -77.5t116.5 -112t77 -148t27.5 -186q0 -100 -34 -179t-86 -142.5t-114.5 -113.5t-119.5 -92q-47 -35 -84 -64t-55 -57q-14 -20 -23 -41.5t-17 -42.5
q-12 -31 -24.5 -60t-34.5 -51.5t-56 -36t-88 -13.5q-50 0 -87.5 19t-62 49t-36.5 68t-12 76q0 68 23.5 124.5t61 104.5t84.5 89t94 78q40 31 77.5 63.5t67 67t47.5 72.5t18 82q0 102 -62 158.5t-172 56.5q-64 0 -106 -16.5t-69.5 -43.5t-45.5 -60.5t-33 -67.5
q-15 -35 -32 -67.5t-41.5 -57.5t-59.5 -40t-87 -15q-40 0 -76.5 12.5t-64 37t-44 61t-16.5 84.5zM498 211q0 51 19.5 96t53 78.5t78.5 53t96 19.5t96 -19.5t78.5 -53t53 -78.5t19.5 -96t-19.5 -96t-53 -78.5t-78.5 -53t-96 -19.5t-96 19.5t-78.5 53t-53 78.5t-19.5 96z" />
    <glyph glyph-name="at" unicode="@" horiz-adv-x="2384" 
d="M933 968q0 -60 17 -106t46.5 -77.5t70.5 -48t89 -16.5q60 0 109.5 24t85 66t55.5 99.5t20 124.5q0 53 -14 97.5t-41 76.5t-67 49.5t-92 17.5q-61 0 -112 -25t-88 -67t-58 -98t-21 -117zM1678 867l-5 -22.5t-5.5 -28t-4.5 -28t-2 -21.5q0 -26 11.5 -40.5t40.5 -14.5
q38 0 81.5 24.5t80 77t61 133.5t24.5 194q0 169 -55 298.5t-153.5 217.5t-234.5 133t-297 45q-107 0 -206 -28.5t-185 -81t-156 -125.5t-120 -162.5t-77.5 -192.5t-27.5 -214q0 -186 61 -333.5t168.5 -250t253 -157.5t314.5 -55q104 0 183 13.5t137.5 34t101 44.5t74 44.5
t56 34t48.5 13.5q21 0 40 -9t33.5 -24t23 -35t8.5 -42q0 -38 -32.5 -76.5t-87.5 -74.5t-127 -67.5t-150 -55.5t-158 -37.5t-150 -13.5q-150 0 -290 35t-262 100.5t-222.5 158.5t-172 209.5t-111 253.5t-39.5 290q0 151 38.5 287.5t109 254t169 212.5t218.5 161.5t258 103
t287 36.5q133 0 258.5 -25t236 -75.5t202.5 -127t158 -180t102.5 -234t36.5 -289.5q0 -142 -34.5 -251t-92 -190.5t-132 -137.5t-154 -90.5t-159 -50t-146.5 -16.5q-162 -3 -167 142h-5q-51 -59 -122 -95.5t-168 -36.5q-89 0 -164 41t-129.5 111t-85.5 162.5t-31 196.5
q0 144 44 261.5t117.5 200.5t169.5 128.5t200 45.5q63 0 115 -9t94 -28t76 -50t61 -74l9 37q8 33 23 52.5t33.5 30.5t38.5 14.5t39 3.5q25 0 47.5 -8t39 -23t26.5 -37.5t10 -51.5q0 -12 -2.5 -32t-8.5 -49z" />
    <glyph glyph-name="A" unicode="A" horiz-adv-x="1840" 
d="M1212 401h-585l-77 -260q-12 -42 -39 -71t-61.5 -47.5t-73.5 -27t-76 -8.5q-52 0 -101 19t-87.5 52t-61.5 79t-23 100q0 33 9 76t23 90t31.5 97t35.5 98l400 1149q22 61 49.5 108t62.5 78.5t80.5 48t104.5 16.5h195q58 0 103.5 -16.5t80.5 -48t62.5 -78.5t49.5 -108
l401 -1149q17 -48 34.5 -98t31.5 -97t22.5 -90t8.5 -76q0 -54 -23 -100t-61 -79t-87 -52t-101 -19q-36 0 -75.5 8.5t-74 27t-62 47.5t-39.5 71zM733 759h374l-183 622h-7z" />
    <glyph glyph-name="B" unicode="B" horiz-adv-x="1946" 
d="M1064 1200q55 0 97.5 16t71.5 42.5t44 61t15 70.5q0 106 -54 165t-174 59h-396v-414h396zM143 1644q0 93 19 160t58 109.5t98 63t139 20.5h695q186 0 310.5 -40t200 -106.5t107.5 -154t32 -183.5q0 -74 -8.5 -139t-38.5 -120.5t-88 -99.5t-158 -74q111 -29 183.5 -78.5
t115.5 -115.5t60 -145.5t17 -168.5q0 -119 -41.5 -223.5t-126.5 -181.5t-215 -121.5t-306 -44.5h-739q-161 0 -237.5 84t-76.5 270v1289zM1069 385q66 0 119.5 15t91.5 45t59 76t21 108q0 55 -21 96.5t-59 69.5t-91.5 42t-119.5 14h-401v-466h401z" />
    <glyph glyph-name="C" unicode="C" horiz-adv-x="2009" 
d="M93 1002q0 174 39 319.5t107.5 261.5t163.5 202.5t207 144t237.5 86.5t254.5 29q114 0 219 -21t196 -57.5t165.5 -87.5t127.5 -110.5t82 -126t29 -135.5q0 -50 -13 -92.5t-38.5 -74t-63.5 -49.5t-88 -20q-37 -2 -71.5 4t-67.5 22.5t-64 46.5t-59 78q-37 61 -79.5 100.5
t-90.5 63t-102.5 32.5t-114.5 9q-89 0 -169 -41t-141 -120.5t-97 -196t-36 -267.5q0 -140 31 -255t91.5 -197.5t149 -127.5t204.5 -45q52 0 96.5 9t88 35.5t89 73.5t100.5 124q38 57 88 87.5t109 30.5q54 0 100 -17.5t80.5 -49.5t54 -76t19.5 -98q0 -83 -37 -155.5
t-100 -132t-146.5 -106t-175 -79t-186 -49t-180.5 -16.5q-131 0 -256.5 27t-238 83t-206.5 141t-162.5 201t-107 264t-38.5 328z" />
    <glyph glyph-name="D" unicode="D" horiz-adv-x="1999" 
d="M141 1651q0 182 77 265t238 83h543q158 0 287 -35.5t230 -100.5t175.5 -156t123.5 -202t72.5 -239t23.5 -267t-23.5 -267t-72.5 -239.5t-123.5 -202.5t-175.5 -156t-230 -100.5t-287 -35.5h-543q-161 0 -238 83t-77 266v1304zM858 419q154 0 253 39t156.5 113t80 182
t22.5 246t-22.5 245.5t-80 181.5t-156.5 112.5t-253 38.5h-193v-1158h193z" />
    <glyph glyph-name="E" unicode="E" horiz-adv-x="1737" 
d="M142 1649q0 183 76.5 266t235.5 83h1020q58 0 99.5 -14t67.5 -39.5t38 -61t12 -78.5t-12 -78.5t-38 -61t-67.5 -39.5t-99.5 -14h-810v-401h664q58 0 99.5 -14t67 -39.5t37.5 -61t12 -78.5t-12 -79t-37.5 -61.5t-67 -39.5t-99.5 -14h-664v-440h841q58 0 99 -14t67 -39.5
t38 -61t12 -78.5t-12 -78.5t-38 -61t-67 -39.5t-99 -14h-1051q-159 0 -235.5 83t-76.5 266v1302z" />
    <glyph glyph-name="F" unicode="F" horiz-adv-x="1634" 
d="M1305 1200q45 0 76.5 -16.5t52 -44t30 -63.5t9.5 -74q0 -39 -9.5 -75t-30 -64t-52 -44.5t-76.5 -16.5h-640v-537q0 -143 -68.5 -215t-192.5 -72t-192.5 72t-68.5 215v1392q0 91 19 156t57 106t96.5 60.5t137.5 19.5h918q74 0 120.5 -17t73 -45.5t36 -65.5t9.5 -77
t-9.5 -77.5t-36 -67t-73 -47t-120.5 -17.5h-706v-385h640z" />
    <glyph glyph-name="G" unicode="G" horiz-adv-x="2150" 
d="M1326 728q-27 0 -55 14t-51.5 38.5t-38.5 58t-15 73.5q0 44 14 81.5t38.5 65t58.5 43t75 15.5h394q60 0 107 -20.5t80 -56t50 -83t17 -102.5v-670q0 -41 -7.5 -81t-27 -72t-53.5 -51.5t-86 -19.5q-38 0 -68 12.5t-51 33.5t-32.5 49t-11.5 59v161q-56 -83 -133 -142.5
t-162.5 -98t-173.5 -56.5t-166 -18q-107 0 -217.5 21.5t-214.5 70.5t-195.5 128.5t-159.5 195.5t-107.5 271t-39.5 356q0 189 41.5 339.5t113 267t166.5 199.5t202.5 136t221 78t221.5 25q153 0 270 -23t203.5 -60.5t144.5 -85t93.5 -97.5t50.5 -97.5t15 -84.5
q0 -41 -16.5 -83.5t-49.5 -77t-81 -57t-111 -22.5q-28 0 -51 8.5t-43.5 22.5t-39 32.5t-36.5 38.5q-27 30 -57 60t-68 53.5t-87 38.5t-114 15q-92 0 -173 -35t-141.5 -111.5t-95.5 -197t-35 -292.5q0 -146 22 -261.5t75.5 -195.5t144 -122.5t227.5 -42.5q151 0 258.5 91.5
t156.5 264.5h-196z" />
    <glyph glyph-name="H" unicode="H" horiz-adv-x="2048" 
d="M1381 1750q0 135 68 202t191 67q124 0 195 -67.5t71 -201.5v-1505q0 -135 -71 -202.5t-195 -67.5q-123 0 -191 67t-68 203v604h-714v-604q0 -135 -69.5 -202.5t-192.5 -67.5q-122 0 -192.5 67.5t-70.5 202.5v1505q0 134 70.5 201.5t192.5 67.5q124 0 193 -67t69 -202
v-509h714v509z" />
    <glyph glyph-name="I" unicode="I" horiz-adv-x="852" 
d="M688 245q0 -135 -69.5 -202.5t-192.5 -67.5q-122 0 -192.5 67.5t-70.5 202.5v1505q0 134 70.5 201.5t192.5 67.5q124 0 193 -67t69 -202v-1505z" />
    <glyph glyph-name="J" unicode="J" horiz-adv-x="1528" 
d="M861 1758q0 134 69.5 201t192.5 67q124 0 193.5 -67t69.5 -201v-1189q0 -104 -28.5 -188.5t-79 -151t-119 -114.5t-148 -79.5t-167 -47t-175.5 -15.5q-154 0 -280 43.5t-215.5 118t-138.5 174t-49 212.5q0 65 14.5 117t45 88t78 55.5t113.5 19.5q42 0 80 -12.5t67.5 -37
t47 -62.5t17.5 -89q0 -63 15.5 -110t43 -78.5t64.5 -47t79 -15.5q48 0 87 16t66.5 55t42 105t14.5 167v1066z" />
    <glyph glyph-name="K" unicode="K" horiz-adv-x="1892" 
d="M1251 1845q40 45 72 78.5t61 56t56.5 33.5t58.5 11q85 0 140.5 -36.5t75.5 -94.5t3 -129.5t-76 -140.5l-342 -402l498 -822q23 -39 39 -81t16 -86q0 -54 -23 -100.5t-60.5 -80t-86 -53t-100.5 -19.5q-31 0 -60 5.5t-56.5 19.5t-53 38t-47.5 61l-461 757l-236 -271v-326
q0 -141 -70 -212.5t-192 -71.5t-193 71.5t-71 212.5v1476q0 71 18.5 124.5t52.5 89t83 53.5t110 18q122 0 192 -71.5t70 -213.5v-565z" />
    <glyph glyph-name="L" unicode="L" horiz-adv-x="1585" 
d="M1378 416q100 0 157 -54t57 -153q0 -100 -57 -154t-157 -54h-923q-160 0 -236.5 78t-76.5 252v1417q0 138 69.5 206t194.5 68t194 -68t69 -206v-1332h709z" />
    <glyph glyph-name="M" unicode="M" horiz-adv-x="2482" 
d="M1571 1739q22 66 48.5 114.5t64 80.5t90 48t126.5 16h115q80 0 140.5 -25t101.5 -69.5t61.5 -106.5t20.5 -137v-1406q0 -140 -69 -203.5t-193 -63.5q-126 0 -194.5 63.5t-68.5 203.5v710l10 330l-65 -320l-273 -814q-13 -50 -32 -83t-48 -53t-69.5 -28.5t-96.5 -8.5
t-95.5 8.5t-68 29t-47.5 53.5t-33 82l-279 817l-60 313l10 -325v-711q0 -140 -68 -203.5t-194 -63.5q-62 0 -111 15.5t-82.5 48t-51 83t-17.5 120.5v1406q0 75 20.5 137t61.5 106.5t101 69.5t140 25h116q74 0 126 -14t89.5 -45t64 -80.5t49.5 -119.5l327 -963h6z" />
    <glyph glyph-name="N" unicode="N" horiz-adv-x="2060" 
d="M1392 1749q0 59 18 108.5t51.5 85.5t82 56t110.5 20q61 0 110 -20t82.5 -56t51.5 -85.5t18 -108.5v-1503q0 -69 -25 -119t-68 -82.5t-100.5 -48.5t-123.5 -16q-56 0 -100 9.5t-83 34.5t-76 68.5t-78 111.5l-594 991v-932q0 -137 -67.5 -210t-194.5 -73t-194.5 73
t-67.5 210v1464q0 139 79.5 215.5t236.5 76.5q100 0 174.5 -40t127.5 -129l630 -1072v971z" />
    <glyph glyph-name="O" unicode="O" horiz-adv-x="2154" 
d="M41 999q0 140 27.5 272.5t83.5 248.5t141 212.5t199.5 165.5t259.5 107.5t321 38.5t322 -38.5t261.5 -108.5t201.5 -166.5t143 -213t85 -248t28 -270.5q0 -141 -28 -273t-84.5 -247t-142 -210t-201.5 -163t-262 -105.5t-323 -37.5q-176 0 -321 38t-259.5 106
t-199.5 163.5t-141 210.5t-83.5 246.5t-27.5 271.5zM557 999q0 -77 12.5 -153t39.5 -145t68 -128t98.5 -102.5t131.5 -68.5t166 -25q94 0 169.5 25t134 68.5t100 102.5t68.5 128t39.5 145t12.5 153t-12.5 153.5t-39.5 146t-68.5 129.5t-100 104t-134 69t-169.5 25
q-92 0 -166 -25t-131.5 -69t-98.5 -104t-68 -129.5t-39.5 -146t-12.5 -153.5z" />
    <glyph glyph-name="P" unicode="P" horiz-adv-x="1843" 
d="M132 1673q0 171 76 248.5t234 77.5h551q114 0 218 -12.5t194.5 -41.5t164 -76.5t125.5 -118t80.5 -165.5t28.5 -219t-28.5 -218.5t-80.5 -164.5t-125.5 -117.5t-164 -76.5t-194.5 -41.5t-218 -12.5h-346v-489q0 -135 -66.5 -202t-191.5 -67t-191 67t-66 202v1427z
M1025 1112q48 0 95.5 15.5t85 46.5t61 78.5t23.5 110.5q0 124 -77.5 191t-217.5 67h-348v-509h378z" />
    <glyph glyph-name="Q" unicode="Q" horiz-adv-x="2154" 
d="M1557 55q-102 -45 -222.5 -68.5t-261.5 -23.5q-176 0 -321 38t-259.5 106t-199.5 163.5t-141 210.5t-83.5 246.5t-27.5 271.5t27.5 272.5t83.5 248.5t141 212.5t199.5 165.5t259.5 107.5t321 38.5t322 -38.5t261.5 -108.5t201.5 -166.5t143 -213t85 -248t28 -270.5
q0 -197 -53.5 -372t-163.5 -314l115 -93q34 -27 51.5 -62t20 -73t-10 -77t-39.5 -73q-27 -33 -62 -53.5t-72.5 -26.5t-75.5 3.5t-72 36.5zM557 999q0 -77 12.5 -153t39.5 -145t68 -128t98.5 -102.5t131.5 -68.5t166 -25q45 0 87 6l-51 42q-33 27 -50.5 61.5t-19.5 72
t10 75.5t39 72q26 33 60.5 53.5t71.5 26t74.5 -4t70.5 -35.5l145 -119q45 82 66 177.5t21 194.5q0 77 -12.5 153.5t-39.5 146t-68.5 129.5t-100 104t-134 69t-169.5 25q-92 0 -166 -25t-131.5 -69t-98.5 -104t-68 -129.5t-39.5 -146t-12.5 -153.5z" />
    <glyph glyph-name="R" unicode="R" horiz-adv-x="1946" 
d="M149 1655q0 90 19.5 155t60.5 107t105 62t154 20h703q169 0 292 -43.5t203 -117t118.5 -171.5t38.5 -207q0 -92 -18 -175.5t-62 -151.5t-117 -118t-182 -75q93 -11 156.5 -40t103.5 -70t59.5 -90t23.5 -100q7 -88 15.5 -159.5t16 -128.5t12.5 -100t5 -73
q0 -48 -20.5 -85.5t-53.5 -64t-74.5 -40t-83.5 -13.5q-60 0 -112 13.5t-92 42.5t-65.5 74.5t-32.5 110.5l-30 275q-9 77 -36.5 128t-70 82t-99 43.5t-122.5 12.5h-298v-487q0 -143 -66 -219t-193 -76q-126 0 -192 76t-66 219v1384zM1034 1088q82 0 141 15t96 46t54.5 79
t17.5 114q0 67 -17.5 116t-54.5 80.5t-96 46.5t-141 15h-368v-512h368z" />
    <glyph glyph-name="S" unicode="S" horiz-adv-x="1843" 
d="M1217 549q0 42 -15.5 73.5t-44 56t-68 42.5t-88.5 33l-437 130q-229 66 -350 200.5t-121 335.5q0 80 18.5 158t57 147.5t98 128t142.5 101t190.5 66.5t240.5 24q89 0 184.5 -7.5t187 -25.5t173.5 -47t144 -73t98 -103t36 -137q0 -48 -15.5 -88.5t-44.5 -68.5t-71 -42
t-94 -11q-60 4 -105.5 30.5t-85.5 64.5q-31 28 -64.5 56.5t-76.5 51.5t-98.5 37.5t-130.5 14.5q-52 0 -100 -11.5t-85 -35t-59 -60t-22 -85.5q0 -48 17 -82t50 -59.5t81 -45t110 -36.5l340 -93q119 -34 218.5 -81.5t171.5 -115.5t112.5 -160.5t40.5 -215.5q0 -115 -31 -209
t-86 -167t-130.5 -126.5t-164.5 -88.5t-187.5 -52t-200.5 -17q-163 0 -289 21.5t-221 57.5t-160 83t-105 97t-58 100t-18 92q0 49 17 89.5t47 69.5t71.5 45t89.5 16q32 0 59.5 -10t52 -26.5t47.5 -38t47 -45.5q33 -33 69 -66.5t80.5 -60t100.5 -43t130 -16.5
q60 0 115.5 12.5t97.5 39.5t67 70.5t25 105.5z" />
    <glyph glyph-name="T" unicode="T" horiz-adv-x="1642" 
d="M210 1588q-54 0 -91.5 15t-61 42t-34 65t-10.5 84q0 45 11.5 83t37 65t67.5 42t104 15h1175q61 0 103.5 -15t68 -42t37 -65t11.5 -83q0 -46 -10.5 -84t-34 -65t-61 -42t-91.5 -15h-354v-1342q0 -135 -70.5 -202.5t-193.5 -67.5t-193 67.5t-70 202.5v1342h-340z" />
    <glyph glyph-name="U" unicode="U" horiz-adv-x="2073" 
d="M1399 1749q0 67 18.5 117.5t53 84.5t83 50.5t109.5 16.5t109.5 -16.5t83 -50.5t53 -84.5t18.5 -117.5v-1021q0 -209 -67.5 -353.5t-187 -234t-282.5 -129.5t-355 -40q-191 0 -354 40t-282 129.5t-186 234t-67 353.5v1021q0 135 71 202t193 67q61 0 109.5 -16.5
t82.5 -50.5t52.5 -84.5t18.5 -117.5v-1015q0 -88 20.5 -160t64.5 -123t112.5 -78.5t164.5 -27.5t165 27.5t113 78.5t65 123t21 160v1015z" />
    <glyph glyph-name="V" unicode="V" horiz-adv-x="1876" 
d="M1312 1845q15 48 42.5 83.5t62.5 58t73.5 33t75.5 8.5q88 -5 144 -38t82.5 -85.5t25.5 -120t-27 -142.5l-500 -1446q-24 -69 -54.5 -113t-72.5 -68.5t-97.5 -33.5t-128.5 -9t-128.5 9t-97.5 33.5t-72.5 68.5t-54.5 113l-499 1445q-26 76 -28 144t24 120.5t82 85t145 37.5
q37 2 75 -5.5t71.5 -28.5t61 -57t45.5 -91l384 -1210z" />
    <glyph glyph-name="W" unicode="W" horiz-adv-x="2728" 
d="M2172 1812q14 57 39 97.5t58.5 66.5t74.5 38t86 12q53 0 101 -22.5t81.5 -60t48 -87t0.5 -102.5l-410 -1534q-14 -54 -37.5 -99.5t-57 -78.5t-77.5 -51.5t-101 -18.5h-96q-116 0 -181 65.5t-93 187.5l-240 1038l-239 -1038q-28 -122 -93.5 -187.5t-181.5 -65.5h-96
q-57 0 -101 18.5t-77.5 51.5t-56.5 78.5t-37 99.5l-418 1546q-15 56 0.5 104t51 82.5t85 54t102.5 19.5q45 0 86 -12t74.5 -38t58.5 -66.5t39 -97.5l290 -1125l243 1087q15 68 33.5 116t48 78t74.5 44t114 14t114.5 -14t75.5 -44.5t48.5 -79t33.5 -116.5l242 -1098z" />
    <glyph glyph-name="X" unicode="X" horiz-adv-x="1786" 
d="M165 1640q-27 41 -39.5 76.5t-12.5 69.5q0 55 20.5 100t55 77t79 49t92.5 17q30 0 60.5 -7.5t59 -22t53 -36t42.5 -50.5l318 -488l319 488q18 29 42.5 50.5t53 36t59 22t60.5 7.5q48 0 93 -17t79 -49t54.5 -77t20.5 -100q0 -33 -12 -68.5t-39 -76.5l-419 -606l459 -672
q49 -76 57 -148t-19 -128t-86.5 -90t-144.5 -34q-74 0 -134.5 40t-104.5 111l-338 517l-338 -518q-43 -71 -104 -110.5t-135 -39.5q-83 0 -141.5 34t-86.5 90t-21 128t57 148l457 671z" />
    <glyph glyph-name="Y" unicode="Y" horiz-adv-x="1824" 
d="M1265 1856q41 83 105 123.5t143 40.5q54 0 100 -20.5t80 -55t53 -79.5t19 -93q0 -42 -18.5 -86t-54.5 -106l-515 -870v-456q0 -136 -71.5 -208t-194.5 -72q-61 0 -110 18.5t-83 54t-52.5 87.5t-18.5 120v456l-515 870q-36 62 -54.5 106t-18.5 86q0 48 19 93t52.5 79.5
t79.5 55t100 20.5q81 0 144.5 -40.5t103.5 -123.5l353 -694z" />
    <glyph glyph-name="Z" unicode="Z" horiz-adv-x="1802" 
d="M1529 400q119 0 174.5 -50.5t55.5 -149.5q0 -98 -55.5 -149t-174.5 -51h-1223q-68 0 -118 18t-82.5 49.5t-48 73.5t-15.5 90q0 33 10 63t30.5 63.5t51 74.5t72.5 96l860 1071h-728q-66 0 -112.5 14t-76 40.5t-43.5 63.5t-14 82t14 82t43.5 63t76 40.5t112.5 14.5h1150
q63 0 108.5 -18t75.5 -49.5t44 -73.5t14 -90q0 -29 -7 -55t-21.5 -53t-36 -58t-51.5 -70l-914 -1132h829z" />
    <glyph glyph-name="bracketleft" unicode="[" horiz-adv-x="938" 
d="M610 -233h114q48 0 88.5 -11t69 -34.5t44.5 -61t16 -90.5q0 -54 -16 -91.5t-44.5 -61t-69 -34t-88.5 -10.5h-303q-53 0 -102.5 11.5t-87.5 43t-61.5 86.5t-23.5 143v2191q0 88 23.5 143t61.5 86.5t87.5 43t102.5 11.5h303q48 0 88.5 -10.5t69 -34t44.5 -61t16 -91.5
t-16 -91.5t-44.5 -61t-69 -34t-88.5 -10.5h-114v-1971z" />
    <glyph glyph-name="backslash" unicode="\" horiz-adv-x="1200" 
d="M1119 237q11 -26 19 -52.5t8 -54.5q0 -43 -18 -77t-46.5 -57.5t-63 -36t-66.5 -12.5q-54 0 -88.5 14t-57 35t-34.5 45.5t-21 44.5l-670 1700q-10 26 -18.5 52.5t-8.5 55.5q0 43 18 77t46.5 58t63 36.5t67.5 12.5q52 0 86.5 -14t57 -35.5t35.5 -46t21 -45.5z" />
    <glyph glyph-name="bracketright" unicode="]" horiz-adv-x="938" 
d="M328 1738h-114q-48 0 -88.5 10.5t-69 34t-44.5 61t-16 91.5t16 91.5t44.5 61t69 34t88.5 10.5h303q52 0 102 -11.5t88 -43t61.5 -86.5t23.5 -143v-2191q0 -88 -23.5 -143t-61.5 -86.5t-88 -43t-102 -11.5h-303q-48 0 -88.5 10.5t-69 34t-44.5 61t-16 91.5q0 53 16 90.5
t44.5 61t69 34.5t88.5 11h114v1971z" />
    <glyph glyph-name="asciicircum" unicode="^" horiz-adv-x="1851" 
d="M923 1542l-391 -714q-20 -38 -42 -61.5t-47.5 -36.5t-55 -18t-64.5 -5q-48 0 -78 10.5t-47.5 27t-24 35.5t-6.5 37q0 32 9.5 63t30.5 70l516 935q22 40 45 65.5t47.5 40t51.5 20t56 5.5q30 0 57 -5.5t52 -20t48 -40t45 -65.5l513 -936q21 -39 30 -70t9 -63
q0 -18 -6.5 -37t-23.5 -35.5t-47 -27t-78 -10.5q-35 0 -64.5 5t-55 18t-47.5 36.5t-42 61.5z" />
    <glyph glyph-name="underscore" unicode="_" horiz-adv-x="1405" 
d="M147 -446q-33 0 -60 12.5t-46.5 34t-30 50t-10.5 61.5t10.5 61.5t30 49.5t46.5 33.5t60 12.5h1111q33 0 60 -12.5t46.5 -33.5t30 -49.5t10.5 -61.5t-10.5 -61.5t-30 -50t-46.5 -34t-60 -12.5h-1111z" />
    <glyph glyph-name="grave" unicode="`" horiz-adv-x="1004" 
d="M741 1795q13 -17 24.5 -36t19 -39.5t9.5 -42t-4 -44.5q-8 -30 -24 -51.5t-36 -36t-43.5 -21.5t-45.5 -7q-48 0 -87 25t-74 62l-199 218q-45 48 -62 95t-6 90q4 20 18 43t35.5 43t51 33t64.5 13q34 0 63.5 -13t55 -33.5t48 -46.5t42.5 -53z" />
    <glyph glyph-name="a" unicode="a" horiz-adv-x="1556" 
d="M1005 648q-34 -23 -66.5 -38.5t-63.5 -25t-60.5 -15.5t-57.5 -11q-46 -8 -91.5 -18.5t-81.5 -29.5t-58 -49.5t-22 -79.5q0 -38 18 -68t48 -51t69.5 -32t82.5 -11q70 0 123 23t88.5 61.5t53.5 88t18 103.5v153zM1474 378q0 -61 6 -102t13 -70t13 -50.5t6 -42.5
q0 -42 -15 -70t-43.5 -44.5t-69 -23.5t-92.5 -7q-98 0 -150 43t-72 135q-56 -65 -129 -101t-150.5 -53t-151.5 -20.5t-131 -3.5q-105 0 -192.5 24t-150.5 76t-98 133t-35 195q0 94 32 165.5t109 125t205 91t320 63.5q86 12 145 28t95 39.5t51.5 55.5t15.5 74q0 38 -18 65.5
t-50.5 45.5t-76.5 26.5t-96 8.5q-48 0 -89 -10t-77 -26t-67.5 -36.5t-59.5 -41.5q-21 -17 -45 -32t-49 -26.5t-50 -16.5t-48 -2q-30 4 -53 20t-39.5 40t-25 53.5t-8.5 61.5q0 74 47.5 134t131.5 102.5t198.5 65.5t248.5 23q68 0 146 -6.5t155.5 -23.5t148.5 -46t125.5 -73.5
t87 -107.5t32.5 -147v-711z" />
    <glyph glyph-name="b" unicode="b" horiz-adv-x="1700" 
d="M101 1783q0 131 61 191.5t174 60.5q56 0 101.5 -15t78 -46t50 -78.5t17.5 -112.5v-536q51 73 105.5 118t112 70.5t119.5 34.5t128 9q114 0 203 -37t156 -98t113.5 -139.5t75.5 -163t42 -168t13 -153.5q0 -176 -43.5 -318t-124 -241.5t-195 -153.5t-257.5 -54
q-57 0 -122.5 9.5t-132 37.5t-130 79t-116.5 133q0 -59 -15 -107t-42.5 -82t-67.5 -52t-91 -18q-109 0 -161 61t-52 182v1587zM573 714q0 -94 15 -172t48 -133.5t86.5 -86t131.5 -30.5q91 0 150.5 36.5t95 95t49.5 131t14 144.5q0 77 -15.5 150t-53 130t-99 91.5
t-153.5 34.5q-59 0 -108.5 -25.5t-85 -75t-55.5 -122.5t-20 -168z" />
    <glyph glyph-name="c" unicode="c" horiz-adv-x="1540" 
d="M57 734q0 198 60.5 343t165.5 239.5t247 140t306 45.5q141 0 256 -31t196.5 -82.5t126 -118t44.5 -136.5q0 -40 -13 -74t-34.5 -59t-51 -39t-62.5 -14q-38 0 -71.5 10.5t-71.5 40.5q-28 22 -56 48.5t-60.5 49t-70.5 37.5t-87 15q-70 0 -122 -16.5t-89 -45t-61 -67.5
t-37.5 -84t-19 -93.5t-5.5 -96.5q0 -87 14 -166t49 -140t94.5 -97t150.5 -36q45 0 82.5 10t69.5 27.5t59 41t52 51.5q38 42 81.5 62t88.5 21q48 1 81.5 -17t55 -45.5t31.5 -61t10 -64.5q0 -27 -13.5 -65t-43.5 -79t-78.5 -81t-118.5 -72t-163.5 -51.5t-212.5 -19.5
q-164 0 -306 45.5t-247 140t-165.5 240t-60.5 344.5z" />
    <glyph glyph-name="d" unicode="d" horiz-adv-x="1700" 
d="M1598 196q0 -121 -52 -182t-161 -61q-51 0 -91 18t-67.5 52t-42.5 82t-15 107q-53 -82 -116.5 -133t-130 -79t-132 -37.5t-122.5 -9.5q-143 0 -257.5 54t-195 153.5t-124 241.5t-43.5 318q0 70 13 153.5t42 168t75.5 163t113.5 139.5t156 98t203 37q66 0 128 -9
t119.5 -34.5t112 -70.5t105.5 -118v536q0 65 17.5 112.5t49.5 78.5t78 46t102 15q113 0 174 -60.5t61 -191.5v-1587zM1126 714q0 95 -20 168t-55.5 122.5t-85 75t-108.5 25.5q-92 0 -153.5 -34.5t-99 -91.5t-53 -130t-15.5 -150q0 -72 14 -144.5t49.5 -131t95 -95
t150.5 -36.5q78 0 131.5 30.5t86.5 86t48 133.5t15 172z" />
    <glyph glyph-name="e" unicode="e" horiz-adv-x="1637" 
d="M1533 246q0 -54 -36.5 -107t-119 -95t-215.5 -67.5t-327 -25.5q-161 0 -300.5 46t-243 140.5t-163 240t-59.5 345.5q0 199 58 344.5t159.5 240t239.5 140t299 45.5q150 0 266 -33.5t202.5 -88.5t145 -124.5t94.5 -142.5t51.5 -142.5t15.5 -123.5q0 -55 -12.5 -99t-39 -75
t-67 -48t-96.5 -17h-843q12 -87 43.5 -147t79 -97.5t107 -54t127.5 -16.5q91 0 162.5 19.5t137.5 59.5q52 32 110.5 47t106.5 0q26 -8 47.5 -24.5t37 -38t24 -48t8.5 -53.5zM852 1190q-55 0 -107 -15.5t-94.5 -53t-71.5 -99t-37 -154.5h617q-4 91 -30 153t-67.5 99.5
t-95.5 53.5t-114 16z" />
    <glyph glyph-name="f" unicode="f" horiz-adv-x="942" 
d="M177 1578q0 224 119 335.5t341 111.5q111 0 181.5 -14.5t110.5 -39.5t55 -57.5t15 -69.5q0 -42 -11.5 -73t-40 -51.5t-75.5 -30.5t-117 -10q-41 0 -68 -24.5t-27 -73.5v-127h165q69 0 106 -32t37 -100t-37 -100t-106 -32h-165v-982q0 -129 -63 -184.5t-179 -55.5
t-178.5 55.5t-62.5 184.5v982h-53q-69 0 -106 32t-37 100t37 100t106 32h53v124z" />
    <glyph glyph-name="g" unicode="g" horiz-adv-x="1704" 
d="M1124 203q-57 -69 -115 -108.5t-117 -59.5t-119 -25t-121 -5q-64 0 -132 17.5t-133 55.5t-123.5 97t-102.5 141.5t-70 190.5t-26 243q0 149 39 285t115 239.5t187.5 165t257.5 61.5q58 0 125 -8t134.5 -37.5t132.5 -86t119 -152.5v34q0 113 53 171.5t157 58.5
q109 0 162.5 -65t53.5 -193v-1234q0 -175 -58 -296.5t-163 -197t-251.5 -109.5t-323.5 -34q-133 0 -233.5 16t-174 42.5t-123 60.5t-79 70t-42 70.5t-12.5 61.5q0 37 11 69.5t32.5 56.5t52.5 39.5t71 18.5q35 3 73 -7.5t78 -39.5q28 -21 61.5 -44.5t71 -43.5t79 -33
t85.5 -13q105 0 175.5 22.5t113 69.5t61 119.5t18.5 171.5v144zM1146 743q0 78 -15.5 150t-50.5 127t-91.5 87.5t-139.5 32.5t-138 -28t-89 -79.5t-48 -125t-14 -164.5t14 -167.5t48 -132t89 -86.5t138 -31t139.5 36t91.5 94.5t50.5 133.5t15.5 153z" />
    <glyph glyph-name="h" unicode="h" horiz-adv-x="1647" 
d="M1065 781q0 74 -12 131.5t-38.5 96.5t-70 59t-106.5 20t-110.5 -25t-78.5 -70.5t-46.5 -109.5t-15.5 -143v-525q0 -66 -18 -113t-50 -77t-76.5 -44t-97.5 -14t-97.5 14t-76.5 44t-50 77t-18 113v1572q0 66 18 113t50 77t76.5 44t97.5 14t97.5 -14t76.5 -44t50 -77
t18 -113v-522q56 65 108.5 106.5t106 65.5t111 33t123.5 9q137 0 234 -43t159 -118t90.5 -176.5t28.5 -218.5v-708q0 -66 -18 -113t-50 -77t-76.5 -44t-97.5 -14t-97 14t-76 44t-50 77t-18 113v566z" />
    <glyph glyph-name="i" unicode="i" horiz-adv-x="729" 
d="M122 1234q0 62 18 107t50 74.5t77 44t98 14.5t97.5 -14.5t76.5 -44t50 -74.5t18 -107v-1027q0 -62 -18 -107t-50 -74.5t-76.5 -44t-97.5 -14.5t-98 14.5t-77 44t-50 74.5t-18 107v1027zM128 1798q0 49 18.5 92.5t50.5 75t75 50t93 18.5q49 0 92.5 -18.5t75 -50t50 -75
t18.5 -92.5q0 -50 -18.5 -93t-50 -75t-75 -50.5t-92.5 -18.5q-50 0 -93 18.5t-75 50.5t-50.5 75t-18.5 93z" />
    <glyph glyph-name="j" unicode="j" horiz-adv-x="766" 
d="M156 1233q0 62 18 107.5t50.5 75t77.5 44t99 14.5q53 0 97.5 -14.5t77 -44t50.5 -75t18 -107.5v-1434q0 -90 -29 -165t-87.5 -129t-146.5 -83.5t-207 -29.5q-57 0 -107 8.5t-87 29.5t-58 58t-21 94q0 54 32 78t103 35q39 7 63 15.5t36.5 20t16.5 26t4 33.5v1443z
M163 1798q0 49 18.5 92.5t50.5 75t75 50t93 18.5q49 0 92.5 -18.5t75 -50t50 -75t18.5 -92.5q0 -50 -18.5 -93t-50 -75t-75 -50.5t-92.5 -18.5q-50 0 -93 18.5t-75 50.5t-50.5 75t-18.5 93z" />
    <glyph glyph-name="k" unicode="k" horiz-adv-x="1470" 
d="M966 1367q27 30 51 51.5t46.5 35t45.5 19.5t49 6q41 0 80 -15.5t69.5 -43.5t49 -67.5t18.5 -88.5q0 -21 -7.5 -45t-20 -49t-30 -48.5t-37.5 -43.5l-202 -205l314 -469q33 -48 54 -106.5t23 -114.5t-18.5 -103.5t-70.5 -73.5q-42 -22 -87 -31.5t-90.5 3t-92 52
t-92.5 115.5l-248 410l-184 -190v-137q0 -69 -16 -117.5t-47 -79t-76 -44.5t-103 -14t-103 14t-76 44.5t-47 79t-16 117.5v1550q0 69 16 117t47 79t76 45t103 14t103 -14t76 -45t47 -79t16 -117v-835z" />
    <glyph glyph-name="l" unicode="l" horiz-adv-x="725" 
d="M120 1795q0 62 18 107t50 74.5t77 44t98 14.5t97.5 -14.5t76.5 -44t50 -74.5t18 -107v-1588q0 -62 -18 -107t-50 -74.5t-76.5 -44t-97.5 -14.5t-98 14.5t-77 44t-50 74.5t-18 107v1588z" />
    <glyph glyph-name="m" unicode="m" horiz-adv-x="2579" 
d="M1990 804q0 83 -14 140t-42.5 92.5t-71 51t-100.5 15.5q-43 0 -84 -22t-73.5 -63t-52 -100t-19.5 -132v-566q0 -65 -18 -111.5t-50.5 -76.5t-77 -44t-97.5 -14q-54 0 -98.5 14t-77 44t-50.5 76.5t-18 111.5v584q0 83 -14 140t-42 92.5t-71 51t-100 15.5q-44 0 -85.5 -22
t-74 -63t-52 -100t-19.5 -132v-566q0 -65 -18 -111.5t-50 -76.5t-76.5 -44t-97.5 -14t-98 14t-77.5 44t-50.5 76.5t-18 111.5v1027q0 120 56.5 182t176.5 62q105 0 160.5 -58.5t55.5 -194.5q97 136 226 194.5t284 58.5q61 0 124 -11t118.5 -41t100 -83.5t69.5 -137.5
q54 91 112 145t120 82.5t127.5 37t134.5 8.5q136 0 232.5 -42t158 -115.5t90.5 -173.5t29 -216v-724q0 -65 -18 -111.5t-50.5 -76.5t-77.5 -44t-98 -14t-98 14t-77 44t-50 76.5t-18 111.5v584z" />
    <glyph glyph-name="n" unicode="n" horiz-adv-x="1685" 
d="M1096 834q0 139 -63.5 211.5t-190.5 72.5q-63 0 -110.5 -23t-79 -65t-47.5 -101.5t-16 -132.5v-579q0 -62 -18 -107.5t-50.5 -75.5t-77 -44.5t-98.5 -14.5t-98.5 14.5t-76.5 44.5t-50 75.5t-18 107.5v1038q0 114 56.5 172.5t177.5 58.5q107 0 162.5 -59.5t55.5 -188.5
q102 130 231 189t281 59q138 0 236 -40t160 -110t91 -165t29 -204v-750q0 -62 -18 -107.5t-50 -75.5t-76.5 -44.5t-98.5 -14.5t-98.5 14.5t-76.5 44.5t-50 75.5t-18 107.5v617z" />
    <glyph glyph-name="o" unicode="o" horiz-adv-x="1647" 
d="M33 725q0 178 56 320t159.5 241t249 152t325.5 53q184 0 331.5 -53t250.5 -152t158 -241t55 -320q0 -180 -56.5 -322t-161 -240.5t-251 -151t-326.5 -52.5t-325.5 52t-249 150t-159.5 240.5t-56 323.5zM516 725q0 -83 17 -161t53.5 -139t95 -97.5t141.5 -36.5t142.5 35
t98 94.5t57 138.5t18.5 166q0 83 -16 161t-53 139t-97.5 97.5t-149.5 36.5q-80 0 -138 -36.5t-95.5 -97.5t-55.5 -139t-18 -161z" />
    <glyph glyph-name="p" unicode="p" horiz-adv-x="1700" 
d="M101 1252q0 121 52 182t161 61q51 0 91 -18.5t67.5 -52t42.5 -81.5t15 -107q53 82 116.5 133t130 79t132 37.5t122.5 9.5q143 0 257.5 -54t195 -153.5t124 -241.5t43.5 -318q0 -70 -13 -153.5t-42 -168t-75.5 -163t-113.5 -139.5t-156 -98t-203 -37q-66 0 -128 7.5
t-119.5 31t-112 67t-105.5 116.5v-526q0 -65 -17.5 -112.5t-50 -78.5t-78 -46t-101.5 -15q-113 0 -174 60.5t-61 191.5v1587zM573 734q0 -95 20 -168t55.5 -122.5t85 -75t108.5 -25.5q92 0 153.5 34.5t99 91.5t53 130t15.5 150q0 72 -14 144.5t-49.5 131t-95 95t-150.5 36.5
q-78 0 -131.5 -30.5t-86.5 -86t-48 -133.5t-15 -172z" />
    <glyph glyph-name="q" unicode="q" horiz-adv-x="1700" 
d="M1598 -335q0 -131 -61 -191.5t-174 -60.5q-56 0 -102 15t-78 46t-49.5 78.5t-17.5 112.5v526q-51 -73 -105.5 -116.5t-112 -67t-119.5 -31t-128 -7.5q-114 0 -203 37t-156 98t-113.5 139.5t-75.5 163t-42 168t-13 153.5q0 176 43.5 318t124 241.5t195 153.5t257.5 54
q57 0 122.5 -9.5t132 -37.5t130 -79t116.5 -133q0 59 15 107t42.5 81.5t67.5 52t91 18.5q109 0 161 -61t52 -182v-1587zM1126 734q0 94 -15 172t-48 133.5t-86.5 86t-131.5 30.5q-91 0 -150.5 -36.5t-95 -95t-49.5 -131t-14 -144.5q0 -77 15.5 -150t53 -130t99 -91.5
t153.5 -34.5q59 0 108.5 25.5t85 75t55.5 122.5t20 168z" />
    <glyph glyph-name="r" unicode="r" horiz-adv-x="1123" 
d="M102 1255q0 61 17 104t46.5 70.5t68 40t81.5 12.5t81.5 -11.5t67 -39t45 -73t16.5 -114.5v-62q45 82 86.5 139.5t87.5 93t98.5 51.5t118.5 16q51 0 93 -16t72.5 -45t47.5 -69t17 -88q0 -66 -17.5 -113.5t-48.5 -78t-74.5 -46t-95.5 -17.5l-66 -3q-131 -11 -196.5 -91
t-65.5 -239v-460q0 -61 -18 -105.5t-49.5 -74t-76 -43.5t-96.5 -14q-53 0 -97 14t-75.5 43.5t-49.5 74t-18 105.5v1039z" />
    <glyph glyph-name="s" unicode="s" horiz-adv-x="1479" 
d="M928 387q0 25 -7.5 48.5t-30 44.5t-64 39t-108.5 33l-167 37q-141 31 -237 75t-154.5 99t-84 121t-25.5 141q0 53 13.5 108t45 105.5t83.5 94.5t128 76.5t178.5 51.5t236.5 19q79 0 157.5 -7.5t150 -23t133 -39t106.5 -56t71 -74.5t26 -93q0 -31 -11 -61t-31 -54
t-47.5 -38.5t-60.5 -14.5q-57 0 -100 13t-88 42q-30 19 -62 40.5t-70.5 39t-85 29t-104.5 11.5q-92 0 -143 -27t-51 -92q0 -27 7 -48.5t29 -40t61.5 -34t104.5 -30.5l238 -54q109 -25 196.5 -61.5t149 -87.5t94 -117t32.5 -149q0 -61 -16 -121t-51 -114t-92 -100t-139.5 -80
t-192 -53t-249.5 -19q-129 0 -246.5 20t-207.5 60.5t-143 103t-53 147.5q0 38 13 70t35.5 55t52 36t63.5 13q19 0 40 -7t41.5 -18.5t40.5 -26t39 -29.5q31 -24 65.5 -47t76 -41t91.5 -29t111 -11q109 0 160.5 34t51.5 91z" />
    <glyph glyph-name="t" unicode="t" horiz-adv-x="1026" 
d="M208 1671q0 129 63 189t179 60q115 0 178.5 -60t63.5 -189v-216h166q69 0 100 -32t31 -98q0 -67 -31 -99t-100 -32h-166v-732v-41q0 -51 28 -76t70 -25q70 0 116.5 -10t73.5 -30.5t38 -51t11 -71.5q0 -36 -15 -69t-55 -57.5t-110 -39t-181 -14.5q-222 0 -341 111
t-119 335v771h-100q-69 0 -100 32t-31 99q0 66 31 98t100 32h100v216z" />
    <glyph glyph-name="u" unicode="u" horiz-adv-x="1688" 
d="M590 627q0 -139 63.5 -211.5t190.5 -72.5q63 0 110.5 23t79 65t47.5 101.5t16 132.5v579q0 62 18 107.5t50.5 75.5t77 44.5t98.5 14.5t98.5 -14.5t76.5 -44.5t50 -75.5t18 -107.5v-1038q0 -114 -56.5 -172.5t-177.5 -58.5q-107 0 -162.5 59.5t-55.5 188.5
q-102 -130 -231 -189t-281 -59q-138 0 -236 40t-160 110t-91 164.5t-29 204.5v750q0 62 18 107.5t50 75.5t76.5 44.5t98.5 14.5t98.5 -14.5t76.5 -44.5t50 -75.5t18 -107.5v-617z" />
    <glyph glyph-name="v" unicode="v" horiz-adv-x="1512" 
d="M993 1275q16 51 33.5 88.5t44.5 63t66.5 38t98.5 12.5q47 0 88 -14t71.5 -40t48 -63t17.5 -83q0 -26 -2.5 -49t-7.5 -48t-14.5 -53.5t-22.5 -66.5l-314 -880q-22 -61 -53 -99.5t-73.5 -61t-97 -31t-122.5 -8.5q-65 0 -117.5 8.5t-94.5 30.5t-73 61t-52 99l-314 882
q-14 39 -23.5 68t-15.5 53.5t-8.5 47t-2.5 47.5q0 46 17 82.5t47 62t70.5 39.5t87.5 16q51 1 89 -7t67 -30.5t51 -62.5t42 -102l238 -780z" />
    <glyph glyph-name="w" unicode="w" horiz-adv-x="2325" 
d="M886 1224q20 76 41 125.5t51 78.5t74 40.5t110 11.5q71 0 115.5 -13t73.5 -43.5t48.5 -79.5t39.5 -121l200 -709l189 807q8 35 24 64.5t42 50.5t63 32.5t88 11.5q54 0 95.5 -17t70.5 -45.5t44 -65.5t15 -78q0 -26 -3 -52.5t-9 -56.5t-16 -65t-24 -79l-244 -791
q-23 -73 -47 -121.5t-57 -77t-78.5 -40t-109.5 -11.5q-69 0 -125 9t-99.5 36t-74.5 77t-51 133l-169 711l-170 -711q-20 -83 -49.5 -133t-71 -77t-96 -36t-123.5 -9q-57 0 -102 8.5t-81 35t-65 76t-54 130.5l-244 791q-14 44 -24 79t-16 65t-9 56.5t-3 52.5q0 41 15 78
t44 65.5t70.5 45.5t95.5 17q49 0 86 -12t63.5 -33.5t43 -51t24.5 -63.5l205 -806z" />
    <glyph glyph-name="x" unicode="x" horiz-adv-x="1440" 
d="M937 1343q25 37 47.5 62.5t45.5 40.5t48 21.5t55 6.5q48 0 90 -17.5t72.5 -45.5t48.5 -63t18 -71q0 -45 -17.5 -83.5t-49.5 -85.5l-273 -353l279 -358q22 -32 38.5 -59.5t28 -53t17 -51.5t5.5 -54q0 -32 -12.5 -67.5t-38.5 -64.5t-68 -48t-100 -19q-35 0 -64 6
t-55.5 22.5t-50 45.5t-47.5 74l-234 344l-234 -344q-28 -41 -52.5 -69t-49.5 -45.5t-53 -25.5t-62 -8q-58 0 -99.5 19t-68 48t-39 64.5t-12.5 67.5q0 57 21 106.5t69 111.5l277 358l-274 353q-32 48 -50 86t-18 83q0 36 18 71t49 63t73.5 45.5t90.5 17.5q30 0 54.5 -6.5
t47.5 -22.5t46 -42.5t50 -65.5l216 -311z" />
    <glyph glyph-name="y" unicode="y" horiz-adv-x="1597" 
d="M1067 1227q27 82 54.5 133.5t60.5 79.5t72.5 35.5t89.5 1.5q71 -9 117 -35t66.5 -72.5t14 -116t-40.5 -163.5l-444 -1234q-46 -128 -112.5 -211t-145 -132.5t-165 -69t-171.5 -19.5q-158 0 -235 56.5t-77 155.5q0 43 14 72.5t39.5 47.5t60.5 26t78 8q65 0 115.5 9.5
t86.5 25t57 36t29 42.5l32 94l-547 1022q-45 85 -61 167.5t3 147.5t77 105.5t163 40.5q43 0 76.5 -12t59.5 -36.5t47 -61t41 -84.5l318 -776z" />
    <glyph glyph-name="z" unicode="z" horiz-adv-x="1462" 
d="M1232 341q85 0 129.5 -43.5t44.5 -126.5q0 -77 -44.5 -123.5t-129.5 -46.5h-1011q-44 0 -75 16t-51 41.5t-29.5 57.5t-9.5 63q0 30 7 57.5t21 55t36 56.5t52 63l625 704h-506q-85 0 -129.5 46t-44.5 124q0 36 10.5 67.5t34.5 54t63 35.5t97 13h866q60 0 101 -19.5
t64.5 -52t30.5 -74.5t-1 -87.5t-30 -90.5t-55 -83l-616 -707h550z" />
    <glyph glyph-name="braceleft" unicode="{" horiz-adv-x="1090" 
d="M771 1047q0 -67 -14 -116t-37 -84.5t-54 -58t-64 -36.5q33 -14 64 -37t54 -58.5t37 -84.5t14 -115v-610q0 -69 26.5 -97t70.5 -28h71q37 0 68.5 -12t54 -34.5t35.5 -55.5t13 -76q0 -42 -13 -74t-35.5 -53.5t-54 -32.5t-68.5 -11h-214q-209 0 -312.5 102t-103.5 322v622
q0 53 -9.5 83.5t-24.5 46.5t-34.5 20t-39.5 4q-47 0 -81 15.5t-56 41t-32.5 57.5t-10.5 66q0 33 10.5 65t32.5 57t56 40.5t81 15.5q20 0 39.5 4t34.5 20t24.5 46.5t9.5 83.5v621q0 220 103.5 322t312.5 102h214q37 0 68.5 -11t54 -32.5t35.5 -53t13 -73.5q0 -43 -13 -76.5
t-35.5 -56t-54 -34.5t-68.5 -12h-71q-44 0 -70.5 -28t-26.5 -97v-609z" />
    <glyph glyph-name="bar" unicode="|" horiz-adv-x="696" 
d="M124 2006q0 47 17.5 86t48 67.5t71 44.5t87.5 16q46 0 87 -16t71.5 -44.5t48 -67.5t17.5 -86v-2402q0 -47 -17.5 -86t-48 -67.5t-71.5 -44.5t-87 -16q-47 0 -87.5 16t-71 44.5t-48 67.5t-17.5 86v2402z" />
    <glyph glyph-name="braceright" unicode="}" horiz-adv-x="1090" 
d="M319 1656q0 69 -26.5 97t-70.5 28h-71q-37 0 -68.5 12t-54 34.5t-35.5 56t-13 76.5q0 42 13 73.5t35.5 53t54 32.5t68.5 11h214q208 0 312 -102t104 -322v-621q0 -53 9.5 -83.5t24.5 -46.5t34.5 -20t39.5 -4q47 0 81 -15.5t56 -40.5t32.5 -57t10.5 -65q0 -34 -10.5 -66
t-32.5 -57.5t-56 -41t-81 -15.5q-20 0 -39.5 -4t-34.5 -20t-24.5 -46.5t-9.5 -83.5v-622q0 -220 -104 -322t-312 -102h-214q-37 0 -68.5 11t-54 32.5t-35.5 53.5t-13 74q0 43 13 76t35.5 55.5t54 34.5t68.5 12h71q44 0 70.5 28t26.5 97v610q0 66 14 115t37 84.5t54 58.5
t64 37q-33 14 -64 36.5t-54 58t-37 84.5t-14 116v609z" />
    <glyph glyph-name="asciitilde" unicode="~" horiz-adv-x="1667" 
d="M1557 821q0 -65 -28.5 -132t-82.5 -122t-131.5 -90t-176.5 -35q-62 0 -127 22t-130 50.5t-129.5 56.5t-126.5 39t-121.5 -1.5t-114.5 -64.5q-16 -15 -31.5 -29.5t-33 -26t-37 -18t-42.5 -6.5q-38 0 -64 13.5t-42 34.5t-23 48t-7 54q0 65 28.5 132.5t81 122t127 89.5
t166.5 35q64 0 130.5 -22t133.5 -50.5t133 -56t129.5 -38.5t123.5 1.5t115 64.5q16 15 31.5 29.5t33 26t37 18t42.5 6.5q38 0 64 -13.5t42 -35t23 -48.5t7 -54z" />
    <glyph glyph-name="saraileftthai" 
d="M-1713 1876q-37 0 -68.5 14t-54 38.5t-35 57.5t-12.5 70t12.5 70t35 57.5t54 38.5t68.5 14h850q37 0 68.5 -14t54 -38.5t35 -57.5t12.5 -70t-12.5 -70t-35 -57.5t-54 -38.5t-68.5 -14h-850z" />
    <glyph glyph-name="saraileftthai" unicode="&#xf701;" 
d="M-1713 1876q-37 0 -68.5 14t-54 38.5t-35 57.5t-12.5 70t12.5 70t35 57.5t54 38.5t68.5 14h850q37 0 68.5 -14t54 -38.5t35 -57.5t12.5 -70t-12.5 -70t-35 -57.5t-54 -38.5t-68.5 -14h-850z" />
    <glyph glyph-name="saraiileftthai" 
d="M-1713 1876q-37 0 -68.5 14t-54 38.5t-35 57.5t-12.5 70t12.5 70t35 57.5t54 38.5t68.5 14h550v79q0 45 17 82t47 63t70 40t85 14t85 -14t70 -40t47 -63t17 -82v-259q0 -37 -12.5 -70t-35 -57.5t-54 -38.5t-68.5 -14h-818z" />
    <glyph glyph-name="saraiileftthai" unicode="&#xf702;" 
d="M-1713 1876q-37 0 -68.5 14t-54 38.5t-35 57.5t-12.5 70t12.5 70t35 57.5t54 38.5t68.5 14h550v79q0 45 17 82t47 63t70 40t85 14t85 -14t70 -40t47 -63t17 -82v-259q0 -37 -12.5 -70t-35 -57.5t-54 -38.5t-68.5 -14h-818z" />
    <glyph glyph-name="saraueleftthai" 
d="M-1713 1876q-37 0 -68.5 14t-54 38.5t-35 57.5t-12.5 70t12.5 70t35 57.5t54 38.5t68.5 14h382v13q0 64 24.5 121t68 99t102.5 66.5t128 24.5q83 0 144 -28.5t101 -75t59.5 -107.5t19.5 -125q0 -74 -24.5 -137.5t-69.5 -110t-108.5 -73.5t-141.5 -27h-685zM-1118 2228
q0 -21 8.5 -40.5t23.5 -34t35 -23t43 -8.5t43.5 8.5t35.5 23t23.5 34t8.5 40.5q0 23 -8.5 43.5t-23.5 35.5t-35.5 23.5t-43.5 8.5t-43 -8.5t-35 -23.5t-23.5 -35.5t-8.5 -43.5z" />
    <glyph glyph-name="saraueleftthai" unicode="&#xf703;" 
d="M-1713 1876q-37 0 -68.5 14t-54 38.5t-35 57.5t-12.5 70t12.5 70t35 57.5t54 38.5t68.5 14h382v13q0 64 24.5 121t68 99t102.5 66.5t128 24.5q83 0 144 -28.5t101 -75t59.5 -107.5t19.5 -125q0 -74 -24.5 -137.5t-69.5 -110t-108.5 -73.5t-141.5 -27h-685zM-1118 2228
q0 -21 8.5 -40.5t23.5 -34t35 -23t43 -8.5t43.5 8.5t35.5 23t23.5 34t8.5 40.5q0 23 -8.5 43.5t-23.5 35.5t-35.5 23.5t-43.5 8.5t-43 -8.5t-35 -23.5t-23.5 -35.5t-8.5 -43.5z" />
    <glyph glyph-name="saraueeleftthai" 
d="M-1713 1876q-37 0 -68.5 14t-54 38.5t-35 57.5t-12.5 70t12.5 70t35 57.5t54 38.5t68.5 14h218v134q0 34 12 61t33 45.5t50 28t63 9.5t63.5 -9.5t51 -28t34 -45.5t12.5 -61v-134h132v134q0 34 12 61t33.5 45.5t50.5 28t63 9.5t63.5 -9.5t51 -28t33.5 -45.5t12 -61v-314
q0 -37 -12.5 -70t-35 -57.5t-54 -38.5t-68.5 -14h-818z" />
    <glyph glyph-name="saraueeleftthai" unicode="&#xf704;" 
d="M-1713 1876q-37 0 -68.5 14t-54 38.5t-35 57.5t-12.5 70t12.5 70t35 57.5t54 38.5t68.5 14h218v134q0 34 12 61t33 45.5t50 28t63 9.5t63.5 -9.5t51 -28t34 -45.5t12.5 -61v-134h132v134q0 34 12 61t33.5 45.5t50.5 28t63 9.5t63.5 -9.5t51 -28t33.5 -45.5t12 -61v-314
q0 -37 -12.5 -70t-35 -57.5t-54 -38.5t-68.5 -14h-818z" />
    <glyph glyph-name="maieklowleftthai" 
d="M-777 2085q0 -50 -16.5 -85.5t-45 -59t-67 -34.5t-82.5 -11q-43 0 -81.5 11t-67 34.5t-45 59t-16.5 85.5v294q0 49 16.5 85t45 59.5t67 34.5t81.5 11q44 0 82.5 -11t67 -34.5t45 -59.5t16.5 -85v-294z" />
    <glyph glyph-name="maieklowleftthai" unicode="&#xf705;" 
d="M-777 2085q0 -50 -16.5 -85.5t-45 -59t-67 -34.5t-82.5 -11q-43 0 -81.5 11t-67 34.5t-45 59t-16.5 85.5v294q0 49 16.5 85t45 59.5t67 34.5t81.5 11q44 0 82.5 -11t67 -34.5t45 -59.5t16.5 -85v-294z" />
    <glyph glyph-name="maitholowleftthai" 
d="M-941 2387q13 31 37 51.5t53.5 29.5t61.5 7t59 -15q28 -14 45 -37t23 -51.5t2 -61t-17 -63.5q-29 -69 -79 -129t-120 -103.5t-161 -68.5t-202 -25h-155q-26 0 -46 10.5t-34.5 29t-22 43t-7.5 52.5v137h-36q-24 0 -46 10.5t-38 28.5t-25.5 42.5t-9.5 52.5t9.5 53
t25.5 43.5t38 29t46 10.5h221q25 0 45.5 -10.5t35 -29t22.5 -43.5t8 -53v-117q51 3 94.5 18t77.5 39t58 55t37 65z" />
    <glyph glyph-name="maitholowleftthai" unicode="&#xf706;" 
d="M-941 2387q13 31 37 51.5t53.5 29.5t61.5 7t59 -15q28 -14 45 -37t23 -51.5t2 -61t-17 -63.5q-29 -69 -79 -129t-120 -103.5t-161 -68.5t-202 -25h-155q-26 0 -46 10.5t-34.5 29t-22 43t-7.5 52.5v137h-36q-24 0 -46 10.5t-38 28.5t-25.5 42.5t-9.5 52.5t9.5 53
t25.5 43.5t38 29t46 10.5h221q25 0 45.5 -10.5t35 -29t22.5 -43.5t8 -53v-117q51 3 94.5 18t77.5 39t58 55t37 65z" />
    <glyph glyph-name="maitrilowleftthai" 
d="M-911 2373q7 26 22.5 46t36.5 32t45 15.5t48 -2.5q28 -6 49.5 -21.5t34 -37t17 -47t-1.5 -52.5q-12 -59 -38 -122.5t-63 -118t-82.5 -92.5t-96.5 -47h-113q-30 0 -52 21.5t-24 56.5q-2 24 -5.5 46t-10 39t-18 27t-27.5 10q-23 0 -34 -16t-16 -44q-5 -35 -25.5 -54.5
t-52.5 -19.5t-52 19.5t-25 54.5q-4 28 -16 44t-36 16q-30 0 -44 -29t-16 -74q0 -29 -10 -51t-26 -36.5t-36.5 -21.5t-42.5 -7q-26 0 -48 10t-37.5 27.5t-24.5 41.5t-9 52q0 87 23.5 154.5t61 114t83.5 71t92 24.5q48 0 88.5 -23.5t72.5 -66.5q29 39 71 64.5t93 25.5
q31 0 61.5 -10.5t56 -31t45.5 -49.5t31 -65q15 24 29 56.5t22 70.5z" />
    <glyph glyph-name="maitrilowleftthai" unicode="&#xf707;" 
d="M-911 2373q7 26 22.5 46t36.5 32t45 15.5t48 -2.5q28 -6 49.5 -21.5t34 -37t17 -47t-1.5 -52.5q-12 -59 -38 -122.5t-63 -118t-82.5 -92.5t-96.5 -47h-113q-30 0 -52 21.5t-24 56.5q-2 24 -5.5 46t-10 39t-18 27t-27.5 10q-23 0 -34 -16t-16 -44q-5 -35 -25.5 -54.5
t-52.5 -19.5t-52 19.5t-25 54.5q-4 28 -16 44t-36 16q-30 0 -44 -29t-16 -74q0 -29 -10 -51t-26 -36.5t-36.5 -21.5t-42.5 -7q-26 0 -48 10t-37.5 27.5t-24.5 41.5t-9 52q0 87 23.5 154.5t61 114t83.5 71t92 24.5q48 0 88.5 -23.5t72.5 -66.5q29 39 71 64.5t93 25.5
q31 0 61.5 -10.5t56 -31t45.5 -49.5t31 -65q15 24 29 56.5t22 70.5z" />
    <glyph glyph-name="maichattawalowleftthai" 
d="M-1319 2468q0 39 14.5 71t40 55t59.5 36t73 13q38 0 71.5 -13t58 -36t39 -55t14.5 -71v-58h129q29 0 53.5 -11t42 -30.5t27.5 -45.5t10 -56q0 -29 -10 -54.5t-27.5 -44.5t-42 -30t-53.5 -11h-129v-61q0 -38 -14.5 -70.5t-40 -55.5t-59 -36t-72.5 -13q-38 0 -71.5 13
t-58.5 36t-39.5 55.5t-14.5 70.5v61h-131q-29 0 -53.5 11t-42 30.5t-27.5 45.5t-10 55q0 30 10 55.5t27.5 44.5t42 30t53.5 11h131v58z" />
    <glyph glyph-name="maichattawalowleftthai" unicode="&#xf708;" 
d="M-1319 2468q0 39 14.5 71t40 55t59.5 36t73 13q38 0 71.5 -13t58 -36t39 -55t14.5 -71v-58h129q29 0 53.5 -11t42 -30.5t27.5 -45.5t10 -56q0 -29 -10 -54.5t-27.5 -44.5t-42 -30t-53.5 -11h-129v-61q0 -38 -14.5 -70.5t-40 -55.5t-59 -36t-72.5 -13q-38 0 -71.5 13
t-58.5 36t-39.5 55.5t-14.5 70.5v61h-131q-29 0 -53.5 11t-42 30.5t-27.5 45.5t-10 55q0 30 10 55.5t27.5 44.5t42 30t53.5 11h131v58z" />
    <glyph glyph-name="thanthakhatlowleftthai" 
d="M-851 2485q69 5 116 -26.5t59 -93.5q6 -29 -0.5 -58t-22.5 -53t-40.5 -40.5t-55.5 -19.5q-50 -6 -85.5 -20.5t-61 -36.5t-41.5 -51t-27 -63q-12 -42 -41 -68.5t-66.5 -39t-79 -12t-78.5 13.5q-41 13 -68.5 39.5t-42 60.5t-15.5 73t12 78q23 68 72.5 123t120 95.5
t158.5 65.5t187 33z" />
    <glyph glyph-name="thanthakhatlowleftthai" unicode="&#xf709;" 
d="M-851 2485q69 5 116 -26.5t59 -93.5q6 -29 -0.5 -58t-22.5 -53t-40.5 -40.5t-55.5 -19.5q-50 -6 -85.5 -20.5t-61 -36.5t-41.5 -51t-27 -63q-12 -42 -41 -68.5t-66.5 -39t-79 -12t-78.5 13.5q-41 13 -68.5 39.5t-42 60.5t-15.5 73t12 78q23 68 72.5 123t120 95.5
t158.5 65.5t187 33z" />
    <glyph glyph-name="maieklowrightthai" 
d="M-115 2103q0 -50 -19 -89.5t-51.5 -66.5t-76.5 -41.5t-94 -14.5t-94 14.5t-77 41.5t-52 66.5t-19 89.5v294q0 50 19 89.5t52 66.5t77 41.5t94 14.5t94 -14.5t76.5 -41.5t51.5 -66.5t19 -89.5v-294z" />
    <glyph glyph-name="maieklowrightthai" unicode="&#xf70a;" 
d="M-115 2103q0 -50 -19 -89.5t-51.5 -66.5t-76.5 -41.5t-94 -14.5t-94 14.5t-77 41.5t-52 66.5t-19 89.5v294q0 50 19 89.5t52 66.5t77 41.5t94 14.5t94 -14.5t76.5 -41.5t51.5 -66.5t19 -89.5v-294z" />
    <glyph glyph-name="maitholowrightthai" 
d="M-419 2422q14 33 39 56.5t55 35t63 10.5t65 -16q30 -15 52 -41.5t32.5 -58.5t10 -67t-15.5 -69q-33 -75 -90 -139t-137 -111t-184 -74t-232 -27h-178q-29 0 -52.5 11.5t-40 31t-25 46t-8.5 56.5v147h-52q-28 0 -51 11.5t-39.5 31t-25.5 46t-9 56.5t9 57t25.5 46.5
t39.5 31t51 11.5h286q28 0 51.5 -11.5t40 -31t25.5 -46.5t9 -57v-109q117 6 186.5 53t99.5 120z" />
    <glyph glyph-name="maitholowrightthai" unicode="&#xf70b;" 
d="M-419 2422q14 33 39 56.5t55 35t63 10.5t65 -16q30 -15 52 -41.5t32.5 -58.5t10 -67t-15.5 -69q-33 -75 -90 -139t-137 -111t-184 -74t-232 -27h-178q-29 0 -52.5 11.5t-40 31t-25 46t-8.5 56.5v147h-52q-28 0 -51 11.5t-39.5 31t-25.5 46t-9 56.5t9 57t25.5 46.5
t39.5 31t51 11.5h286q28 0 51.5 -11.5t40 -31t25.5 -46.5t9 -57v-109q117 6 186.5 53t99.5 120z" />
    <glyph glyph-name="maitrilowrightthai" 
d="M-364 2396q9 27 30.5 48t49.5 34t61 17t65 -3q39 -7 67.5 -23.5t46 -39t23 -50t-1.5 -55.5q-17 -63 -52.5 -130t-85 -125t-111.5 -98.5t-131 -49.5h-152q-43 0 -72 23t-32 60q-2 25 -7.5 48.5t-15 41.5t-25.5 28.5t-39 10.5q-32 0 -48.5 -18t-20.5 -51q-5 -37 -31 -60
t-70 -23q-45 0 -71 23t-31 60q-5 33 -22 51t-51 18q-40 0 -59.5 -30.5t-21.5 -78.5q-1 -31 -14 -54t-35 -38.5t-50 -23t-58 -7.5q-35 0 -64.5 10.5t-51 29t-33.5 44t-12 54.5q0 92 32 164t82.5 121.5t113 75t124.5 25.5q68 0 121.5 -24t96.5 -71q42 42 98 68.5t126 26.5
q43 0 84 -11t76 -32t62 -51.5t41 -68.5q21 24 39 58t30 76z" />
    <glyph glyph-name="maitrilowrightthai" unicode="&#xf70c;" 
d="M-364 2396q9 27 30.5 48t49.5 34t61 17t65 -3q39 -7 67.5 -23.5t46 -39t23 -50t-1.5 -55.5q-17 -63 -52.5 -130t-85 -125t-111.5 -98.5t-131 -49.5h-152q-43 0 -72 23t-32 60q-2 25 -7.5 48.5t-15 41.5t-25.5 28.5t-39 10.5q-32 0 -48.5 -18t-20.5 -51q-5 -37 -31 -60
t-70 -23q-45 0 -71 23t-31 60q-5 33 -22 51t-51 18q-40 0 -59.5 -30.5t-21.5 -78.5q-1 -31 -14 -54t-35 -38.5t-50 -23t-58 -7.5q-35 0 -64.5 10.5t-51 29t-33.5 44t-12 54.5q0 92 32 164t82.5 121.5t113 75t124.5 25.5q68 0 121.5 -24t96.5 -71q42 42 98 68.5t126 26.5
q43 0 84 -11t76 -32t62 -51.5t41 -68.5q21 24 39 58t30 76z" />
    <glyph glyph-name="maichattawalowrightthai" 
d="M-589 2511q0 45 18 82.5t49.5 64.5t74 42t90.5 15q47 0 88.5 -15t72 -42t48.5 -64.5t18 -82.5v-46h118q37 0 67 -13t52 -35.5t34 -53t12 -65.5q0 -34 -12 -64t-34 -52t-52 -35t-67 -13h-118v-49q0 -45 -18 -82.5t-49.5 -64.5t-74 -42t-90.5 -15q-47 0 -88.5 15t-72 42
t-48.5 64.5t-18 82.5v49h-118q-37 0 -67.5 13t-52 36t-33.5 53t-12 65q0 34 12 64t33.5 52t52 35t67.5 13h118v46z" />
    <glyph glyph-name="maichattawalowrightthai" unicode="&#xf70d;" 
d="M-589 2511q0 45 18 82.5t49.5 64.5t74 42t90.5 15q47 0 88.5 -15t72 -42t48.5 -64.5t18 -82.5v-46h118q37 0 67 -13t52 -35.5t34 -53t12 -65.5q0 -34 -12 -64t-34 -52t-52 -35t-67 -13h-118v-49q0 -45 -18 -82.5t-49.5 -64.5t-74 -42t-90.5 -15q-47 0 -88.5 15t-72 42
t-48.5 64.5t-18 82.5v49h-118q-37 0 -67.5 13t-52 36t-33.5 53t-12 65q0 34 12 64t33.5 52t52 35t67.5 13h118v46z" />
    <glyph glyph-name="thanthakhatlowrightthai" 
d="M-167 2531q76 5 128.5 -30t65.5 -103q6 -33 -1 -65.5t-24.5 -59t-45 -44.5t-61.5 -22q-55 -6 -95 -22.5t-68 -41t-46 -57t-30 -70.5q-14 -46 -46 -75.5t-73.5 -43.5t-87.5 -13t-88 15q-45 15 -76 44.5t-47 67t-17.5 81t13.5 85.5q26 76 81.5 137.5t133.5 106.5t176 73
t208 37z" />
    <glyph glyph-name="thanthakhatlowrightthai" unicode="&#xf70e;" 
d="M-167 2531q76 5 128.5 -30t65.5 -103q6 -33 -1 -65.5t-24.5 -59t-45 -44.5t-61.5 -22q-55 -6 -95 -22.5t-68 -41t-46 -57t-30 -70.5q-14 -46 -46 -75.5t-73.5 -43.5t-87.5 -13t-88 15q-45 15 -76 44.5t-47 67t-17.5 81t13.5 85.5q26 76 81.5 137.5t133.5 106.5t176 73
t208 37z" />
    <glyph glyph-name="maihanakatleftthai" 
d="M-1080 1877q-42 0 -78.5 14t-64 39.5t-43 60.5t-15.5 77v168q0 42 15.5 77t43 60.5t64 40t78.5 14.5t78.5 -14.5t63.5 -40t43 -60.5t16 -77h949q37 0 68 -14t53.5 -38.5t35 -57t12.5 -69.5q0 -38 -12.5 -70.5t-35 -57t-53.5 -38.5t-68 -14h-1150z" />
    <glyph glyph-name="maihanakatleftthai" unicode="&#xf710;" 
d="M-1080 1877q-42 0 -78.5 14t-64 39.5t-43 60.5t-15.5 77v168q0 42 15.5 77t43 60.5t64 40t78.5 14.5t78.5 -14.5t63.5 -40t43 -60.5t16 -77h949q37 0 68 -14t53.5 -38.5t35 -57t12.5 -69.5q0 -38 -12.5 -70.5t-35 -57t-53.5 -38.5t-68 -14h-1150z" />
    <glyph glyph-name="nikhahitleftthai" 
d="M-1196 2224q0 -24 10.5 -47t28 -41t40.5 -28.5t48 -10.5q26 0 50 10.5t42 28.5t28.5 41t10.5 47q0 26 -10.5 50t-28.5 42t-42 28.5t-50 10.5q-25 0 -48 -10.5t-40.5 -28.5t-28 -42t-10.5 -50zM-1446 2224q0 80 29.5 149.5t80.5 121t120 81t147 29.5q75 0 144 -29.5
t121.5 -81t84 -121t31.5 -149.5q0 -78 -31.5 -147t-84 -120t-121.5 -80.5t-144 -29.5q-78 0 -147 29.5t-120 80.5t-80.5 120t-29.5 147z" />
    <glyph glyph-name="nikhahitleftthai" unicode="&#xf711;" 
d="M-1196 2224q0 -24 10.5 -47t28 -41t40.5 -28.5t48 -10.5q26 0 50 10.5t42 28.5t28.5 41t10.5 47q0 26 -10.5 50t-28.5 42t-42 28.5t-50 10.5q-25 0 -48 -10.5t-40.5 -28.5t-28 -42t-10.5 -50zM-1446 2224q0 80 29.5 149.5t80.5 121t120 81t147 29.5q75 0 144 -29.5
t121.5 -81t84 -121t31.5 -149.5q0 -78 -31.5 -147t-84 -120t-121.5 -80.5t-144 -29.5q-78 0 -147 29.5t-120 80.5t-80.5 120t-29.5 147z" />
    <glyph glyph-name="maitaikhuleftthai" 
d="M-1400 2490q-53 0 -83 -14t-45.5 -34.5t-19.5 -42.5t-4 -38q0 -11 3 -28.5t11.5 -34.5t23.5 -29.5t40 -12.5q29 0 49.5 16.5t28.5 46.5q11 45 46.5 67t80.5 22q48 0 83.5 -20.5t46.5 -68.5q7 -29 24.5 -46t43.5 -17q50 0 61 52q5 27 22.5 46t41 30.5t51 16.5t53.5 4
q31 -2 60 -12.5t50.5 -31t33 -51t7.5 -70.5q-12 -73 -45.5 -127t-80 -89t-101.5 -52.5t-110 -17.5q-39 0 -74 10t-64.5 27t-53.5 38.5t-42 45.5q-20 -25 -47 -47t-59.5 -38.5t-69 -26t-74.5 -9.5q-75 0 -133.5 18t-102.5 48.5t-74.5 71t-49.5 85.5t-27.5 92.5t-8.5 91.5
q0 72 20 132.5t54.5 108t81 83t100 59.5t111.5 35.5t115 11.5h715q31 0 57 -12t44.5 -32.5t29 -48t10.5 -58.5t-10.5 -58.5t-29 -47.5t-44.5 -32t-57 -12h-689z" />
    <glyph glyph-name="maitaikhuleftthai" unicode="&#xf712;" 
d="M-1400 2490q-53 0 -83 -14t-45.5 -34.5t-19.5 -42.5t-4 -38q0 -11 3 -28.5t11.5 -34.5t23.5 -29.5t40 -12.5q29 0 49.5 16.5t28.5 46.5q11 45 46.5 67t80.5 22q48 0 83.5 -20.5t46.5 -68.5q7 -29 24.5 -46t43.5 -17q50 0 61 52q5 27 22.5 46t41 30.5t51 16.5t53.5 4
q31 -2 60 -12.5t50.5 -31t33 -51t7.5 -70.5q-12 -73 -45.5 -127t-80 -89t-101.5 -52.5t-110 -17.5q-39 0 -74 10t-64.5 27t-53.5 38.5t-42 45.5q-20 -25 -47 -47t-59.5 -38.5t-69 -26t-74.5 -9.5q-75 0 -133.5 18t-102.5 48.5t-74.5 71t-49.5 85.5t-27.5 92.5t-8.5 91.5
q0 72 20 132.5t54.5 108t81 83t100 59.5t111.5 35.5t115 11.5h715q31 0 57 -12t44.5 -32.5t29 -48t10.5 -58.5t-10.5 -58.5t-29 -47.5t-44.5 -32t-57 -12h-689z" />
    <glyph glyph-name="maiekupperleftthai" 
d="M-724 2828q0 -45 -17 -81t-46 -61.5t-68 -39t-84 -13.5t-84 13.5t-68 39t-46 61.5t-17 81v254q0 45 17 81t46 61.5t68 39t84 13.5t84 -13.5t68 -39t46 -61.5t17 -81v-254z" />
    <glyph glyph-name="maiekupperleftthai" unicode="&#xf713;" 
d="M-724 2828q0 -45 -17 -81t-46 -61.5t-68 -39t-84 -13.5t-84 13.5t-68 39t-46 61.5t-17 81v254q0 45 17 81t46 61.5t68 39t84 13.5t84 -13.5t68 -39t46 -61.5t17 -81v-254z" />
    <glyph glyph-name="maithoupperleftthai" 
d="M-678 3122q14 31 38 53t53 33t61 10t63 -15q30 -14 52 -38.5t32.5 -54t10 -62.5t-15.5 -64q-33 -69 -89.5 -129t-136.5 -103.5t-184 -68.5t-231 -25h-162q-29 0 -52.5 10.5t-39.5 29t-24.5 43t-8.5 52.5v136h-58q-28 0 -51 10.5t-39.5 29t-25.5 43t-9 52.5t9 52.5
t25.5 43t39.5 29t51 10.5h274q28 0 51 -10.5t39.5 -29t25.5 -43t9 -52.5v-115q58 4 105 19t84 38t63 52.5t41 63.5z" />
    <glyph glyph-name="maithoupperleftthai" unicode="&#xf714;" 
d="M-678 3122q14 31 38 53t53 33t61 10t63 -15q30 -14 52 -38.5t32.5 -54t10 -62.5t-15.5 -64q-33 -69 -89.5 -129t-136.5 -103.5t-184 -68.5t-231 -25h-162q-29 0 -52.5 10.5t-39.5 29t-24.5 43t-8.5 52.5v136h-58q-28 0 -51 10.5t-39.5 29t-25.5 43t-9 52.5t9 52.5
t25.5 43t39.5 29t51 10.5h274q28 0 51 -10.5t39.5 -29t25.5 -43t9 -52.5v-115q58 4 105 19t84 38t63 52.5t41 63.5z" />
    <glyph glyph-name="maitriupperleftthai" 
d="M-611 3107q8 29 26.5 51t43 35.5t53.5 18t58 -2.5q33 -8 55.5 -25.5t35 -41.5t14.5 -52t-6 -57q-20 -67 -53.5 -130.5t-77 -115.5t-95 -87.5t-106.5 -45.5h-114q-38 0 -63.5 24.5t-28.5 62.5q-2 26 -7 50t-14 43t-23 30t-35 11q-25 0 -38.5 -17.5t-18.5 -46.5
q-6 -38 -28 -59.5t-60 -21.5t-61 21.5t-27 59.5q-3 26 -16.5 45t-44.5 19q-35 0 -53.5 -31.5t-20.5 -80.5q-2 -65 -39.5 -97t-91.5 -32q-30 0 -54 10t-40.5 27.5t-25.5 41t-9 50.5q0 96 25 166.5t66 117t93.5 69t106.5 22.5q55 0 103 -27.5t85 -71.5q37 44 86 71.5t111 27.5
q37 0 72.5 -11.5t66.5 -33t54.5 -52.5t35.5 -71q18 24 34 59.5t26 77.5z" />
    <glyph glyph-name="maitriupperleftthai" unicode="&#xf715;" 
d="M-611 3107q8 29 26.5 51t43 35.5t53.5 18t58 -2.5q33 -8 55.5 -25.5t35 -41.5t14.5 -52t-6 -57q-20 -67 -53.5 -130.5t-77 -115.5t-95 -87.5t-106.5 -45.5h-114q-38 0 -63.5 24.5t-28.5 62.5q-2 26 -7 50t-14 43t-23 30t-35 11q-25 0 -38.5 -17.5t-18.5 -46.5
q-6 -38 -28 -59.5t-60 -21.5t-61 21.5t-27 59.5q-3 26 -16.5 45t-44.5 19q-35 0 -53.5 -31.5t-20.5 -80.5q-2 -65 -39.5 -97t-91.5 -32q-30 0 -54 10t-40.5 27.5t-25.5 41t-9 50.5q0 96 25 166.5t66 117t93.5 69t106.5 22.5q55 0 103 -27.5t85 -71.5q37 44 86 71.5t111 27.5
q37 0 72.5 -11.5t66.5 -33t54.5 -52.5t35.5 -71q18 24 34 59.5t26 77.5z" />
    <glyph glyph-name="maichattawaupperleftthai" 
d="M-1105 3222q0 39 15 72t40.5 56.5t60 37t73.5 13.5t73 -13.5t59.5 -37t40.5 -56.5t15 -72v-60h136q30 0 55 -11.5t43 -31t28 -46.5t10 -57t-10 -56.5t-28 -46t-43 -31t-55 -11.5h-136v-60q0 -39 -15 -72t-40.5 -56.5t-60 -37t-73.5 -13.5t-73.5 13.5t-60 37t-40 56.5
t-14.5 72v60h-136q-30 0 -55 11.5t-43 31t-28 46.5t-10 57t10 56.5t28 46t43 31t55 11.5h136v60z" />
    <glyph glyph-name="maichattawaupperleftthai" unicode="&#xf716;" 
d="M-1105 3222q0 39 15 72t40.5 56.5t60 37t73.5 13.5t73 -13.5t59.5 -37t40.5 -56.5t15 -72v-60h136q30 0 55 -11.5t43 -31t28 -46.5t10 -57t-10 -56.5t-28 -46t-43 -31t-55 -11.5h-136v-60q0 -39 -15 -72t-40.5 -56.5t-60 -37t-73.5 -13.5t-73.5 13.5t-60 37t-40 56.5
t-14.5 72v60h-136q-30 0 -55 11.5t-43 31t-28 46.5t-10 57t10 56.5t28 46t43 31t55 11.5h136v60z" />
    <glyph glyph-name="thanthakhatupperleftthai" 
d="M-565 3057q69 5 116.5 -26.5t58.5 -92.5q6 -30 -0.5 -60t-22.5 -54t-40.5 -40.5t-55.5 -19.5q-50 -5 -86.5 -20.5t-62.5 -38t-42.5 -51.5t-25.5 -62q-11 -39 -37 -65t-60 -39.5t-73.5 -14.5t-77.5 12q-41 14 -69.5 41t-42.5 61.5t-13 73.5t18 75q31 66 78 121.5t111 97
t145.5 68t181.5 34.5z" />
    <glyph glyph-name="thanthakhatupperleftthai" unicode="&#xf717;" 
d="M-565 3057q69 5 116.5 -26.5t58.5 -92.5q6 -30 -0.5 -60t-22.5 -54t-40.5 -40.5t-55.5 -19.5q-50 -5 -86.5 -20.5t-62.5 -38t-42.5 -51.5t-25.5 -62q-11 -39 -37 -65t-60 -39.5t-73.5 -14.5t-77.5 12q-41 14 -69.5 41t-42.5 61.5t-13 73.5t18 75q31 66 78 121.5t111 97
t145.5 68t181.5 34.5z" />
    <glyph glyph-name="uni00A0" unicode="&#xa0;" horiz-adv-x="496" 
 />
    <glyph glyph-name="cent" unicode="&#xa2;" horiz-adv-x="1634" 
d="M784 1423q-50 -14 -98.5 -47t-86 -90.5t-60.5 -141t-23 -198.5q0 -83 18 -153t52.5 -124t84.5 -90t113 -51v895zM784 191q-173 12 -300.5 73t-211.5 160.5t-125 232.5t-41 289q0 168 43.5 310t129 248.5t212 172.5t293.5 82v191q0 18 6.5 36t18 31.5t27.5 22t35 8.5
q18 0 33.5 -8.5t27 -22t18 -31.5t6.5 -36v-183q121 -9 223 -45.5t175.5 -90.5t114.5 -121t41 -136q0 -46 -15.5 -80t-42.5 -57t-62.5 -34.5t-75.5 -11.5q-45 0 -73.5 15t-50 38.5t-40 52t-43.5 55.5t-60.5 48t-90.5 31v-908q52 11 87 34.5t60.5 52.5t46 60t45 56.5t57.5 42
t83 16.5q40 0 72 -13.5t55 -36t35.5 -52t12.5 -60.5q0 -63 -33.5 -134.5t-102.5 -133.5t-173 -107t-245 -57v-202q0 -18 -6.5 -35.5t-18 -31.5t-27 -22.5t-33.5 -8.5q-19 0 -35 8.5t-27.5 22.5t-18 31.5t-6.5 35.5v202z" />
    <glyph glyph-name="sterling" unicode="&#xa3;" horiz-adv-x="1675" 
d="M944 1140q101 0 152 -40t51 -125t-51 -124.5t-152 -39.5h-168q9 -60 -9 -122.5t-51 -122.5t-76 -114.5t-86 -97.5q47 19 98.5 32.5t120.5 13.5q52 0 103 -8.5t102 -18.5t102.5 -18.5t104.5 -8.5q25 0 50.5 4.5t50 10.5t49.5 10.5t51 4.5q92 0 142.5 -50t50.5 -138
q0 -71 -30.5 -118t-80 -75t-111.5 -39.5t-125 -11.5q-76 0 -152 16t-153.5 35t-157 35t-162.5 16q-49 0 -92.5 -16t-85.5 -35t-84.5 -35t-89.5 -16q-51 0 -90.5 17t-65.5 46.5t-39.5 70t-13.5 87.5q0 58 27.5 109t66 99.5t80.5 96.5t71.5 100.5t38 111.5t-19.5 129h-120
q-81 0 -131.5 41t-50.5 123q0 75 41 120t122 45h13q-17 33 -30 71.5t-22.5 78t-14.5 79t-5 75.5q0 133 55 244.5t151.5 191.5t227 124.5t281.5 44.5q125 0 228.5 -21.5t185.5 -58t143.5 -85.5t102.5 -104.5t61 -114.5t20 -116q0 -54 -18 -95.5t-49.5 -70t-75 -43
t-95.5 -14.5q-48 0 -80.5 13t-54.5 35.5t-37.5 51t-29.5 60.5q-14 30 -30.5 60.5t-44 54.5t-71.5 39.5t-111 15.5q-54 0 -104 -15.5t-88.5 -45.5t-61.5 -74t-23 -101q0 -30 6.5 -66.5t17 -74t24 -73.5t28.5 -66h274z" />
    <glyph glyph-name="yen" unicode="&#xa5;" horiz-adv-x="1852" 
d="M671 422h-297q-31 0 -58 11t-46.5 30.5t-30.5 46.5t-11 58q0 30 11 57t30.5 46.5t46.5 31t58 11.5h297v88q-9 15 -14.5 23.5t-15.5 25.5h-267q-31 0 -58 11.5t-46.5 31.5t-30.5 46.5t-11 57.5q0 30 11 57t30.5 46.5t46.5 31t58 11.5h95l-308 504q-17 28 -30.5 62.5
t-13.5 69.5q0 67 27 113t68 74t89 40t90 12q52 0 90 -17t64 -41t42 -49.5t24 -41.5l315 -601l314 600q8 17 24.5 42.5t42.5 49.5t64 41t90 17q42 0 90 -12t89 -40t68 -74t27 -113q0 -35 -13.5 -69.5t-30.5 -62.5l-307 -504h94q31 0 57.5 -11.5t46.5 -31t31.5 -46.5t11.5 -57
q0 -31 -11.5 -57.5t-31.5 -46.5t-46.5 -31.5t-57.5 -11.5h-267q-8 -14 -14.5 -24t-15.5 -25v-88h297q31 0 57.5 -11.5t46.5 -31t31.5 -46.5t11.5 -57q0 -31 -11.5 -58t-31.5 -46.5t-46.5 -30.5t-57.5 -11h-297v-190q0 -58 -17 -105.5t-50 -81t-80.5 -52t-107.5 -18.5
t-107.5 18.5t-80.5 52t-50 81t-17 105.5v190z" />
    <glyph glyph-name="copyright" unicode="&#xa9;" horiz-adv-x="2216" 
d="M66 987q0 145 38 278.5t106.5 248.5t164 209t211.5 160.5t249 103t275 36.5t274.5 -36.5t248 -103t211 -160.5t163.5 -209t105.5 -248.5t37.5 -278.5q0 -149 -37.5 -284t-105.5 -250t-163.5 -208t-211 -158.5t-248 -100.5t-274.5 -35t-275 35t-249 100.5t-211.5 158.5
t-164 208t-106.5 249.5t-38 284.5zM348 987q0 -171 57 -316t158.5 -251.5t241 -166.5t305.5 -60q160 0 299 60t242 166.5t162 251.5t59 316q0 114 -27 216.5t-76 190t-118 158t-154 120t-183 76t-204 26.5q-166 0 -305.5 -59t-241 -164t-158.5 -249t-57 -315zM556 981
q0 128 39 237.5t111.5 190t176.5 126.5t235 46q111 0 198.5 -31.5t148 -80.5t92.5 -108t32 -113q0 -37 -12.5 -62.5t-30.5 -41t-37.5 -22.5t-33.5 -7q-31 0 -52 7.5t-36 20.5t-25.5 30t-20.5 36q-13 24 -28 47.5t-39.5 42.5t-61.5 31t-94 12q-60 0 -109 -24.5t-84 -70.5
t-54 -111.5t-19 -146.5q0 -80 19 -146.5t54.5 -115t86 -75.5t112.5 -27q51 0 86 12t59.5 31t41 43t31.5 48q12 20 24.5 38t29 32t38 22.5t51.5 8.5q51 0 83 -31t32 -86q0 -26 -14 -63t-41.5 -76.5t-68 -78.5t-93.5 -70t-118 -50t-141 -19q-129 0 -233.5 46t-179 126.5
t-115 189t-40.5 233.5z" />
    <glyph glyph-name="guillemotleft" unicode="&#xab;" horiz-adv-x="1516" 
d="M1070 777l199 -136q49 -34 71.5 -78t22 -87t-20 -79.5t-54 -56t-81.5 -16t-101 41.5l-273 197q-51 36 -78 93.5t-27 121.5q0 65 27 122.5t79 92.5l273 198q51 36 97 39t81 -16.5t56.5 -56.5t22.5 -80t-21 -86.5t-74 -77.5zM435 777l199 -136q49 -34 71.5 -78t22 -87
t-20 -79.5t-54 -56t-81.5 -16t-101 41.5l-273 197q-51 36 -78 93.5t-27 121.5q0 65 27 122.5t79 92.5l273 198q51 36 97 39t81 -16.5t56.5 -56.5t22.5 -80t-21 -86.5t-74 -77.5z" />
    <glyph glyph-name="registered" unicode="&#xae;" horiz-adv-x="2216" 
d="M66 987q0 145 38 278.5t106.5 248.5t164 209t211.5 160.5t249 103t275 36.5t274.5 -36.5t248 -103t211 -160.5t163.5 -209t105.5 -248.5t37.5 -278.5q0 -149 -37.5 -284t-105.5 -250t-163.5 -208t-211 -158.5t-248 -100.5t-274.5 -35t-275 35t-249 100.5t-211.5 158.5
t-164 208t-106.5 249.5t-38 284.5zM348 987q0 -171 57 -316t158.5 -251.5t241 -166.5t305.5 -60q160 0 299 60t242 166.5t162 251.5t59 316q0 114 -27 216.5t-76 190t-118 158t-154 120t-183 76t-204 26.5q-166 0 -305.5 -59t-241 -164t-158.5 -249t-57 -315zM699 1401
q0 36 12 63t32 45t46 27t53 9h344q96 0 172.5 -16.5t129.5 -57.5t81.5 -109.5t28.5 -171.5q0 -75 -19.5 -132.5t-52 -99t-75.5 -66t-89 -33.5l159 -218q19 -26 28 -54.5t7.5 -56.5t-14.5 -52.5t-39 -42.5q-34 -24 -67.5 -28t-64 6.5t-57.5 33.5t-48 53l-242 354h-41v-304
q0 -38 -11 -66t-30.5 -46t-45 -27t-54.5 -9t-55 9t-45.5 27t-31 46t-11.5 66v851zM983 1093h188q26 0 49 4.5t40.5 16.5t27.5 33t10 54q0 32 -10 52t-27.5 31.5t-40.5 15.5t-49 4h-188v-211z" />
    <glyph glyph-name="guillemotright" unicode="&#xbb;" horiz-adv-x="1516" 
d="M247 912q-52 34 -74 77.5t-21 86.5t22.5 80t56.5 56.5t81 16.5t97 -39l273 -198q52 -35 79 -92.5t27 -122.5q0 -64 -27 -121.5t-78 -93.5l-273 -197q-54 -38 -101 -41.5t-81.5 16t-54 56t-20 79.5t22 87t71.5 78l199 136zM882 912q-52 34 -74 77.5t-21 86.5t22.5 80
t56.5 56.5t81 16.5t97 -39l273 -198q52 -35 79 -92.5t27 -122.5q0 -64 -27 -121.5t-78 -93.5l-273 -197q-54 -38 -101 -41.5t-81.5 16t-54 56t-20 79.5t22 87t71.5 78l199 136z" />
    <glyph glyph-name="onequarter" unicode="&#xbc;" horiz-adv-x="2458" 
d="M1605 1941q8 15 19.5 30.5t26.5 28.5t34.5 21t43.5 8q27 0 50 -10t40 -25.5t26.5 -36t9.5 -41.5q0 -23 -8.5 -48t-23.5 -53l-941 -1777q-8 -15 -19.5 -30.5t-26.5 -27.5t-34.5 -20t-43.5 -8q-27 0 -50 9.5t-40 25.5t-26.5 36t-9.5 41q0 24 8 49t23 53zM417 1530
q-39 -19 -91 -27t-103 -8q-53 0 -84.5 30t-31.5 91q0 34 8 55.5t25.5 35t45 21t66.5 14.5l65 11q31 6 54 18.5t39.5 29t29 35.5t22.5 38q12 21 24.5 41t29 35.5t39.5 24.5t57 9q32 0 57.5 -6t43.5 -21t28 -40.5t10 -64.5v-906q0 -37 -8 -69t-27.5 -55t-51.5 -36.5t-80 -13.5
q-44 0 -75.5 13.5t-52 36.5t-30 55t-9.5 69v584zM1944 228h-418q-40 0 -69.5 13t-48.5 32.5t-28.5 43.5t-9.5 47q0 42 9.5 68t22.5 43l511 623q16 19 32.5 34.5t37.5 26t47 16.5t62 6q37 0 68 -10.5t53.5 -29t35 -45.5t12.5 -60v-556h46q54 0 85.5 -35t31.5 -91
q0 -57 -31.5 -91.5t-85.5 -34.5h-46v-125q0 -30 -7.5 -54.5t-26 -42.5t-49 -27.5t-75.5 -9.5q-46 0 -76.5 9.5t-49 27.5t-26 42.5t-7.5 54.5v125zM1944 804l-255 -324h255v324z" />
    <glyph glyph-name="onehalf" unicode="&#xbd;" horiz-adv-x="2458" 
d="M2254 285q72 0 111 -35.5t39 -107.5q0 -80 -39.5 -111t-110.5 -31h-664q-43 0 -74 13t-51 34.5t-29.5 50.5t-9.5 61q0 46 20 90t67 90.5t124 100t191 119.5q64 36 109 64t73.5 55t41.5 56t13 68q0 26 -12.5 47t-34 36t-50 23t-60.5 8q-66 0 -117 -31.5t-76 -97.5
q-9 -24 -19 -43.5t-24.5 -33t-35.5 -21t-51 -7.5q-32 0 -59.5 7t-48 22.5t-32 40.5t-11.5 61q0 79 39 146.5t106 117.5t157 78.5t192 28.5q111 0 198 -26t148 -72.5t93 -109.5t32 -136q0 -84 -17 -145.5t-52.5 -109t-89.5 -86t-127 -76.5q-68 -35 -113 -57t-74.5 -36.5
t-47.5 -24.5t-33 -20h409zM1515 1941q8 15 19.5 30.5t26.5 28.5t34.5 21t43.5 8q27 0 50 -10t40 -25.5t26.5 -36t9.5 -41.5q0 -23 -8.5 -48t-23.5 -53l-941 -1777q-8 -15 -19.5 -30.5t-26.5 -27.5t-34.5 -20t-43.5 -8q-27 0 -50 9.5t-40 25.5t-26.5 36t-9.5 41q0 24 8 49
t23 53zM417 1530q-39 -19 -91 -27t-103 -8q-53 0 -84.5 30t-31.5 91q0 34 8 55.5t25.5 35t45 21t66.5 14.5l65 11q31 6 54 18.5t39.5 29t29 35.5t22.5 38q12 21 24.5 41t29 35.5t39.5 24.5t57 9q32 0 57.5 -6t43.5 -21t28 -40.5t10 -64.5v-906q0 -37 -8 -69t-27.5 -55
t-51.5 -36.5t-80 -13.5q-44 0 -75.5 13.5t-52 36.5t-30 55t-9.5 69v584z" />
    <glyph glyph-name="threequarters" unicode="&#xbe;" horiz-adv-x="2458" 
d="M1944 228h-418q-40 0 -69.5 13t-48.5 32.5t-28.5 43.5t-9.5 47q0 42 9.5 68t22.5 43l511 623q16 19 32.5 34.5t37.5 26t47 16.5t62 6q37 0 68 -10.5t53.5 -29t35 -45.5t12.5 -60v-556h46q54 0 85.5 -35t31.5 -91q0 -57 -31.5 -91.5t-85.5 -34.5h-46v-125
q0 -30 -7.5 -54.5t-26 -42.5t-49 -27.5t-75.5 -9.5q-46 0 -76.5 9.5t-49 27.5t-26 42.5t-7.5 54.5v125zM1944 804l-255 -324h255v324zM121 1036q0 60 41 97t112 37q31 0 51.5 -6.5t35.5 -18t25.5 -26t20.5 -30.5t21.5 -31.5t30.5 -28t48 -20.5t74 -8t78 10t55 27.5t32.5 40
t10.5 46.5q0 23 -6 42.5t-21 35t-41 26t-66 15.5l-49 7t-54 15.5t-44 33t-18 59.5q0 42 11.5 68t33.5 40.5t54.5 20.5t74.5 8h-1q51 4 75 31t24 69q0 22 -11 39.5t-30.5 28.5t-45 17t-53.5 6q-38 0 -64 -7t-44.5 -18.5t-31.5 -26t-24 -28.5q-11 -15 -23 -28.5t-27 -24
t-35 -16.5t-48 -6q-30 0 -56 6t-46 20t-31.5 36.5t-11.5 55.5q0 53 20.5 96.5t55.5 77.5t81 59t96.5 41t102.5 24t99 8q126 0 214 -29.5t142.5 -77t79.5 -108t25 -123.5q0 -75 -35.5 -131t-104.5 -94q88 -31 127.5 -99t39.5 -158q0 -102 -40 -177.5t-108.5 -125.5t-161 -75
t-197.5 -25q-89 0 -157.5 15.5t-120 41t-87 57.5t-57.5 66t-31.5 66t-9.5 57zM1736 1941q8 15 19.5 30.5t26.5 28.5t34.5 21t43.5 8q27 0 50 -10t40 -25.5t26.5 -36t9.5 -41.5q0 -23 -8.5 -48t-23.5 -53l-941 -1777q-8 -15 -19.5 -30.5t-26.5 -27.5t-34.5 -20t-43.5 -8
q-27 0 -50 9.5t-40 25.5t-26.5 36t-9.5 41q0 24 8 49t23 53z" />
    <glyph glyph-name="multiply" unicode="&#xd7;" horiz-adv-x="1614" 
d="M1422 427q23 -25 39.5 -56t16.5 -63q0 -41 -15 -75.5t-40.5 -59.5t-61 -38.5t-75.5 -13.5q-32 0 -62 17t-53 39l-364 362q-92 -91 -183 -181t-182 -181q-23 -22 -52.5 -39t-61.5 -17q-41 0 -76 13.5t-60.5 38.5t-40.5 59.5t-15 75.5q0 34 15 63.5t41 55.5l362 365
l-362 364q-26 27 -41 56t-15 64q0 41 15 75.5t40.5 59t60.5 38t76 13.5q32 0 61.5 -16.5t52.5 -38.5l365 -362l364 362q23 22 53 38.5t62 16.5q40 0 75.5 -13.5t61 -38t40.5 -59t15 -75.5q0 -35 -15 -64t-41 -56l-363 -364z" />
    <glyph glyph-name="divide" unicode="&#xf7;" horiz-adv-x="1667" 
d="M602 221q0 48 18.5 91t50 75.5t73 52t87.5 19.5q48 0 90.5 -19.5t74.5 -52t50.5 -75.5t18.5 -91q0 -43 -18.5 -83t-50 -70.5t-73 -49t-87.5 -18.5t-88.5 17t-74.5 47t-51.5 70.5t-19.5 86.5zM602 1368q0 48 18.5 90.5t50 74.5t73 50.5t87.5 18.5q48 0 90.5 -18.5
t74.5 -50.5t50.5 -74.5t18.5 -90.5q0 -46 -18.5 -87.5t-50 -73t-73 -50t-87.5 -18.5t-88.5 18.5t-74.5 50t-51.5 73t-19.5 87.5zM1391 971q38 0 73 -9t62 -30t43.5 -55t16.5 -83q0 -50 -16.5 -84.5t-43.5 -55.5t-62 -30.5t-73 -9.5h-1115q-39 0 -74 9.5t-62 30.5t-43 55.5
t-16 84.5q0 49 16 83t43 55t62 30t74 9h1115z" />
    <glyph glyph-name="kokaithai" unicode="&#xe01;" horiz-adv-x="1802" 
d="M1687 218q0 -51 -20 -95t-54.5 -75.5t-80.5 -49.5t-97 -18t-97 18t-80 49.5t-54 75.5t-20 95v773q0 39 -5.5 79t-19 77.5t-37 70t-60.5 57t-89 38.5t-121 14q-81 1 -137.5 -16.5t-93 -44.5t-57.5 -59t-32 -60q26 -23 45.5 -48.5t32 -55.5t19 -67t6.5 -83v-675
q0 -51 -19.5 -95t-53 -75.5t-79 -49.5t-96.5 -18t-96.5 18t-79 49.5t-53 75.5t-19.5 95v687q0 42 -14.5 86t-56.5 86q-26 25 -38 47t-13.5 44.5t7 47t24.5 56.5q43 88 114 168t171 141.5t229.5 98t289.5 36.5q151 0 272 -26t214 -72.5t159.5 -110.5t108.5 -141t62 -164
t20 -178z" />
    <glyph glyph-name="khokhaithai" unicode="&#xe02;" horiz-adv-x="1536" 
d="M831 747l150 760q12 50 41.5 89t70.5 64t89.5 33.5t99.5 -1.5t91 -38t65.5 -68t34 -90t-4.5 -105l-268 -1085q-16 -68 -48 -127t-78.5 -103.5t-107.5 -70t-135 -25.5q-75 0 -135.5 26t-106.5 70t-77 103.5t-47 126.5l-260 1037h-67q-35 0 -64 13t-50 36t-32.5 53.5
t-11.5 65.5t11.5 65.5t32.5 53.5t50 36t64 13h387q35 0 61 -13t45 -35.5t31.5 -53.5t20.5 -66z" />
    <glyph glyph-name="khokhuatthai" unicode="&#xe03;" horiz-adv-x="1634" 
d="M1520 545q0 -101 -26.5 -184t-73 -148t-110.5 -113t-138.5 -79.5t-157 -46.5t-166.5 -15q-128 0 -250.5 37.5t-219 111t-155.5 183.5t-59 254q0 101 8 182t34 150t74 129t128 120q20 14 39 30q17 14 36.5 29.5t38.5 31.5q-8 -3 -21 -6.5t-26.5 -5.5t-25.5 -3.5t-17 -1.5
q-38 0 -93.5 9t-114 37t-112 79t-87.5 135q-12 37 -9 74t20.5 69t47 55.5t69.5 34.5q37 10 74 5t68.5 -22.5t55.5 -46.5t35 -67q9 -32 29.5 -49.5t48.5 -17.5q29 0 49.5 18t31.5 50q10 30 29.5 55.5t45 43.5t56 28.5t64.5 10.5q43 0 80.5 -16.5t65 -44.5t43.5 -65.5
t16 -79.5q1 -104 -5.5 -183.5t-25.5 -144t-54 -119.5t-90 -110q-34 -34 -54 -75.5t-30.5 -87t-14 -92t-3.5 -89.5q0 -126 41 -194t139 -68q46 0 78.5 13t53.5 41.5t30.5 74.5t9.5 112v896q0 52 19.5 94.5t53.5 72.5t79.5 46.5t97.5 16.5t97.5 -16.5t79.5 -46.5t53.5 -72.5
t19.5 -94.5v-924z" />
    <glyph glyph-name="khokhwaithai" unicode="&#xe04;" horiz-adv-x="1860" 
d="M1745 208q0 -51 -20 -93t-54 -72t-80 -46.5t-97 -16.5t-96.5 16.5t-79.5 46.5t-53.5 72t-19.5 93v816q0 58 -13 111t-47.5 93t-95 63.5t-155.5 23.5t-157.5 -23.5t-99.5 -63.5t-52 -93t-15 -111v-119q57 49 121 82.5t143 48.5q42 8 78 1t64 -26t46 -48.5t23 -66.5
t-2.5 -71.5t-26 -63t-47 -49t-64.5 -27.5q-97 -17 -161.5 -55.5t-103 -97t-54.5 -136t-16 -171.5v-17q0 -51 -19.5 -93t-53 -72t-79 -46.5t-96.5 -16.5t-96 16.5t-78.5 46.5t-53 72t-19.5 93v804q0 92 19 180t59.5 166t105 144t155.5 113.5t210 74t270 26.5
q149 0 267.5 -26.5t208.5 -74t153.5 -113.5t104 -144t59 -166t18.5 -180v-804z" />
    <glyph glyph-name="khokhonthai" unicode="&#xe05;" horiz-adv-x="1876" 
d="M1761 208q0 -51 -20 -93t-54 -72t-79.5 -46.5t-96.5 -16.5t-96.5 16.5t-79.5 46.5t-53.5 72t-19.5 93v889q0 44 -7.5 95t-25.5 94l-205 -131q-45 -29 -87 -29t-89 29l-205 127q-15 -47 -22 -95.5t-7 -89.5v-232q57 49 121 82.5t143 48.5q42 8 78 1t64 -26t46 -48.5
t23 -66.5t-2.5 -71.5t-26 -63t-47 -49t-64.5 -27.5q-97 -17 -161.5 -57t-103 -96.5t-54.5 -125t-16 -141.5v-17q0 -51 -20 -93t-54 -72t-79.5 -46.5t-96.5 -16.5t-96.5 16.5t-79.5 46.5t-53.5 72t-19.5 93v832q0 99 20 192t66.5 175t122.5 148t188 111q19 8 47 17t61 12
t69.5 -3.5t72.5 -30.5l176 -117l183 123q28 19 61 24.5t65.5 3.5t60 -9.5t45.5 -14.5q111 -45 189 -111.5t126.5 -149t70.5 -176.5t22 -194v-832z" />
    <glyph glyph-name="khorakhangthai" unicode="&#xe06;" horiz-adv-x="1815" 
d="M1196 1467q0 52 20 95t54 73.5t80 47t98 16.5t98 -16.5t80 -47t54 -73.5t20 -95v-865q0 -141 -34.5 -258.5t-112 -202t-201.5 -131.5t-302 -47q-76 0 -141 22t-119 57t-98 78t-78 86v-14q0 -46 -17.5 -85t-48 -67.5t-71 -44.5t-86.5 -16t-86.5 16t-71 44.5t-48 67.5
t-17.5 85v418q0 66 3.5 117t14 93t28 77t46 68t68.5 66t94 71q28 20 47.5 36t34.5 29.5t26.5 26.5t22.5 27q-25 -7 -45 -8t-45 -1t-58.5 3.5t-71.5 13.5t-77.5 27.5t-76 45t-67.5 66.5t-52 92q-14 36 -11 73t20.5 69t48 56t70.5 35q37 10 75.5 5t72 -22.5t59 -46.5t36.5 -67
q9 -32 29 -49.5t48 -17.5q29 0 49.5 18t31.5 50q10 30 30.5 55.5t47.5 43.5t58.5 28.5t65.5 10.5q43 0 81.5 -16.5t67.5 -44.5t46.5 -65.5t17.5 -79.5v-147q0 -74 -15 -136t-42 -115t-65.5 -98.5t-86.5 -85.5q-36 -29 -59.5 -52.5t-37.5 -50.5t-20 -61t-6 -85
q0 -65 18.5 -118.5t57.5 -91.5t100 -59.5t147 -21.5q95 0 148 50.5t53 158.5v885z" />
    <glyph glyph-name="ngonguthai" unicode="&#xe07;" horiz-adv-x="1425" 
d="M1311 438q0 -91 -20 -162t-56 -124t-86 -90t-110.5 -60t-129.5 -33t-143 -10q-98 0 -177.5 23t-141 66t-105.5 104.5t-72 138.5l-174 478q-18 49 -13.5 93.5t26.5 81.5t58.5 64t83.5 42q46 15 93 14.5t88 -17t73.5 -48t49.5 -78.5l203 -565q5 -15 14 -24t17.5 -9.5
t15 9.5t6.5 33v974h-87q-35 0 -66 13.5t-54 36.5t-36.5 54t-13.5 66t13.5 66t36.5 54t54 36.5t66 13.5h417q35 0 66 -13.5t54 -36.5t36.5 -54t13.5 -66v-1071z" />
    <glyph glyph-name="chochanthai" unicode="&#xe08;" horiz-adv-x="1655" 
d="M897 565q25 69 50.5 148t46.5 151t34.5 128.5t15.5 80.5q10 118 -47.5 180t-169.5 62q-75 0 -132 -26.5t-93 -93.5q-20 -44 -57 -71.5t-81.5 -39t-91 -7t-85.5 25.5q-42 22 -72 56t-43.5 74.5t-9.5 83.5t30 84q95 149 260.5 232t387.5 83q79 0 162.5 -12.5t163 -41
t150.5 -75t124.5 -114t84.5 -158.5t31 -209q0 -83 -22 -179t-61 -207.5t-93 -239t-118 -273.5q-23 -53 -59 -95.5t-82.5 -72.5t-102 -46.5t-116.5 -16.5q-64 0 -121 15t-104 45t-82.5 73.5t-55.5 100.5l-146 408h-22q-36 0 -65.5 13.5t-51 37t-33.5 54.5t-12 67t12 67.5
t33.5 55t51 37t65.5 13.5h290q36 0 60.5 -12t42.5 -33t30.5 -50.5t23.5 -63.5z" />
    <glyph glyph-name="chochingthai" unicode="&#xe09;" horiz-adv-x="1802" 
d="M111 718q0 52 19.5 96t53 76t79 50t97.5 18t97.5 -18t79.5 -50t53.5 -76t19.5 -96v-116q0 -54 18.5 -95.5t53 -70.5t82.5 -44t108 -15q102 0 163.5 28t94.5 77.5t43.5 117t10.5 145.5v287q0 57 -16 109.5t-53 93t-97 64.5t-147 24q-106 0 -175.5 -25t-103.5 -70
q-26 -41 -63.5 -67t-80.5 -36t-88 -3.5t-86 32.5q-41 25 -68.5 63.5t-39 82t-4 88t37.5 81.5q100 121 270 184t401 63q153 0 273.5 -26t211 -72.5t154 -111t103 -142t57.5 -165t18 -179.5v-821q0 -51 -19 -92t-52 -70.5t-77.5 -45.5t-95.5 -16q-45 0 -85 12.5t-71.5 35.5
t-53.5 55.5t-30 73.5q-54 -54 -108.5 -90t-111.5 -58t-116.5 -31.5t-122.5 -9.5q-173 0 -294 44.5t-196.5 126t-109.5 196.5t-34 256v132z" />
    <glyph glyph-name="chochangthai" unicode="&#xe0a;" horiz-adv-x="1614" 
d="M999 717q0 135 -56.5 220t-176.5 103l-94 -131q-23 -31 -35 -56t-17.5 -49t-7 -50t-2.5 -58v-147q0 -250 205 -250q46 0 80.5 11t57.5 37.5t34.5 70.5t11.5 110v189zM1517 1432q-19 -95 -64.5 -166.5t-133.5 -126.5q60 -37 95.5 -91.5t54.5 -114t24.5 -116.5t5.5 -100
v-193q0 -100 -28 -181t-76.5 -143.5t-114.5 -108t-142 -75t-158.5 -43.5t-164.5 -14q-85 0 -170 15t-163.5 46t-146 77.5t-117.5 109t-78.5 142t-28.5 175.5v152q0 65 7.5 114t21.5 87.5t34 69.5t44.5 60t53 59.5t60.5 68.5q43 52 71 91t31 77q3 27 -13 44t-44 17
q-46 0 -121 -19q-33 -9 -65.5 -5t-60 18t-48 38.5t-30.5 56.5q-10 33 -7 65t17.5 60t38.5 48.5t56 31.5q42 14 82 23t74.5 14t62.5 7t46 2q103 0 192 -24t152.5 -73.5t96 -125t22.5 -178.5v-9q72 22 115 73.5t60 141.5q9 47 31 85t56 63t80 35.5t102 3.5q49 -6 88 -28.5
t64.5 -57.5t35.5 -80.5t0 -97.5z" />
    <glyph glyph-name="sosothai" unicode="&#xe0b;" horiz-adv-x="1655" 
d="M29 1451q-15 37 -11.5 75.5t22 71.5t50 58t72.5 36q39 10 77.5 5t72 -23t58.5 -48t36 -69q8 -33 29.5 -49.5t50.5 -16.5q27 0 48 17t33 50q11 31 31 56.5t47 44.5t59.5 29.5t67.5 10.5q44 0 83.5 -14.5t68 -42.5t44.5 -67.5t13 -88.5q-4 -51 -9.5 -95t-13.5 -84
q65 23 103 71.5t55 130.5q9 47 30 85t54 63t78 35.5t101 3.5q49 -6 88 -28.5t64.5 -57.5t35.5 -80.5t0 -97.5q-19 -90 -65 -159.5t-134 -125.5q42 -24 72.5 -57t51 -71t33.5 -80t19.5 -82t9 -77.5t2.5 -66.5v-185q0 -101 -28 -182.5t-77.5 -145t-116 -109t-143.5 -75
t-160.5 -43.5t-166.5 -14q-84 0 -168.5 14.5t-162.5 45.5t-145 78t-117 112t-78.5 148.5t-28.5 187.5q0 101 9.5 182t37.5 150t77.5 129t129.5 120q19 14 37 28q16 12 35 27t38 31q-8 -3 -20.5 -5.5t-25.5 -4t-24 -2t-16 -0.5q-37 0 -94 9t-117 35.5t-114.5 76t-87.5 130.5z
M1053 713q0 61 -12 117.5t-36 101.5t-61 75.5t-88 41.5q-19 -28 -40 -55.5t-46 -55.5q-31 -35 -50.5 -77t-31 -87t-16 -91t-4.5 -89q0 -127 50 -194.5t146 -67.5q48 0 83.5 13t59 41.5t35 74.5t11.5 112v140z" />
    <glyph glyph-name="chochoethai" unicode="&#xe0c;" horiz-adv-x="2666" 
d="M156 905q0 42 -14.5 86t-56.5 86q-26 25 -38 47t-13.5 44.5t7 47t24.5 56.5q43 88 111.5 168t164.5 141.5t220.5 98t278.5 36.5q147 0 263.5 -26t205 -72.5t151 -110.5t102.5 -141t58 -164t18 -178v-273q0 -80 8 -148.5t31.5 -118.5t66 -78.5t111.5 -28.5q40 0 75 11.5
t61.5 39t41.5 72t15 110.5v857q0 52 20 95t54 73.5t80 47t98 16.5t98 -16.5t80 -47t54 -73.5t20 -95v-865q0 -152 -29.5 -271t-96 -200.5t-173.5 -124.5t-262 -43q-111 0 -206 49.5t-167 135.5q-8 -41 -29.5 -74t-53.5 -56t-72 -35.5t-85 -12.5q-51 0 -95 16t-77 45t-52 70
t-19 92v835q0 57 -10.5 109.5t-42 93t-89.5 64.5t-153 24q-65 0 -113.5 -14.5t-84 -38.5t-58.5 -54t-35 -61q26 -25 45.5 -49t33 -52.5t20.5 -63.5t7 -81v-540h30q38 0 69.5 -14.5t54.5 -39t36 -58t13 -71.5t-13 -71t-36 -58t-54.5 -39t-69.5 -14h-356q-38 0 -69.5 14
t-54.5 39t-36 58t-13 71v723z" />
    <glyph glyph-name="yoyingthai" unicode="&#xe0d;" horiz-adv-x="2666" 
d="M156 905q0 42 -14.5 86t-56.5 86q-26 25 -38 47t-13.5 44.5t7 47t24.5 56.5q43 88 111.5 168t164.5 141.5t220.5 98t278.5 36.5q147 0 263.5 -26t205 -72.5t151 -110.5t102.5 -141t58 -164t18 -178v-283q0 -66 12 -111.5t35 -73t55.5 -40t74.5 -12.5q75 0 121 31t70.5 86
t33 130t8.5 162v554q0 52 20 95t54 73.5t80 47t98 16.5t98 -16.5t80 -47t54 -73.5t20 -95v-1262q0 -170 -46 -313.5t-139.5 -247.5t-236.5 -162.5t-336 -58.5q-89 0 -176 18t-165 54.5t-143 92t-108 130.5q-27 48 -30 90.5t12.5 79t46 65t71.5 47.5q41 20 84.5 22t83 -11.5
t72.5 -41.5t53 -68q17 -27 39.5 -44.5t48.5 -28.5t54.5 -15.5t56.5 -4.5q86 0 137.5 24t79.5 65t36.5 94t8.5 112v163q-65 -65 -146 -100t-190 -35q-160 0 -271.5 42t-181 123.5t-101 200.5t-31.5 273v258q0 58 -12 111.5t-45 94.5t-90.5 65t-147.5 24q-68 0 -117 -16.5
t-83.5 -42t-57 -55.5t-37.5 -58q26 -25 46.5 -49t34.5 -52.5t21.5 -63.5t7.5 -81v-540h30q38 0 69.5 -14.5t54.5 -39t36 -58t13 -71.5t-13 -71t-36 -58t-54.5 -39t-69.5 -14h-356q-38 0 -69.5 14t-54.5 39t-36 58t-13 71v723z" />
    <glyph glyph-name="dochadathai" unicode="&#xe0e;" horiz-adv-x="1868" 
d="M1753 -319q0 -59 -22 -110t-60 -89.5t-89.5 -60.5t-110.5 -22q-63 0 -115.5 24.5t-91.5 65.5q-48 50 -128 82t-193 32q-54 0 -99.5 -11.5t-89 -33.5t-87.5 -54.5t-94 -74.5q-24 -21 -54 -29.5t-60 -5.5t-58 17t-49 39t-29 54.5t-4.5 59t17.5 57.5t35 52q47 51 109.5 97
t136 80.5t156.5 55t170 20.5q93 0 172 -15.5t134 -37.5v1118q0 58 -10.5 118t-44 108.5t-96.5 79t-167 30.5q-82 0 -140.5 -17.5t-97.5 -44.5t-61.5 -58.5t-33.5 -59.5q26 -23 45.5 -48.5t32 -55.5t18.5 -67t6 -83v-711q0 -38 -13 -71t-36 -58t-54.5 -39t-69.5 -14h-336
q-38 0 -69.5 14t-54.5 39t-35.5 58t-12.5 71t12.5 71.5t35.5 58t54.5 39t69.5 14.5h14v540q0 42 -14.5 86t-56.5 86q-26 25 -38 47t-13.5 44.5t7 47t24.5 56.5q43 88 114 168t171 141.5t229.5 98t289.5 36.5q151 0 272 -26t214 -72.5t159.5 -110.5t108.5 -141t62 -164
t20 -178z" />
    <glyph glyph-name="topatakthai" unicode="&#xe0f;" horiz-adv-x="1868" 
d="M205 905q0 42 -14.5 86t-56.5 86q-26 25 -38 47t-13.5 44.5t7 47t24.5 56.5q43 88 114 168t171 141.5t229.5 98t289.5 36.5q151 0 272 -26t214 -72.5t159 -110.5t108 -141t62 -164t20 -178v-1402q0 -51 -22.5 -94t-59.5 -74.5t-85 -49.5t-99 -18q-27 0 -55.5 5t-54 15
t-46.5 26t-33 38q-13 24 -26.5 46t-28.5 38.5t-32.5 26t-39.5 9.5q-35 0 -61 -24.5t-40 -60.5q-22 -52 -69.5 -85.5t-107.5 -33.5q-30 0 -57.5 9t-50.5 25.5t-40.5 39t-27.5 49.5q-14 36 -37.5 60.5t-61.5 24.5q-39 0 -69.5 -26.5t-45.5 -64.5q-17 -41 -44.5 -67.5
t-61 -39.5t-70.5 -12t-73 16t-61 41.5t-37.5 60t-12.5 71t15 73.5q27 66 69.5 115t96 81t116 48t129.5 16q48 0 90.5 -11t80 -29.5t69 -44t55.5 -54.5q22 27 50.5 51t62 42t70.5 28t75 10q37 0 70 -8.5t57 -20.5v1122q0 39 -4.5 79t-16.5 77.5t-34 70t-57.5 57t-86.5 38.5
t-120 14q-83 0 -141 -17.5t-97 -44.5t-61 -58.5t-33 -59.5q26 -23 45.5 -48.5t32 -55.5t18.5 -67t6 -83v-711q0 -38 -13 -71t-36 -58t-54.5 -39t-69.5 -14h-336q-38 0 -69.5 14t-54.5 39t-35.5 58t-12.5 71t12.5 71.5t35.5 58t54.5 39t69.5 14.5h14v540z" />
    <glyph glyph-name="thothanthai" unicode="&#xe10;" horiz-adv-x="1647" 
d="M651 -573q-11 50 -36.5 79t-65.5 29q-38 0 -64 -25.5t-38 -68.5q-8 -28 -26 -50t-42.5 -35.5t-53.5 -17.5t-59 4q-30 7 -52 23.5t-36 39.5t-18 50.5t2 56.5q14 64 38.5 110.5t55 79t65.5 53t71 31.5t71 15t65 3q66 -3 123.5 -29t90.5 -70q13 19 31.5 36.5t41 31.5
t48.5 22.5t53 8.5q51 0 94.5 -26t66.5 -65q0 37 15 70.5t41.5 58.5t61.5 39.5t74 14.5q40 0 75 -13t61 -35.5t41 -54.5t15 -69v-215q0 -37 -14.5 -68.5t-39.5 -54t-59 -35.5t-74 -13q-31 0 -59.5 9t-52.5 25t-42 38t-28 48q-14 36 -38.5 56.5t-59.5 20.5q-42 0 -70.5 -31
t-40.5 -80q-10 -37 -41.5 -61.5t-74.5 -24.5q-42 0 -74.5 25.5t-41.5 63.5zM897 565q25 69 50.5 148t46.5 151t34.5 128.5t15.5 80.5q10 118 -47.5 180t-169.5 62q-75 0 -132 -26.5t-93 -93.5q-20 -44 -57 -71.5t-81.5 -39t-91 -7t-85.5 25.5q-42 22 -72 56t-43.5 74.5
t-9.5 83.5t30 84q95 149 260.5 232t387.5 83q66 0 135.5 -8.5t138.5 -28.5q20 12 36 31.5t27 43.5q35 61 90 88t113.5 26t112.5 -27.5t86.5 -72t36 -107t-38.5 -132.5q-19 -32 -48 -54.5t-61 -39.5q42 -64 65 -145.5t23 -183.5q0 -83 -22.5 -177t-62.5 -204.5t-93.5 -238.5
t-115.5 -279q-23 -53 -59 -95.5t-82.5 -72.5t-102 -46.5t-116.5 -16.5q-64 0 -121 15t-104 45t-82.5 73.5t-55.5 100.5l-146 408h-22q-36 0 -65.5 13.5t-51 37t-33.5 54.5t-12 67t12 67.5t33.5 55t51 37t65.5 13.5h290q36 0 60.5 -12t42.5 -33t30.5 -50.5t23.5 -63.5z" />
    <glyph glyph-name="thonangmonthothai" unicode="&#xe11;" horiz-adv-x="1815" 
d="M1700 210q0 -52 -20 -94.5t-54.5 -72.5t-80 -46.5t-97.5 -16.5t-97.5 16.5t-80 46.5t-54.5 72.5t-20 94.5v937q0 18 -1 36t-5 31.5t-11.5 22t-19.5 8.5q-34 0 -103 -58t-184 -175q-45 -47 -77.5 -83.5t-55.5 -68t-36.5 -60t-21.5 -59.5t-10.5 -67.5t-2.5 -83.5v-380
q0 -52 -19.5 -94.5t-53.5 -72.5t-79.5 -46.5t-97.5 -16.5t-97.5 16.5t-79.5 46.5t-53.5 72.5t-19.5 94.5v351q0 85 13 150t37.5 118.5t59 99t77.5 91t93 94.5t105 111q-9 -5 -24.5 -9t-31.5 -6.5t-30 -4t-20 -1.5q-37 0 -92 10.5t-112 38t-109 76.5t-83 126
q-15 37 -11.5 74.5t21.5 70t49 57t72 35.5q38 10 75.5 5.5t69.5 -22.5t56 -47.5t35 -68.5q8 -32 29 -48.5t50 -16.5q26 0 47 17t32 49q11 30 32 55.5t48.5 44t60 29t66.5 10.5q37 0 70 -10.5t60 -30t45.5 -47.5t26.5 -64q69 49 125.5 82t102 53.5t81.5 29t66 8.5
q94 0 158.5 -28t105 -80t58.5 -125t18 -164v-1113z" />
    <glyph glyph-name="thophuthaothai" unicode="&#xe12;" horiz-adv-x="2859" 
d="M115 1040q0 99 28 192t83.5 175t139 148t195.5 111q19 8 47 17t61 12t69.5 -3.5t72.5 -30.5l176 -117l183 123q28 19 61 24.5t65.5 3.5t60 -9.5t45.5 -14.5q111 -45 195.5 -111.5t140.5 -149t84.5 -176.5t28.5 -194v-295q0 -89 11 -157.5t36.5 -115.5t67 -71t102.5 -24
q34 0 65.5 8t55.5 34.5t38 77t14 134.5v836q0 52 19.5 95t53.5 73.5t80 47t98 16.5t98 -16.5t80 -47t54 -73.5t20 -95v-865q0 -152 -27 -271t-92 -200.5t-173 -124.5t-269 -43q-110 0 -193.5 49.5t-154.5 135.5q-8 -41 -29.5 -74t-53.5 -56t-72 -35.5t-85 -12.5
q-51 0 -95 16t-77 45t-52 70t-19 92v843q0 68 -21.5 126t-77.5 95l-176 -106q-39 -23 -85.5 -26.5t-94.5 26.5l-180 111q-56 -38 -79.5 -98t-23.5 -128v-483l201 205h-17q-27 0 -50 10t-40.5 27.5t-27.5 41t-10 50.5t10 50.5t27.5 41t40.5 27.5t50 10h336q31 0 59 -12.5
t49 -33.5t33 -49.5t12 -60.5q0 -35 -10.5 -75t-39.5 -70l-610 -654q-40 -43 -95.5 -68t-120.5 -25q-62 0 -116 17.5t-94 51.5t-63 82t-23 110v811z" />
    <glyph glyph-name="nonenthai" unicode="&#xe13;" horiz-adv-x="2666" 
d="M156 905q0 42 -14.5 86t-56.5 86q-26 25 -38 47t-13.5 44.5t7 47t24.5 56.5q43 88 111.5 168t164.5 141.5t220.5 98t278.5 36.5q147 0 263.5 -26t205 -72.5t151 -110.5t102.5 -141t58 -164t18 -178v-451q0 -58 15 -96t41.5 -60t62.5 -31t78 -9q64 0 105.5 24.5t65.5 72
t33 116t9 155.5v722q0 52 20 95t54 73.5t80 47t98 16.5t98 -16.5t80 -47t54 -73.5t20 -95v-1274q0 -51 -19 -92t-52 -70t-77 -45t-95 -16q-45 0 -85 12.5t-72 35.5t-53.5 56t-29.5 74q-72 -86 -163 -135.5t-202 -49.5q-160 0 -269 43t-175.5 124.5t-95.5 200.5t-29 271v430
q0 57 -10.5 109.5t-42 93t-89.5 64.5t-153 24q-68 0 -117 -16.5t-83.5 -42t-57 -55.5t-37.5 -58q26 -25 46.5 -48.5t34.5 -51t21.5 -62t7.5 -80.5v-544h30q38 0 69.5 -14.5t54.5 -39t36 -58t13 -71.5t-13 -71t-36 -58t-54.5 -39t-69.5 -14h-356q-38 0 -69.5 14t-54.5 39
t-36 58t-13 71v723z" />
    <glyph glyph-name="dodekthai" unicode="&#xe14;" horiz-adv-x="1966" 
d="M1851 212q0 -52 -19.5 -95t-53.5 -73.5t-79.5 -47t-97.5 -16.5t-97.5 16.5t-79 47t-53 73.5t-19.5 95v796q0 58 -18 113.5t-60 98.5t-112 69t-175 26q-106 0 -177.5 -26t-115 -69t-62 -98.5t-18.5 -113.5v-459l213 209h-39q-27 0 -50 10t-40.5 27.5t-27.5 41t-10 50.5
t10 50.5t27.5 41t40.5 27.5t50 10h361q31 0 59 -12.5t49 -33.5t33 -49.5t12 -60.5q0 -35 -10.5 -75t-39.5 -70l-625 -654q-40 -43 -95.5 -68t-120.5 -25q-62 0 -116 17.5t-94 51.5t-63 82t-23 110v787q0 138 50.5 264.5t157 223.5t271 154.5t393.5 57.5q226 0 389 -57.5
t268.5 -154.5t156 -223.5t50.5 -264.5v-804z" />
    <glyph glyph-name="totaothai" unicode="&#xe15;" horiz-adv-x="1966" 
d="M1851 212q0 -52 -19.5 -95t-53.5 -73.5t-79.5 -47t-97.5 -16.5t-97.5 16.5t-79 47t-53 73.5t-19.5 95v820q0 34 -4 65.5t-15 61t-30 57t-50 51.5l-176 -116q-38 -25 -85 -28.5t-95 28.5l-180 121q-32 -25 -52.5 -53t-31.5 -58t-15 -62.5t-4 -66.5v-483l213 209h-39
q-27 0 -50 10t-40.5 27.5t-27.5 41t-10 50.5t10 50.5t27.5 41t40.5 27.5t50 10h361q31 0 59 -12.5t49 -33.5t33 -49.5t12 -60.5q0 -35 -10.5 -75t-39.5 -70l-625 -654q-40 -43 -95.5 -68t-120.5 -25q-62 0 -116 17.5t-94 51.5t-63 82t-23 110v811q0 99 28 192t83.5 175
t139 148t195.5 111q19 8 47 17t61 12t69.5 -3.5t72.5 -30.5l176 -117l183 123q28 19 61 24.5t65.5 3.5t60 -9.5t45.5 -14.5q111 -45 195.5 -111.5t140.5 -149t84.5 -176.5t28.5 -194v-828z" />
    <glyph glyph-name="thothungthai" unicode="&#xe16;" horiz-adv-x="1802" 
d="M1688 212q0 -52 -20 -95t-54.5 -73.5t-80.5 -47t-98 -16.5t-98 16.5t-80 47t-53.5 73.5t-19.5 95v820q0 58 -13 111.5t-49 94.5t-101 65t-169 24q-81 0 -137.5 -17.5t-93 -44.5t-57.5 -58.5t-32 -59.5q26 -23 45.5 -46t32 -50t19 -61.5t6.5 -80.5v-544h30
q38 0 69.5 -14.5t54.5 -39t36 -58t13 -71.5t-13 -71t-36 -58t-54.5 -39t-69.5 -14h-353q-38 0 -69.5 14t-54.5 39t-36 58t-13 71v723q0 42 -14.5 86t-56.5 86q-26 25 -38 47t-13.5 44.5t7 47t24.5 56.5q43 88 114 168t171 141.5t229.5 98t289.5 36.5q151 0 272 -26
t214 -72.5t159.5 -110.5t108.5 -141t62 -164t20 -178v-812z" />
    <glyph glyph-name="thothahanthai" unicode="&#xe17;" horiz-adv-x="1802" 
d="M356 1709q46 0 86.5 -13t72.5 -37.5t53 -59.5t27 -78q52 48 109 84.5t114 61t112.5 37t105.5 12.5q183 0 307.5 -43.5t201 -124t110 -195t33.5 -255.5v-886q0 -52 -19.5 -95t-53 -73.5t-79 -47t-97.5 -16.5t-97 16.5t-78.5 47t-52.5 73.5t-19 95v837q0 127 -66 190.5
t-208 63.5q-97 0 -156.5 -34t-92.5 -92.5t-44 -137t-11 -167.5v-660q0 -52 -19.5 -95t-53.5 -73.5t-80 -47t-98 -16.5t-97.5 16.5t-79 47t-52.5 73.5t-19 95v1275q0 50 19 91t51.5 70t76.5 45t94 16z" />
    <glyph glyph-name="thothongthai" unicode="&#xe18;" horiz-adv-x="1712" 
d="M111 630q0 52 19.5 94.5t53 72.5t79 46.5t97.5 16.5t97.5 -16.5t79.5 -46.5t53.5 -72.5t19.5 -94.5v-81q0 -51 19.5 -86.5t53 -58.5t78 -33.5t95.5 -10.5q46 0 91 6.5t80 23t57 45t22 73.5q0 27 -1 52.5t-9.5 50t-29 48t-59.5 47t-100.5 47.5t-152.5 50q-84 22 -165.5 45
t-154 51t-134.5 63t-106.5 80.5t-70 103.5t-25.5 132q0 85 31 150t83.5 113.5t122.5 81t148.5 52.5t160.5 28.5t159 8.5q110 0 214.5 -16.5t194.5 -52.5t161 -93.5t115 -138.5q23 -44 25 -90t-14.5 -87.5t-49.5 -75.5t-80 -53q-46 -19 -94 -18.5t-91.5 17t-79 48.5t-57.5 77
q-16 29 -39.5 50.5t-53 36t-62.5 22.5t-69 10q-43 3 -81.5 0.5t-68 -11t-46.5 -23.5t-17 -36q0 -19 18 -36.5t46 -34t64 -31.5t72 -27.5t68.5 -22.5t55.5 -16q107 -30 199.5 -58.5t168 -63t134 -77t98 -99.5t60 -131.5t20.5 -172.5q0 -97 -30.5 -175t-84 -138t-126 -103
t-157 -71t-176.5 -41t-184 -13q-94 0 -186 12t-174.5 37.5t-153 66t-122 98.5t-80.5 134t-29 172v143z" />
    <glyph glyph-name="nonuthai" unicode="&#xe19;" horiz-adv-x="1802" 
d="M1447 -29q-46 0 -86.5 13t-72.5 37.5t-53 59.5t-27 78q-107 -105 -220.5 -150t-224.5 -45q-183 0 -307 43.5t-200 124t-108.5 195t-32.5 255.5v886q0 52 19.5 95t53 73.5t79 47t97.5 16.5t97 -16.5t78.5 -47t52.5 -73.5t19 -95v-837q0 -127 66 -190.5t208 -63.5
q97 0 156.5 34t92.5 92.5t44 137t11 167.5v660q0 52 19.5 95t53.5 73.5t80 47t98 16.5t97.5 -16.5t79 -47t52.5 -73.5t19 -95v-1275q0 -50 -19 -91t-51.5 -70t-76.5 -45t-94 -16z" />
    <glyph glyph-name="bobaimaithai" unicode="&#xe1a;" horiz-adv-x="1802" 
d="M1688 668q0 -92 -17 -180t-54.5 -166.5t-98 -144.5t-148 -113.5t-204 -74t-265.5 -26.5q-150 0 -267 26.5t-204.5 74t-147.5 113.5t-97 144.5t-53.5 166.5t-16.5 180v800q0 52 19.5 95t53 73.5t79 47t97.5 16.5t97 -16.5t78 -47t52 -73.5t19 -95v-780q0 -60 9.5 -118
t40.5 -103.5t88.5 -73.5t152.5 -28q94 0 150.5 28t87 73.5t40 103.5t9.5 118v780q0 52 20 95t54 73.5t80 47t98 16.5t97.5 -16.5t79 -47t52.5 -73.5t19 -95v-800z" />
    <glyph glyph-name="poplathai" unicode="&#xe1b;" horiz-adv-x="1802" 
d="M1688 668q0 -92 -17 -180t-54.5 -166.5t-98 -144.5t-148 -113.5t-204 -74t-265.5 -26.5q-150 0 -267 26.5t-204.5 74t-147.5 113.5t-97 144.5t-53.5 166.5t-16.5 180v800q0 52 19.5 95t53 73.5t79 47t97.5 16.5t97 -16.5t78 -47t52 -73.5t19 -95v-780q0 -60 9.5 -118
t40.5 -103.5t88.5 -73.5t152.5 -28q94 0 150.5 28t87 73.5t40 103.5t9.5 118v1513q0 52 20 95t54 73.5t80 47t98 16.5t97.5 -16.5t79 -47t52.5 -73.5t19 -95v-1533z" />
    <glyph glyph-name="phophungthai" unicode="&#xe1c;" horiz-adv-x="1929" 
d="M1815 471q0 -135 -39 -231.5t-106.5 -158t-159 -90t-195.5 -28.5q-112 0 -201.5 36.5t-150.5 111.5q-56 -69 -141 -108.5t-199 -39.5q-106 0 -198.5 28.5t-161.5 90t-108.5 158t-39.5 231.5v974q0 48 18.5 91t50 74.5t74.5 50t91 18.5h323q40 0 73.5 -15t57.5 -41
t37.5 -61t13.5 -75t-13.5 -75t-37.5 -61.5t-57.5 -41.5t-73.5 -15h-58v-737q0 -60 4 -97.5t13.5 -58.5t24.5 -28.5t36 -7.5q46 0 62 51.5t16 165.5v176q0 40 15 72.5t41.5 55.5t61.5 35t76 12q40 0 76 -12t62 -35t41.5 -55.5t15.5 -72.5v-193q0 -63 5.5 -102t16 -61
t27 -29.5t37.5 -7.5q17 0 30 7.5t22 28.5t13.5 58.5t4.5 97.5v911q0 52 20 95t54 73.5t80 47t98 16.5t97.5 -16.5t79 -47t52.5 -73.5t19 -95v-997z" />
    <glyph glyph-name="fofathai" unicode="&#xe1d;" horiz-adv-x="1929" 
d="M1815 471q0 -135 -39 -231.5t-106.5 -158t-159 -90t-195.5 -28.5q-112 0 -201.5 36.5t-150.5 111.5q-56 -69 -141 -108.5t-199 -39.5q-106 0 -198.5 28.5t-161.5 90t-108.5 158t-39.5 231.5v974q0 48 18.5 91t50 74.5t74.5 50t91 18.5h323q40 0 73.5 -15t57.5 -41
t37.5 -61t13.5 -75t-13.5 -75t-37.5 -61.5t-57.5 -41.5t-73.5 -15h-58v-737q0 -60 4 -97.5t13.5 -58.5t24.5 -28.5t36 -7.5q46 0 62 51.5t16 165.5v176q0 40 15 72.5t41.5 55.5t61.5 35t76 12q40 0 76 -12t62 -35t41.5 -55.5t15.5 -72.5v-193q0 -63 5.5 -102t16 -61
t27 -29.5t37.5 -7.5q17 0 30 7.5t22 28.5t13.5 58.5t4.5 97.5v1644q0 52 20 95t54 73.5t80 47t98 16.5t97.5 -16.5t79 -47t52.5 -73.5t19 -95v-1730z" />
    <glyph glyph-name="phophanthai" unicode="&#xe1e;" horiz-adv-x="2249" 
d="M1836 133q-9 -36 -30.5 -64t-52.5 -48t-69.5 -30.5t-82.5 -10.5q-91 0 -153 42t-82 112l-243 824l-241 -825q-10 -35 -32.5 -63.5t-53.5 -48.5t-69 -30.5t-80 -10.5q-89 0 -153 41t-83 113l-337 1267q-15 58 -7.5 107t33.5 87t67 63t92 34q52 10 102.5 2.5t92.5 -30.5
t72.5 -61t41.5 -89l153 -699l217 746q9 30 27 55.5t42.5 43.5t54 28.5t62.5 10.5t63.5 -10.5t55 -29t42.5 -44.5t27 -56l216 -740l153 695q11 51 41.5 89t72.5 61t92.5 30.5t102.5 -2.5q51 -9 92 -34t67 -63t33.5 -87t-7.5 -107z" />
    <glyph glyph-name="fofanthai" unicode="&#xe1f;" horiz-adv-x="2249" 
d="M1836 133q-9 -36 -30.5 -64t-52.5 -48t-69.5 -30.5t-82.5 -10.5q-91 0 -153 42t-82 112l-243 824l-241 -825q-10 -35 -32.5 -63.5t-53.5 -48.5t-69 -30.5t-80 -10.5q-89 0 -153 41t-83 113l-337 1267q-15 58 -7.5 107t33.5 87t67 63t92 34q52 10 102.5 2.5t92.5 -30.5
t72.5 -61t41.5 -89l153 -699l217 746q9 30 27 55.5t42.5 43.5t54 28.5t62.5 10.5t63.5 -10.5t55 -29t42.5 -44.5t27 -56l216 -740l344 1435q11 51 41.5 89t72.5 61t92.5 30.5t102.5 -2.5q51 -9 92 -34t67 -63t33.5 -87t-7.5 -107z" />
    <glyph glyph-name="phosamphaothai" unicode="&#xe20;" horiz-adv-x="1868" 
d="M1753 212q0 -52 -20 -95t-54.5 -73.5t-80.5 -47t-98 -16.5t-98 16.5t-80 47t-53.5 73.5t-19.5 95v779q0 58 -12.5 118t-48.5 108.5t-101 79t-169 30.5q-82 1 -138 -16.5t-93 -44.5t-57.5 -59t-31.5 -60q26 -23 45.5 -48.5t32 -55.5t18.5 -67t6 -83v-711q0 -38 -13 -71
t-36 -58t-54.5 -39t-69.5 -14h-336q-38 0 -69.5 14t-54.5 39t-35.5 58t-12.5 71t12.5 71.5t35.5 58t54.5 39t69.5 14.5h14v540q0 42 -14.5 86t-56.5 86q-26 25 -38 47t-13.5 44.5t7 47t24.5 56.5q43 88 114 168t171 141.5t229.5 98t289.5 36.5q151 0 272 -26t214 -72.5
t159 -110.5t108 -141t62 -164t20 -178v-812z" />
    <glyph glyph-name="momathai" unicode="&#xe21;" horiz-adv-x="1802" 
d="M356 -29q-50 0 -94 16t-76.5 45t-51.5 70t-19 91v1275q0 52 19 95t52.5 73.5t79 47t97.5 16.5t98 -16.5t80 -47t53.5 -73.5t19.5 -95v-660q0 -89 11 -167.5t44 -137t92.5 -92.5t156.5 -34q142 0 208 63.5t66 190.5v837q0 52 19 95t52.5 73.5t78.5 47t97 16.5t97.5 -16.5
t79 -47t53 -73.5t19.5 -95v-886q0 -141 -32.5 -255.5t-108.5 -195t-200 -124t-307 -43.5q-111 0 -224.5 45t-220.5 150q-6 -43 -27 -78t-53 -59.5t-72.5 -37.5t-86.5 -13z" />
    <glyph glyph-name="yoyakthai" unicode="&#xe22;" horiz-adv-x="1757" 
d="M1642 582q0 -105 -29 -192.5t-81 -156.5t-124 -120.5t-157.5 -85.5t-182 -51t-196.5 -17q-93 0 -187.5 14t-181.5 44t-163.5 76.5t-132.5 111t-88.5 148t-32.5 188.5q0 123 39.5 217.5t128.5 146.5q-42 34 -73.5 74.5t-52.5 84t-31.5 89t-10.5 88.5q0 87 24.5 153.5
t65 115t94.5 81t112.5 52t118.5 28t113 8.5h158q36 0 67.5 -13.5t55.5 -37.5t37.5 -55.5t13.5 -67.5t-13.5 -67.5t-37.5 -55.5t-55.5 -37.5t-67.5 -13.5h-43q-38 0 -66 -10.5t-46 -27.5t-26.5 -38t-8.5 -43q0 -62 41.5 -101.5t121.5 -45.5h43q33 0 61.5 -12.5t50 -34t34 -50
t12.5 -61.5t-12.5 -61.5t-34 -49.5t-50 -33.5t-61.5 -12.5h-26q-34 -2 -65 -12.5t-55 -33t-38 -59.5t-14 -92q0 -59 21 -98t58.5 -63t89.5 -34t113 -10q68 0 119.5 15t86 51t52 95t17.5 146v819q0 51 19.5 93t53 72t78.5 46.5t96 16.5t96.5 -16.5t79 -46.5t53 -72t19.5 -93
v-892z" />
    <glyph glyph-name="roruathai" unicode="&#xe23;" horiz-adv-x="1524" 
d="M100 325q-21 46 -17.5 94t25.5 90t60 75t86 48q104 34 180 -9t129 -146q32 -61 88.5 -89t147.5 -28q31 0 61.5 7t55 22.5t40 40t15.5 59.5q0 36 -12.5 63t-43 52t-83 49.5t-132.5 55.5q-81 30 -158 60.5t-145.5 64t-126.5 72t-99.5 86.5t-65 106t-23.5 131
q0 89 27.5 159.5t75.5 124t111.5 91.5t135.5 62t148 35t149 11q106 0 206 -16t184.5 -53.5t150.5 -100t105 -155.5q19 -46 15.5 -93t-25.5 -88t-59 -73t-84 -47t-91.5 -10.5t-83.5 25.5t-72 56t-55 81q-26 48 -71.5 69t-105.5 21q-68 0 -108.5 -27.5t-40.5 -72.5
q0 -28 10.5 -50.5t39.5 -44t81 -45t135 -52.5q172 -62 289.5 -123t190 -126.5t104 -138t31.5 -156.5q0 -97 -26.5 -174t-74.5 -135.5t-114 -99.5t-145.5 -66.5t-169 -37.5t-183.5 -12q-105 0 -206 20.5t-188 64t-156 111t-112 162.5z" />
    <glyph glyph-name="ruthai" unicode="&#xe24;" horiz-adv-x="1803" 
d="M1688 -332q0 -52 -20 -95t-54.5 -73.5t-80.5 -47t-98 -16.5t-98 16.5t-80 47t-53.5 73.5t-19.5 95v1364q0 58 -13 111.5t-49 94.5t-101 65t-169 24q-81 0 -137.5 -17.5t-93 -44.5t-57.5 -58.5t-32 -59.5q26 -23 45.5 -46t32 -50t19 -61.5t6.5 -80.5v-544h30
q38 0 69.5 -14.5t54.5 -39t36 -58t13 -71.5t-13 -71t-36 -58t-54.5 -39t-69.5 -14h-353q-38 0 -69.5 14t-54.5 39t-36 58t-13 71v723q0 42 -14.5 86t-56.5 86q-26 25 -38 47t-13.5 44.5t7 47t24.5 56.5q43 88 114 168t171 141.5t229.5 98t289.5 36.5q151 0 272 -26
t214 -72.5t159.5 -110.5t108.5 -141t62 -164t20 -178v-1356z" />
    <glyph glyph-name="lolingthai" unicode="&#xe25;" horiz-adv-x="1761" 
d="M1647 208q0 -51 -19.5 -93t-53 -72t-79 -46.5t-96.5 -16.5t-96.5 16.5t-79 46.5t-53 72t-19.5 93v521q-34 -21 -62.5 -36.5t-54.5 -26t-52.5 -18t-55.5 -13.5q-19 -4 -53.5 -10t-74.5 -14.5t-81.5 -21.5t-75 -32t-55 -45t-21.5 -61q0 -43 17 -69t46.5 -40t68 -18.5
t81.5 -4.5q17 0 39 1t43 4q36 6 69.5 0t60.5 -22.5t45.5 -44t25.5 -63.5q6 -35 -0.5 -67.5t-24 -60t-44.5 -47t-61 -26.5q-58 -12 -111 -19t-107 -7q-82 0 -162 11.5t-151.5 36t-133 63.5t-106 94t-69.5 127.5t-25 163.5q0 89 27.5 157.5t78 121.5t122.5 92t161 69t193 53
t220 43q61 11 113 26t90 36.5t59 50.5t21 68q0 44 -19 70.5t-51.5 41t-76.5 19t-95 4.5q-41 0 -77 -4t-67 -14.5t-55.5 -29.5t-42.5 -49q-21 -48 -54 -84t-76 -56.5t-93.5 -24t-107.5 13.5q-51 15 -89.5 51t-59.5 82.5t-22 98.5t24 98q51 93 131 154.5t178.5 98t209 51.5
t222.5 15q80 0 164 -9.5t163.5 -32.5t150.5 -61.5t124 -96t84 -137t31 -183.5v-988z" />
    <glyph glyph-name="luthai" unicode="&#xe26;" horiz-adv-x="1868" 
d="M1753 -333q0 -52 -20 -95t-54.5 -73.5t-80.5 -47t-98 -16.5t-98 16.5t-80 47t-53.5 73.5t-19.5 95v1324q0 58 -12.5 118t-48.5 108.5t-101 79t-169 30.5q-82 1 -138 -16.5t-93 -44.5t-57.5 -59t-31.5 -60q26 -23 45.5 -48.5t32 -55.5t18.5 -67t6 -83v-711q0 -38 -13 -71
t-36 -58t-54.5 -39t-69.5 -14h-336q-38 0 -69.5 14t-54.5 39t-35.5 58t-12.5 71t12.5 71.5t35.5 58t54.5 39t69.5 14.5h14v540q0 42 -14.5 86t-56.5 86q-26 25 -38 47t-13.5 44.5t7 47t24.5 56.5q43 88 114 168t171 141.5t229.5 98t289.5 36.5q151 0 272 -26t214 -72.5
t159 -110.5t108 -141t62 -164t20 -178v-1357z" />
    <glyph glyph-name="wowaenthai" unicode="&#xe27;" horiz-adv-x="1606" 
d="M144 325q-23 45 -21 93t23 91t58 77.5t85 52.5q48 17 96.5 14t90.5 -23t74.5 -55.5t48.5 -83.5q29 -68 74.5 -97t104.5 -29q63 0 110.5 24t79.5 79.5t48 146.5t16 225q0 133 -15.5 225t-47 148t-79.5 81t-112 25q-58 0 -103.5 -30t-74.5 -96q-16 -48 -48.5 -83.5
t-74.5 -55.5t-90.5 -23t-96.5 14q-48 18 -85 52t-58 77.5t-23 91.5t21 93q43 87 109 154.5t147.5 113.5t177 69.5t199.5 23.5q187 0 331 -63.5t241.5 -179t147.5 -277.5t50 -360t-50 -360t-147.5 -277t-241.5 -177.5t-331 -62.5q-104 0 -199 24.5t-177 71t-147.5 113.5
t-110.5 153z" />
    <glyph glyph-name="sosalathai" unicode="&#xe28;" horiz-adv-x="1860" 
d="M1745 208q0 -51 -20 -93t-54 -72t-80 -46.5t-97 -16.5t-96.5 16.5t-79.5 46.5t-53.5 72t-19.5 93v816q0 58 -13 111t-47.5 93t-95 63.5t-155.5 23.5t-157.5 -23.5t-99.5 -63.5t-52 -93t-15 -111v-119q57 49 121 82.5t143 48.5q42 8 78 1t64 -26t46 -48.5t23 -66.5
t-2.5 -71.5t-26 -63t-47 -49t-64.5 -27.5q-97 -17 -161.5 -55.5t-103 -97t-54.5 -136t-16 -171.5v-17q0 -51 -19.5 -93t-53 -72t-79 -46.5t-96.5 -16.5t-96 16.5t-78.5 46.5t-53 72t-19.5 93v804q0 92 19 180t59.5 166t105 144t155.5 113.5t210 74t270 26.5q88 0 163.5 -9.5
t141.5 -26.5q22 11 39.5 32t31.5 47q24 48 68.5 79.5t96.5 41.5t105.5 -4t95.5 -57q33 -34 49.5 -76t16.5 -86t-17 -86t-51 -76q-29 -29 -63 -48q71 -93 102.5 -204t31.5 -231v-804z" />
    <glyph glyph-name="sorusithai" unicode="&#xe29;" horiz-adv-x="1868" 
d="M1749 1069h21q32 0 59 -12.5t46.5 -33.5t30 -49.5t10.5 -60.5t-10.5 -60.5t-30 -49.5t-46.5 -33t-59 -12h-21v-70q0 -92 -18 -181.5t-57.5 -170.5t-103 -149t-154 -118t-210.5 -78t-272 -28q-156 0 -277 28t-212 78t-154 118t-102 149t-56.5 170.5t-17.5 181.5v781
q0 52 19.5 94.5t53 72.5t79 46.5t97.5 16.5t97.5 -16.5t79.5 -46.5t53.5 -72.5t19.5 -94.5v-769q0 -60 11.5 -119.5t45.5 -107.5t97 -78t166 -30t164.5 30t94 78t42.5 107.5t10 119.5v58h-309q-38 0 -71 13t-58 36t-39 54.5t-14 69.5v132q0 38 14 69.5t39 54.5t58 36t71 13
q37 0 70 -12.5t57.5 -34.5t39.5 -52.5t16 -67.5h126v400q0 52 20 94.5t54.5 72.5t80 46.5t97.5 16.5t97.5 -16.5t80 -46.5t54.5 -72.5t20 -94.5v-400z" />
    <glyph glyph-name="sosuathai" unicode="&#xe2a;" horiz-adv-x="1761" 
d="M1269 1759q24 48 68.5 79.5t96.5 41.5t105.5 -4t95.5 -57q33 -34 49.5 -76t16.5 -86t-17 -86t-51 -76q-12 -12 -25.5 -23t-27.5 -20q32 -51 49.5 -114.5t17.5 -141.5v-988q0 -51 -19.5 -93t-53 -72t-79 -46.5t-96.5 -16.5t-96.5 16.5t-79 46.5t-53 72t-19.5 93v521
q-34 -21 -62.5 -36.5t-54.5 -26t-52.5 -18t-55.5 -13.5q-19 -4 -53.5 -10t-74.5 -14.5t-81.5 -21.5t-75 -32t-55 -45t-21.5 -61q0 -43 17 -69t46.5 -40t68 -18.5t81.5 -4.5q17 0 39 1t43 4q36 6 69.5 0t60.5 -22.5t45.5 -44t25.5 -63.5q6 -35 -0.5 -67.5t-24 -60t-44.5 -47
t-61 -26.5q-58 -12 -111 -19t-107 -7q-82 0 -162 11.5t-151.5 36t-133 63.5t-106 94t-69.5 127.5t-25 163.5q0 89 27.5 157.5t78 121.5t122.5 92t161 69t193 53t220 43q61 11 113 26t90 36.5t59 50.5t21 68q0 44 -19 70.5t-51.5 41t-76.5 19t-95 4.5q-41 0 -77 -4t-67 -14.5
t-55.5 -29.5t-42.5 -49q-21 -48 -54 -84t-76 -56.5t-93.5 -24t-107.5 13.5q-51 15 -89.5 51t-59.5 82.5t-22 98.5t24 98q51 93 131 154.5t178.5 98t209 51.5t222.5 15q68 0 139 -6.5t140 -23.5q18 12 33 31t27 42z" />
    <glyph glyph-name="hohipthai" unicode="&#xe2b;" horiz-adv-x="1765" 
d="M613 209q0 -51 -19.5 -93.5t-53.5 -72.5t-79.5 -46.5t-96.5 -16.5t-96.5 16.5t-79 46.5t-53 72.5t-19.5 93.5v1261q0 51 19.5 93.5t53 72.5t79 46.5t96.5 16.5t96.5 -16.5t79.5 -46.5t53.5 -72.5t19.5 -93.5v-269l758 468q34 22 74 27t78.5 -5t72.5 -33.5t56 -57.5
t29 -75.5t-0.5 -82.5t-29.5 -76.5t-56 -57.5l-99 -63q46 -38 77 -82.5t50 -98.5t27 -118.5t8 -140.5v-596q0 -51 -19.5 -93.5t-53.5 -72.5t-79.5 -46.5t-96.5 -16.5t-96.5 16.5t-79.5 46.5t-53.5 72.5t-19.5 93.5v591q0 61 -11 112t-41 86l-495 -315v-474z" />
    <glyph glyph-name="lochulathai" unicode="&#xe2c;" horiz-adv-x="2195" 
d="M1751 1827q11 23 27 43.5t38 37.5q38 30 81 41t85.5 5.5t82 -26.5t70.5 -57q31 -35 44 -78t8 -86.5t-27 -84.5t-62 -71q-23 -17 -46 -29.5t-45 -22.5q34 -34 58.5 -78.5t37.5 -95t13 -103.5t-15 -104l-295 -995q-20 -66 -78.5 -104.5t-140.5 -38.5q-85 0 -140 39.5
t-78 103.5l-267 725l-256 -725q-23 -66 -80 -104.5t-139 -38.5q-84 0 -142.5 38.5t-75.5 104.5l-336 1278q-15 58 -6 107t36 87t69 63t93 34q52 10 102.5 2.5t92.5 -30t71.5 -60.5t38.5 -90l126 -691l173 462q14 37 36.5 69t52.5 55t66.5 36.5t77.5 13.5q42 0 79 -13.5
t67.5 -37t53.5 -56t37 -69.5l185 -501l73 324q11 55 19 99t4.5 77t-22 55t-60.5 34q-26 7 -48.5 22.5t-39 37t-25.5 47t-9 54.5q0 31 10.5 59t29 50t44 37t54.5 20q72 13 121 44t76 85z" />
    <glyph glyph-name="oangthai" unicode="&#xe2d;" horiz-adv-x="1737" 
d="M58 784q0 35 12 66t33 54t50.5 36.5t64.5 13.5h514q35 0 64.5 -13.5t50.5 -36.5t33 -54t12 -66t-12 -66t-33 -54t-50.5 -36.5t-64.5 -13.5h-154q34 -130 108.5 -189.5t185.5 -59.5q151 0 231.5 114t80.5 357q0 126 -21 215.5t-62 147.5t-102 85t-141 27q-38 0 -77.5 -7
t-76 -20t-66.5 -32t-48 -44q-31 -43 -61.5 -75t-66 -49.5t-78.5 -19.5t-97 14q-48 15 -84.5 49.5t-56 79.5t-19 94.5t26.5 93.5q47 79 120.5 140t165 102t198 62t220.5 21q215 0 372.5 -68t260 -187t152 -280.5t49.5 -348.5q0 -117 -21.5 -227t-66 -207t-112 -177.5
t-158.5 -139t-206.5 -90.5t-255.5 -32q-137 0 -249.5 29.5t-201.5 83.5t-155 129.5t-111 166.5t-69 195.5t-28 216.5z" />
    <glyph glyph-name="honokhukthai" unicode="&#xe2e;" horiz-adv-x="1729" 
d="M1234 1759q24 48 68.5 79.5t96.5 41.5t105.5 -4t95.5 -57q33 -34 49.5 -76t16.5 -86t-17 -86t-51 -76q-14 -14 -37.5 -30t-51.5 -23q93 -118 138 -272.5t45 -333.5q0 -117 -21.5 -227t-66 -207t-112 -177.5t-158.5 -139t-206.5 -90.5t-255.5 -32q-137 0 -249.5 29.5
t-201.5 83.5t-155 129.5t-111 166.5t-69 195.5t-28 216.5q0 35 12 66t33 54t50.5 36.5t64.5 13.5h514q35 0 64.5 -13.5t50.5 -36.5t33 -54t12 -66t-12 -66t-33 -54t-50.5 -36.5t-64.5 -13.5h-154q34 -130 108.5 -189.5t185.5 -59.5q151 0 231.5 114t80.5 357
q0 126 -21 215.5t-62 147.5t-102 85t-141 27q-38 0 -77.5 -7t-76 -20t-66.5 -32t-48 -44q-31 -43 -61.5 -75t-66 -49.5t-78.5 -19.5t-97 14q-48 15 -84.5 49.5t-56 79.5t-19 94.5t26.5 93.5q47 79 120.5 140t165 102t198 62t220.5 21q85 0 160 -11t142 -32l1 2
q23 11 41 32.5t32 47.5z" />
    <glyph glyph-name="paiyannoithai" unicode="&#xe2f;" horiz-adv-x="1810" 
d="M1696 208q0 -51 -19.5 -93t-53 -72t-79 -46.5t-96.5 -16.5t-96.5 16.5t-79 46.5t-53 72t-19.5 93v484q-38 -20 -75 -36t-76 -27t-82.5 -17t-94.5 -6q-177 0 -316.5 40.5t-236.5 115t-148.5 180t-51.5 234.5q0 95 27.5 169t74 130t108.5 95t131 63t141 35t140 11h118
q40 0 73.5 -15t58 -41.5t38 -61.5t13.5 -75t-13.5 -75t-38 -61t-58 -41t-73.5 -15h-68q-42 0 -72.5 -12t-51 -32t-30.5 -45.5t-10 -53.5q0 -37 11 -67.5t38 -53t71.5 -35t112.5 -12.5q160 0 250 68t90 206v214q0 51 19.5 93t53 72t79 46.5t96.5 16.5t96.5 -16.5t79 -46.5
t53 -72t19.5 -93v-1263z" />
    <glyph glyph-name="saraathai" unicode="&#xe30;" horiz-adv-x="1044" 
d="M310 1032q-40 0 -75 13.5t-61 38t-41 58t-15 73.5v161q0 40 15 73.5t41 58t61 38t75 13.5t75 -13.5t61.5 -38t41.5 -58t15 -73.5h319q36 0 65.5 -13.5t51 -37t33.5 -54.5t12 -67t-12 -67t-33.5 -54.5t-51 -37t-65.5 -13.5h-512zM310 197q-40 0 -75 13.5t-61 38t-41 58
t-15 73.5v161q0 40 15 73.5t41 58t61 38t75 13.5t75 -13.5t61.5 -38t41.5 -58t15 -73.5h319q36 0 65.5 -13.5t51 -37t33.5 -54.5t12 -67t-12 -67t-33.5 -54.5t-51 -37t-65.5 -13.5h-512z" />
    <glyph glyph-name="maihanakatthai" unicode="&#xe31;" 
d="M-942 1877q-42 0 -78.5 14t-64 39.5t-43 60.5t-15.5 77v168q0 42 15.5 77t43 60.5t64 40t78.5 14.5t78.5 -14.5t63.5 -40t43 -60.5t16 -77h708q37 0 68 -14t53.5 -38.5t35 -57t12.5 -69.5q0 -38 -12.5 -70.5t-35 -57t-53.5 -38.5t-68 -14h-909z" />
    <glyph glyph-name="saraaathai" unicode="&#xe32;" horiz-adv-x="1460" 
d="M1346 208q0 -51 -20 -93t-54 -72t-80 -46.5t-97 -16.5t-96.5 16.5t-79.5 46.5t-53.5 72t-19.5 93v873q0 126 -43 180t-129 54q-50 0 -88 -23.5t-61 -75.5q-17 -46 -49 -80t-73.5 -53.5t-88.5 -22.5t-93 14q-45 16 -79.5 48.5t-53 74t-20.5 87.5t18 91q38 87 100.5 151
t140.5 106.5t167 63t180 20.5q89 0 173.5 -15.5t159 -47t137 -79t107.5 -112t70 -146.5t25 -181v-927z" />
    <glyph glyph-name="saraamthai" unicode="&#xe33;" horiz-adv-x="1460" 
d="M-504 2224q0 -24 10.5 -47t28.5 -41t41 -28.5t47 -10.5q26 0 50 10.5t42 28.5t28.5 41t10.5 47q0 26 -10.5 50t-28.5 42t-42 28.5t-50 10.5q-24 0 -47 -10.5t-41 -28.5t-28.5 -42t-10.5 -50zM-754 2224q0 80 29.5 149.5t80.5 121t120 81t147 29.5q75 0 144 -29.5
t121.5 -81t84 -121t31.5 -149.5q0 -78 -31.5 -147t-84 -120t-121.5 -80.5t-144 -29.5q-78 0 -147 29.5t-120 80.5t-80.5 120t-29.5 147zM1346 1135q0 99 -25 181t-70 146.5t-107.5 112t-137 79t-159 47t-173.5 15.5q-91 0 -180 -20.5t-167 -63t-140.5 -106.5t-100.5 -151
q-20 -45 -18 -91t20.5 -87.5t53 -74t79.5 -48.5q46 -17 93 -14t88.5 22.5t73.5 53.5t49 80q23 52 61 75.5t88 23.5q86 0 129 -54t43 -180v-873q0 -51 19.5 -93t53.5 -72t79.5 -46.5t96.5 -16.5t97 16.5t80 46.5t54 72t20 93v927z" />
    <glyph glyph-name="saraithai" unicode="&#xe34;" 
d="M-1540 1876q-37 0 -68.5 14t-54 38.5t-35 57.5t-12.5 70t12.5 70t35 57.5t54 38.5t68.5 14h1275q37 0 68.5 -14t54 -38.5t35 -57.5t12.5 -70t-12.5 -70t-35 -57.5t-54 -38.5t-68.5 -14h-1275z" />
    <glyph glyph-name="saraiithai" unicode="&#xe35;" 
d="M-553 2236v79q0 45 17 82t47 63t70 40t85 14t85 -14t70 -40t47 -63t17 -82v-259q0 -37 -12.5 -70t-35 -57.5t-54 -38.5t-68.5 -14h-1255q-37 0 -68.5 14t-54 38.5t-35 57.5t-12.5 70t12.5 70t35 57.5t54 38.5t68.5 14h987z" />
    <glyph glyph-name="sarauethai" unicode="&#xe36;" 
d="M-1540 1876q-37 0 -68.5 14t-54 38.5t-35 57.5t-12.5 70t12.5 70t35 57.5t54 38.5t68.5 14h831v13q0 64 24.5 121t68 99t103 66.5t128.5 24.5q77 0 137 -28.5t101.5 -75t63.5 -107.5t22 -125q0 -74 -27.5 -137.5t-74.5 -110t-109.5 -73.5t-133.5 -27h-1134zM-496 2228
q0 -21 9 -40.5t24 -34t35 -23t43 -8.5t43 8.5t35 23t24 34t9 40.5q0 23 -9 43.5t-24 35.5t-35 23.5t-43 8.5t-43 -8.5t-35 -23.5t-24 -35.5t-9 -43.5z" />
    <glyph glyph-name="saraueethai" unicode="&#xe37;" 
d="M-1540 1876q-37 0 -68.5 14t-54 38.5t-35 57.5t-12.5 70t12.5 70t35 57.5t54 38.5t68.5 14h639v134q0 34 13 61t35 45.5t52 28t64 9.5t64 -9.5t52 -28t35 -45.5t13 -61v-134h131v134q0 34 12.5 61t34.5 45.5t52 28t64 9.5t64 -9.5t52 -28t35 -45.5t13 -61v-314
q0 -37 -12.5 -70t-35 -57.5t-54 -38.5t-68.5 -14h-1255z" />
    <glyph glyph-name="sarauthai" unicode="&#xe38;" 
d="M-116 -804q0 -48 -18 -87t-49.5 -66t-73 -42t-89.5 -15t-90.5 15t-74 42t-49.5 66t-18 87v241h-64q-38 0 -69 14.5t-53.5 39t-35 57.5t-12.5 70t12.5 70t35 58t53.5 39t69 14h356q37 0 68.5 -14t54 -39t35 -58t12.5 -70v-422z" />
    <glyph glyph-name="sarauuthai" unicode="&#xe39;" 
d="M-557 -382q0 46 17.5 83t47.5 63t70 40.5t86 14.5t86 -14.5t70 -40.5t47.5 -63t17.5 -83v-138q0 -94 -29.5 -177.5t-93 -146t-164 -99t-241.5 -36.5q-131 0 -227 35.5t-160.5 96t-99 140t-41.5 167.5h-50q-35 0 -64.5 13.5t-50.5 36.5t-32.5 54t-11.5 66t11.5 65.5
t32.5 53.5t50.5 36.5t64.5 13.5h333q35 0 64.5 -13.5t50.5 -36.5t32.5 -53.5t11.5 -65.5v-134q0 -65 18 -98t68 -33q49 0 67.5 33t18.5 98v122z" />
    <glyph glyph-name="phinthuthai" unicode="&#xe3a;" 
d="M-664 -430q0 61 24.5 116.5t66 96.5t96.5 65.5t117 24.5q60 0 114 -24.5t95 -65.5t65.5 -96.5t24.5 -116.5q0 -60 -24.5 -114t-65.5 -95.5t-95 -65.5t-114 -24q-62 0 -117 24t-96.5 65.5t-66 95.5t-24.5 114z" />
    <glyph glyph-name="PUCR2005" unicode="&#xe3e;" 
 />
    <glyph glyph-name="bahtthai" unicode="&#xe3f;" horiz-adv-x="1946" 
d="M873 2181q0 24 8.5 46t22.5 39t33.5 27t42.5 10q22 0 42 -10t34 -27t22.5 -39t8.5 -46v-184h65q186 0 310.5 -40t200 -106.5t107.5 -154t32 -183.5q0 -74 -9.5 -138.5t-42 -119.5t-94.5 -99t-167 -76q116 -30 192.5 -80t121.5 -115.5t63.5 -144.5t18.5 -168
q0 -119 -41.5 -223.5t-126.5 -182t-215 -122t-306 -44.5h-109v-204q0 -23 -8.5 -45t-22.5 -39t-34 -27t-42 -10q-23 0 -42.5 10t-33.5 27t-22.5 39t-8.5 45v204h-416q-161 0 -237.5 84.5t-76.5 270.5v1289q0 93 19 160t58 109.5t98 63t139 20.5h416v184zM1360 629
q0 60 -19.5 104.5t-55 74.5t-86 45.5t-112.5 17.5v-486q62 2 112.5 18t86 46t55 75t19.5 105zM668 385h205v486h-205v-486zM668 1150h205v464h-205v-464zM1292 1380q0 51 -12 92.5t-37 71.5t-63.5 48t-92.5 21v-462q49 4 87.5 25t64.5 52.5t39.5 71t13.5 80.5z" />
    <glyph glyph-name="saraethai" unicode="&#xe40;" horiz-adv-x="766" 
d="M635 208q0 -51 -20.5 -93t-55 -72t-80.5 -46.5t-97 -16.5t-97 16.5t-80 46.5t-54 72t-20 93v1263q0 51 20 93t54 72t80 46.5t97 16.5t97 -16.5t80.5 -46.5t55 -72t20.5 -93v-1263z" />
    <glyph glyph-name="saraaethai" unicode="&#xe41;" horiz-adv-x="1425" 
d="M619 208q0 -51 -20.5 -93t-55 -72t-80.5 -46.5t-97 -16.5t-97 16.5t-80 46.5t-54 72t-20 93v1263q0 51 20 93t54 72t80 46.5t97 16.5t97 -16.5t80.5 -46.5t55 -72t20.5 -93v-1263zM1311 208q0 -51 -20.5 -93t-55 -72t-80.5 -46.5t-97 -16.5t-97 16.5t-80 46.5t-54 72
t-20 93v1263q0 51 20 93t54 72t80 46.5t97 16.5t97 -16.5t80.5 -46.5t55 -72t20.5 -93v-1263z" />
    <glyph glyph-name="saraothai" unicode="&#xe42;" horiz-adv-x="852" 
d="M885 2494q42 0 78 -13t62.5 -37.5t41 -59t14.5 -76.5t-14.5 -76.5t-41 -59t-62.5 -37.5t-78 -13h-365q26 -18 51 -45.5t44.5 -59.5t31.5 -66.5t12 -66.5v-1503h30q38 0 69 -15.5t53 -42t34 -61t12 -72.5t-12 -72.5t-34 -60.5t-53 -41.5t-69 -15.5h-361q-38 0 -69 14
t-53 39t-34 58t-12 71v1747q0 29 -3.5 57t-12 53t-23.5 45t-38 34q-48 29 -81.5 74t-33.5 105q0 41 15.5 77t42 62.5t62 42t76.5 15.5h721z" />
    <glyph glyph-name="saraaimaimuanthai" unicode="&#xe43;" horiz-adv-x="852" 
d="M160 1671q0 54 22 102t54.5 90.5t68.5 80t64 71.5q40 47 67 87t27 77q0 9 -3 22t-12 24.5t-25 19.5t-42 8q-58 0 -101.5 -44.5t-62.5 -114.5q-10 -35 -31.5 -61t-50.5 -42t-63 -20.5t-69 5.5q-34 10 -60.5 31.5t-42.5 50.5t-20 63t6 69q27 95 78 165.5t118.5 117
t146.5 69t160 22.5q59 0 119.5 -9t116.5 -28t105 -48.5t85 -70.5t57 -94t21 -119q0 -34 -8.5 -64t-22.5 -58t-32.5 -54.5t-38.5 -52.5q-23 -31 -46 -62.5t-41.5 -66.5t-30.5 -76t-14 -90v-1290h30q38 0 69 -15.5t53 -42t34 -61t12 -72.5t-12 -72.5t-34 -60.5t-53 -41.5
t-69 -15.5h-361q-38 0 -69 14t-53 39t-34 58t-12 71v1489z" />
    <glyph glyph-name="saraaimaimalaithai" unicode="&#xe44;" horiz-adv-x="852" 
d="M659 381h30q38 0 69 -15.5t53 -42t34 -61t12 -72.5t-12 -72.5t-34 -60.5t-53 -41.5t-69 -15.5h-361q-38 0 -69 14t-53 39t-34 58t-12 71v1702q0 32 13.5 66.5t35 66.5t48 59.5t52.5 45.5h-365q-42 0 -78 13t-62.5 37.5t-41 59t-14.5 76.5t14.5 76.5t41 59t62.5 37.5
t78 13h731q41 0 76.5 -15.5t62 -42t42 -62.5t15.5 -77q0 -60 -33.5 -105t-81.5 -74q-47 -28 -72 -79t-25 -110v-1548z" />
    <glyph glyph-name="lakkhangyaothai" unicode="&#xe45;" horiz-adv-x="1460" 
d="M1346 -337q0 -51 -20 -93t-54 -72t-80 -46.5t-97 -16.5t-96.5 16.5t-79.5 46.5t-53.5 72t-19.5 93v1418q0 126 -43 180t-129 54q-50 0 -88 -23.5t-61 -75.5q-17 -46 -49 -80t-73.5 -53.5t-88.5 -22.5t-93 14q-45 16 -79.5 48.5t-53 74t-20.5 87.5t18 91q38 87 100.5 151
t140.5 106.5t167 63t180 20.5q89 0 173.5 -15.5t159 -47t137 -79t107.5 -112t70 -146.5t25 -181v-1472z" />
    <glyph glyph-name="maiyamokthai" unicode="&#xe46;" horiz-adv-x="1727" 
d="M1216 1666q126 -43 203.5 -112t120.5 -155.5t58 -186t15 -204.5v-1345q0 -51 -20 -93t-54.5 -72t-80.5 -46.5t-97 -16.5t-97 16.5t-80 46.5t-54 72t-20 93v1353v75.5t-3.5 86t-12 78t-25.5 50.5l-127 -114q-42 -37 -88.5 -37.5t-87.5 37.5l-148 139q-18 -17 -31.5 -47.5
t-22 -67t-12 -75t-1.5 -72.5q1 -25 7 -48.5t17.5 -42t29 -29.5t41.5 -11q39 0 71.5 -15t55.5 -40.5t36 -60t13 -73.5t-15 -73.5t-41.5 -60t-61 -40t-73.5 -14.5q-91 0 -181.5 23.5t-165.5 77t-125.5 141.5t-60.5 217q-8 105 11 201.5t68.5 179.5t131 149.5t197.5 112.5
q18 7 48.5 16t65.5 12.5t69 -2.5t58 -30l109 -107l110 101q23 25 58 33t71.5 5.5t69.5 -11t51 -14.5z" />
    <glyph glyph-name="maitaikhuthai" unicode="&#xe47;" 
d="M-926 2462q-55 0 -87 -15t-48 -36t-20 -44t-4 -40q0 -11 3 -29.5t11.5 -36.5t24.5 -31t42 -13q30 0 52 17t30 49q12 47 48.5 70t84.5 23q49 0 87 -22t49 -71q7 -30 25.5 -48t45.5 -18q53 0 64 55q6 28 23.5 48t42.5 32t54 17t56 4q32 -2 62.5 -13t53 -32.5t34.5 -53.5
t8 -74q-12 -77 -47 -133t-84 -93t-106.5 -55t-115.5 -18q-41 0 -77.5 10.5t-67.5 28t-56.5 40.5t-43.5 48q-20 -26 -48.5 -49.5t-63 -40.5t-72.5 -27t-78 -10q-78 0 -139 18.5t-107 50.5t-78 74.5t-52 90t-29 97t-9 95.5q0 76 21 138.5t57 112.5t85 87.5t105 62t116 37
t120 12.5h749q33 0 60 -12.5t46.5 -34t30 -50t10.5 -61.5t-10.5 -61.5t-30 -49.5t-46.5 -33.5t-60 -12.5h-721z" />
    <glyph glyph-name="maiekthai" unicode="&#xe48;" 
d="M-115 2828q0 -45 -17 -81t-46 -61.5t-68 -39t-84 -13.5t-84 13.5t-68 39t-46 61.5t-17 81v254q0 45 17 81t46 61.5t68 39t84 13.5t84 -13.5t68 -39t46 -61.5t17 -81v-254z" />
    <glyph glyph-name="maithothai" unicode="&#xe49;" 
d="M-231 3122q14 31 38 53t53 33t61 10t63 -15q30 -14 52 -38.5t32.5 -54t10 -62.5t-15.5 -64q-33 -69 -89.5 -129t-136.5 -103.5t-184 -68.5t-231 -25h-162q-29 0 -52.5 10.5t-39.5 29t-24.5 43t-8.5 52.5v136h-58q-28 0 -51 10.5t-39.5 29t-25.5 43t-9 52.5t9 52.5
t25.5 43t39.5 29t51 10.5h274q28 0 51 -10.5t39.5 -29t25.5 -43t9 -52.5v-115q58 4 105 19t84 38t63 52.5t41 63.5z" />
    <glyph glyph-name="maitrithai" unicode="&#xe4a;" 
d="M17 3108q8 29 26.5 51t43 35.5t53.5 18t58 -2.5q33 -8 55.5 -25.5t35 -41.5t14.5 -52t-6 -57q-20 -67 -53.5 -130.5t-77 -115.5t-95 -87.5t-106.5 -45.5h-114q-38 0 -63.5 24.5t-28.5 62.5q-2 26 -7 50t-14 43t-23 30t-35 11q-25 0 -38.5 -17.5t-18.5 -46.5
q-6 -38 -28 -59.5t-60 -21.5t-61 21.5t-27 59.5q-3 26 -16.5 45t-44.5 19q-35 0 -53.5 -31.5t-20.5 -80.5q-2 -65 -39.5 -97t-91.5 -32q-30 0 -54 10t-40.5 27.5t-25.5 41t-9 50.5q0 96 25 166.5t66 117t93.5 69t106.5 22.5q55 0 103 -27.5t85 -71.5q37 44 86 71.5t111 27.5
q37 0 72.5 -11.5t66.5 -33t54.5 -52.5t35.5 -71q18 24 34 59.5t26 77.5z" />
    <glyph glyph-name="maichattawathai" unicode="&#xe4b;" 
d="M-520 3222q0 39 15 72t40.5 56.5t60 37t73.5 13.5t73 -13.5t59.5 -37t40.5 -56.5t15 -72v-60h136q30 0 55 -11.5t43 -31t28 -46.5t10 -57t-10 -56.5t-28 -46t-43 -31t-55 -11.5h-136v-60q0 -39 -15 -72t-40.5 -56.5t-60 -37t-73.5 -13.5t-73.5 13.5t-60 37t-40 56.5
t-14.5 72v60h-136q-30 0 -55 11.5t-43 31t-28 46.5t-10 57t10 56.5t28 46t43 31t55 11.5h136v60z" />
    <glyph glyph-name="thanthakhatthai" unicode="&#xe4c;" 
d="M-221 3057q69 5 116.5 -26.5t58.5 -92.5q6 -30 -0.5 -60t-22.5 -54t-40.5 -40.5t-55.5 -19.5q-50 -5 -86.5 -20.5t-62.5 -38t-42.5 -51.5t-25.5 -62q-11 -39 -37 -65t-60 -39.5t-73.5 -14.5t-77.5 12q-41 14 -69.5 41t-42.5 61.5t-13 73.5t18 75q31 66 78 121.5t111 97
t145.5 68t181.5 34.5z" />
    <glyph glyph-name="nikhahitthai" unicode="&#xe4d;" 
d="M-504 2224q0 -24 10.5 -47t28.5 -41t41 -28.5t47 -10.5q26 0 50 10.5t42 28.5t28.5 41t10.5 47q0 26 -10.5 50t-28.5 42t-42 28.5t-50 10.5q-24 0 -47 -10.5t-41 -28.5t-28.5 -42t-10.5 -50zM-754 2224q0 80 29.5 149.5t80.5 121t120 81t147 29.5q75 0 144 -29.5
t121.5 -81t84 -121t31.5 -149.5q0 -78 -31.5 -147t-84 -120t-121.5 -80.5t-144 -29.5q-78 0 -147 29.5t-120 80.5t-80.5 120t-29.5 147z" />
    <glyph glyph-name="yamakkanthai" unicode="&#xe4e;" 
d="M-128 2367q-38 0 -61 -9.5t-36 -27t-17 -42.5t-4 -56q0 -45 -24.5 -69.5t-82.5 -24.5q-68 0 -103 -30.5t-48 -86.5q-10 -35 -33 -61.5t-54.5 -43t-70 -21.5t-78.5 4t-70 30t-48 50.5t-24.5 64t0.5 70.5q23 118 100.5 191t202.5 103q14 50 49 96.5t87 82.5t119 58t147 22
q72 0 118.5 -31.5t56.5 -94.5q5 -31 -2 -62t-24 -56t-43 -40.5t-57 -15.5z" />
    <glyph glyph-name="fongmanthai" unicode="&#xe4f;" horiz-adv-x="2144" 
d="M131 895q0 130 34 250t95.5 224t148 189.5t191.5 146.5t226.5 94.5t252.5 33.5q129 0 248 -33.5t223 -94.5t189 -146.5t146 -189.5t94.5 -224t33.5 -250t-33.5 -250.5t-94.5 -225t-146 -190t-189 -146.5t-223 -94.5t-248 -33.5q-131 0 -252.5 33.5t-226.5 94.5
t-191.5 146.5t-148 190t-95.5 225t-34 250.5zM577 903q0 67 18 129.5t51 117.5t79 100.5t101.5 78t119.5 50.5t133 18q100 0 189 -39.5t156 -107t106 -157.5t39 -190q0 -103 -39 -194t-106 -158.5t-156 -106.5t-189 -39q-69 0 -133 18t-119.5 50t-101.5 77.5t-79 101
t-51 119t-18 132.5zM429 903q0 -88 23 -171t65 -155.5t101 -132.5t131 -103t155.5 -66.5t174.5 -23.5q87 0 169 23.5t153 66.5t130 103t101.5 132.5t65.5 155t23 171.5q0 88 -23.5 170t-65.5 153.5t-101 130t-130 100.5t-153 65t-169 23q-91 0 -174.5 -23t-155.5 -65
t-131 -100.5t-101 -130t-65 -153.5t-23 -170zM843 903q0 -49 18 -92t49.5 -75t74.5 -50.5t94 -18.5q46 0 86.5 18.5t71 50.5t48 75t17.5 92q0 46 -17.5 87t-48 72t-71 49.5t-86.5 18.5q-51 0 -94 -18.5t-74.5 -49.5t-49.5 -72t-18 -87z" />
    <glyph glyph-name="zerothai" unicode="&#xe50;" horiz-adv-x="1929" 
d="M1815 754q0 -153 -32 -271t-89.5 -206t-136.5 -148t-173.5 -97t-200.5 -53t-216 -16q-112 0 -218.5 16.5t-201 53.5t-174 97.5t-137 148.5t-89.5 205.5t-32 269.5q0 161 62 296t174.5 232t269.5 151t346 54q187 0 343 -54t268 -151t174.5 -232t62.5 -296zM1331 717
q0 103 -29.5 175t-79 118t-116 67t-139.5 21q-74 0 -141 -21t-117.5 -67t-80.5 -118t-30 -175q0 -78 26.5 -145t75 -116t116.5 -76.5t151 -27.5t150 27.5t114.5 76.5t73.5 116t26 145z" />
    <glyph glyph-name="onethai" unicode="&#xe51;" horiz-adv-x="1905" 
d="M573 928q0 -38 14.5 -67.5t46.5 -50t82.5 -32t123.5 -11.5q43 4 75.5 -5t54.5 -28.5t34 -47t14 -59.5q4 -61 -21.5 -98t-66.5 -57.5t-90.5 -27t-94.5 -6.5q-81 0 -158.5 15.5t-147 44.5t-128.5 70.5t-101.5 94.5t-66.5 115.5t-24 134.5q0 103 33.5 186.5t91.5 147.5
t136.5 110t168.5 76t187.5 44t193.5 14q113 0 221 -17.5t203.5 -54.5t175.5 -94.5t138 -137t90 -182.5t32 -231q0 -180 -67.5 -328.5t-190.5 -255t-295 -165t-381 -58.5q-78 0 -161.5 5t-172 23.5t-180.5 54.5t-187 98q-28 20 -45.5 48t-22.5 59.5t1.5 64t26.5 60.5t48 46
t59.5 24t64 0t60.5 -26q56 -38 119 -59t128 -31t129.5 -12.5t124.5 -2.5q106 0 188 28.5t138.5 85t86 141t29.5 196.5q0 169 -87.5 254.5t-268.5 85.5q-78 0 -144.5 -10.5t-114.5 -33t-75 -57t-27 -81.5z" />
    <glyph glyph-name="twothai" unicode="&#xe52;" horiz-adv-x="2208" 
d="M610 659q0 -63 36.5 -120t106 -100.5t172 -69t234.5 -25.5q123 0 209 23t139.5 61t78 86.5t24.5 99.5v398q0 31 -9.5 57.5t-27.5 44.5l-211 -180l-215 172q-9 -16 -15.5 -36.5t-6.5 -45.5v-61q0 -31 0.5 -56t6 -43t18 -27.5t37.5 -9.5q75 0 110.5 -42.5t33.5 -114.5
q-1 -36 -15.5 -67t-39 -54t-56.5 -36t-68 -13h-34q-103 0 -175 25t-119 66.5t-73 94.5t-38 109.5t-13.5 112t0.5 100.5q4 82 31.5 154.5t76.5 131.5t119.5 103t162.5 70q10 3 26 5.5t36.5 -0.5t45 -13t51.5 -32l113 -92l111 92q25 21 48 31t43 13t35.5 1.5t26.5 -4.5
q97 -23 182.5 -65.5t149.5 -101t101.5 -130t37.5 -151.5v-381q0 -115 -31.5 -208.5t-88 -167.5t-133.5 -128t-168 -89.5t-192.5 -53t-205.5 -17.5h-221q-207 0 -379 50t-295.5 141t-191.5 219t-68 283v508q0 54 -13 89t-48 51q-32 14 -50.5 38t-26.5 53.5t-5.5 62.5t12.5 66
q12 40 39 69t62.5 46t75.5 21.5t79 -2.5q80 -15 146.5 -50.5t114.5 -91t74.5 -131.5t26.5 -172v-566z" />
    <glyph glyph-name="threethai" unicode="&#xe53;" horiz-adv-x="1925" 
d="M1815 206q0 -51 -19.5 -92.5t-52.5 -71.5t-78 -46t-96 -16t-96 16t-78 46t-52.5 71.5t-19.5 92.5v724q0 31 -7.5 60.5t-20.5 55t-31 44.5t-39 28l-262 -209l-234 201q-23 -12 -46.5 -35.5t-42 -60.5t-30.5 -90t-12 -125v-123q0 -87 3.5 -152.5t20 -109t50.5 -64t95 -18.5
q38 1 69 -11.5t53 -36t34 -54.5t12 -66q0 -32 -11.5 -60.5t-31 -50.5t-46.5 -37t-58 -19q-139 -20 -243 -3.5t-178.5 61t-123.5 112t-77.5 149t-39.5 173t-11 183.5v102q0 153 38.5 269t109 200t170 138t221.5 82q17 4 41.5 7.5t52.5 2t57 -11t55 -31.5l111 -95l118 95
q29 24 59.5 33.5t58 10.5t52 -3t41.5 -7q125 -26 221 -79t161.5 -126.5t99 -163t33.5 -186.5v-703z" />
    <glyph glyph-name="fourthai" unicode="&#xe54;" horiz-adv-x="1925" 
d="M860 0q-139 0 -248.5 28.5t-192 77.5t-140.5 113.5t-94.5 136.5t-53 146.5t-16.5 144.5v156q0 169 63.5 293t176.5 205.5t269.5 121t342.5 39.5h352q54 0 81.5 27t41.5 72q13 42 43.5 72.5t72 47t88.5 18t93 -13.5q41 -14 72 -44t49.5 -68.5t22 -82t-9.5 -84.5
q-23 -69 -63.5 -130.5t-105.5 -108.5t-156.5 -74.5t-216.5 -27.5h-393q-169 0 -250.5 -66t-81.5 -180v-160q0 -65 12 -115t43 -85t85 -54t139 -20q-38 36 -54 83t-16 103q0 23 4 54.5t18 66.5t39.5 70t68.5 63.5t105.5 48.5t150.5 25q34 2 66 -4t58 -22t44.5 -44t25.5 -70
q6 -35 -1.5 -66.5t-26.5 -57t-47 -43.5t-64 -26q-29 -7 -38.5 -25t-9.5 -41q0 -60 42 -87.5t110 -27.5h287q40 0 72 -15t54.5 -41.5t34.5 -61.5t12 -75t-12 -75t-34.5 -61t-54.5 -41t-72 -15h-787z" />
    <glyph glyph-name="fivethai" unicode="&#xe55;" horiz-adv-x="1925" 
d="M877 1450q0 -21 8.5 -40.5t23.5 -34.5t35 -23.5t43 -8.5t43.5 8.5t35.5 23.5t23.5 34.5t8.5 40.5q0 23 -8.5 43t-23.5 35t-35.5 24t-43.5 9t-43 -9t-35 -24t-23.5 -35t-8.5 -43zM860 0q-139 0 -248.5 28.5t-192 77.5t-140.5 113.5t-94.5 136.5t-53 146.5t-16.5 144.5v156
q0 129 38 232.5t107.5 181t167.5 130t219 80.5v19q0 66 27 125.5t73.5 104.5t108.5 71.5t131 26.5q72 0 133.5 -25t107.5 -68t73 -99.5t30 -119.5q48 3 73 29.5t38 69.5q13 42 43.5 72.5t72 47t88.5 18t93 -13.5q41 -14 72 -44t49.5 -68.5t22 -82t-9.5 -84.5
q-23 -69 -63.5 -129.5t-105.5 -106.5t-156.5 -74t-216.5 -31h-393q-170 -5 -251 -68t-81 -178v-160q0 -65 12 -115t43 -85t85 -54t139 -20q-38 36 -54 83t-16 103q0 23 4 54.5t18 66.5t39.5 70t68.5 63.5t105.5 48.5t150.5 25q34 2 66 -4t58 -22t44.5 -44t25.5 -70
q6 -35 -1.5 -66.5t-26.5 -57t-47 -43.5t-64 -26q-29 -7 -38.5 -25t-9.5 -41q0 -60 42 -87.5t110 -27.5h287q40 0 72 -15t54.5 -41.5t34.5 -61.5t12 -75t-12 -75t-34.5 -61t-54.5 -41t-72 -15h-787z" />
    <glyph glyph-name="sixthai" unicode="&#xe56;" horiz-adv-x="1958" 
d="M537 1020q-37 -19 -74.5 -24t-71.5 3t-63.5 29t-50.5 53l-143 223q-21 33 -27.5 69.5t0.5 71.5t27.5 66.5t52.5 52.5q33 21 69.5 27.5t72 -0.5t66.5 -27.5t53 -53.5l89 -134q99 50 221.5 75.5t261.5 31.5q150 4 270 -19.5t212 -69.5t157 -111.5t106 -145t60 -171
t18 -188.5v-102q0 -151 -58.5 -281t-169.5 -224.5t-272.5 -145.5t-367.5 -45q-154 4 -287 39t-231.5 99.5t-154.5 158t-56 215.5q0 120 44 201.5t121 131.5t180.5 71.5t223.5 21.5q34 0 64 -13t52.5 -35t35.5 -52t13 -64t-11 -64t-31.5 -52.5t-48.5 -35t-62 -12.5t-56 -8
t-35 -22.5t-18 -34t-5 -42.5q0 -32 20.5 -54.5t59 -37t93 -22t122.5 -9.5q76 -2 139 16t107 62.5t68.5 118t24.5 184.5q0 97 -25 167t-67.5 115t-99 66t-119.5 21q-60 0 -121 -3t-122.5 -12.5t-125.5 -27.5t-130 -47z" />
    <glyph glyph-name="seventhai" unicode="&#xe57;" horiz-adv-x="2322" 
d="M1783 1228q0 86 23 162t65.5 135t102 97.5t133.5 50.5q39 6 76.5 1t69 -21t54.5 -43.5t35 -65.5q9 -31 10 -63t-7 -61t-26 -53t-46 -38q-35 -17 -48.5 -55.5t-13.5 -92.5v-431q0 -168 -68.5 -305.5t-188 -237t-282 -157t-351.5 -63.5q-45 -2 -83 13.5t-66.5 42
t-44.5 61.5t-16 73q0 52 27 96q30 49 46 100.5t23.5 102.5t8.5 99.5t1 92.5v147q0 111 -22 178.5t-56 104.5l-221 -180l-222 184q-37 -37 -63.5 -109t-26.5 -186v-131q0 -87 7.5 -152.5t26.5 -109t51 -64t81 -18.5q38 2 68 -11t51 -36.5t32.5 -54.5t11.5 -66
q0 -32 -11.5 -60.5t-31 -50.5t-46.5 -37t-58 -19q-139 -20 -243 -4t-178.5 60t-123.5 111t-77.5 148.5t-39.5 172.5t-11 183v110q0 144 37 258t105 199.5t165.5 143.5t217.5 89q13 3 33 7t44.5 2t52 -13t57.5 -36l99 -85l117 91q25 19 47.5 28t41 11t33 0t24.5 -4
q138 -29 228.5 -89t144 -146.5t75 -198t21.5 -244.5v-119q0 -40 -5.5 -83.5t-17 -88t-30 -87.5t-43.5 -82q45 16 85 52t70 85.5t48 109t18 122.5v528z" />
    <glyph glyph-name="eightthai" unicode="&#xe58;" horiz-adv-x="1884" 
d="M877 1057q-77 0 -129 -15.5t-83.5 -43.5t-45 -67t-13.5 -87v-291q0 -31 9 -60t24.5 -54.5t35.5 -46t42 -32.5l237 201l254 -205q41 13 68 47.5t27 96.5q0 20 -3.5 36.5t-13.5 29t-27 21t-45 13.5q-41 6 -67 24t-40 41.5t-18.5 50.5t-2.5 52q6 81 57.5 127t144.5 46
q141 0 233 -37t145 -99t74 -142.5t21 -166.5q0 -226 -125.5 -354.5t-368.5 -154.5q-15 -2 -36 -4t-45.5 0.5t-53 13t-58.5 35.5l-116 95l-112 -99q-24 -21 -50.5 -31t-51 -12t-46.5 0.5t-37 5.5q-127 25 -228.5 78.5t-172 128t-108 165.5t-37.5 190v246q0 155 54 278
t155.5 208.5t248 131t332.5 45.5h357q53 0 81.5 28t41.5 76q13 42 42 72.5t68.5 47t85 18t91.5 -13.5q41 -14 73.5 -42.5t52.5 -65t25 -78.5t-9 -83q-21 -68 -60.5 -133.5t-104 -116.5t-157 -82.5t-218.5 -31.5h-397z" />
    <glyph glyph-name="ninethai" unicode="&#xe59;" horiz-adv-x="1946" 
d="M1714 286q20 -40 22 -82.5t-11 -80.5t-41 -70t-68 -51q-41 -19 -82.5 -20.5t-80 12t-70 41t-50.5 67.5l-420 856q-21 40 -40.5 72t-40.5 54t-46 34t-57 12t-58 -16.5t-44.5 -56t-29 -106.5t-11.5 -169v-106q0 -87 9 -153.5t32 -109.5t62 -61.5t98 -9.5q42 6 73.5 -6
t52.5 -36.5t31.5 -57.5t10.5 -68q0 -32 -11.5 -62t-31 -54t-46.5 -40.5t-58 -20.5q-139 -20 -246 -5t-186.5 57t-133 106.5t-86.5 144t-47.5 169.5t-14.5 182v119q0 350 156.5 531.5t482.5 181.5q29 0 63.5 -0.5t69.5 -3.5t68.5 -10t60.5 -19q37 -15 67.5 -38.5t55.5 -51.5
l74 82q12 12 34 26.5t56 14.5h123q104 0 122 99q9 40 34 68t59.5 42.5t76 15t83.5 -13.5q37 -12 66 -36.5t47 -57t23.5 -71t-6.5 -78.5q-18 -62 -54 -115t-96.5 -91.5t-148.5 -60t-210 -21.5q-9 0 -23.5 -2.5t-17.5 -5.5l-49 -49z" />
    <glyph glyph-name="angkhankhuthai" unicode="&#xe5a;" horiz-adv-x="2474" 
d="M1696 208q0 -51 -19.5 -93t-53 -72t-79 -46.5t-96.5 -16.5t-96.5 16.5t-79 46.5t-53 72t-19.5 93v484q-38 -20 -75 -36t-76 -27t-82.5 -17t-94.5 -6q-177 0 -316.5 40.5t-236.5 115t-148.5 180t-51.5 234.5q0 95 27.5 169t74 130t108.5 95t131 63t141 35t140 11h118
q40 0 73.5 -15t58 -41.5t38 -61.5t13.5 -75t-13.5 -75t-38 -61t-58 -41t-73.5 -15h-68q-42 0 -72.5 -12t-51 -32t-30.5 -45.5t-10 -53.5q0 -37 11 -67.5t38 -53t71.5 -35t112.5 -12.5q160 0 250 68t90 206v214q0 51 19.5 93t53 72t79 46.5t96.5 16.5t96.5 -16.5t79 -46.5
t53 -72t19.5 -93v-1263zM1863 1471q0 51 19.5 93t53 72t79 46.5t96.5 16.5t96.5 -16.5t79 -46.5t53 -72t19.5 -93v-1263q0 -51 -19.5 -93t-53 -72t-79 -46.5t-96.5 -16.5t-96.5 16.5t-79 46.5t-53 72t-19.5 93v1263z" />
    <glyph glyph-name="khomutthai" unicode="&#xe5b;" horiz-adv-x="3899" 
d="M1711 1229q0 40 15.5 76t41.5 62t61.5 41.5t75.5 15.5q45 0 83.5 -17.5t65.5 -49.5q67 -78 124.5 -151.5t98.5 -136.5l74 111t81 120q43 60 95 61.5t94 -58.5q47 -67 88.5 -128t67.5 -106q28 40 55 78.5t52 69.5h636q41 0 77.5 -15.5t63.5 -42.5t42.5 -63.5t15.5 -77.5
t-15.5 -77.5t-42.5 -63.5t-63.5 -42.5t-77.5 -15.5h-485q-36 -51 -85 -126.5t-113 -193.5q-16 -29 -36.5 -41t-40.5 -10t-38.5 16t-29.5 37q-48 91 -88 162.5t-77 131.5q-38 -66 -84 -159.5t-96 -218.5q-15 -34 -35 -50t-41 -16t-40 15.5t-32 44.5q-47 115 -88.5 200
t-74.5 143q-25 -119 -76 -225t-123.5 -195.5t-162.5 -161t-193 -121.5t-215.5 -77t-229.5 -27q-154 0 -282 33.5t-229.5 94.5t-177 145.5t-125.5 187t-74.5 219t-24.5 241.5q0 110 20.5 216.5t63 202.5t106 178t150 141.5t196 93t242.5 33.5q162 0 279.5 -46t197 -125
t124 -184t59.5 -222q5 -39 -4.5 -76.5t-32.5 -68t-60 -50.5t-86 -24q-39 -3 -78 7t-71.5 32t-55 53.5t-28.5 70.5q-8 57 -23 100t-40 72.5t-60 46t-84 20.5q-81 -2 -140.5 -41.5t-98 -106t-57 -155t-18.5 -188.5q0 -98 31 -188.5t88.5 -159.5t140 -110.5t185.5 -41.5
q104 0 191 33t156.5 92.5t122.5 141t89.5 179.5t57 208.5t25.5 226.5z" />
    <glyph glyph-name="ZWSP" unicode="&#x200b;" 
 />
    <glyph glyph-name="endash" unicode="&#x2013;" horiz-adv-x="1733" 
d="M1537 974q40 0 76 -10t63 -32t42.5 -56.5t15.5 -83.5t-15.5 -83.5t-42.5 -56t-63 -31.5t-76 -10h-1341q-40 0 -76 10t-63 31.5t-42.5 56t-15.5 83.5t15.5 83.5t42.5 56.5t63 32t76 10h1341z" />
    <glyph glyph-name="emdash" unicode="&#x2014;" horiz-adv-x="3195" 
d="M2999 974q40 0 76 -10t63 -32t42.5 -56.5t15.5 -83.5t-15.5 -83.5t-42.5 -56t-63 -31.5t-76 -10h-2803q-40 0 -76 10t-63 31.5t-42.5 56t-15.5 83.5t15.5 83.5t42.5 56.5t63 32t76 10h2803z" />
    <glyph glyph-name="quoteleft" unicode="&#x2018;" horiz-adv-x="852" 
d="M705 1423q0 -52 -20 -98t-54.5 -80.5t-80.5 -54.5t-98 -20q-71 0 -126.5 26.5t-93 73.5t-57 111.5t-19.5 139.5q0 69 9 128t27.5 111.5t46.5 100.5t66 94q22 27 55 56.5t70.5 54.5t77 41.5t74.5 16.5q30 0 52.5 -9t38.5 -24.5t24 -35.5t8 -42q0 -24 -9 -42.5t-24.5 -34
t-36 -29t-42.5 -28.5q-23 -15 -48.5 -37t-48.5 -50.5t-42 -62.5t-29 -73q25 6 54 6q54 0 96 -20t71 -53t44 -76t15 -90z" />
    <glyph glyph-name="quoteright" unicode="&#x2019;" horiz-adv-x="852" 
d="M156 1861q0 52 20 98t54.5 80.5t80.5 54.5t98 20q71 0 126.5 -26.5t93 -73.5t57 -111.5t19.5 -139.5q0 -69 -9 -128t-27.5 -111.5t-46.5 -100.5t-66 -94q-22 -27 -55 -56.5t-70.5 -54.5t-77 -41.5t-74.5 -16.5q-30 0 -52.5 9t-38.5 24.5t-24 35.5t-8 42q0 24 9 42.5
t24.5 34t35.5 29t43 28.5t48.5 37t48.5 50.5t41.5 62.5t29.5 73q-26 -6 -54 -6q-54 0 -96 20t-71 53t-44 76t-15 90z" />
    <glyph glyph-name="quotedblleft" unicode="&#x201c;" horiz-adv-x="1438" 
d="M680 1442q0 -52 -20 -98t-54.5 -80.5t-80.5 -54.5t-98 -20q-71 0 -126.5 26.5t-93 73.5t-57 111.5t-19.5 139.5q0 69 9 128t27.5 111.5t46.5 100.5t66 94q22 27 55 56.5t70.5 54.5t77 41.5t74.5 16.5q30 0 52.5 -9t38.5 -24.5t24 -35.5t8 -42q0 -24 -9 -42.5t-24.5 -34
t-36 -29t-42.5 -28.5q-23 -15 -48.5 -37t-48.5 -50.5t-42 -62.5t-29 -73q25 6 54 6q54 0 96 -20t71 -53t44 -76t15 -90zM1292 1442q0 -52 -20 -98t-54.5 -80.5t-80.5 -54.5t-98 -20q-71 0 -126.5 26.5t-93 73.5t-57 111.5t-19.5 139.5q0 69 9 128t27.5 111.5t46.5 100.5
t66 94q22 27 55 56.5t70.5 54.5t77 41.5t74.5 16.5q30 0 52.5 -9t38.5 -24.5t24 -35.5t8 -42q0 -24 -9 -42.5t-24.5 -34t-36 -29t-42.5 -28.5q-23 -15 -48.5 -37t-48.5 -50.5t-42 -62.5t-29 -73q25 6 54 6q54 0 96 -20t71 -53t44 -76t15 -90z" />
    <glyph glyph-name="quotedblright" unicode="&#x201d;" horiz-adv-x="1438" 
d="M758 1861q0 52 20 98t54.5 80.5t80.5 54.5t98 20q71 0 126.5 -26.5t93 -73.5t57 -111.5t19.5 -139.5q0 -69 -9 -128t-27.5 -111.5t-46.5 -100.5t-66 -94q-22 -27 -55 -56.5t-70.5 -54.5t-77 -41.5t-74.5 -16.5q-30 0 -52.5 9t-38.5 24.5t-24 35.5t-8 42q0 24 9 42.5
t24.5 34t35.5 29t43 28.5t48.5 37t48.5 50.5t41.5 62.5t29.5 73q-26 -6 -54 -6q-54 0 -96 20t-71 53t-44 76t-15 90zM146 1861q0 52 20 98t54.5 80.5t80.5 54.5t98 20q71 0 126.5 -26.5t93 -73.5t57 -111.5t19.5 -139.5q0 -69 -9 -128t-27.5 -111.5t-46.5 -100.5t-66 -94
q-22 -27 -55 -56.5t-70.5 -54.5t-77 -41.5t-74.5 -16.5q-30 0 -52.5 9t-38.5 24.5t-24 35.5t-8 42q0 24 9 42.5t24.5 34t35.5 29t43 28.5t48.5 37t48.5 50.5t41.5 62.5t29.5 73q-26 -6 -54 -6q-54 0 -96 20t-71 53t-44 76t-15 90z" />
    <glyph glyph-name="bullet" unicode="&#x2022;" horiz-adv-x="1171" 
d="M74 860q0 64 18.5 125.5t51.5 115.5t79.5 99.5t103 78.5t121 51t134.5 18q106 0 199.5 -40t164 -107.5t111.5 -155.5t41 -185q0 -103 -41 -193t-111.5 -157t-164 -106t-199.5 -39q-70 0 -134.5 17.5t-121 50t-103 77.5t-79.5 100t-51.5 118t-18.5 132z" />
    <glyph glyph-name="Euro" unicode="&#x20ac;" horiz-adv-x="2238" 
d="M324 1082h-34q-36 0 -69.5 4.5t-59.5 20t-41.5 45.5t-15.5 80q0 51 16 81t43 45.5t61 20.5t70 5h89q55 162 152.5 283.5t223 202t272 121t299.5 40.5q114 0 219 -21t196 -57.5t165.5 -87.5t127.5 -110.5t82 -126t29 -135.5q0 -50 -13 -92.5t-38.5 -74t-63.5 -49.5
t-88 -20q-37 -2 -71.5 4t-67.5 22.5t-64 46.5t-59 78q-37 61 -79.5 100.5t-90.5 63t-102.5 32.5t-114.5 9q-106 0 -199 -58.5t-155 -170.5h222q37 0 72 -3.5t61.5 -17.5t42.5 -43.5t16 -81.5q0 -51 -15 -82t-41 -47.5t-61 -21.5t-75 -5h-307q-4 -42 -4 -80t2 -76h309
q38 0 72.5 -3.5t61 -18.5t42.5 -44.5t16 -80.5t-15 -81.5t-41 -47t-61 -21.5t-75 -5h-241q58 -124 159.5 -192.5t246.5 -68.5q52 0 96.5 9t88 35.5t89 73.5t100.5 124q38 57 88 87.5t109 30.5q54 0 100 -17.5t80.5 -49.5t54 -76t19.5 -98q0 -83 -37 -155.5t-100 -132
t-146.5 -106t-175 -79t-186 -49t-180.5 -16.5q-160 0 -311 40.5t-278.5 124.5t-224 212t-147.5 303h-74q-36 0 -69.5 4.5t-60 20t-42.5 45t-16 79.5q0 53 16.5 83.5t43 46t60.5 19.5t70 4h25q-2 40 -1 79t3 77z" />
    <glyph glyph-name="trademark" unicode="&#x2122;" horiz-adv-x="2753" 
d="M478 1748h-169q-37 0 -62.5 12t-41.5 30t-23 40t-7 43t7 43.5t23 40.5t41.5 30t62.5 12h660q37 0 62.5 -12t41 -30t22 -40.5t6.5 -43.5t-6.5 -43t-22 -40t-41 -30t-62.5 -12h-171v-643q0 -53 -18 -86.5t-43.5 -52.5t-52.5 -26.5t-45 -7.5t-45.5 7.5t-53 26.5t-44 52.5
t-18.5 86.5v643zM2138 1473l-137 -404q-25 -69 -64 -103t-96 -34t-95.5 34t-63.5 103l-137 402v-366q0 -53 -18.5 -86.5t-44 -52.5t-53 -26.5t-45.5 -7.5t-45.5 7.5t-53 26.5t-44 52.5t-18.5 86.5v677q0 69 21 114t53.5 71t70 36t70.5 10q100 0 164.5 -46.5t105.5 -146.5
l133 -343l134 343q39 100 104 146.5t165 46.5q33 0 70.5 -10t70 -36t53.5 -71t21 -114v-677q0 -53 -18.5 -86.5t-44 -52.5t-53 -26.5t-45.5 -7.5t-45.5 7.5t-53 26.5t-43.5 52.5t-18 86.5v368z" />
    <glyph glyph-name="uni25CC" unicode="&#x25cc;" horiz-adv-x="1868" 
d="M569 455l66 159q22 -34 47 -61.5t59 -48.5zM934 1303l74 -156q-41 9 -83 7t-73 -11zM934 303l-74 152q37 -10 68.5 -9.5t75.5 13.5zM1434 803l-156 -70q12 34 12.5 70.5t-8.5 77.5zM434 807l160 78q-6 -37 -7.5 -76.5t7.5 -79.5zM598 1159l164 -57q-43 -22 -73.5 -47
t-49.5 -56zM1274 451l-152 49q34 21 59.5 46t47.5 56zM1298 1159l-69 -164q-22 34 -51 61.5t-60 49.5z" />
    <glyph glyph-name="thothannobasethai" unicode="&#xf700;" horiz-adv-x="1647" 
d="M897 565q25 69 50.5 148t46.5 151t34.5 128.5t15.5 80.5q10 118 -47.5 180t-169.5 62q-75 0 -132 -26.5t-93 -93.5q-20 -44 -57 -71.5t-81.5 -39t-91 -7t-85.5 25.5q-42 22 -72 56t-43.5 74.5t-9.5 83.5t30 84q95 149 260.5 232t387.5 83q66 0 135.5 -8.5t138.5 -28.5
q20 12 36 31.5t27 43.5q35 61 90 88t113.5 26t112.5 -27.5t86.5 -72t36 -107t-38.5 -132.5q-19 -32 -48 -54.5t-61 -39.5q42 -64 65 -145.5t23 -183.5q0 -83 -22.5 -177t-62.5 -204.5t-93.5 -238.5t-115.5 -279q-23 -53 -59 -95.5t-82.5 -72.5t-102 -46.5t-116.5 -16.5
q-64 0 -121 15t-104 45t-82.5 73.5t-55.5 100.5l-146 408h-22q-36 0 -65.5 13.5t-51 37t-33.5 54.5t-12 67t12 67.5t33.5 55t51 37t65.5 13.5h290q36 0 60.5 -12t42.5 -33t30.5 -50.5t23.5 -63.5z" />
    <glyph glyph-name="yoyingnobasethai" unicode="&#xf70f;" horiz-adv-x="2666" 
d="M1638 614q0 -127 55 -192.5t154 -65.5q95 0 148 61.5t53 196.5v853q0 52 20 95t54 73.5t80 47t98 16.5t98 -16.5t80 -47t54 -73.5t20 -95v-918q0 -152 -57.5 -263.5t-155 -184t-225 -107.5t-267.5 -35q-144 0 -273.5 34.5t-227 106.5t-154.5 183.5t-57 265.5v483
q0 57 -10.5 109t-42 91.5t-89.5 63t-153 23.5q-63 0 -111 -16t-84 -40.5t-60.5 -54t-39.5 -57.5q26 -25 46.5 -49.5t34.5 -54t21.5 -65t7.5 -81.5v-536h30q38 0 69.5 -14.5t54.5 -39t36 -58t13 -71.5t-13 -71t-36 -58t-54.5 -39t-69.5 -14h-356q-38 0 -69.5 14t-54.5 39
t-36 58t-13 71v723q0 42 -14.5 86t-56.5 86q-26 25 -38 47t-13.5 44.5t7 47t24.5 56.5q43 88 111.5 168t164.5 141.5t220.5 98t278.5 36.5q147 0 263.5 -26t205 -72.5t151 -110.5t102.5 -141t58 -164t18 -178v-410z" />
    <glyph glyph-name="saraulowthai" unicode="&#xf718;" 
d="M-116 -1288q0 -48 -18 -87t-49.5 -66t-73 -42t-89.5 -15t-90.5 15t-74 42t-49.5 66t-18 87v201h-64q-38 0 -69 14.5t-53.5 39t-35 57.5t-12.5 70t12.5 70t35 58t53.5 39t69 14h356q37 0 68.5 -14t54 -39t35 -58t12.5 -70v-382z" />
    <glyph glyph-name="sarauulowthai" unicode="&#xf719;" 
d="M-557 -905q0 46 17.5 83t47.5 63t70 40.5t86 14.5t86 -14.5t70 -40.5t47.5 -63t17.5 -83v-138q0 -94 -29.5 -177.5t-93 -146t-164 -99t-241.5 -36.5q-131 0 -227 35.5t-160.5 96t-99 140t-41.5 167.5h-50q-35 0 -64.5 13.5t-50.5 36.5t-32.5 54t-11.5 66t11.5 65.5
t32.5 53.5t50.5 36.5t64.5 13.5h333q35 0 64.5 -13.5t50.5 -36.5t32.5 -53.5t11.5 -65.5v-134q0 -65 18 -98t68 -33q49 0 67.5 33t18.5 98v122z" />
    <glyph glyph-name="phinthulowthai" unicode="&#xf71a;" 
d="M-672 -1008q0 61 24.5 116.5t66 96.5t96.5 65.5t116 24.5q60 0 114 -24.5t95.5 -65.5t65.5 -96.5t24 -116.5q0 -60 -24 -114t-65.5 -95t-95.5 -65.5t-114 -24.5q-61 0 -116 24.5t-96.5 65.5t-66 95t-24.5 114z" />
    <glyph glyph-name="lochula.short" unicode="&#xf71d;" horiz-adv-x="2195" 
d="M1751 1827q11 23 27 43.5t38 37.5q38 30 81 41t85.5 5.5t82 -26.5t70.5 -57q31 -35 44 -78t8 -86.5t-27 -84.5t-62 -71q-23 -17 -46 -29.5t-45 -22.5q34 -34 58.5 -78.5t37.5 -95t13 -103.5t-15 -104l-295 -995q-20 -66 -78.5 -104.5t-140.5 -38.5q-85 0 -140 39.5
t-78 103.5l-267 725l-256 -725q-23 -66 -80 -104.5t-139 -38.5q-84 0 -142.5 38.5t-75.5 104.5l-336 1278q-15 58 -6 107t36 87t69 63t93 34q52 10 102.5 2.5t92.5 -30t71.5 -60.5t38.5 -90l126 -691l173 462q14 37 36.5 69t52.5 55t66.5 36.5t77.5 13.5q42 0 79 -13.5
t67.5 -37t53.5 -56t37 -69.5l185 -501l73 324q11 55 19 99t4.5 77t-22 55t-60.5 34q-26 7 -48.5 22.5t-39 37t-25.5 47t-9 54.5q0 31 10.5 59t29 50t44 37t54.5 20q72 13 121 44t76 85z" />
    <glyph glyph-name="rulakkhangyao" unicode="&#xf881;" horiz-adv-x="2728" 
d="M852 1716q202 0 349 -45.5t248 -122.5q48 38 101.5 69t111.5 53t118 34t121 12q89 0 176.5 -15.5t166.5 -47t146.5 -79t117 -112t77.5 -146.5t28 -181v-1467q0 -52 -19.5 -95t-53.5 -73.5t-79.5 -47t-97.5 -16.5t-97.5 16.5t-79 47t-53 73.5t-19.5 95v1397
q0 72 -16.5 120t-45.5 77t-68 41t-83 12q-37 0 -74.5 -12t-68.5 -39.5t-51 -71.5t-21 -108q0 -4 0.5 -10.5t0.5 -26v-57.5t0.5 -105.5t0.5 -169v-248.5v-344v-455q0 -52 -20 -95t-54.5 -73.5t-80.5 -47t-98 -16.5t-98 16.5t-80 47t-53.5 73.5t-19.5 95v1364q0 58 -13 111.5
t-49 94.5t-101 65t-169 24q-81 0 -137.5 -17.5t-93 -44.5t-57.5 -58.5t-32 -59.5q26 -23 45.5 -46t32 -50t19 -61.5t6.5 -80.5v-544h30q38 0 69.5 -14.5t54.5 -39t36 -58t13 -71.5t-13 -71t-36 -58t-54.5 -39t-69.5 -14h-353q-38 0 -69.5 14t-54.5 39t-36 58t-13 71v723
q0 42 -14.5 86t-56.5 86q-26 25 -38 47t-13.5 44.5t7 47t24.5 56.5q43 88 114 168t171 141.5t229.5 98t289.5 36.5z" />
    <glyph glyph-name="lulakkhangyao" unicode="&#xf882;" horiz-adv-x="2707" 
d="M918 1716q188 0 327 -39t239 -107q90 73 203 109.5t234 36.5q89 0 173.5 -15.5t159 -47t137 -79t107.5 -112t70 -146.5t25 -181v-1468q0 -52 -19.5 -95t-53.5 -73.5t-80 -47t-98 -16.5t-97.5 16.5t-79 47t-53 73.5t-19.5 95v1414q0 126 -43 180t-129 54q-70 0 -115.5 -45
t-58.5 -146q6 -50 6 -100v-1357q0 -52 -20 -95t-54.5 -73.5t-80.5 -47t-98 -16.5t-98 16.5t-80 47t-53.5 73.5t-19.5 95v1324q0 58 -12.5 118t-48.5 108.5t-101 79t-169 30.5q-82 1 -138 -16.5t-93 -44.5t-57.5 -59t-31.5 -60q26 -23 45.5 -48.5t32 -55.5t18.5 -67t6 -83
v-711q0 -38 -13 -71t-36 -58t-54.5 -39t-69.5 -14h-336q-38 0 -69.5 14t-54.5 39t-35.5 58t-12.5 71t12.5 71.5t35.5 58t54.5 39t69.5 14.5h14v540q0 42 -14.5 86t-56.5 86q-26 25 -38 47t-13.5 44.5t7 47t24.5 56.5q43 88 114 168t171 141.5t229.5 98t289.5 36.5z" />
    <glyph glyph-name="yamakkanleftthai" 
d="M-785 2367q-38 0 -61 -9.5t-36 -27t-17 -42.5t-4 -56q0 -45 -24.5 -69.5t-82.5 -24.5q-68 0 -103 -30.5t-48 -86.5q-10 -35 -33 -61.5t-54.5 -43t-70 -21.5t-78.5 4t-70 30t-48 50.5t-24.5 64t0.5 70.5q23 118 100.5 191t202.5 103q14 50 49 96.5t87 82.5t119 58t147 22
q72 0 118.5 -31.5t56.5 -94.5q5 -31 -2 -62t-24 -56t-43 -40.5t-57 -15.5z" />
    <glyph glyph-name="saraamleft" horiz-adv-x="1460" 
d="M-1196 2224q0 -24 10.5 -47t28 -41t40.5 -28.5t48 -10.5q26 0 50 10.5t42 28.5t28.5 41t10.5 47q0 26 -10.5 50t-28.5 42t-42 28.5t-50 10.5q-25 0 -48 -10.5t-40.5 -28.5t-28 -42t-10.5 -50zM-1446 2224q0 80 29.5 149.5t80.5 121t120 81t147 29.5q75 0 144 -29.5
t121.5 -81t84 -121t31.5 -149.5q0 -78 -31.5 -147t-84 -120t-121.5 -80.5t-144 -29.5q-78 0 -147 29.5t-120 80.5t-80.5 120t-29.5 147zM1346 1135q0 99 -25 181t-70 146.5t-107.5 112t-137 79t-159 47t-173.5 15.5q-91 0 -180 -20.5t-167 -63t-140.5 -106.5t-100.5 -151
q-20 -45 -18 -91t20.5 -87.5t53 -74t79.5 -48.5q46 -17 93 -14t88.5 22.5t73.5 53.5t49 80q23 52 61 75.5t88 23.5q86 0 129 -54t43 -180v-873q0 -51 19.5 -93t53.5 -72t79.5 -46.5t96.5 -16.5t97 16.5t80 46.5t54 72t20 93v927z" />
    <glyph glyph-name="uni0E33.alt1" horiz-adv-x="1460" 
d="M-1196 2224q0 -24 10.5 -47t28 -41t40.5 -28.5t48 -10.5q26 0 50 10.5t42 28.5t28.5 41t10.5 47q0 26 -10.5 50t-28.5 42t-42 28.5t-50 10.5q-25 0 -48 -10.5t-40.5 -28.5t-28 -42t-10.5 -50zM-1446 2224q0 80 29.5 149.5t80.5 121t120 81t147 29.5q75 0 144 -29.5
t121.5 -81t84 -121t31.5 -149.5q0 -78 -31.5 -147t-84 -120t-121.5 -80.5t-144 -29.5q-78 0 -147 29.5t-120 80.5t-80.5 120t-29.5 147zM1346 1135q0 99 -25 181t-70 146.5t-107.5 112t-137 79t-159 47t-173.5 15.5q-91 0 -180 -20.5t-167 -63t-140.5 -106.5t-100.5 -151
q-20 -45 -18 -91t20.5 -87.5t53 -74t79.5 -48.5q46 -17 93 -14t88.5 22.5t73.5 53.5t49 80q23 52 61 75.5t88 23.5q86 0 129 -54t43 -180v-873q0 -51 19.5 -93t53.5 -72t79.5 -46.5t96.5 -16.5t97 16.5t80 46.5t54 72t20 93v927z" />
    <glyph glyph-name="saraithai.alt1" 
d="M-1268 1876q-37 0 -68.5 14t-54 38.5t-35 57.5t-12.5 70t12.5 70t35 57.5t54 38.5t68.5 14h1013q37 0 68.5 -14t54 -38.5t35 -57.5t12.5 -70t-12.5 -70t-35 -57.5t-54 -38.5t-68.5 -14h-1013z" />
    <glyph glyph-name="saraiithai.alt1" 
d="M-1268 1876q-37 0 -68.5 14t-54 38.5t-35 57.5t-12.5 70t12.5 70t35 57.5t54 38.5t68.5 14h715v79q0 45 17 82t47 63t70 40t85 14t85 -14t70 -40t47 -63t17 -82v-259q0 -37 -12.5 -70t-35 -57.5t-54 -38.5t-68.5 -14h-983z" />
    <glyph glyph-name="sarauethai.alt1" 
d="M-1268 1876q-37 0 -68.5 14t-54 38.5t-35 57.5t-12.5 70t12.5 70t35 57.5t54 38.5t68.5 14h555v13q0 64 24.5 121t68 99t103 66.5t128.5 24.5q77 0 137 -28.5t101.5 -75t63 -107.5t21.5 -125q0 -74 -27 -137.5t-74 -110t-109.5 -73.5t-133.5 -27h-858zM-500 2228
q0 -21 8.5 -40.5t23.5 -34t35.5 -23t43.5 -8.5t43 8.5t35 23t23.5 34t8.5 40.5q0 23 -8.5 43.5t-23.5 35.5t-35 23.5t-43 8.5t-43.5 -8.5t-35.5 -23.5t-23.5 -35.5t-8.5 -43.5z" />
    <glyph glyph-name="saraueethai.alt1" 
d="M-1268 1876q-37 0 -68.5 14t-54 38.5t-35 57.5t-12.5 70t12.5 70t35 57.5t54 38.5t68.5 14h367v134q0 34 13 61t35 45.5t52 28t64 9.5t64 -9.5t52 -28t35 -45.5t13 -61v-134h131v134q0 34 12.5 61t34.5 45.5t52 28t64 9.5t64 -9.5t52 -28t35 -45.5t13 -61v-314
q0 -37 -12.5 -70t-35 -57.5t-54 -38.5t-68.5 -14h-983z" />
    <glyph glyph-name="saraithai.alt2" 
d="M-1999 1876q-37 0 -68.5 14t-54 38.5t-35 57.5t-12.5 70t12.5 70t35 57.5t54 38.5t68.5 14h1164q37 0 68.5 -14t54 -38.5t35 -57.5t12.5 -70t-12.5 -70t-35 -57.5t-54 -38.5t-68.5 -14h-1164z" />
    <glyph glyph-name="saraiithai.alt2" 
d="M-1999 1876q-37 0 -68.5 14t-54 38.5t-35 57.5t-12.5 70t12.5 70t35 57.5t54 38.5t68.5 14h866v79q0 45 17 82t47 63t70 40t85 14t85 -14t70 -40t47 -63t17 -82v-259q0 -37 -12.5 -70t-35 -57.5t-54 -38.5t-68.5 -14h-1134z" />
    <glyph glyph-name="sarauethai.alt2" 
d="M-1999 1876q-37 0 -68.5 14t-54 38.5t-35 57.5t-12.5 70t12.5 70t35 57.5t54 38.5t68.5 14h680v13q0 64 24.5 121t68 99t103 66.5t128.5 24.5q76 0 136.5 -28.5t101.5 -75t63 -107.5t22 -125q0 -74 -27 -137.5t-74 -110t-109.5 -73.5t-133.5 -27h-983zM-1106 2228
q0 -21 8.5 -40.5t23.5 -34t35.5 -23t43.5 -8.5t43 8.5t35 23t23.5 34t8.5 40.5q0 23 -8.5 43.5t-23.5 35.5t-35 23.5t-43 8.5t-43.5 -8.5t-35.5 -23.5t-23.5 -35.5t-8.5 -43.5z" />
    <glyph glyph-name="saraueethai.alt2" 
d="M-1999 1876q-37 0 -68.5 14t-54 38.5t-35 57.5t-12.5 70t12.5 70t35 57.5t54 38.5t68.5 14h518v134q0 34 13 61t35 45.5t52 28t64 9.5t64 -9.5t52 -28t35 -45.5t13 -61v-134h131v134q0 34 12.5 61t34.5 45.5t52 28t64 9.5t64 -9.5t52 -28t35 -45.5t13 -61v-314
q0 -37 -12.5 -70t-35 -57.5t-54 -38.5t-68.5 -14h-1134z" />
    <glyph glyph-name="maiekthai.alt2" 
d="M-696 2828q0 -45 -17 -81t-46 -61.5t-68 -39t-84 -13.5t-84 13.5t-68 39t-46 61.5t-17 81v254q0 45 17 81t46 61.5t68 39t84 13.5t84 -13.5t68 -39t46 -61.5t17 -81v-254z" />
    <glyph glyph-name="maithothai.alt2" 
d="M-657 3122q14 31 38 53t53 33t61 10t63 -15q30 -14 52 -38.5t32.5 -54t10 -62.5t-15.5 -64q-33 -69 -89.5 -129t-136.5 -103.5t-184 -68.5t-231 -25h-162q-29 0 -52.5 10.5t-39.5 29t-24.5 43t-8.5 52.5v136h-58q-28 0 -51 10.5t-39.5 29t-25.5 43t-9 52.5t9 52.5
t25.5 43t39.5 29t51 10.5h274q28 0 51 -10.5t39.5 -29t25.5 -43t9 -52.5v-115q58 4 105 19t84 38t63 52.5t41 63.5z" />
    <glyph glyph-name="maitrithai.alt2" 
d="M-592 3108q8 29 26.5 51t43 35.5t53.5 18t58 -2.5q33 -8 55.5 -25.5t35 -41.5t14.5 -52t-6 -57q-20 -67 -53.5 -130.5t-77 -115.5t-95 -87.5t-106.5 -45.5h-114q-38 0 -63.5 24.5t-28.5 62.5q-2 26 -7 50t-14 43t-23 30t-35 11q-25 0 -38.5 -17.5t-18.5 -46.5
q-6 -38 -28 -59.5t-60 -21.5t-61 21.5t-27 59.5q-3 26 -16.5 45t-44.5 19q-35 0 -53.5 -31.5t-20.5 -80.5q-2 -65 -39.5 -97t-91.5 -32q-30 0 -54 10t-40.5 27.5t-25.5 41t-9 50.5q0 96 25 166.5t66 117t93.5 69t106.5 22.5q55 0 103 -27.5t85 -71.5q37 44 86 71.5t111 27.5
q37 0 72.5 -11.5t66.5 -33t54.5 -52.5t35.5 -71q18 24 34 59.5t26 77.5z" />
    <glyph glyph-name="maichattawathai.alt2" 
d="M-1077 3222q0 39 15 72t40.5 56.5t60 37t73.5 13.5t73 -13.5t59.5 -37t40.5 -56.5t15 -72v-60h136q30 0 55 -11.5t43 -31t28 -46.5t10 -57t-10 -56.5t-28 -46t-43 -31t-55 -11.5h-136v-60q0 -39 -15 -72t-40.5 -56.5t-60 -37t-73.5 -13.5t-73.5 13.5t-60 37t-40 56.5
t-14.5 72v60h-136q-30 0 -55 11.5t-43 31t-28 46.5t-10 57t10 56.5t28 46t43 31t55 11.5h136v60z" />
    <glyph glyph-name="saraithai.alt3" 
d="M-2001 1876q-37 0 -68.5 14t-54 38.5t-35 57.5t-12.5 70t12.5 70t35 57.5t54 38.5t68.5 14h1746q37 0 68.5 -14t54 -38.5t35 -57.5t12.5 -70t-12.5 -70t-35 -57.5t-54 -38.5t-68.5 -14h-1746z" />
    <glyph glyph-name="saraiithai.alt3" 
d="M-2001 1876q-37 0 -68.5 14t-54 38.5t-35 57.5t-12.5 70t12.5 70t35 57.5t54 38.5t68.5 14h1448v79q0 45 17 82t47 63t70 40t85 14t85 -14t70 -40t47 -63t17 -82v-259q0 -37 -12.5 -70t-35 -57.5t-54 -38.5t-68.5 -14h-1716z" />
    <glyph glyph-name="sarauethai.alt3" 
d="M-2001 1876q-37 0 -68.5 14t-54 38.5t-35 57.5t-12.5 70t12.5 70t35 57.5t54 38.5t68.5 14h1280v13q0 64 24.5 121t68 99t103 66.5t128.5 24.5q76 0 136.5 -28.5t101.5 -75t63 -107.5t22 -125q0 -74 -27 -137.5t-74 -110t-109.5 -73.5t-133.5 -27h-1583zM-508 2228
q0 -21 8.5 -40.5t23.5 -34t35.5 -23t43.5 -8.5t43 8.5t35 23t23.5 34t8.5 40.5q0 23 -8.5 43.5t-23.5 35.5t-35 23.5t-43 8.5t-43.5 -8.5t-35.5 -23.5t-23.5 -35.5t-8.5 -43.5z" />
    <glyph glyph-name="saraueethai.alt3" 
d="M-2001 1876q-37 0 -68.5 14t-54 38.5t-35 57.5t-12.5 70t12.5 70t35 57.5t54 38.5t68.5 14h1100v134q0 34 13 61t35 45.5t52 28t64 9.5t64 -9.5t52 -28t35 -45.5t13 -61v-134h131v134q0 34 12.5 61t34.5 45.5t52 28t64 9.5t64 -9.5t52 -28t35 -45.5t13 -61v-314
q0 -37 -12.5 -70t-35 -57.5t-54 -38.5t-68.5 -14h-1716z" />
    <glyph glyph-name="maiekthai.alt4" 
d="M-115 2668q0 -45 -17 -81t-46 -61.5t-68 -39t-84 -13.5t-84 13.5t-68 39t-46 61.5t-17 81v254q0 45 17 81t46 61.5t68 39t84 13.5t84 -13.5t68 -39t46 -61.5t17 -81v-254z" />
    <glyph glyph-name="maithothai.alt4" 
d="M-231 2957q14 31 38 53t53 33t61 10t63 -15q30 -14 52 -38.5t32.5 -54t10 -62.5t-15.5 -64q-33 -69 -89.5 -129t-136.5 -103.5t-184 -68.5t-231 -25h-162q-29 0 -52.5 10.5t-39.5 29t-24.5 43t-8.5 52.5v146h-58q-28 0 -51 10.5t-39.5 29t-25.5 43t-9 52.5t9 52.5
t25.5 43t39.5 29t51 10.5h274q28 0 51 -10.5t39.5 -29t25.5 -43t9 -52.5v-125q58 4 105 19t84 38t63 52.5t41 63.5z" />
    <glyph glyph-name="maitrithai.alt4" 
d="M-185 2943q8 29 26.5 51t43 35.5t53.5 18t58 -2.5q33 -8 55.5 -25.5t35 -41.5t14.5 -52t-6 -57q-20 -67 -53.5 -130.5t-77 -115.5t-95 -87.5t-106.5 -45.5h-114q-38 0 -63.5 24.5t-28.5 62.5q-2 26 -7 50t-14 43t-23 30t-35 11q-25 0 -38.5 -17.5t-18.5 -46.5
q-6 -38 -28 -59.5t-60 -21.5t-61 21.5t-27 59.5q-3 26 -16.5 45t-44.5 19q-35 0 -53.5 -31.5t-20.5 -80.5q-2 -65 -39.5 -97t-91.5 -32q-30 0 -54 10t-40.5 27.5t-25.5 41t-9 50.5q0 96 25 166.5t66 117t93.5 69t106.5 22.5q55 0 103 -27.5t85 -71.5q37 44 86 71.5t111 27.5
q37 0 72.5 -11.5t66.5 -33t54.5 -52.5t35.5 -71q18 24 34 59.5t26 77.5z" />
    <glyph glyph-name="maichattawathai.alt4" 
d="M-540 3058q0 39 15 72t40.5 56.5t60 37t73.5 13.5t73 -13.5t59.5 -37t40.5 -56.5t15 -72v-60h136q30 0 55 -11.5t43 -31t28 -46.5t10 -57t-10 -56.5t-28 -46t-43 -31t-55 -11.5h-136v-60q0 -39 -15 -72t-40.5 -56.5t-60 -37t-73.5 -13.5t-73.5 13.5t-60 37t-40 56.5
t-14.5 72v60h-136q-30 0 -55 11.5t-43 31t-28 46.5t-10 57t10 56.5t28 46t43 31t55 11.5h136v60z" />
    <glyph glyph-name="maiekthai.alt5" 
d="M-717 2668q0 -45 -17 -81t-46 -61.5t-68 -39t-84 -13.5t-84 13.5t-68 39t-46 61.5t-17 81v254q0 45 17 81t46 61.5t68 39t84 13.5t84 -13.5t68 -39t46 -61.5t17 -81v-254z" />
    <glyph glyph-name="maithothai.alt5" 
d="M-679 2957q14 31 38 53t53 33t61 10t63 -15q30 -14 52 -38.5t32.5 -54t10 -62.5t-15.5 -64q-33 -69 -89.5 -129t-136.5 -103.5t-184 -68.5t-231 -25h-162q-29 0 -52.5 10.5t-39.5 29t-24.5 43t-8.5 52.5v146h-58q-28 0 -51 10.5t-39.5 29t-25.5 43t-9 52.5t9 52.5
t25.5 43t39.5 29t51 10.5h274q28 0 51 -10.5t39.5 -29t25.5 -43t9 -52.5v-125q58 4 105 19t84 38t63 52.5t41 63.5z" />
    <glyph glyph-name="maitrithai.alt5" 
d="M-614 2943q8 29 26.5 51t43 35.5t53.5 18t58 -2.5q33 -8 55.5 -25.5t35 -41.5t14.5 -52t-6 -57q-20 -67 -53.5 -130.5t-77 -115.5t-95 -87.5t-106.5 -45.5h-114q-38 0 -63.5 24.5t-28.5 62.5q-2 26 -7 50t-14 43t-23 30t-35 11q-25 0 -38.5 -17.5t-18.5 -46.5
q-6 -38 -28 -59.5t-60 -21.5t-61 21.5t-27 59.5q-3 26 -16.5 45t-44.5 19q-35 0 -53.5 -31.5t-20.5 -80.5q-2 -65 -39.5 -97t-91.5 -32q-30 0 -54 10t-40.5 27.5t-25.5 41t-9 50.5q0 96 25 166.5t66 117t93.5 69t106.5 22.5q55 0 103 -27.5t85 -71.5q37 44 86 71.5t111 27.5
q37 0 72.5 -11.5t66.5 -33t54.5 -52.5t35.5 -71q18 24 34 59.5t26 77.5z" />
    <glyph glyph-name="maichattawathai.alt5" 
d="M-1097 3058q0 39 15 72t40.5 56.5t60 37t73.5 13.5t73 -13.5t59.5 -37t40.5 -56.5t15 -72v-60h136q30 0 55 -11.5t43 -31t28 -46.5t10 -57t-10 -56.5t-28 -46t-43 -31t-55 -11.5h-136v-60q0 -39 -15 -72t-40.5 -56.5t-60 -37t-73.5 -13.5t-73.5 13.5t-60 37t-40 56.5
t-14.5 72v60h-136q-30 0 -55 11.5t-43 31t-28 46.5t-10 57t10 56.5t28 46t43 31t55 11.5h136v60z" />
    <glyph glyph-name="sarauthai.alt6" 
d="M-410 -804q0 -48 -18 -87t-49.5 -66t-73 -42t-89.5 -15t-90.5 15t-74 42t-49.5 66t-18 87v241h-64q-38 0 -69 14.5t-53.5 39t-35 57.5t-12.5 70t12.5 70t35 58t53.5 39t69 14h356q37 0 68.5 -14t54 -39t35 -58t12.5 -70v-422z" />
    <glyph glyph-name="sarauuthai.alt6" 
d="M-623 -382q0 46 17.5 83t47.5 63t70 40.5t86 14.5t86 -14.5t70 -40.5t47.5 -63t17.5 -83v-138q0 -94 -29.5 -177.5t-93 -146t-164 -99t-241.5 -36.5q-131 0 -227 35.5t-160.5 96t-99 140t-41.5 167.5h-50q-35 0 -64.5 13.5t-50.5 36.5t-32.5 54t-11.5 66t11.5 65.5
t32.5 53.5t50.5 36.5t64.5 13.5h333q35 0 64.5 -13.5t50.5 -36.5t32.5 -53.5t11.5 -65.5v-134q0 -65 18 -98t68 -33q49 0 67.5 33t18.5 98v122z" />
    <glyph glyph-name="phinthuthai.alt6" 
d="M-975 -430q0 61 24.5 116.5t65.5 96.5t96 65.5t117 24.5q60 0 114 -24.5t95.5 -65.5t65.5 -96.5t24 -116.5q0 -60 -24 -114t-65.5 -95.5t-95.5 -65.5t-114 -24q-62 0 -117 24t-96 65.5t-65.5 95.5t-24.5 114z" />
    <glyph glyph-name="sarauthai.alt7" 
d="M-360 -804q0 -48 -18 -87t-49.5 -66t-73 -42t-89.5 -15t-90.5 15t-74 42t-49.5 66t-18 87v241h-64q-38 0 -69 14.5t-53.5 39t-35 57.5t-12.5 70t12.5 70t35 58t53.5 39t69 14h356q37 0 68.5 -14t54 -39t35 -58t12.5 -70v-422z" />
    <glyph glyph-name="sarauuthai.alt7" 
d="M-876 -382q0 46 17.5 83t47.5 63t70 40.5t86 14.5t86 -14.5t70 -40.5t47.5 -63t17.5 -83v-138q0 -94 -29.5 -177.5t-93 -146t-164 -99t-241.5 -36.5q-131 0 -227 35.5t-160.5 96t-99 140t-41.5 167.5h-50q-35 0 -64.5 13.5t-50.5 36.5t-32.5 54t-11.5 66t11.5 65.5
t32.5 53.5t50.5 36.5t64.5 13.5h333q35 0 64.5 -13.5t50.5 -36.5t32.5 -53.5t11.5 -65.5v-134q0 -65 18 -98t68 -33q49 0 67.5 33t18.5 98v122z" />
    <glyph glyph-name="phinthuthai.alt7" 
d="M-975 -430q0 61 24.5 116.5t65.5 96.5t96 65.5t117 24.5q60 0 114 -24.5t95.5 -65.5t65.5 -96.5t24 -116.5q0 -60 -24 -114t-65.5 -95.5t-95.5 -65.5t-114 -24q-62 0 -117 24t-96 65.5t-65.5 95.5t-24.5 114z" />
    <glyph glyph-name="maihanakatthai.alt8" 
d="M-1081 1876q-42 0 -78.5 14t-64 39.5t-43 60.5t-15.5 77v168q0 42 15.5 77t43 60.5t64 40t78.5 14.5t78.5 -14.5t63.5 -40t43 -60.5t16 -77h1155q37 0 68 -14t53.5 -38.5t35 -57t12.5 -69.5q0 -38 -12.5 -70.5t-35 -57t-53.5 -38.5t-68 -14h-1356z" />
    <glyph glyph-name="maiekthai.alt8" 
d="M-614 2828q0 -45 -17 -81t-46 -61.5t-68 -39t-84 -13.5t-84 13.5t-68 39t-46 61.5t-17 81v254q0 45 17 81t46 61.5t68 39t84 13.5t84 -13.5t68 -39t46 -61.5t17 -81v-254z" />
    <glyph glyph-name="maithothai.alt8" 
d="M-648 3122q14 31 38 53t53 33t61 10t63 -15q30 -14 52 -38.5t32.5 -54t10 -62.5t-15.5 -64q-33 -69 -89.5 -129t-136.5 -103.5t-184 -68.5t-231 -25h-162q-29 0 -52.5 10.5t-39.5 29t-24.5 43t-8.5 52.5v136h-58q-28 0 -51 10.5t-39.5 29t-25.5 43t-9 52.5t9 52.5
t25.5 43t39.5 29t51 10.5h274q28 0 51 -10.5t39.5 -29t25.5 -43t9 -52.5v-115q58 4 105 19t84 38t63 52.5t41 63.5z" />
    <glyph glyph-name="maitrithai.alt8" 
d="M-385 3108q8 29 26.5 51t43 35.5t53.5 18t58 -2.5q33 -8 55.5 -25.5t35 -41.5t14.5 -52t-6 -57q-20 -67 -53.5 -130.5t-77 -115.5t-95 -87.5t-106.5 -45.5h-114q-38 0 -63.5 24.5t-28.5 62.5q-2 26 -7 50t-14 43t-23 30t-35 11q-25 0 -38.5 -17.5t-18.5 -46.5
q-6 -38 -28 -59.5t-60 -21.5t-61 21.5t-27 59.5q-3 26 -16.5 45t-44.5 19q-35 0 -53.5 -31.5t-20.5 -80.5q-2 -65 -39.5 -97t-91.5 -32q-30 0 -54 10t-40.5 27.5t-25.5 41t-9 50.5q0 96 25 166.5t66 117t93.5 69t106.5 22.5q55 0 103 -27.5t85 -71.5q37 44 86 71.5t111 27.5
q37 0 72.5 -11.5t66.5 -33t54.5 -52.5t35.5 -71q18 24 34 59.5t26 77.5z" />
    <glyph glyph-name="maichattawathai.alt8" 
d="M-995 3222q0 39 15 72t40.5 56.5t60 37t73.5 13.5t73 -13.5t59.5 -37t40.5 -56.5t15 -72v-60h136q30 0 55 -11.5t43 -31t28 -46.5t10 -57t-10 -56.5t-28 -46t-43 -31t-55 -11.5h-136v-60q0 -39 -15 -72t-40.5 -56.5t-60 -37t-73.5 -13.5t-73.5 13.5t-60 37t-40 56.5
t-14.5 72v60h-136q-30 0 -55 11.5t-43 31t-28 46.5t-10 57t10 56.5t28 46t43 31t55 11.5h136v60z" />
    <glyph glyph-name="maihanakatthai.alt9" 
d="M-1080 1877q-42 0 -78.5 14t-64 39.5t-43 60.5t-15.5 77v168q0 42 15.5 77t43 60.5t64 40t78.5 14.5t78.5 -14.5t63.5 -40t43 -60.5t16 -77h949q37 0 68 -14t53.5 -38.5t35 -57t12.5 -69.5q0 -38 -12.5 -70.5t-35 -57t-53.5 -38.5t-68 -14h-1150z" />
    <glyph glyph-name="maithothai.alt9" 
d="M-418 3092q14 31 38 53t53 33t61 10t63 -15q30 -14 52 -38.5t32.5 -54t10 -62.5t-15.5 -64q-33 -69 -89.5 -129t-136.5 -103.5t-184 -68.5t-231 -25h-162q-29 0 -52.5 10.5t-39.5 29t-24.5 43t-8.5 52.5v136h-58q-28 0 -51 10.5t-39.5 29t-25.5 43t-9 52.5t9 52.5
t25.5 43t39.5 29t51 10.5h274q28 0 51 -10.5t39.5 -29t25.5 -43t9 -52.5v-115q58 4 105 19t84 38t63 52.5t41 63.5z" />
    <glyph glyph-name="maitrithai.alt9" 
d="M-251 3077q8 29 26.5 51t43 35.5t53.5 18t58 -2.5q33 -8 55.5 -25.5t35 -41.5t14.5 -52t-6 -57q-20 -67 -53.5 -130.5t-77 -115.5t-95 -87.5t-106.5 -45.5h-114q-38 0 -63.5 24.5t-28.5 62.5q-2 26 -7 50t-14 43t-23 30t-35 11q-25 0 -38.5 -17.5t-18.5 -46.5
q-6 -38 -28 -59.5t-60 -21.5t-61 21.5t-27 59.5q-3 26 -16.5 45t-44.5 19q-35 0 -53.5 -31.5t-20.5 -80.5q-2 -65 -39.5 -97t-91.5 -32q-30 0 -54 10t-40.5 27.5t-25.5 41t-9 50.5q0 96 25 166.5t66 117t93.5 69t106.5 22.5q55 0 105.5 -29.5t82.5 -73.5q36 45 85.5 74
t111.5 29q37 0 72.5 -11.5t66.5 -33t54.5 -52.5t35.5 -71q18 24 34 59.5t26 77.5z" />
    <glyph glyph-name="saraithai.alt10" 
d="M-1410 1876q-37 0 -68.5 14t-54 38.5t-35 57.5t-12.5 70t12.5 70t35 57.5t54 38.5t68.5 14h1145q37 0 68.5 -14t54 -38.5t35 -57.5t12.5 -70t-12.5 -70t-35 -57.5t-54 -38.5t-68.5 -14h-1145z" />
    <glyph glyph-name="saraiithai.alt10" 
d="M-553 2236v79q0 45 17 82t47 63t70 40t85 14t85 -14t70 -40t47 -63t17 -82v-259q0 -37 -12.5 -70t-35 -57.5t-54 -38.5t-68.5 -14h-1135q-37 0 -68.5 14t-54 38.5t-35 57.5t-12.5 70t12.5 70t35 57.5t54 38.5t68.5 14h867z" />
    <glyph glyph-name="sarauethai.alt10" 
d="M-1420 1876q-37 0 -68.5 14t-54 38.5t-35 57.5t-12.5 70t12.5 70t35 57.5t54 38.5t68.5 14h711v13q0 64 24.5 121t68 99t103 66.5t128.5 24.5q77 0 137 -28.5t101.5 -75t63.5 -107.5t22 -125q0 -74 -27.5 -137.5t-74.5 -110t-109.5 -73.5t-133.5 -27h-1014zM-496 2228
q0 -21 9 -40.5t24 -34t35 -23t43 -8.5t43 8.5t35 23t24 34t9 40.5q0 23 -9 43.5t-24 35.5t-35 23.5t-43 8.5t-43 -8.5t-35 -23.5t-24 -35.5t-9 -43.5z" />
    <glyph glyph-name="saraueethai.alt10" 
d="M-1420 1876q-37 0 -68.5 14t-54 38.5t-35 57.5t-12.5 70t12.5 70t35 57.5t54 38.5t68.5 14h519v134q0 34 13 61t35 45.5t52 28t64 9.5t64 -9.5t52 -28t35 -45.5t13 -61v-134h131v134q0 34 12.5 61t34.5 45.5t52 28t64 9.5t64 -9.5t52 -28t35 -45.5t13 -61v-314
q0 -37 -12.5 -70t-35 -57.5t-54 -38.5t-68.5 -14h-1135z" />
    <glyph glyph-name="maiekupperleftthai.alt11" 
d="M-824 2848q0 -45 -17 -81t-46 -61.5t-68 -39t-84 -13.5t-84 13.5t-68 39t-46 61.5t-17 81v254q0 45 17 81t46 61.5t68 39t84 13.5t84 -13.5t68 -39t46 -61.5t17 -81v-254z" />
    <glyph glyph-name="maichattawaupperleftthai.alt11" 
d="M-1225 3242q0 39 15 72t40.5 56.5t60 37t73.5 13.5t73 -13.5t59.5 -37t40.5 -56.5t15 -72v-60h136q30 0 55 -11.5t43 -31t28 -46.5t10 -57t-10 -56.5t-28 -46t-43 -31t-55 -11.5h-136v-60q0 -39 -15 -72t-40.5 -56.5t-60 -37t-73.5 -13.5t-73.5 13.5t-60 37t-40 56.5
t-14.5 72v60h-136q-30 0 -55 11.5t-43 31t-28 46.5t-10 57t10 56.5t28 46t43 31t55 11.5h136v60z" />
    </font>
</defs>
</svg>
