<svg width="42" height="42" viewBox="0 0 42 42" fill="none" xmlns="http://www.w3.org/2000/svg">
<path d="M34.8253 5.55949C31.7203 2.45447 26.6863 2.45447 23.5813 5.55942L16.9362 12.2045C13.7244 15.4164 14.0218 20.534 16.9362 23.4485C17.4242 23.9366 17.9642 24.3345 18.5344 24.6614L19.7472 23.4485C20.5427 22.6529 20.2627 21.7229 20.2484 21.0518C20.0738 20.928 19.904 20.7943 19.7472 20.6375C18.2516 19.142 18.1844 16.5783 19.7472 15.0155C19.9793 14.7834 26.2513 8.51139 26.3922 8.37053C27.9425 6.82021 30.4639 6.82021 32.0142 8.37053C33.5645 9.92085 33.5645 12.4422 32.0142 13.9926L27.6219 18.3849C27.7489 19.0876 28.5112 20.7524 28.1191 23.4986C28.1382 23.4797 28.1611 23.4676 28.1802 23.4486L34.8253 16.8035C37.9302 13.6985 37.9302 8.66451 34.8253 5.55949Z" fill="black"/>
<path d="M23.9635 16.4211C23.4755 15.933 22.9355 15.5351 22.3654 15.2083L21.1526 16.4211C20.357 17.2165 20.637 18.1466 20.6513 18.8177C20.826 18.9414 20.9958 19.0752 21.1526 19.232C22.6482 20.7276 22.7154 23.2912 21.1526 24.854C20.92 25.0866 14.1285 31.8781 13.9926 32.014C12.4422 33.5643 9.92087 33.5643 8.37055 32.014C6.82022 30.4637 6.82022 27.9423 8.37055 26.392L13.2779 21.4846C13.1509 20.7818 12.3886 19.1171 12.7807 16.3709C12.7616 16.3897 12.7385 16.402 12.7195 16.421L5.5595 23.5811C2.45461 26.6861 2.45461 31.7201 5.5595 34.8251C8.66452 37.93 13.6985 37.93 16.8035 34.8251L23.9635 27.6651C27.1157 24.5129 26.9434 19.4009 23.9635 16.4211Z" fill="black"/>
</svg>
