<svg width="41" height="40" viewBox="0 0 41 40" fill="none" xmlns="http://www.w3.org/2000/svg">
<path d="M20.8657 0C9.83728 0 0.865723 8.97156 0.865723 20C0.865723 31.0284 9.83728 40 20.8657 40C31.8942 40 40.8657 31.0284 40.8657 20C40.8657 8.97156 31.8942 0 20.8657 0Z" fill="white"/>
<path d="M27.0958 14.2245C25.839 12.9825 23.8014 12.9825 22.5446 14.2245L19.855 16.8825C18.555 18.1672 18.6753 20.2143 19.855 21.3801C20.0525 21.5753 20.2711 21.7345 20.5019 21.8652L20.9928 21.3801C21.3148 21.0619 21.2014 20.6898 21.1956 20.4214C21.125 20.3719 21.0562 20.3184 20.9928 20.2557C20.3874 19.6575 20.3602 18.632 20.9928 18.0069C21.0867 17.914 23.6254 15.4052 23.6824 15.3489C24.3099 14.7288 25.3305 14.7288 25.958 15.3489C26.5855 15.969 26.5855 16.9776 25.958 17.5977L24.1801 19.3546C24.2315 19.6357 24.5401 20.3016 24.3814 21.4001C24.3891 21.3926 24.3984 21.3877 24.4061 21.3801L27.0958 18.7221C28.3525 17.4801 28.3525 15.4665 27.0958 14.2245Z" fill="#FFA400"/>
<path d="M22.6994 18.5684C22.5019 18.3732 22.2833 18.214 22.0526 18.0833L21.5617 18.5684C21.2396 18.8866 21.353 19.2586 21.3588 19.527C21.4295 19.5765 21.4982 19.63 21.5617 19.6927C22.167 20.291 22.1942 21.3164 21.5617 21.9416C21.4675 22.0346 18.7186 24.7512 18.6636 24.8056C18.036 25.4257 17.0155 25.4257 16.388 24.8056C15.7605 24.1854 15.7605 23.1769 16.388 22.5568L18.3743 20.5938C18.3229 20.3127 18.0143 19.6468 18.1731 18.5483C18.1653 18.5558 18.156 18.5607 18.1482 18.5684L15.2502 21.4324C13.9934 22.6744 13.9934 24.688 15.2502 25.93C16.507 27.172 18.5445 27.172 19.8013 25.93L22.6994 23.066C23.9753 21.8051 23.9056 19.7603 22.6994 18.5684Z" fill="#FFA400"/>
</svg>
