<svg width="67" height="77" viewBox="0 0 67 77" fill="none" xmlns="http://www.w3.org/2000/svg">
<path d="M34 0C20.2144 0 9 11.2144 9 25C9 38.7856 20.2144 50 34 50C47.7856 50 59 38.7856 59 25C59 11.2144 47.7856 0 34 0Z" fill="white"/>
<path d="M40.4127 16.7798C38.8602 15.2273 36.3432 15.2273 34.7907 16.7797L31.4682 20.1023C29.8623 21.7082 30.011 24.267 31.4682 25.7243C31.7122 25.9683 31.9822 26.1673 32.2673 26.3307L32.8737 25.7243C33.2714 25.3265 33.1314 24.8615 33.1243 24.5259C33.037 24.464 32.9521 24.3972 32.8737 24.3188C32.1259 23.571 32.0923 22.2892 32.8737 21.5078C32.9897 21.3917 36.1257 18.2557 36.1962 18.1853C36.9713 17.4101 38.232 17.4101 39.0072 18.1853C39.7823 18.9605 39.7823 20.2211 39.0072 20.9963L36.811 23.1925C36.8745 23.5438 37.2557 24.3762 37.0596 25.7493C37.0692 25.7399 37.0807 25.7338 37.0902 25.7243L40.4127 22.4018C41.9652 20.8493 41.9652 18.3323 40.4127 16.7798Z" fill="#FFA400"/>
<path d="M34.9818 22.2106C34.7378 21.9665 34.4678 21.7676 34.1828 21.6042L33.5764 22.2106C33.1786 22.6083 33.3186 23.0733 33.3257 23.4089C33.4131 23.4708 33.498 23.5376 33.5764 23.616C34.3242 24.3638 34.3578 25.6456 33.5764 26.427C33.46 26.5433 30.0643 29.9391 29.9963 30.007C29.2212 30.7822 27.9605 30.7822 27.1853 30.007C26.4102 29.2319 26.4102 27.9712 27.1853 27.196L29.639 24.7423C29.5755 24.391 29.1943 23.5586 29.3904 22.1855C29.3809 22.1949 29.3693 22.201 29.3598 22.2105L25.7798 25.7906C24.2274 27.3431 24.2274 29.8601 25.7798 31.4126C27.3323 32.965 29.8493 32.965 31.4018 31.4126L34.9818 27.8326C36.5579 26.2565 36.4718 23.7005 34.9818 22.2106Z" fill="#FFA400"/>
<path d="M24.3594 62.2153V69.3433H28.521V71H22.4521V62.2153H24.3594ZM29.2329 63.8369V62.2153H30.9995V63.8369H29.2329ZM30.9995 64.6104V71H29.2329V64.6104H30.9995ZM32.2563 64.6104H33.9307V65.3311H33.9658C34.1064 65.1523 34.2529 65.0044 34.4053 64.8872C34.5576 64.77 34.7144 64.6777 34.8755 64.6104C35.0396 64.543 35.208 64.4961 35.3809 64.4697C35.5537 64.4434 35.731 64.4302 35.9126 64.4302C36.3813 64.4302 36.7666 64.4946 37.0684 64.6235C37.3701 64.7495 37.6089 64.9282 37.7847 65.1597C37.9604 65.3911 38.082 65.6694 38.1494 65.9946C38.2168 66.3198 38.2505 66.6802 38.2505 67.0757V71H36.4883V67.4009C36.4883 66.8706 36.4033 66.4736 36.2334 66.21C36.0635 65.9463 35.7764 65.8145 35.3721 65.8145C35.1377 65.8145 34.9355 65.8496 34.7656 65.9199C34.5957 65.9902 34.4551 66.1001 34.3438 66.2495C34.2354 66.396 34.1548 66.585 34.1021 66.8164C34.0493 67.0479 34.0229 67.3262 34.0229 67.6514V71H32.2563V64.6104ZM41.2651 62.2153V66.5176L43.335 64.6104H45.6201L43.0273 66.9658L45.7827 71H43.8184L41.8057 68.104L41.2651 68.5874V71H39.5161V62.2153H41.2651Z" fill="white"/>
</svg>
