<svg width="67" height="73" viewBox="0 0 67 73" fill="none" xmlns="http://www.w3.org/2000/svg">
<path d="M34 0C20.2144 0 9 11.2144 9 25C9 38.7856 20.2144 50 34 50C47.7856 50 59 38.7856 59 25C59 11.2144 47.7856 0 34 0Z" fill="white"/>
<g clip-path="url(#clip0)">
<path d="M31.2706 35.6723H35.6349V24.741H38.6805L39.0068 21.0836H35.6349V19.0034C35.6349 18.14 35.8049 17.8001 36.6411 17.8001H39V14H35.9816C32.7322 14 31.2706 15.4276 31.2706 18.1672V21.0836H29V24.7886H31.2706V35.6723Z" fill="#FFA400"/>
</g>
<path d="M12.4722 58.2153V59.8018H8.15234V61.709H11.9141V63.2734H8.15234V67H6.2627V58.2153H12.4722ZM16.9326 64.0293C16.8652 64.0967 16.7773 64.1538 16.6689 64.2007C16.5635 64.2476 16.4463 64.2886 16.3174 64.3237C16.1914 64.356 16.0581 64.3853 15.9175 64.4116C15.7798 64.4351 15.6436 64.4585 15.5088 64.4819C15.377 64.5083 15.251 64.5361 15.1309 64.5654C15.0107 64.5918 14.9038 64.6313 14.8101 64.6841C14.7163 64.7368 14.6416 64.8071 14.5859 64.895C14.5303 64.98 14.5024 65.0942 14.5024 65.2378C14.5024 65.4048 14.5303 65.5381 14.5859 65.6377C14.6416 65.7373 14.7163 65.8135 14.8101 65.8662C14.9067 65.9189 15.0181 65.9541 15.144 65.9717C15.27 65.9863 15.4033 65.9937 15.5439 65.9937C15.7666 65.9937 15.9556 65.9673 16.1108 65.9146C16.2661 65.8618 16.395 65.7944 16.4976 65.7124C16.6001 65.6304 16.6807 65.5366 16.7393 65.4312C16.7979 65.3257 16.8403 65.2202 16.8667 65.1147C16.896 65.0093 16.9136 64.9097 16.9194 64.8159C16.9282 64.7192 16.9326 64.6372 16.9326 64.5698V64.0293ZM17.0952 66.4067C16.9604 66.5562 16.8066 66.6807 16.6338 66.7803C16.4609 66.877 16.2778 66.9546 16.0845 67.0132C15.8911 67.0747 15.6934 67.1172 15.4912 67.1406C15.2891 67.167 15.0913 67.1802 14.8979 67.1802C14.6021 67.1802 14.3237 67.1406 14.063 67.0615C13.8052 66.9854 13.5811 66.8682 13.3906 66.71C13.2002 66.5488 13.0493 66.3467 12.938 66.1035C12.8296 65.8604 12.7754 65.5718 12.7754 65.2378C12.7754 64.8745 12.8354 64.5801 12.9556 64.3545C13.0786 64.126 13.2397 63.9458 13.439 63.814C13.6382 63.6792 13.8638 63.5796 14.1157 63.5151C14.3706 63.4478 14.6313 63.3921 14.8979 63.3481C15.1646 63.3042 15.4194 63.2617 15.6626 63.2207C15.9087 63.1768 16.1255 63.1226 16.313 63.0581C16.5005 62.9937 16.6499 62.9131 16.7612 62.8164C16.8755 62.7168 16.9326 62.5879 16.9326 62.4297C16.9326 62.2539 16.9033 62.1147 16.8447 62.0122C16.7861 61.9097 16.7056 61.832 16.603 61.7793C16.5034 61.7236 16.3848 61.6885 16.2471 61.6738C16.1123 61.6592 15.9688 61.6519 15.8164 61.6519C15.6523 61.6519 15.5029 61.6694 15.3682 61.7046C15.2363 61.7397 15.1221 61.7969 15.0254 61.876C14.9287 61.9551 14.8496 62.0562 14.7881 62.1792C14.7295 62.3022 14.6943 62.4517 14.6826 62.6274H12.9556C12.9731 62.3521 13.0259 62.1074 13.1138 61.8936C13.2017 61.6797 13.3159 61.4922 13.4565 61.3311C13.5972 61.1699 13.7598 61.0352 13.9443 60.9268C14.1289 60.8154 14.3267 60.7261 14.5376 60.6587C14.7515 60.5913 14.9741 60.543 15.2056 60.5137C15.437 60.4814 15.6699 60.4653 15.9043 60.4653C16.1152 60.4653 16.3291 60.4741 16.5459 60.4917C16.7627 60.5093 16.9736 60.5415 17.1787 60.5884C17.3838 60.6353 17.5757 60.7012 17.7544 60.7861C17.9331 60.8682 18.0898 60.9766 18.2246 61.1113C18.3594 61.2432 18.4648 61.4043 18.541 61.5947C18.6201 61.7852 18.6597 62.0093 18.6597 62.2671V65.4355C18.6597 65.5439 18.6772 65.6216 18.7124 65.6685C18.7476 65.7124 18.7915 65.7344 18.8442 65.7344C18.8999 65.7344 18.96 65.7153 19.0244 65.6772C19.0918 65.6362 19.1562 65.585 19.2178 65.5234V66.8901C19.124 66.9575 19.0347 67.0117 18.9497 67.0527C18.8677 67.0967 18.7856 67.1304 18.7036 67.1538C18.6216 67.1772 18.5366 67.1934 18.4487 67.2021C18.3638 67.2109 18.2715 67.2153 18.1719 67.2153C17.9023 67.2153 17.6709 67.1436 17.4775 67C17.2842 66.8594 17.1567 66.6616 17.0952 66.4067ZM24.0562 63.146C24.0034 62.7329 23.8862 62.4238 23.7046 62.2188C23.5229 62.0107 23.2563 61.9067 22.9048 61.9067C22.6118 61.9067 22.3687 61.9639 22.1753 62.0781C21.9819 62.1895 21.8267 62.3389 21.7095 62.5264C21.5952 62.7109 21.5132 62.9219 21.4634 63.1592C21.4165 63.3965 21.3931 63.6382 21.3931 63.8843C21.3931 64.104 21.418 64.3237 21.4678 64.5435C21.5176 64.7603 21.5967 64.9551 21.7051 65.1279C21.8164 65.2979 21.96 65.437 22.1357 65.5454C22.3145 65.6509 22.5298 65.7036 22.7817 65.7036C22.9692 65.7036 23.1421 65.6714 23.3003 65.6069C23.4585 65.5425 23.5962 65.4487 23.7134 65.3257C23.8306 65.1997 23.9258 65.0444 23.999 64.8599C24.0752 64.6753 24.125 64.4644 24.1484 64.2271H25.9106C25.8198 64.687 25.6895 65.0986 25.5195 65.4619C25.3496 65.8252 25.1357 66.1328 24.8779 66.3848C24.6201 66.6367 24.3169 66.8301 23.9683 66.9648C23.6226 67.0967 23.2271 67.1626 22.7817 67.1626C22.2544 67.1626 21.7915 67.082 21.3931 66.9209C20.9946 66.7568 20.6621 66.5298 20.3955 66.2397C20.1318 65.9497 19.9326 65.604 19.7979 65.2026C19.6631 64.8013 19.5957 64.3618 19.5957 63.8843C19.5957 63.4067 19.6602 62.96 19.7891 62.5439C19.918 62.125 20.1157 61.7603 20.3823 61.4497C20.6489 61.1392 20.9829 60.8945 21.3843 60.7158C21.7886 60.5371 22.2661 60.4478 22.8169 60.4478C23.2036 60.4478 23.5684 60.5034 23.9111 60.6147C24.2539 60.7231 24.5586 60.8887 24.8252 61.1113C25.0918 61.334 25.3115 61.6152 25.4844 61.9551C25.6602 62.292 25.7729 62.689 25.8228 63.146H24.0562ZM28.1431 64.2842C28.1694 64.8408 28.3174 65.2524 28.5869 65.519C28.8594 65.7856 29.2388 65.9189 29.7251 65.9189C29.9038 65.9189 30.0723 65.894 30.2305 65.8442C30.3916 65.7944 30.5337 65.73 30.6567 65.6509C30.7798 65.5718 30.8823 65.4824 30.9644 65.3828C31.0493 65.2803 31.105 65.1777 31.1313 65.0752H32.6958C32.5698 65.459 32.4102 65.7886 32.2168 66.064C32.0234 66.3364 31.7993 66.5605 31.5444 66.7363C31.2896 66.9121 31.0039 67.041 30.6875 67.123C30.374 67.208 30.0356 67.2505 29.6724 67.2505C29.1626 67.2505 28.7041 67.167 28.2969 67C27.8926 66.833 27.5483 66.6001 27.2642 66.3013C26.98 65.9995 26.7617 65.6406 26.6094 65.2246C26.457 64.8086 26.3809 64.3501 26.3809 63.8491C26.3809 63.3687 26.46 62.9219 26.6182 62.5088C26.7793 62.0928 27.0034 61.7324 27.2905 61.4277C27.5806 61.123 27.9277 60.8843 28.332 60.7114C28.7363 60.5356 29.1831 60.4478 29.6724 60.4478C30.0386 60.4478 30.3726 60.4976 30.6743 60.5972C30.979 60.6938 31.25 60.8301 31.4873 61.0059C31.7275 61.1787 31.9355 61.3853 32.1113 61.6255C32.2871 61.8628 32.4292 62.1235 32.5376 62.4077C32.6489 62.6919 32.7266 62.9937 32.7705 63.313C32.8145 63.6294 32.8262 63.9531 32.8057 64.2842H28.1431ZM31.1313 63.168C31.0493 62.7168 30.8853 62.3726 30.6392 62.1353C30.3931 61.8979 30.0532 61.7793 29.6196 61.7793C29.4321 61.7793 29.2666 61.8027 29.123 61.8496C28.9795 61.8936 28.8535 61.9536 28.7451 62.0298C28.6396 62.103 28.5488 62.188 28.4727 62.2847C28.3994 62.3813 28.3394 62.481 28.2925 62.5835C28.2456 62.686 28.2104 62.7886 28.187 62.8911C28.1636 62.9907 28.1489 63.083 28.1431 63.168H31.1313ZM35.4248 67H33.7505V58.2153H35.5171V61.2388H35.5347C35.6665 61.0776 35.8101 60.9443 35.9653 60.8389C36.1206 60.7305 36.2817 60.6455 36.4487 60.584C36.6157 60.5195 36.7827 60.4756 36.9497 60.4521C37.1196 60.4258 37.2837 60.4126 37.4419 60.4126C37.7554 60.4126 38.0439 60.4551 38.3076 60.54C38.5713 60.625 38.8086 60.7422 39.0195 60.8916C39.2305 61.041 39.415 61.2197 39.5732 61.4277C39.7314 61.6357 39.8633 61.8643 39.9688 62.1133C40.0742 62.3594 40.1533 62.6201 40.2061 62.8955C40.2588 63.1709 40.2852 63.4536 40.2852 63.7437C40.2852 64.0396 40.2588 64.3311 40.2061 64.6182C40.1533 64.9023 40.0742 65.1719 39.9688 65.4268C39.8633 65.6816 39.7314 65.916 39.5732 66.1299C39.415 66.3438 39.229 66.5283 39.0151 66.6836C38.8013 66.8389 38.5596 66.9604 38.29 67.0483C38.0234 67.1362 37.729 67.1802 37.4067 67.1802C37.2046 67.1802 37.0127 67.1655 36.8311 67.1362C36.6523 67.1069 36.4824 67.0571 36.3213 66.9868C36.1602 66.9136 36.0078 66.8184 35.8643 66.7012C35.7207 66.584 35.5859 66.4375 35.46 66.2617H35.4248V67ZM35.46 63.7788C35.46 64.0425 35.4834 64.2988 35.5303 64.5479C35.5801 64.7969 35.6621 65.0181 35.7764 65.2114C35.8936 65.4048 36.0488 65.5601 36.2422 65.6772C36.4385 65.7915 36.6831 65.8486 36.9761 65.8486C37.2456 65.8486 37.4771 65.7886 37.6704 65.6685C37.8667 65.5454 38.0278 65.3872 38.1538 65.1938C38.2798 64.9976 38.3721 64.7778 38.4307 64.5347C38.4922 64.2886 38.5229 64.0425 38.5229 63.7964C38.5229 63.5298 38.4966 63.2734 38.4438 63.0273C38.3911 62.7812 38.3032 62.563 38.1802 62.3726C38.0601 62.1821 37.9004 62.0298 37.7012 61.9155C37.5049 61.8013 37.2632 61.7441 36.9761 61.7441C36.686 61.7441 36.4443 61.8013 36.251 61.9155C36.0576 62.0298 35.9023 62.1821 35.7852 62.3726C35.668 62.5601 35.5845 62.7769 35.5347 63.0229C35.4849 63.2661 35.46 63.5181 35.46 63.7788ZM40.918 63.814C40.918 63.3042 40.9956 62.8428 41.1509 62.4297C41.3062 62.0166 41.5273 61.6636 41.8145 61.3706C42.1016 61.0747 42.4473 60.8477 42.8516 60.6895C43.2588 60.5283 43.7114 60.4478 44.2095 60.4478C44.7134 60.4478 45.1689 60.5283 45.5762 60.6895C45.9863 60.8477 46.335 61.0747 46.6221 61.3706C46.9092 61.6636 47.1304 62.0166 47.2856 62.4297C47.4438 62.8428 47.5229 63.3042 47.5229 63.814C47.5229 64.3237 47.4438 64.7852 47.2856 65.1982C47.1304 65.6113 46.9092 65.9658 46.6221 66.2617C46.335 66.5547 45.9863 66.7817 45.5762 66.9429C45.1689 67.1011 44.7134 67.1802 44.2095 67.1802C43.7114 67.1802 43.2588 67.1011 42.8516 66.9429C42.4473 66.7817 42.1016 66.5547 41.8145 66.2617C41.5273 65.9658 41.3062 65.6113 41.1509 65.1982C40.9956 64.7852 40.918 64.3237 40.918 63.814ZM42.6802 63.814C42.6802 64.0688 42.7036 64.3164 42.7505 64.5566C42.8003 64.7969 42.8838 65.0107 43.001 65.1982C43.1182 65.3828 43.2749 65.5322 43.4712 65.6465C43.6675 65.7578 43.9136 65.8135 44.2095 65.8135C44.5112 65.8135 44.7617 65.7578 44.9609 65.6465C45.1631 65.5322 45.3242 65.3828 45.4443 65.1982C45.5674 65.0107 45.6538 64.7969 45.7036 64.5566C45.7534 64.3164 45.7783 64.0688 45.7783 63.814C45.7783 63.5591 45.7534 63.3115 45.7036 63.0713C45.6538 62.8311 45.5674 62.6187 45.4443 62.4341C45.3242 62.2466 45.1631 62.0972 44.9609 61.9858C44.7617 61.8716 44.5112 61.8145 44.2095 61.8145C43.9136 61.8145 43.6675 61.8716 43.4712 61.9858C43.2749 62.0972 43.1182 62.2466 43.001 62.4341C42.8838 62.6187 42.8003 62.8311 42.7505 63.0713C42.7036 63.3115 42.6802 63.5591 42.6802 63.814ZM48.1602 63.814C48.1602 63.3042 48.2378 62.8428 48.3931 62.4297C48.5483 62.0166 48.7695 61.6636 49.0566 61.3706C49.3438 61.0747 49.6895 60.8477 50.0938 60.6895C50.501 60.5283 50.9536 60.4478 51.4517 60.4478C51.9556 60.4478 52.4111 60.5283 52.8184 60.6895C53.2285 60.8477 53.5771 61.0747 53.8643 61.3706C54.1514 61.6636 54.3726 62.0166 54.5278 62.4297C54.686 62.8428 54.7651 63.3042 54.7651 63.814C54.7651 64.3237 54.686 64.7852 54.5278 65.1982C54.3726 65.6113 54.1514 65.9658 53.8643 66.2617C53.5771 66.5547 53.2285 66.7817 52.8184 66.9429C52.4111 67.1011 51.9556 67.1802 51.4517 67.1802C50.9536 67.1802 50.501 67.1011 50.0938 66.9429C49.6895 66.7817 49.3438 66.5547 49.0566 66.2617C48.7695 65.9658 48.5483 65.6113 48.3931 65.1982C48.2378 64.7852 48.1602 64.3237 48.1602 63.814ZM49.9224 63.814C49.9224 64.0688 49.9458 64.3164 49.9927 64.5566C50.0425 64.7969 50.126 65.0107 50.2432 65.1982C50.3604 65.3828 50.5171 65.5322 50.7134 65.6465C50.9097 65.7578 51.1558 65.8135 51.4517 65.8135C51.7534 65.8135 52.0039 65.7578 52.2031 65.6465C52.4053 65.5322 52.5664 65.3828 52.6865 65.1982C52.8096 65.0107 52.896 64.7969 52.9458 64.5566C52.9956 64.3164 53.0205 64.0688 53.0205 63.814C53.0205 63.5591 52.9956 63.3115 52.9458 63.0713C52.896 62.8311 52.8096 62.6187 52.6865 62.4341C52.5664 62.2466 52.4053 62.0972 52.2031 61.9858C52.0039 61.8716 51.7534 61.8145 51.4517 61.8145C51.1558 61.8145 50.9097 61.8716 50.7134 61.9858C50.5171 62.0972 50.3604 62.2466 50.2432 62.4341C50.126 62.6187 50.0425 62.8311 49.9927 63.0713C49.9458 63.3115 49.9224 63.5591 49.9224 63.814ZM57.4546 58.2153V62.5176L59.5244 60.6104H61.8096L59.2168 62.9658L61.9722 67H60.0078L57.9951 64.104L57.4546 64.5874V67H55.7056V58.2153H57.4546Z" fill="white"/>
<defs>
<clipPath id="clip0">
<rect width="10" height="21.6723" fill="white" transform="translate(29 14)"/>
</clipPath>
</defs>
</svg>
