<svg width="67" height="77" viewBox="0 0 67 77" fill="none" xmlns="http://www.w3.org/2000/svg">
<path d="M24.3594 62.2153V69.3433H28.521V71H22.4521V62.2153H24.3594ZM29.2329 63.8369V62.2153H30.9995V63.8369H29.2329ZM30.9995 64.6104V71H29.2329V64.6104H30.9995ZM32.2563 64.6104H33.9307V65.3311H33.9658C34.1064 65.1523 34.2529 65.0044 34.4053 64.8872C34.5576 64.77 34.7144 64.6777 34.8755 64.6104C35.0396 64.543 35.208 64.4961 35.3809 64.4697C35.5537 64.4434 35.731 64.4302 35.9126 64.4302C36.3813 64.4302 36.7666 64.4946 37.0684 64.6235C37.3701 64.7495 37.6089 64.9282 37.7847 65.1597C37.9604 65.3911 38.082 65.6694 38.1494 65.9946C38.2168 66.3198 38.2505 66.6802 38.2505 67.0757V71H36.4883V67.4009C36.4883 66.8706 36.4033 66.4736 36.2334 66.21C36.0635 65.9463 35.7764 65.8145 35.3721 65.8145C35.1377 65.8145 34.9355 65.8496 34.7656 65.9199C34.5957 65.9902 34.4551 66.1001 34.3438 66.2495C34.2354 66.396 34.1548 66.585 34.1021 66.8164C34.0493 67.0479 34.0229 67.3262 34.0229 67.6514V71H32.2563V64.6104ZM41.2651 62.2153V66.5176L43.335 64.6104H45.6201L43.0273 66.9658L45.7827 71H43.8184L41.8057 68.104L41.2651 68.5874V71H39.5161V62.2153H41.2651Z" fill="white"/>
<path d="M33 0C19.2144 0 8 11.2144 8 25C8 38.7856 19.2144 50 33 50C46.7856 50 58 38.7856 58 25C58 11.2144 46.7856 0 33 0Z" fill="#FFA400"/>
<path d="M39.4127 17.7798C37.8602 16.2273 35.3432 16.2273 33.7907 17.7797L30.4682 21.1023C28.8623 22.7082 29.011 25.267 30.4682 26.7243C30.7122 26.9683 30.9822 27.1673 31.2673 27.3307L31.8737 26.7243C32.2714 26.3265 32.1314 25.8615 32.1243 25.5259C32.037 25.464 31.9521 25.3972 31.8737 25.3188C31.1259 24.571 31.0923 23.2892 31.8737 22.5078C31.9897 22.3917 35.1257 19.2557 35.1962 19.1853C35.9713 18.4101 37.232 18.4101 38.0072 19.1853C38.7823 19.9605 38.7823 21.2211 38.0072 21.9963L35.811 24.1925C35.8745 24.5438 36.2557 25.3762 36.0596 26.7493C36.0692 26.7399 36.0807 26.7338 36.0902 26.7243L39.4127 23.4018C40.9652 21.8493 40.9652 19.3323 39.4127 17.7798Z" fill="white"/>
<path d="M33.9818 23.2106C33.7378 22.9665 33.4678 22.7676 33.1828 22.6042L32.5764 23.2106C32.1786 23.6083 32.3186 24.0733 32.3257 24.4089C32.4131 24.4708 32.498 24.5376 32.5764 24.616C33.3242 25.3638 33.3578 26.6456 32.5764 27.427C32.46 27.5433 29.0643 30.9391 28.9963 31.007C28.2212 31.7822 26.9605 31.7822 26.1853 31.007C25.4102 30.2319 25.4102 28.9712 26.1853 28.196L28.639 25.7423C28.5755 25.391 28.1943 24.5586 28.3904 23.1855C28.3809 23.1949 28.3693 23.201 28.3598 23.2105L24.7798 26.7906C23.2274 28.3431 23.2274 30.8601 24.7798 32.4126C26.3323 33.965 28.8493 33.965 30.4018 32.4126L33.9818 28.8326C35.5579 27.2565 35.4718 24.7005 33.9818 23.2106Z" fill="white"/>
</svg>
