<?xml version="1.0" encoding="utf-8"?>
<!-- Generator: Adobe Illustrator 24.2.1, SVG Export Plug-In . SVG Version: 6.00 Build 0)  -->
<svg version="1.1" id="Layer_1" xmlns="http://www.w3.org/2000/svg" xmlns:xlink="http://www.w3.org/1999/xlink" x="0px" y="0px"
	 viewBox="0 0 114 41.1" style="enable-background:new 0 0 114 41.1;" xml:space="preserve">
<style type="text/css">
	.st0{clip-path:url(#SVGID_2_);}
	.st1{fill:#FFA400;}
</style>
<g>
	<defs>
		<rect id="SVGID_1_" x="-1" y="-0.9" width="115" height="42.9"/>
	</defs>
	<clipPath id="SVGID_2_">
		<use xlink:href="#SVGID_1_"  style="overflow:visible;"/>
	</clipPath>
	<g class="st0">
		<path d="M75.7,30.5v-8H83c1.2,0,2.2-0.8,2.2-1.8v-2.4h-9.5v-7.5h12.6V6.1H69.2v28.9h19.3v-4.6H75.7z M51.3,14.2
			c0-3.2,2.9-4.1,5.4-4.1c3.2,0,6.2,1,7.9,2.1V7.8c-1.8-1.4-5.1-2.1-8.1-2.1c-6.2,0-11.7,2.1-11.7,9c0,10.4,15.3,6.5,15.3,12.4
			c0,3.2-3.1,3.9-6,3.9c-3.2,0-6.4-0.9-9.1-2.4v4.6c1.8,1.2,4.9,2.3,8.8,2.3c4.4,0,12.7-1.6,12.7-9.1C66.7,15.9,51.3,19.8,51.3,14.2
			z M90.6,6.1v4.7h8.5v24.3h6.5V10.8h8.5V6.1H90.6z"/>
		<path d="M20.4,41c11,0,19.9-8.7,20.3-19.6H39c-0.9,0-1.4,0.5-1.6,1.1c-0.9,3.6-4.2,6.3-8.1,6.3c-3.4,0-6.3-2-7.6-4.9
			c-0.9-1.8-2.8-2.6-4.6-2.6H0.1C0.5,32.3,9.5,41,20.4,41z"/>
		<path class="st1" d="M20.4,0.1c-11,0-19.9,8.7-20.3,19.6h1.8c0.9,0,1.4-0.5,1.6-1.1c0.9-3.6,4.2-6.3,8.1-6.3c3.4,0,6.3,2,7.6,4.9
			c0.9,1.8,2.8,2.6,4.6,2.6h17.1C40.3,8.8,31.4,0.1,20.4,0.1z"/>
	</g>
</g>
</svg>
