<svg width="325" height="61" viewBox="0 0 325 61" fill="none" xmlns="http://www.w3.org/2000/svg">
<path d="M171.908 10.245V52.6348" stroke="black" stroke-width="1.2391" stroke-miterlimit="10"/>
<path d="M106.232 45.3975V34.0247H116.372C118.016 34.0247 119.477 32.8968 119.477 31.3929V28.0092H106.324V17.3883H123.77V10.9029H97.2808V51.9769H124.044V45.4915H106.232V45.3975ZM72.344 22.3698C72.344 17.8582 76.3631 16.4484 79.8342 16.4484C84.31 16.4484 88.4205 17.8582 90.8867 19.4561V13.1587C88.4205 11.1849 83.8533 10.151 79.7428 10.151C71.1566 10.151 63.575 13.1587 63.575 23.0277C63.575 37.6903 84.7667 32.2388 84.7667 40.604C84.7667 45.1156 80.4736 46.1495 76.4545 46.1495C71.9786 46.1495 67.5942 44.9276 63.8491 42.7658V49.3451C66.3153 51.037 70.6085 52.6348 76.0891 52.6348C82.2091 52.6348 93.7184 50.379 93.7184 39.7581C93.7184 24.7196 72.344 30.359 72.344 22.3698ZM126.785 10.9029V17.4823H138.568V51.9769H147.52V17.4823H159.303V10.9029H126.785Z" fill="black"/>
<path d="M0 30.453C0 13.6287 13.2448 0 29.5953 0C45.9458 0 59.1906 13.6287 59.1906 30.453C59.1906 47.2774 45.9458 60.906 29.5953 60.906C13.2448 61 0 47.3713 0 30.453Z" fill="white"/>
<path d="M29.5953 59.4962C44.7583 59.4962 57.181 47.1834 57.8204 31.6749H55.3541C54.0753 31.6749 53.4359 32.4269 53.1619 33.2728C51.8831 38.5363 47.3159 42.2959 41.9266 42.2959C37.2681 42.2959 33.249 39.4762 31.4221 35.3406C30.1433 32.8028 27.5857 31.6749 25.1194 31.6749H1.37015C2.1009 47.1834 14.4323 59.4962 29.5953 59.4962Z" fill="black"/>
<path d="M29.5953 1.50391C14.4323 1.50391 2.10091 13.8167 1.4615 29.2312H3.92778C5.20658 29.2312 5.84599 28.4793 6.12002 27.6333C7.39883 22.4638 11.8747 18.6102 17.2639 18.6102C21.9224 18.6102 25.9415 21.4299 27.7684 25.5655C29.0472 28.1033 31.6048 29.2312 34.0711 29.2312H57.8204C57.181 13.8167 44.7583 1.50391 29.5953 1.50391Z" fill="#FFA400"/>
<path d="M201.138 26.9754L200.042 19.2681C199.859 17.8582 199.677 16.7304 199.677 15.8844C199.494 16.5424 199.311 17.3883 199.037 18.4222L196.297 26.9754H194.379L191.73 18.9861C191.365 17.9522 191.09 16.8244 190.908 15.9784C190.816 17.1063 190.725 18.2342 190.542 19.4561L189.629 26.9754H187.802L189.72 13.7227H191.821L194.562 22.0878C194.836 22.7458 195.11 23.7797 195.292 24.7196C195.566 23.7797 195.749 22.9337 196.023 22.1818L198.855 13.7227H201.047L202.965 26.9754H201.138Z" fill="black"/>
<path d="M211.369 26.9753C211.369 26.3174 211.369 25.5655 211.46 25.0015C211.003 26.2234 209.816 27.1633 208.263 27.1633C206.71 27.1633 205.614 26.1294 205.614 24.5316C205.614 22.4638 207.715 21.1479 211.369 21.1479V20.678C211.369 19.0801 210.821 18.3282 209.359 18.3282C208.446 18.3282 207.35 18.6102 206.528 19.0801L206.162 17.6703C207.076 17.2943 208.354 16.9183 209.542 16.9183C212.191 16.9183 213.013 18.2342 213.013 20.302V24.0616C213.013 25.0015 213.013 26.0354 213.104 26.8814H211.369V26.9753ZM211.277 22.3698C208.172 22.3698 207.258 23.2157 207.258 24.2496C207.258 25.0955 207.806 25.7535 208.72 25.7535C210.273 25.7535 211.277 24.1556 211.277 22.6518V22.3698Z" fill="black"/>
<path d="M222.239 26.9753L218.768 21.9938V26.9753H217.032V12.5947H218.768V21.5238L222.056 17.2003H224.157L220.503 21.7118L224.431 26.9753H222.239Z" fill="black"/>
<path d="M234.022 22.1818H227.811C227.719 24.6256 228.724 25.7535 230.825 25.7535C231.738 25.7535 232.743 25.5655 233.565 25.1895L233.839 26.5994C232.926 26.9753 231.738 27.1633 230.551 27.1633C227.628 27.1633 226.075 25.5655 226.075 22.1818C226.075 19.2681 227.628 17.1063 230.368 17.1063C233.017 17.1063 234.113 18.8921 234.113 21.1479C234.113 21.3359 234.022 21.8059 234.022 22.1818ZM230.185 18.4222C228.907 18.4222 228.085 19.3621 227.811 20.9599H232.286C232.378 19.2681 231.556 18.4222 230.185 18.4222Z" fill="black"/>
<path d="M243.156 15.2265C242.517 15.2265 241.969 14.7565 241.969 14.0986C241.969 13.4407 242.517 12.9707 243.156 12.9707C243.796 12.9707 244.344 13.4407 244.344 14.0986C244.344 14.7565 243.796 15.2265 243.156 15.2265ZM242.334 17.2003H244.07V26.9753H242.334V17.2003Z" fill="black"/>
<path d="M251.012 27.1633C249.094 27.1633 248.454 26.3174 248.454 24.2496V18.6102H246.536V17.2003H248.454V14.0046L250.19 13.5347V17.2003H252.839V18.6102H250.19V23.5917C250.19 25.1895 250.464 25.6595 251.56 25.6595C252.017 25.6595 252.382 25.5655 252.747 25.4715L252.93 26.8814C252.382 27.0693 251.651 27.1633 251.012 27.1633Z" fill="black"/>
<path d="M279.146 26.9754H274.761L272.112 16.5424C271.838 15.3205 271.564 14.0047 271.381 12.5948C271.29 13.9107 271.016 15.1326 270.742 16.4484L268.093 26.9754H263.983L259.233 7.98925H263.069L265.627 18.5162C265.901 19.7381 266.175 21.054 266.266 22.3698C266.449 21.148 266.632 19.8321 266.997 18.6102L269.829 7.98925H273.574L276.405 18.5162C276.679 19.5501 276.953 20.866 277.136 22.1819C277.319 20.866 277.501 19.6441 277.775 18.5162L280.333 7.89526H283.895L279.146 26.9754Z" fill="black"/>
<path d="M291.477 27.2573C287.641 27.2573 285.083 25.1895 285.083 20.208C285.083 15.8844 287.915 12.6887 292.025 12.6887C295.953 12.6887 298.419 14.8505 298.419 19.738C298.419 24.1556 295.496 27.2573 291.477 27.2573ZM291.842 15.7904C290.29 15.7904 288.737 17.0123 288.737 19.926C288.737 22.8397 289.741 24.2496 291.751 24.2496C293.487 24.2496 294.857 22.8397 294.857 19.926C294.857 17.2003 293.852 15.7904 291.842 15.7904Z" fill="black"/>
<path d="M309.472 16.2604C306.914 15.7905 305.727 17.3883 305.727 21.3359V27.0694H302.255V12.9707H305.544C305.544 13.6287 305.453 14.7566 305.27 15.7905H305.361C306.001 14.0046 307.371 12.5008 309.654 12.6888L309.472 16.2604Z" fill="black"/>
<path d="M320.616 26.9753L316.414 20.114V26.9753H312.943V6.39136H316.414V18.7981L320.342 12.9707H324.635L319.885 19.3621L325 26.9753H320.616Z" fill="black"/>
<path d="M194.014 39.3821C193.557 39.1942 193.1 39.1942 192.643 39.1942C191.273 39.1942 190.725 39.9461 190.725 41.7319V42.4838H193.374V43.8937H190.725V52.2589H188.99V43.8937H187.071V42.4838H188.99V41.7319C188.99 39.0062 190.268 37.7843 192.643 37.7843C193.191 37.7843 193.739 37.8783 194.196 37.9723L194.014 39.3821Z" fill="black"/>
<path d="M198.215 52.3528C195.658 52.3528 193.922 50.8489 193.922 47.3713C193.922 44.4576 195.658 42.2018 198.581 42.2018C201.047 42.2018 202.874 43.6116 202.874 47.0893C202.874 50.097 201.047 52.3528 198.215 52.3528ZM198.489 43.7056C197.119 43.7056 195.749 44.8335 195.749 47.1833C195.749 49.5331 196.662 50.8489 198.489 50.8489C199.859 50.8489 201.138 49.721 201.138 47.1833C201.138 45.0215 200.225 43.7056 198.489 43.7056Z" fill="black"/>
<path d="M209.907 43.9877C207.898 43.6117 206.984 45.1156 206.984 48.2173V52.1649H205.249V42.3899H206.893C206.893 42.9538 206.802 43.8937 206.71 44.7396C207.076 43.4238 208.08 42.0139 209.999 42.2019L209.907 43.9877Z" fill="black"/>
<path d="M216.484 52.2588V33.1787H226.532V36.2804H220.046V40.9799H226.258V43.8937H220.046V49.0632H226.532V52.2588H216.484Z" fill="black"/>
<path d="M236.945 52.2589H232.743L228.085 38.2543H231.83L234.022 45.0216C234.387 46.3375 234.661 47.3714 234.935 48.4993H235.027C235.209 47.3714 235.483 46.3375 235.849 45.0216L237.95 38.2543H241.603L236.945 52.2589Z" fill="black"/>
<path d="M254.483 45.8675H246.079C246.079 48.3113 247.175 49.6271 249.824 49.6271C251.103 49.6271 252.473 49.3452 253.752 48.7812L254.117 51.507C252.656 52.0709 250.829 52.4469 249.185 52.4469C244.892 52.4469 242.517 50.1911 242.517 45.3036C242.517 41.074 244.892 37.8783 249.002 37.8783C252.93 37.8783 254.666 40.51 254.666 43.7997C254.666 44.4577 254.666 45.3036 254.483 45.8675ZM248.82 40.604C247.358 40.604 246.353 41.7319 246.171 43.5177H251.194C251.286 41.6379 250.281 40.604 248.82 40.604Z" fill="black"/>
<path d="M265.17 41.45C262.612 40.98 261.425 42.5779 261.425 46.5255V52.2589H257.954V38.2543H261.242C261.242 38.9122 261.151 40.0401 260.968 41.074H261.06C261.699 39.2882 263.069 37.7844 265.353 37.9723L265.17 41.45Z" fill="black"/>
<path d="M274.396 53.0108C272.66 57.8983 270.742 59.2142 267.545 59.2142C266.997 59.2142 266.175 59.1202 265.627 59.0262L265.992 55.9245C266.54 56.1125 267.18 56.2065 267.728 56.2065C268.915 56.2065 270.103 55.6426 270.833 53.4808L271.29 52.2589L266.266 38.2543H270.194L272.021 43.6117C272.386 44.8336 272.752 46.2435 273.117 47.4654C273.391 46.2435 274.03 44.2697 274.396 43.0478L276.04 38.2543H279.785L274.396 53.0108Z" fill="black"/>
<path d="M287.001 52.5409C283.165 52.5409 280.607 50.4731 280.607 45.4915C280.607 41.168 283.439 37.9723 287.549 37.9723C291.477 37.9723 293.943 40.1341 293.943 45.0216C293.943 49.3452 291.02 52.5409 287.001 52.5409ZM287.275 40.98C285.722 40.98 284.17 42.2019 284.17 45.1156C284.17 48.0293 285.174 49.4392 287.184 49.4392C288.919 49.4392 290.289 48.0293 290.289 45.1156C290.289 42.4838 289.376 40.98 287.275 40.98Z" fill="black"/>
<path d="M305.361 52.2589V43.2358C305.361 41.8259 304.996 40.886 303.626 40.886C301.89 40.886 300.52 42.9538 300.52 45.3976V52.1649H297.049V38.2543H300.337C300.337 38.9122 300.246 40.0401 300.155 40.792C300.977 39.1942 302.53 37.9723 304.813 37.9723C307.919 37.9723 308.832 39.9461 308.832 42.3899V52.2589H305.361Z" fill="black"/>
<path d="M323.995 45.8675H315.592C315.592 48.3113 316.688 49.6271 319.337 49.6271C320.616 49.6271 321.986 49.3452 323.264 48.7812L323.63 51.507C322.168 52.0709 320.341 52.4469 318.697 52.4469C314.404 52.4469 312.029 50.1911 312.029 45.3036C312.029 41.074 314.404 37.8783 318.515 37.8783C322.442 37.8783 324.178 40.51 324.178 43.7997C324.087 44.4577 324.087 45.3036 323.995 45.8675ZM318.241 40.604C316.779 40.604 315.774 41.7319 315.592 43.5177H320.616C320.707 41.6379 319.702 40.604 318.241 40.604Z" fill="black"/>
</svg>
