<svg width="40" height="34" viewBox="0 0 40 34" fill="none" xmlns="http://www.w3.org/2000/svg">
<path d="M0 29.6892C3.62989 32.0949 7.94306 33.4884 12.5836 33.4884C27.8149 33.4884 36.427 20.228 35.9146 8.33175C37.5231 7.1436 38.9039 5.6474 40.0142 3.96052C38.548 4.63527 36.9537 5.09 35.3025 5.29536C36.9964 4.25389 38.2918 2.59634 38.9039 0.61608C37.3238 1.58421 35.5587 2.2883 33.694 2.66968C32.1851 1.0268 30.0498 0 27.6868 0C22.3915 0 18.5053 5.09 19.7011 10.3854C12.8826 10.0333 6.83274 6.65954 2.79004 1.5402C0.640569 5.33936 1.67972 10.312 5.33808 12.835C3.98577 12.791 2.70463 12.4096 1.60854 11.7789C1.52313 15.6954 4.24199 19.3625 8.18505 20.184C7.03203 20.5067 5.76512 20.58 4.48399 20.3307C5.52313 23.6898 8.55516 26.1394 12.1423 26.1981C8.69751 28.9851 4.35587 30.2319 0 29.6892Z" fill="black"/>
</svg>
