<svg width="41" height="40" viewBox="0 0 41 40" fill="none" xmlns="http://www.w3.org/2000/svg">
<path d="M20.4341 0C9.40564 0 0.434082 8.97156 0.434082 20C0.434082 31.0284 9.40564 40 20.4341 40C31.4625 40 40.4341 31.0284 40.4341 20C40.4341 8.97156 31.4625 0 20.4341 0Z" fill="white"/>
<g clip-path="url(#clip0)">
<path d="M12 25.5565C13.452 26.4929 15.1772 27.0354 17.0335 27.0354C23.126 27.0354 26.5708 21.8738 26.3658 17.2431C27.0093 16.7807 27.5616 16.1983 28.0057 15.5416C27.4192 15.8043 26.7815 15.9813 26.121 16.0612C26.7986 15.6558 27.3167 15.0106 27.5616 14.2398C26.9295 14.6167 26.2235 14.8907 25.4776 15.0392C24.874 14.3997 24.0199 14 23.0747 14C20.9566 14 19.4021 15.9813 19.8804 18.0425C17.153 17.9055 14.7331 16.5922 13.116 14.5995C12.2562 16.0784 12.6719 18.014 14.1352 18.996C13.5943 18.9789 13.0819 18.8305 12.6434 18.5849C12.6093 20.1094 13.6968 21.5369 15.274 21.8566C14.8128 21.9822 14.3061 22.0108 13.7936 21.9137C14.2093 23.2213 15.4221 24.1748 16.8569 24.1976C15.479 25.2825 13.7423 25.7678 12 25.5565Z" fill="#FFA400"/>
</g>
<defs>
<clipPath id="clip0">
<rect width="16" height="13.0354" fill="white" transform="translate(12 14)"/>
</clipPath>
</defs>
</svg>
