<svg width="67" height="76" viewBox="0 0 67 76" fill="none" xmlns="http://www.w3.org/2000/svg">
<path d="M34 0C20.2144 0 9 11.2144 9 25C9 38.7856 20.2144 50 34 50C47.7856 50 59 38.7856 59 25C59 11.2144 47.7856 0 34 0Z" fill="white"/>
<g clip-path="url(#clip0)">
<path d="M24 31.4057C25.8149 32.573 27.9715 33.2491 30.2918 33.2491C37.9075 33.2491 42.2135 26.8149 41.9573 21.0427C42.7616 20.4662 43.452 19.7402 44.0071 18.9217C43.274 19.2491 42.4769 19.4698 41.6512 19.5694C42.4982 19.0641 43.1459 18.2598 43.452 17.2989C42.6619 17.7687 41.7794 18.1103 40.847 18.2954C40.0925 17.4982 39.0249 17 37.8434 17C35.1957 17 33.2527 19.4698 33.8505 22.0391C30.4413 21.8683 27.4164 20.2313 25.395 17.7473C24.3203 19.5907 24.8399 22.0036 26.669 23.2278C25.9929 23.2064 25.3523 23.0214 24.8043 22.7153C24.7616 24.6157 26.121 26.395 28.0925 26.7936C27.516 26.9502 26.8826 26.9858 26.242 26.8648C26.7616 28.4947 28.2776 29.6833 30.0712 29.7117C28.3488 31.0641 26.1779 31.669 24 31.4057Z" fill="#FFA400"/>
</g>
<path d="M13.5708 62.8896V61.2153H20.5537V62.8896H17.9961V70H16.0889V62.8896H13.5708ZM28.5693 70H26.9478L25.7085 65.7153H25.6909L24.5176 70H22.8828L20.7559 63.6104H22.6104L23.7837 67.8027H23.8188L24.8779 63.6104H26.5874L27.6685 67.7852H27.686L28.877 63.6104H30.6743L28.5693 70ZM31.4038 62.8369V61.2153H33.1704V62.8369H31.4038ZM33.1704 63.6104V70H31.4038V63.6104H33.1704ZM37.5605 63.6104V64.8716H36.5542V68.2554C36.5542 68.2964 36.5601 68.3389 36.5718 68.3828C36.5835 68.4268 36.6025 68.4678 36.6289 68.5059C36.6582 68.5439 36.6963 68.5747 36.7432 68.5981C36.79 68.6216 36.8472 68.6333 36.9146 68.6333H37.7407V70H36.6245C36.2993 70 36.021 69.978 35.7896 69.9341C35.561 69.8901 35.3735 69.8096 35.2271 69.6924C35.0806 69.5752 34.9736 69.4141 34.9062 69.209C34.8389 69.0039 34.8052 68.7402 34.8052 68.418V64.8716H33.9966V63.6104H34.8052V61.7207H36.5542V63.6104H37.5605ZM41.6035 63.6104V64.8716H40.5972V68.2554C40.5972 68.2964 40.603 68.3389 40.6147 68.3828C40.6265 68.4268 40.6455 68.4678 40.6719 68.5059C40.7012 68.5439 40.7393 68.5747 40.7861 68.5981C40.833 68.6216 40.8901 68.6333 40.9575 68.6333H41.7837V70H40.6675C40.3423 70 40.064 69.978 39.8325 69.9341C39.604 69.8901 39.4165 69.8096 39.27 69.6924C39.1235 69.5752 39.0166 69.4141 38.9492 69.209C38.8818 69.0039 38.8481 68.7402 38.8481 68.418V64.8716H38.0396V63.6104H38.8481V61.7207H40.5972V63.6104H41.6035ZM43.9546 67.2842C43.981 67.8408 44.1289 68.2524 44.3984 68.519C44.6709 68.7856 45.0503 68.9189 45.5366 68.9189C45.7153 68.9189 45.8838 68.894 46.042 68.8442C46.2031 68.7944 46.3452 68.73 46.4683 68.6509C46.5913 68.5718 46.6938 68.4824 46.7759 68.3828C46.8608 68.2803 46.9165 68.1777 46.9429 68.0752H48.5073C48.3813 68.459 48.2217 68.7886 48.0283 69.064C47.835 69.3364 47.6108 69.5605 47.356 69.7363C47.1011 69.9121 46.8154 70.041 46.499 70.123C46.1855 70.208 45.8472 70.2505 45.4839 70.2505C44.9741 70.2505 44.5156 70.167 44.1084 70C43.7041 69.833 43.3599 69.6001 43.0757 69.3013C42.7915 68.9995 42.5732 68.6406 42.4209 68.2246C42.2686 67.8086 42.1924 67.3501 42.1924 66.8491C42.1924 66.3687 42.2715 65.9219 42.4297 65.5088C42.5908 65.0928 42.8149 64.7324 43.1021 64.4277C43.3921 64.123 43.7393 63.8843 44.1436 63.7114C44.5479 63.5356 44.9946 63.4478 45.4839 63.4478C45.8501 63.4478 46.1841 63.4976 46.4858 63.5972C46.7905 63.6938 47.0615 63.8301 47.2988 64.0059C47.5391 64.1787 47.7471 64.3853 47.9229 64.6255C48.0986 64.8628 48.2407 65.1235 48.3491 65.4077C48.4604 65.6919 48.5381 65.9937 48.582 66.313C48.626 66.6294 48.6377 66.9531 48.6172 67.2842H43.9546ZM46.9429 66.168C46.8608 65.7168 46.6968 65.3726 46.4507 65.1353C46.2046 64.8979 45.8647 64.7793 45.4312 64.7793C45.2437 64.7793 45.0781 64.8027 44.9346 64.8496C44.791 64.8936 44.665 64.9536 44.5566 65.0298C44.4512 65.103 44.3604 65.188 44.2842 65.2847C44.2109 65.3813 44.1509 65.481 44.104 65.5835C44.0571 65.686 44.022 65.7886 43.9985 65.8911C43.9751 65.9907 43.9604 66.083 43.9546 66.168H46.9429ZM51.2539 63.6104V64.4761C51.3711 64.3237 51.5059 64.186 51.6582 64.063C51.8105 63.937 51.979 63.8301 52.1636 63.7422C52.3481 63.6543 52.5474 63.5884 52.7612 63.5444C52.978 63.5005 53.208 63.48 53.4512 63.4829V65.1924C53.0498 65.1719 52.7129 65.2056 52.4404 65.2935C52.168 65.3784 51.9482 65.5088 51.7812 65.6846C51.6143 65.8574 51.4941 66.0698 51.4209 66.3218C51.3477 66.5708 51.311 66.8491 51.311 67.1567V70H49.562V63.6104H51.2539Z" fill="white"/>
<defs>
<clipPath id="clip0">
<rect width="20" height="16.2491" fill="white" transform="translate(24 17)"/>
</clipPath>
</defs>
</svg>
