<svg width="18" height="18" viewBox="0 0 18 18" fill="none" xmlns="http://www.w3.org/2000/svg">
<path d="M17.44 14.7392C18.1867 15.4862 18.1867 16.693 17.44 17.44C17.0676 17.8125 16.5787 17.9996 16.0894 17.9996C15.6005 17.9996 15.1116 17.8125 14.7392 17.44L9 11.7005L3.26083 17.44C2.88838 17.8125 2.39948 17.9996 1.91058 17.9996C1.42133 17.9996 0.932427 17.8125 0.559981 17.44C-0.18666 16.693 -0.18666 15.4862 0.559981 14.7392L6.2995 9L0.559981 3.26083C-0.18666 2.51384 -0.18666 1.30697 0.559981 0.559981C1.30697 -0.18666 2.51384 -0.18666 3.26083 0.559981L9 6.2995L14.7392 0.559981C15.4862 -0.18666 16.693 -0.18666 17.44 0.559981C18.1867 1.30697 18.1867 2.51384 17.44 3.26083L11.7005 9L17.44 14.7392Z" fill="#FAFAFA"/>
</svg>
