<svg width="21" height="20" viewBox="0 0 21 20" fill="none" xmlns="http://www.w3.org/2000/svg">
<path d="M19.8984 16.3769C20.7302 17.2068 20.7302 18.5478 19.8984 19.3778C19.4835 19.7916 18.9388 19.9995 18.3937 19.9995C17.849 19.9995 17.3043 19.7916 16.8894 19.3778L10.4953 13.0006L4.10124 19.3778C3.68629 19.7916 3.14161 19.9995 2.59692 19.9995C2.05184 19.9995 1.50715 19.7916 1.0922 19.3778C0.260363 18.5478 0.260363 17.2068 1.0922 16.3769L7.48665 10L1.0922 3.62314C0.260363 2.79315 0.260363 1.45219 1.0922 0.622201C1.92443 -0.2074 3.26901 -0.2074 4.10124 0.622201L10.4953 6.99945L16.8894 0.622201C17.7216 -0.2074 19.0662 -0.2074 19.8984 0.622201C20.7302 1.45219 20.7302 2.79315 19.8984 3.62314L13.5039 10L19.8984 16.3769Z" fill="black"/>
</svg>
