<svg width="33" height="33" viewBox="0 0 33 33" fill="none" xmlns="http://www.w3.org/2000/svg">
<path d="M28.4387 32.9999H4.56184C3.564 32.9999 2.77999 32.2021 2.77999 31.1867V15.9559H1.78215C0.998128 15.9559 0.356659 15.4482 0.0715618 14.723C-0.213535 13.9977 0.0715618 13.1999 0.641756 12.6922L15.3955 0.362533C16.037 -0.217687 17.0348 -0.217687 17.6763 0.362533L32.4301 12.6922C33.0003 13.1999 33.2141 13.9977 33.0003 14.723C32.7865 15.4482 32.0024 15.9559 31.2184 15.9559H30.2206V31.1867C30.2206 32.1296 29.4366 32.9999 28.4387 32.9999ZM6.3437 29.3735H26.7282V14.1428C26.7282 13.7076 26.8707 13.3449 27.0845 12.9823L16.5359 4.13396L5.91605 12.9823C6.12988 13.2724 6.27243 13.7076 6.27243 14.1428V29.3735H6.3437Z" fill="black"/>
<path d="M20.5275 27.9234H12.5448C11.547 27.9234 10.7629 27.1256 10.7629 26.1102C10.7629 25.0948 11.547 24.297 12.5448 24.297H20.4563C21.4541 24.297 22.2381 25.0948 22.2381 26.1102C22.2381 27.1256 21.5254 27.9234 20.5275 27.9234Z" fill="black"/>
</svg>
